<?xml version="1.0" encoding="utf-8"?>
<!-- Generator: Adobe Illustrator 23.0.3, SVG Export Plug-In . SVG Version: 6.00 Build 0)  -->
<svg version="1.1" id="Layer_1" xmlns="http://www.w3.org/2000/svg" xmlns:xlink="http://www.w3.org/1999/xlink" x="0px" y="0px"
	 viewBox="0 0 200 145.6" style="enable-background:new 0 0 200 145.6;" xml:space="preserve">
<style type="text/css">
	.st0{clip-path:url(#SVGID_2_);}
	.st1{fill:#615777;}
	.st2{fill:#2F2549;}
	.st3{fill:#120223;}
	.st4{clip-path:url(#SVGID_4_);}
	.st5{fill:#FFFFFF;}
	.st6{fill:#5C00D3;}
	.st7{clip-path:url(#SVGID_6_);}
	.st8{opacity:0.35;fill:#FFFFFF;}
	.st9{clip-path:url(#SVGID_8_);}
	.st10{fill:#81B6D3;}
	.st11{opacity:0.15;}
</style>
<g>
	<g>
		<g>
			<defs>
				<path id="SVGID_1_" d="M46.1,134.3l-18.9-32.5c-1.3-1.9-1.8-4.3-1.2-6.5L41.5,42c4.1-17,19.4-23.8,36.9-23.8l36.6,2.2
					c4.2,0.3,8.2,1.8,11.4,4.5l36.8,30.7c3.3,2.7,5.5,6.4,6.5,10.6l8.5,37.9c0.2,1.7,0,3.3-0.8,4.8l-9.6,24.4
					c-1.4,2.7-4.2,4.5-7.3,4.5H52.8C50.1,137.8,47.6,136.5,46.1,134.3z"/>
			</defs>
			<use xlink:href="#SVGID_1_"  style="overflow:visible;fill:#44375E;"/>
			<clipPath id="SVGID_2_">
				<use xlink:href="#SVGID_1_"  style="overflow:visible;"/>
			</clipPath>
			<g class="st0">
				<path class="st1" d="M137,28.6c-11.5-1.3-56.9-6.3-66.4,1.3C59.7,38.6,51.1,91,51.1,96.2c0,4.3,7.2,28.4,9.6,36.4l-9.5,5.2
					c-2.7,0-14.1-3-15.6-5.2l-15.6-26c-1.3-1.9-3.1-8.2-2.6-10.4L35.6,39c4.1-17,21.5-26,39-26h28.6c2.6,0,14.1-2.1,15.6,0L137,28.6
					z"/>
				<path class="st2" d="M181.2,109.2l-7.8,20.8c-1.4,2.7-4.7,7.8-7.8,7.8l-76.5-5.2c20.5-2.9,45.3-5.2,54.3-6.5
					c12.9-1.9,17-9.1,16.9-16.9c-0.1-5.2,0-18.2-5.2-23.4c-5.2-5.2-14.3-3.9-27.3-6.5s-18.2-28.6-15.6-33.8
					c1.7-3.5,19-18.6,22.2-22.1L165.6,52c6.7,2.1,5.7,17.4,6.8,24.3l11.4,25.1C184.1,103,182,107.7,181.2,109.2z"/>
				<polygon class="st3" points="43.4,140.4 170.8,140.4 173.4,132.6 35.6,132.6 				"/>
			</g>
		</g>
		<g>
			<defs>
				<polygon id="SVGID_3_" points="141,49 90,46 44,48 49,88.2 139.5,88.2 				"/>
			</defs>
			<clipPath id="SVGID_4_">
				<use xlink:href="#SVGID_3_"  style="overflow:visible;"/>
			</clipPath>
			<g class="st4">
				<circle class="st5" cx="68.8" cy="68.4" r="17"/>
				<circle class="st3" cx="68.8" cy="68.4" r="8.5"/>
				<circle class="st5" cx="116.9" cy="68.4" r="17"/>
				<circle class="st3" cx="116.9" cy="68.4" r="8.5"/>
				<circle class="st6" cx="68.8" cy="68.4" r="3.3"/>
				<circle class="st6" cx="116.9" cy="68.4" r="3.3"/>
			</g>
		</g>
		<g>
			<defs>
				<polygon id="SVGID_5_" points="136.7,56 43.1,55.7 43.1,44.2 136.7,44.2 				"/>
			</defs>
			<clipPath id="SVGID_6_">
				<use xlink:href="#SVGID_5_"  style="overflow:visible;"/>
			</clipPath>
			<g class="st7">
				<circle class="st1" cx="68.8" cy="68.4" r="17"/>
				<circle class="st1" cx="116.9" cy="68.4" r="17"/>
			</g>
		</g>
		<path class="st8" d="M49.6,42.2c-0.2,0-0.5,0-0.7-0.1c-1-0.4-1.5-1.5-1.1-2.5c0.2-0.6,5.8-14,19.6-16.8c1.1-0.2,2.1,0.5,2.3,1.5
			c0.2,1.1-0.5,2.1-1.5,2.3C56.3,29,51.4,40.9,51.4,41C51.1,41.8,50.4,42.2,49.6,42.2z"/>
		<g>
			<defs>
				<polygon id="SVGID_7_" points="49.1,79 142.7,79.3 142.7,93 49.1,93 				"/>
			</defs>
			<clipPath id="SVGID_8_">
				<use xlink:href="#SVGID_7_"  style="overflow:visible;"/>
			</clipPath>
			<g class="st9">
				<circle class="st10" cx="116.9" cy="68.7" r="17"/>
				<circle class="st10" cx="68.9" cy="68.7" r="17"/>
			</g>
		</g>
	</g>
</g>
<g class="st11">
	<path d="M168.1,141.8h-123c-2.3,0-4.1-1.8-4.1-4.1v0c0-2.3,1.8-4.1,4.1-4.1h123c2.3,0,4.1,1.8,4.1,4.1v0
		C172.2,140,170.4,141.8,168.1,141.8z"/>
</g>
<path class="st10" d="M132,97.2c0,1.7-1.3,3-3,3c-1.7,0-3-1.3-3-3s3-5.5,3-5.5S132,95.6,132,97.2z"/>
</svg>
