<?xml version="1.0" encoding="utf-8"?>
<!-- Generator: Adobe Illustrator 23.0.6, SVG Export Plug-In . SVG Version: 6.00 Build 0)  -->
<!DOCTYPE svg PUBLIC "-//W3C//DTD SVG 1.1//EN" "http://www.w3.org/Graphics/SVG/1.1/DTD/svg11.dtd" [
  <!ENTITY ns_extend "http://ns.adobe.com/Extensibility/1.0/">
  <!ENTITY ns_ai "http://ns.adobe.com/AdobeIllustrator/10.0/">
  <!ENTITY ns_graphs "http://ns.adobe.com/Graphs/1.0/">
  <!ENTITY ns_vars "http://ns.adobe.com/Variables/1.0/">
  <!ENTITY ns_imrep "http://ns.adobe.com/ImageReplacement/1.0/">
  <!ENTITY ns_sfw "http://ns.adobe.com/SaveForWeb/1.0/">
  <!ENTITY ns_custom "http://ns.adobe.com/GenericCustomNamespace/1.0/">
  <!ENTITY ns_adobe_xpath "http://ns.adobe.com/XPath/1.0/">
]>
<svg version="1.1" id="Layer_1" xmlns:x="&ns_extend;" xmlns:i="&ns_ai;" xmlns:graph="&ns_graphs;"
   xmlns="http://www.w3.org/2000/svg" xmlns:xlink="http://www.w3.org/1999/xlink" x="0px" y="0px" viewBox="0 0 30 30"
   style="enable-background:new 0 0 30 30;" xml:space="preserve">
<style type="text/css">
  .st0{fill:#FFFFFF;}
</style>
<metadata>
  <sfw  xmlns="&ns_sfw;">
    <slices></slices>
    <sliceSourceBounds  bottomLeftOrigin="true" height="24" width="24" x="0" y="0"></sliceSourceBounds>
  </sfw>
</metadata>
<g>
  <path class="st0" d="M18.9,15.1c0-2.4-1.7-4-3.9-4c-2.3,0-3.9,1.6-3.9,4s1.7,4,3.9,4C17.3,19.1,18.9,17.4,18.9,15.1z"/>
  <path class="st0" d="M3,3v24h24V3H3z M19.1,24.3c-1.9,0-3.2-0.7-5.1-2.7c-3.5-0.4-5.9-3-5.9-6.5c0-3.8,2.9-6.6,6.9-6.6
    s6.9,2.8,6.9,6.5c0,3-1.8,5.3-4.5,6.2c0.6,0.6,1.2,0.9,1.8,0.9c0.8,0,1.5-0.3,2.1-0.9l1.3,1.5C21.7,23.7,20.5,24.3,19.1,24.3z"/>
</g>
</svg>
