<?xml version="1.0" encoding="utf-8"?>
<!-- Generator: Adobe Illustrator 23.0.6, SVG Export Plug-In . SVG Version: 6.00 Build 0)  -->
<!DOCTYPE svg PUBLIC "-//W3C//DTD SVG 1.1//EN" "http://www.w3.org/Graphics/SVG/1.1/DTD/svg11.dtd" [
  <!ENTITY ns_extend "http://ns.adobe.com/Extensibility/1.0/">
  <!ENTITY ns_ai "http://ns.adobe.com/AdobeIllustrator/10.0/">
  <!ENTITY ns_graphs "http://ns.adobe.com/Graphs/1.0/">
  <!ENTITY ns_vars "http://ns.adobe.com/Variables/1.0/">
  <!ENTITY ns_imrep "http://ns.adobe.com/ImageReplacement/1.0/">
  <!ENTITY ns_sfw "http://ns.adobe.com/SaveForWeb/1.0/">
  <!ENTITY ns_custom "http://ns.adobe.com/GenericCustomNamespace/1.0/">
  <!ENTITY ns_adobe_xpath "http://ns.adobe.com/XPath/1.0/">
]>
<svg version="1.1" id="Layer_1" xmlns:x="&ns_extend;" xmlns:i="&ns_ai;" xmlns:graph="&ns_graphs;"
   xmlns="http://www.w3.org/2000/svg" xmlns:xlink="http://www.w3.org/1999/xlink" x="0px" y="0px" viewBox="0 0 25 13"
   style="enable-background:new 0 0 25 13;" xml:space="preserve">
<style type="text/css">
  .st0{fill:#FF0055;}
</style>
<metadata>
  <sfw  xmlns="&ns_sfw;">
    <slices></slices>
    <sliceSourceBounds  bottomLeftOrigin="true" height="12" width="24.6" x="2" y="-21.5"></sliceSourceBounds>
  </sfw>
</metadata>
<g>
  <g>
    <path class="st0" d="M18.6,3.5c1.7,0,3,1.3,3,3s-1.3,3-3,3s-3-1.3-3-3S17,3.5,18.6,3.5 M18.6,0.5c-3.3,0-6,2.7-6,6s2.7,6,6,6
      s6-2.7,6-6S22,0.5,18.6,0.5L18.6,0.5z"/>
  </g>
  <g>
    <polygon class="st0" points="14.4,5 0,5 0,8 14.4,8 14.4,5     "/>
  </g>
  <g>
    <polygon class="st0" points="5,2 0,2 0,6 5,6 5,2     "/>
  </g>
</g>
</svg>
