<?xml version="1.0" encoding="utf-8"?>
<!-- Generator: Adobe Illustrator 23.0.3, SVG Export Plug-In . SVG Version: 6.00 Build 0)  -->
<svg version="1.1" id="Layer_1" xmlns="http://www.w3.org/2000/svg" xmlns:xlink="http://www.w3.org/1999/xlink" x="0px" y="0px"
	 viewBox="0 0 500 500" style="enable-background:new 0 0 500 500;" xml:space="preserve">
<style type="text/css">
	.st0{opacity:0.15;}
	.st1{clip-path:url(#SVGID_2_);}
	.st2{fill:#615777;}
	.st3{fill:#2F2549;}
	.st4{fill:#120223;}
	.st5{clip-path:url(#SVGID_4_);}
	.st6{fill:#FFFFFF;}
	.st7{fill:#5C00D3;}
	.st8{clip-path:url(#SVGID_6_);}
	.st9{opacity:0.35;fill:#FFFFFF;}
	.st10{clip-path:url(#SVGID_8_);}
	.st11{clip-path:url(#SVGID_10_);}
	.st12{clip-path:url(#SVGID_12_);}
	.st13{clip-path:url(#SVGID_14_);}
	.st14{clip-path:url(#SVGID_16_);}
	.st15{clip-path:url(#SVGID_18_);}
	.st16{clip-path:url(#SVGID_20_);}
	.st17{clip-path:url(#SVGID_22_);}
	.st18{clip-path:url(#SVGID_24_);}
	.st19{clip-path:url(#SVGID_26_);}
	.st20{clip-path:url(#SVGID_28_);}
	.st21{clip-path:url(#SVGID_30_);}
	.st22{clip-path:url(#SVGID_32_);}
</style>
<g class="st0">
	<path d="M64.1,343c0,0-15.6,2-13.5,7s20.6,10,33.8,9.4c13.2-0.6,29.5-1.8,35.8,0.1c6.3,1.8,7.2,10.9,36.4,11.9
		c29.2,0.9,50.6-6.7,60.8-4.6c10.2,2.1,12.4,4.9,41.7,7.8c29.3,2.8,68.7,1.9,80.1-4.1c11.4-6,0.3-16.5,16.2-17.1s56.7,5.8,73.6,1.7
		c16.9-4.1,25.1-11,20.1-15.1c-5-4.1-140.9-10.7-140.9-10.7H129.6C129.6,329.4,95.2,333.3,64.1,343z"/>
</g>
<g>
	<g>
		<g>
			<g>
				<defs>
					<path id="SVGID_1_" d="M150.3,192.6L137.7,171c-0.9-1.3-1.2-2.9-0.8-4.4l10.3-35.5c2.8-11.4,12.9-15.9,24.6-15.9l24.4,1.5
						c2.8,0.2,5.4,1.2,7.6,3l24.6,20.5c2.2,1.8,3.7,4.3,4.3,7.1l5.7,25.3c0.2,1.1,0,2.2-0.5,3.2l-6.4,16.3c-0.9,1.8-2.8,3-4.8,3
						h-71.9C153,195,151.3,194.1,150.3,192.6z"/>
				</defs>
				<use xlink:href="#SVGID_1_"  style="overflow:visible;fill:#44375E;"/>
				<clipPath id="SVGID_2_">
					<use xlink:href="#SVGID_1_"  style="overflow:visible;"/>
				</clipPath>
				<g class="st1">
					<path class="st2" d="M211,122.1c-7.7-0.9-38-4.2-44.3,0.9c-7.3,5.8-13,40.8-13,44.2c0,2.9,4.8,19,6.4,24.3l-6.3,3.5
						c-1.8,0-9.4-2-10.4-3.5l-10.4-17.3c-0.9-1.3-2.1-5.4-1.7-6.9l12.1-38.2c2.8-11.3,14.3-17.3,26-17.3h19.1c1.7,0,9.4-1.4,10.4,0
						L211,122.1z"/>
					<path class="st3" d="M240.5,175.9l-5.2,13.9c-0.9,1.8-3.2,5.2-5.2,5.2l-51.1-3.5c13.7-2,30.3-3.5,36.3-4.3
						c8.6-1.2,11.3-6.1,11.3-11.3c0-3.5,0-12.1-3.5-15.6c-3.5-3.5-9.5-2.6-18.2-4.3c-8.7-1.7-12.1-19.1-10.4-22.5
						c1.2-2.3,12.6-12.4,14.8-14.7l20.8,19.1c4.5,1.4,3.8,11.6,4.5,16.2l7.6,16.7C242.4,171.8,241,174.9,240.5,175.9z"/>
					<polygon class="st4" points="148.5,196.7 233.5,196.7 235.3,191.5 143.3,191.5 					"/>
				</g>
			</g>
			<g>
				<defs>
					<polygon id="SVGID_3_" points="212.6,146.4 150.2,146.4 152.3,161.9 212.6,161.9 					"/>
				</defs>
				<clipPath id="SVGID_4_">
					<use xlink:href="#SVGID_3_"  style="overflow:visible;"/>
				</clipPath>
				<g class="st5">
					<circle class="st6" cx="165.5" cy="148.7" r="11.3"/>
					<circle class="st4" cx="165.5" cy="148.7" r="5.7"/>
					<circle class="st6" cx="197.6" cy="148.7" r="11.3"/>
					<circle class="st4" cx="197.6" cy="148.7" r="5.7"/>
					<circle class="st7" cx="165.5" cy="148.7" r="2.2"/>
					<circle class="st7" cx="197.6" cy="148.7" r="2.2"/>
				</g>
			</g>
			<g>
				<defs>
					<rect id="SVGID_5_" x="148.3" y="132.5" width="62.4" height="15"/>
				</defs>
				<clipPath id="SVGID_6_">
					<use xlink:href="#SVGID_5_"  style="overflow:visible;"/>
				</clipPath>
				<g class="st8">
					<circle class="st2" cx="165.5" cy="148.7" r="11.3"/>
					<circle class="st2" cx="197.6" cy="148.7" r="11.3"/>
				</g>
			</g>
			<path class="st9" d="M152.7,131.2c-0.2,0-0.3,0-0.5-0.1c-0.7-0.3-1-1-0.7-1.7c0.2-0.4,3.8-9.3,13.1-11.2c0.7-0.1,1.4,0.3,1.5,1
				c0.1,0.7-0.3,1.4-1,1.5c-7.9,1.6-11.2,9.5-11.2,9.6C153.7,130.9,153.2,131.2,152.7,131.2z"/>
		</g>
		<g>
			<g>
				<defs>
					<path id="SVGID_7_" d="M96.3,239.3l-10.4-19.7c-0.8-1.2-0.9-2.5-0.3-3.7l14.3-28.2c4-9.1,14.8-11.5,26.6-10l24.5,4.4
						c2.8,0.5,5.4,1.7,7.4,3.5l22.6,20.2c2,1.8,3.3,4.1,3.6,6.4l3,21.7c0,0.9-0.3,1.8-0.9,2.6l-8.2,12.7c-1.1,1.4-3.1,2.1-5.2,1.9
						l-72.6-9.4C98.7,241.5,97.1,240.6,96.3,239.3z"/>
				</defs>
				<use xlink:href="#SVGID_7_"  style="overflow:visible;fill:#44375E;"/>
				<clipPath id="SVGID_8_">
					<use xlink:href="#SVGID_7_"  style="overflow:visible;"/>
				</clipPath>
				<g class="st10">
					<path class="st2" d="M167.1,185.7c-7.7-1.7-43.7-6.2-50.7-2.9c-8,3.9-10.2,40.3-10.6,43.2c-0.3,2.4,1.3,6,2.3,10.6l-6.8,5.4
						c-1.8-0.2-9.3-6.3-10.1-7.6l-8.7-15.8c-0.8-1.2-1.5-4.8-1-6l16.4-30.1c4-9.1,16.3-12.5,28.2-11l19.3,2.5
						c1.7,0.2,9.7,0.1,10.5,1.4L167.1,185.7z"/>
					<path class="st3" d="M189.2,237.1l-6.8,10.8c-1.1,1.4-3.8,3.9-5.8,3.6l-51.2-9.6c14,0.2,4.1,14.7,10.2,14.7
						c8.8,0.1,4.3,9.6,4.8,5.3c0.3-2.9-8.4,1.4-11.5-1.9c-3.1-3.3-6.2-25-3.8-32.2c2.8-8.5,14.4-26.4,22.2-32.2
						c1.8-1.4,14.1-8.7,16.6-10.3l19,18.6c4.4,1.7,2.6,10.1,2.8,14.1l5.9,14.9C191.5,234,189.8,236.4,189.2,237.1z"/>
				</g>
			</g>
			<path class="st9" d="M105.2,188.5c-0.2,0-0.3-0.1-0.5-0.1c-0.6-0.3-0.9-1-0.6-1.5c0.2-0.3,4.9-7.3,14.4-7.6c0.7,0,1.4,0.4,1.4,1
				c0.1,0.6-0.5,1.1-1.2,1.1c-8.1,0.3-12.3,6.5-12.3,6.5C106.3,188.4,105.7,188.6,105.2,188.5z"/>
		</g>
		<g>
			<g>
				<defs>
					<path id="SVGID_9_" d="M211,263.3l-6.2-33.1c-0.5-2-0.3-4.2,0.7-6.1l24.7-44.8c7.3-14.5,20.4-17.5,33.5-13.9l26.9,9.5
						c3.1,1.1,5.7,3.3,7.4,6.4l20.1,35.1c1.8,3.1,2.6,6.9,2.3,10.9l-2.9,35.8c-0.2,1.5-0.8,3-1.8,4.2l-13.2,20
						c-1.7,2.2-4.2,3.2-6.5,2.6l-80.8-22C213.2,267.3,211.6,265.6,211,263.3z"/>
				</defs>
				<use xlink:href="#SVGID_9_"  style="overflow:visible;fill:#44375E;"/>
				<clipPath id="SVGID_10_">
					<use xlink:href="#SVGID_9_"  style="overflow:visible;"/>
				</clipPath>
				<g class="st11">
					<path class="st2" d="M305.2,186.7c-8.3-3.5-41.1-17.3-50.1-12.4c-10.4,5.6-29.6,51-30.9,55.7c-1.1,3.9-1.6,27.1-1.7,34.7
						l-8.4,2.7c-2-0.5-9.8-5.6-10.4-7.9l-5.3-26.6c-0.5-2-0.4-8,0.6-9.9l27.7-47.8c7.3-14.5,22.5-19,35.6-15.4l21.4,5.8
						c1.9,0.5,11.1,1,11.7,3.2L305.2,186.7z"/>
					<path class="st3" d="M318.5,268.3l-11,17.1c-1.7,2.2-5.5,6.1-7.8,5.4l-56.1-20.3c16.1,1.5,35.3,4.6,42.3,5.2
						c10.1,1,15-4.7,16.8-11.8c1.2-4.7,4.5-16.4,1.8-22.1c-2.6-5.7-9.8-6.4-18.9-11.4c-9.1-5-6.6-29.5-3.4-33.6
						c2.2-2.8,18.8-12.9,22.1-15.4l16.4,32.1c4.5,3.2,0,16.8-0.9,23.3l2.4,24.9C322.2,263.4,319.5,267.1,318.5,268.3z"/>
				</g>
			</g>
			<path class="st9" d="M237.1,181.8c-0.2,0-0.3,0-0.5-0.1c-0.7-0.3-1-1-0.7-1.7c0.2-0.4,3.8-9.3,13.1-11.2c0.7-0.1,1.4,0.3,1.5,1
				c0.1,0.7-0.3,1.4-1,1.5c-7.9,1.6-11.2,9.5-11.2,9.6C238.1,181.5,237.6,181.8,237.1,181.8z"/>
			<g>
				<g>
					<defs>
						<path id="SVGID_11_" d="M172.7,255.1l-12.6-18.3c-0.9-1.1-1.2-2.4-1-3.8l5.9-32.4c1.4-10.3,9.7-15.1,19.7-16.1l21-0.6
							c2.4-0.1,4.8,0.7,6.7,2.1l22.7,16.3c2,1.4,3.5,3.5,4.3,6l6.9,22c0.2,1,0.2,2-0.2,2.9l-4.1,15c-0.6,1.7-2.1,2.9-3.9,3
							l-61.4,5.7C175.2,257,173.7,256.3,172.7,255.1z"/>
					</defs>
					<use xlink:href="#SVGID_11_"  style="overflow:visible;fill:#44375E;"/>
					<clipPath id="SVGID_12_">
						<use xlink:href="#SVGID_11_"  style="overflow:visible;"/>
					</clipPath>
					<g class="st12">
						<path class="st2" d="M218.7,187.6c-6.6-0.2-32.8-0.7-37.8,4.3c-5.8,5.8-7.8,37.3-7.5,40.4c0.2,2.6,5.6,16.5,7.5,21.1l-5.1,3.6
							c-1.5,0.1-8.2-1-9.2-2.3L156.3,240c-0.9-1.1-2.2-4.7-2.1-6l7.2-34.9c1.4-10.3,10.8-16.6,20.8-17.5l16.3-1.5
							c1.5-0.1,7.9-2,8.9-0.8L218.7,187.6z"/>
						<path class="st3" d="M248.3,233.1l-3.3,12.8c-0.6,1.7-2.3,4.9-4,5l-43.9,0.9c11.5-2.8,25.6-5.5,30.6-6.7
							c7.2-1.8-8.6,11.2-9.1,6.6c-0.3-3.1,12-12,10.6-20.2c-0.7-4.2-0.5-9.1-8.6-15.8c-5.9-4.8-16.2-13.6-15-16.8
							c0.8-2.2,9.8-12.1,11.4-14.3l19.3,15.3c3.9,0.9,4.2,10,5.2,14.1l7.9,14.3C249.6,229.3,248.6,232.2,248.3,233.1z"/>
						<polygon class="st4" points="171.5,258.9 244.1,252.2 245.1,247.4 166.6,254.6 						"/>
					</g>
				</g>
				<path class="st9" d="M169.6,200.3c-0.1,0-0.3,0-0.4,0c-0.6-0.2-0.9-0.8-0.8-1.4c0.1-0.4,2.5-8.6,10.3-11
					c0.6-0.2,1.2,0.2,1.4,0.8c0.2,0.6-0.2,1.3-0.7,1.4c-6.6,2-8.7,9.4-8.8,9.4C170.4,199.9,170.1,200.2,169.6,200.3z"/>
			</g>
		</g>
		<g>
			<g>
				<defs>
					<path id="SVGID_13_" d="M246.9,302.1L236,283.3c-0.8-1.1-1-2.5-0.7-3.8l9-30.8c2.4-9.9,11.2-13.8,21.4-13.8l21.2,1.3
						c2.4,0.1,4.7,1.1,6.6,2.6l21.3,17.8c1.9,1.6,3.2,3.7,3.7,6.1l4.9,21.9c0.1,1,0,1.9-0.4,2.8l-5.6,14.1c-0.8,1.6-2.4,2.6-4.2,2.6
						h-62.4C249.3,304.1,247.8,303.4,246.9,302.1z"/>
				</defs>
				<use xlink:href="#SVGID_13_"  style="overflow:visible;fill:#44375E;"/>
				<clipPath id="SVGID_14_">
					<use xlink:href="#SVGID_13_"  style="overflow:visible;"/>
				</clipPath>
				<g class="st13">
					<path class="st2" d="M299.6,240.9c-6.7-0.8-32.9-3.6-38.4,0.8c-6.3,5.1-11.3,35.4-11.3,38.4c0,2.5,4.2,16.4,5.6,21.1l-5.5,3
						c-1.5,0-8.2-1.7-9-3l-9-15c-0.8-1.1-1.8-4.7-1.5-6l10.5-33.1c2.4-9.8,12.4-15,22.6-15H280c1.5,0,8.2-1.2,9,0L299.6,240.9z"/>
					<path class="st3" d="M325.1,287.6l-4.5,12c-0.8,1.6-2.7,4.5-4.5,4.5l-44.3-3c11.9-1.7,26.2-3,31.5-3.8c7.4-1.1,9.8-5.3,9.8-9.8
						c0-3,3.1,3.1,0.1,0.1c-3-3-10.2-5.7-17.8-7.2s-11.7-26.8-10.1-29.8c1-2,11-10.8,12.9-12.8l18.1,16.6c3.9,1.2,3.3,10.1,3.9,14.1
						l6.6,14.5C326.8,284,325.6,286.7,325.1,287.6z"/>
					<polygon class="st4" points="245.4,305.6 319.1,305.6 320.6,301.1 240.9,301.1 					"/>
				</g>
			</g>
			<path class="st9" d="M249,248.8c-0.1,0-0.3,0-0.4-0.1c-0.6-0.2-0.9-0.9-0.6-1.5c0.1-0.3,3.3-8.1,11.4-9.7
				c0.6-0.1,1.2,0.3,1.3,0.9c0.1,0.6-0.3,1.2-0.9,1.3c-6.8,1.4-9.7,8.3-9.7,8.3C249.8,248.6,249.4,248.8,249,248.8z"/>
		</g>
		<g>
			<g>
				<defs>
					<path id="SVGID_15_" d="M66,307.1l-11-22.2c-0.8-1.3-1-2.9-0.7-4.5l9-36.4c2.4-11.6,11.3-16.3,21.5-16.3l21.4,1.5
						c2.4,0.2,4.8,1.3,6.6,3.1l21.5,21c1.9,1.9,3.2,4.4,3.8,7.2l5,25.9c0.1,1.1,0,2.3-0.4,3.3l-5.6,16.7c-0.8,1.9-2.4,3.1-4.2,3.1
						l-45.1,17C86.2,326.5,66.9,308.6,66,307.1z"/>
				</defs>
				<use xlink:href="#SVGID_15_"  style="overflow:visible;fill:#2F2549;"/>
				<clipPath id="SVGID_16_">
					<use xlink:href="#SVGID_15_"  style="overflow:visible;"/>
				</clipPath>
				<g class="st14">
					<path class="st2" d="M119.1,234.9c-6.7-0.9-33.2-4.3-38.8,0.9c-6.4,6-11.4,41.7-11.4,45.3c0,2.9,4.2,19.4,5.6,24.9l-5.6,3.6
						c-1.5,0-8.2-2.1-9.1-3.6l-9.1-17.8c-0.8-1.3-1.8-5.6-1.5-7.1L59.9,242c2.4-11.6,12.5-17.8,22.8-17.8h16.7c1.5,0,8.2-1.4,9.1,0
						L119.1,234.9z"/>
					<polygon class="st4" points="64.5,311.3 138.8,311.3 140.3,305.9 59.9,305.9 					"/>
				</g>
			</g>
			<path class="st9" d="M68,244.2c-0.1,0-0.3,0-0.4-0.1c-0.6-0.3-0.9-1-0.6-1.7c0.1-0.4,3.4-9.6,11.5-11.5c0.6-0.1,1.2,0.3,1.3,1
				c0.1,0.7-0.3,1.4-0.9,1.6c-6.9,1.6-9.8,9.8-9.8,9.8C68.9,243.9,68.5,244.2,68,244.2z"/>
		</g>
		<g>
			<g>
				<defs>
					<path id="SVGID_17_" d="M107.4,327.5l-19.1-21.7c-1.3-1.2-2-3-2-4.8l1.7-43.1c0-13.7,9.6-21.3,22.1-24.1l26.4-4.2
						c3-0.5,6.1,0.1,8.9,1.6l31.5,17.4c2.8,1.5,5.1,4,6.4,7L196,283c0.5,1.2,0.6,2.5,0.3,3.8l-2.6,20.2c-0.5,2.3-2.2,4.1-4.4,4.6
						l-76.5,17.5C110.9,329.5,108.9,328.9,107.4,327.5z"/>
				</defs>
				<use xlink:href="#SVGID_17_"  style="overflow:visible;fill:#44375E;"/>
				<clipPath id="SVGID_18_">
					<use xlink:href="#SVGID_17_"  style="overflow:visible;"/>
				</clipPath>
				<g class="st15">
					<path class="st2" d="M153.6,232.1c-8.4,0.9-41.5,4.4-46.9,11.8c-6.3,8.4-3.2,49.8-2.3,53.7c0.8,3.3,10,20.5,13.2,26.2l-5.9,5.5
						c-1.9,0.4-10.5,0-12-1.4l-15.6-17.3c-1.3-1.2-3.7-5.7-3.7-7.5l3-46.6c0-13.6,10.7-23.3,23.2-26.2l20.3-4.6
						c1.8-0.4,9.6-3.9,11.1-2.5L153.6,232.1z"/>
					<path class="st3" d="M199,286.4l-1.9,17.1c-0.5,2.3-2,6.7-4.2,7.2l-55.3,8.4c14.1-5.6,31.3-11.3,37.5-13.8
						c8.8-3.5,10.5-9.7,9.1-15.6c-1-4-3.2-13.9-7.8-17c-4.6-3.1-13.9,16.7-23.6,16.8c-9.7,0.1-14.8-36.2-13.9-40.6
						c0.6-2.9,10.2-17.3,11.9-20.5l27.1,16.8c5.1,0.5,7.1,12.3,9.1,17.5l12.5,17.3C200,281.3,199.3,285.2,199,286.4z"/>
					<polygon class="st4" points="106.6,332.6 197.1,311.9 197.6,305.5 99.7,327.9 					"/>
				</g>
			</g>
			<path class="st9" d="M93.9,256.7c-0.2,0-0.4,0-0.5,0c-0.8-0.1-1.3-0.9-1.2-1.8c0.1-0.5,1.6-11.6,11-16c0.7-0.3,1.6,0,1.9,0.8
				c0.3,0.8,0,1.7-0.7,2c-8,3.7-9.4,13.6-9.4,13.7C94.9,256.1,94.4,256.6,93.9,256.7z"/>
		</g>
		<g>
			<g>
				<defs>
					<path id="SVGID_19_" d="M161.8,314.6l-7.7-28.2c-0.6-1.7-0.5-3.6,0.4-5.1l22.2-36.9c6.5-12,19.3-14,32.4-10.5l27.1,8.9
						c3.1,1,5.8,3,7.7,5.6l21.6,30.3c1.9,2.7,2.9,5.9,2.8,9.2l-1.1,30.1c-0.1,1.3-0.7,2.5-1.5,3.5L253.4,338c-1.6,1.8-4,2.5-6.3,1.9
						l-80.9-21.4C164.1,318,162.5,316.6,161.8,314.6z"/>
				</defs>
				<use xlink:href="#SVGID_19_"  style="overflow:visible;fill:#44375E;"/>
				<clipPath id="SVGID_20_">
					<use xlink:href="#SVGID_19_"  style="overflow:visible;"/>
				</clipPath>
				<g class="st16">
					<path class="st2" d="M251.1,253.3c-8.4-3.3-41.5-16-50.1-12.2c-10,4.4-26.8,42-27.8,45.9c-0.9,3.2-0.3,22.8,0,29.2l-8.2,2
						c-2-0.5-10-5.1-10.7-7l-6.6-22.6c-0.6-1.7-0.7-6.8,0.1-8.3l25-39.3c6.5-11.9,21.3-15.3,34.4-11.8l21.5,5.7
						c1.9,0.5,11,1.2,11.7,3.1L251.1,253.3z"/>
					<path class="st3" d="M268.3,322.6l-10,14.1c-1.6,1.8-5.1,4.9-7.4,4.3l-56.4-19.1c16,1.9,35.1,5.1,42.1,5.9
						c10,1.2,14.6-3.5,16-9.3c1-3.9,3.6-13.7,0.7-18.6c-2.9-4.9-21.2,23.1-30.4,18.6c-9.2-4.5,3.2-54,6.2-57.4
						c2-2.3,17.9-10.2,21.1-12.2l17.8,27.7c4.6,2.9,0.9,14.2,0.3,19.6l3.6,21.1C271.6,318.6,269.1,321.6,268.3,322.6z"/>
					<polygon class="st4" points="158.6,318.7 254.3,344 257.8,338.6 154.3,311.3 					"/>
				</g>
			</g>
			<path class="st9" d="M182.7,246.2c-0.2,0-0.4-0.1-0.5-0.2c-0.7-0.5-0.8-1.4-0.3-2.1c0.3-0.4,7.1-9.4,18.1-8.7
				c0.8,0,1.5,0.8,1.4,1.6c-0.1,0.8-0.8,1.5-1.6,1.4c-9.4-0.6-15.4,7.4-15.5,7.5C183.9,246.1,183.3,246.3,182.7,246.2z"/>
		</g>
		<g>
			<g>
				<defs>
					<path id="SVGID_21_" d="M64.9,345.1l-12.3-17.7c-0.9-1-1.1-2.3-0.8-3.6l10-29c2.7-9.3,12.6-13,23.9-13l23.8,1.2
						c2.7,0.1,5.3,1,7.4,2.5l23.9,16.7c2.1,1.5,3.6,3.5,4.2,5.8l5.5,20.6c0.2,0.9,0,1.8-0.5,2.6l-6.2,13.3c-0.9,1.5-2.7,2.4-4.7,2.4
						c0,0-34.1,3.3-61.2,3.3C75.7,350.4,65.9,346.3,64.9,345.1z"/>
				</defs>
				<use xlink:href="#SVGID_21_"  style="overflow:visible;fill:#44375E;"/>
				<clipPath id="SVGID_22_">
					<use xlink:href="#SVGID_21_"  style="overflow:visible;"/>
				</clipPath>
				<g class="st17">
					<path class="st2" d="M123.9,287.6c-7.5-0.7-36.9-3.4-43.1,0.7c-7.1,4.8-12.6,33.3-12.6,36.1c0,2.3,6.8,18.9,8.4,23.3l-8.3-0.6
						c-1.7,0-9.1-1.6-10.1-2.8L48,330.1c-0.9-1-2-4.4-1.7-5.7l11.8-31.1c2.7-9.3,13.9-14.2,25.3-14.2h18.5c1.7,0,9.1-1.1,10.1,0
						L123.9,287.6z"/>
					<path class="st3" d="M152.5,331.5l-4.4,18.9c-0.9,1.5-69.5,4-71.5,4L50.7,338c6.9-0.8,13.7,7,25.9,8.3
						c11.3,1.2,22.5,0,32.9-1.4c8.3-1.1,5.7-6.9-1.1-13.6c-5.5-5.5-2.3-31.7-0.6-34.5c1.1-1.9,12.3-10.1,14.4-12l20.2,15.6
						c4.3,1.1,3.7,9.5,4.4,13.2l7.4,13.6C154.4,328.1,153,330.7,152.5,331.5z"/>
				</g>
			</g>
			<path class="st9" d="M67.2,295c-0.2,0-0.3,0-0.5-0.1c-0.6-0.2-1-0.8-0.7-1.4c0.1-0.3,3.7-7.6,12.7-9.1c0.7-0.1,1.4,0.3,1.5,0.8
				c0.1,0.6-0.3,1.1-1,1.2c-7.7,1.3-10.8,7.8-10.9,7.8C68.1,294.8,67.7,295,67.2,295z"/>
		</g>
		<g>
			<g>
				<defs>
					<path id="SVGID_23_" d="M136.1,354L126,331c-0.7-1.4-0.8-3-0.3-4.4l14.3-34.1c4-11,14.7-14.3,26.3-13l24.1,4.3
						c2.8,0.5,5.3,1.8,7.2,3.9l22.1,23.1c2,2.1,3.2,4.7,3.5,7.5l2.7,25.7c0,1.1-0.3,2.2-0.9,3.1l-6.5,9.3c-1.1,1.7-3.1,2.7-5.1,2.4
						c0,0-12.1,2.3-33.2,2.1c-21.1-0.2-39.9-4.1-39.9-4.1C138.4,356.6,136.9,355.6,136.1,354z"/>
				</defs>
				<use xlink:href="#SVGID_23_"  style="overflow:visible;fill:#44375E;"/>
				<clipPath id="SVGID_24_">
					<use xlink:href="#SVGID_23_"  style="overflow:visible;"/>
				</clipPath>
				<g class="st18">
					<path class="st2" d="M204.4,290.9c-7.5-1.8-37.2-8.5-44.1-4.2c-7.9,5-17.6,39-18,42.5c-0.3,2.9,2.6,19.4,3.6,24.9l-6.7,2.7
						c-1.8-0.2-9.1-3.1-9.9-4.6l-8.4-18.4c-0.7-1.4-1.5-5.7-0.9-7.1l16.4-36.5c4-11,16.2-15.6,27.8-14.3l19,2.2
						c1.7,0.2,9.5-0.3,10.3,1.2L204.4,290.9z"/>
					<path class="st3" d="M227.5,347.6l-6.8,13.2c-16.2,9.8-82.4-1.7-84.5-2l-7.6-7.9c13.8-0.4,39.5,8.4,55.2,1.5
						c8.4-3.7,10.5-8.2,5.2-14.8c-5.6-6.9-4.6-34.3-2.5-37.5c1.4-2.2,14-10.9,16.4-13l18.5,21.3c4.3,1.9,2.5,12,2.6,16.6l5.7,17.5
						C229.9,343.8,228.1,346.7,227.5,347.6z"/>
				</g>
			</g>
			<path class="st9" d="M145.4,293.3c-0.2,0-0.3-0.1-0.5-0.1c-0.6-0.3-0.9-1.1-0.5-1.8c0.2-0.4,4.9-8.9,14.3-9.6
				c0.7-0.1,1.3,0.5,1.4,1.2c0.1,0.7-0.5,1.3-1.2,1.4c-8,0.7-12.2,8.2-12.2,8.3C146.4,293.1,145.9,293.3,145.4,293.3z"/>
		</g>
		<g>
			<g>
				<defs>
					<path id="SVGID_25_" d="M323.4,298.9l-12.6-21.7c-0.9-1.3-1.2-2.9-0.8-4.4l10-27.7c6.9-12.1,13.9-19.1,24.3-22.5
						c10.4-3.5,25.1-8.3,25.1-8.3c2.8,0.2,5.4,1.2,7.6,3l24.6,29.1c2.2,1.8,3.7,4.3,4.3,7.1l5.7,25.3c0.2,1.1,0,2.2-0.5,3.2
						l-6.4,16.3c-0.9,1.8-2.8,3-4.8,3h-71.9C326.1,301.3,324.4,300.4,323.4,298.9z"/>
				</defs>
				<use xlink:href="#SVGID_25_"  style="overflow:visible;fill:#44375E;"/>
				<clipPath id="SVGID_26_">
					<use xlink:href="#SVGID_25_"  style="overflow:visible;"/>
				</clipPath>
				<g class="st19">
					<path class="st2" d="M392.8,215.7c-22.4,1.3-39.1,9.9-52,17.3c-12.1,6.9-14,37-14,40.5c0,2.9,4.8,19,6.4,24.3l-6.3,3.5
						c-1.8,0-9.4-2-10.4-3.5L306,280.4c-0.9-1.3-2.1-5.4-1.7-6.9l12.1-38.2c2.8-11.3,14.3-17.3,26-17.3l19.1-14.5
						c1.7,0,9.3,13.1,25.1,12.3L392.8,215.7z"/>
					<path class="st3" d="M413.6,282.2l-5.2,13.9c-0.9,1.8-3.2,5.2-5.2,5.2l-51.1-3.5c13.7-2,30.3-3.5,36.3-4.3
						c8.6-1.2,11.3-6.1,11.3-11.3c0-3.5,0-12.1-3.5-15.6c-3.5-3.5-9.5-2.6-18.2-4.3c-8.7-1.7-12.1-19.1-10.4-22.5
						c1.2-2.3,16.2-11.3,18.3-13.6l17.3,17.9c4.5,1.4,3.8,11.6,4.5,16.2l7.6,16.7C415.5,278.1,414.1,281.2,413.6,282.2z"/>
					<polygon class="st4" points="321.6,303 406.6,303 408.4,297.8 316.4,297.8 					"/>
				</g>
			</g>
		</g>
		<g>
			<g>
				<defs>
					<path id="SVGID_27_" d="M361.6,339.9l-9-20.8c-0.7-1.2-0.7-2.7-0.3-4l13.1-30.7c3.7-9.9,13.3-12.8,23.8-11.6l21.7,4
						c2.5,0.5,4.7,1.7,6.5,3.5l19.8,21c1.8,1.9,2.8,4.3,3.1,6.8l2.3,23.2c0,1-0.3,2-0.8,2.8l-4.1,7.3c-1,1.5-2.8,2.4-4.7,2.2
						c0,0-16,2.3-35.7,2.3c-19.7,0-32.1-3.5-32.1-3.5C363.8,342.3,362.4,341.3,361.6,339.9z"/>
				</defs>
				<use xlink:href="#SVGID_27_"  style="overflow:visible;fill:#44375E;"/>
				<clipPath id="SVGID_28_">
					<use xlink:href="#SVGID_27_"  style="overflow:visible;"/>
				</clipPath>
				<g class="st20">
					<path class="st2" d="M423.6,283.3c-6.8-1.6-33.6-7.9-39.8-4c-7.2,4.4-16.1,35.1-16.4,38.2c-0.3,2.6-6.6,17.5-5.8,22.4l2.8,2.5
						c-1.6-0.2-8.2-2.8-8.9-4.2l-7.4-16.7c-0.7-1.2-1.3-5.1-0.8-6.4l15-32.9c3.7-9.9,14.7-14,25.2-12.7l17.1,2.1
						c1.5,0.2,8.6-0.2,9.3,1.1L423.6,283.3z"/>
					<path class="st3" d="M444.2,334.6l-6.2,11.9c-1,1.5-92.2,4.7-94.1,4.4l0.7-13.3c12.5-0.3,50.3,0.3,55.8,0.2
						c7.8-0.2,18.2-11.7,14-24.8c-2.4-7.6-8.8-18.4-6.9-21.3c1.3-2,12.7-9.8,14.9-11.6l16.6,19.3c3.8,1.7,2.2,10.8,2.3,15l5,15.8
						C446.4,331.2,444.8,333.8,444.2,334.6z"/>
				</g>
			</g>
			<path class="st9" d="M370.4,285.1c-0.1,0-0.3-0.1-0.4-0.1c-0.6-0.3-0.8-1-0.5-1.6c0.2-0.3,4.4-8,12.9-8.6
				c0.6-0.1,1.2,0.4,1.3,1.1c0.1,0.6-0.4,1.2-1.1,1.3c-7.2,0.6-11,7.3-11.1,7.4C371.3,284.9,370.8,285.2,370.4,285.1z"/>
		</g>
		<g>
			<g>
				<defs>
					<path id="SVGID_29_" d="M303.8,340.8l-9.6-16.5c-0.7-1-0.9-2.2-0.6-3.3l7.8-27c2.1-8.6,9.8-12.1,18.7-12.1l18.6,1.1
						c2.1,0.1,4.1,0.9,5.8,2.3l18.6,15.5c1.7,1.4,2.8,3.3,3.3,5.4l4.3,19.2c0.1,0.8,0,1.7-0.4,2.4l-4.9,12.4
						c-0.7,1.4-2.1,2.3-3.7,2.3h-54.6C305.8,342.5,304.5,341.9,303.8,340.8z"/>
				</defs>
				<use xlink:href="#SVGID_29_"  style="overflow:visible;fill:#44375E;"/>
				<clipPath id="SVGID_30_">
					<use xlink:href="#SVGID_29_"  style="overflow:visible;"/>
				</clipPath>
				<g class="st21">
					<path class="st2" d="M349.8,287.2c-5.8-0.7-28.8-3.2-33.6,0.7c-5.5,4.4-9.9,31-9.9,33.6c0,2.2,3.6,14.4,4.9,18.4l-4.8,2.6
						c-1.3,0-7.1-1.5-7.9-2.6l-7.9-13.2c-0.7-1-1.6-4.1-1.3-5.3l9.2-29c2.1-8.6,10.9-13.2,19.8-13.2h14.5c1.3,0,7.1-1.1,7.9,0
						L349.8,287.2z"/>
					<path class="st3" d="M372.2,328l-4,10.5c-0.7,1.4-2.4,4-4,4h-58c10.4-1.5,30.2-1.6,34.7-2.4c14.1-2.3,9.4-22.3,4.1-27.3
						c-4.9-4.6-9.2-14.5-7.9-17.1c0.9-1.8,9.6-9.4,11.2-11.2l15.8,14.5c3.4,1.1,2.9,8.8,3.4,12.3l5.8,12.7
						C373.7,324.9,372.6,327.3,372.2,328z"/>
				</g>
			</g>
			<path class="st9" d="M305.5,294.1c-0.1,0-0.2,0-0.4-0.1c-0.5-0.2-0.8-0.8-0.6-1.3c0.1-0.3,2.9-7.1,9.9-8.5
				c0.5-0.1,1.1,0.2,1.2,0.8c0.1,0.5-0.2,1.1-0.8,1.2c-6,1.2-8.5,7.2-8.5,7.3C306.3,293.9,305.9,294.1,305.5,294.1z"/>
		</g>
		<g>
			<g>
				<defs>
					<path id="SVGID_31_" d="M224.8,358.7c-1.2-1.3-1.8-3-1.7-4.7l2.7-38.9c1.1-13,14.1-22.1,27-24.1l27.3-2.6
						c3.1-0.3,6.2,0.4,8.9,2l30.7,18.4c2.7,1.6,4.8,4.1,6,7.1l10.7,27c0.4,1.2,0.4,2.5,0,3.7l-2.8,12.5
						C287.2,370.4,224.8,358.7,224.8,358.7z"/>
				</defs>
				<use xlink:href="#SVGID_31_"  style="overflow:visible;fill:#44375E;"/>
				<clipPath id="SVGID_32_">
					<use xlink:href="#SVGID_31_"  style="overflow:visible;"/>
				</clipPath>
				<g class="st22">
					<path class="st2" d="M297.4,291.8c-8.7,0.4-42.8,2-48.9,8.7c-7.1,7.7-7.3,47.4-6.7,51.2c0.5,3.2,8.6,20.1,11.3,25.8l-6.4,4.9
						c-2,0.3-10.8-0.6-12.1-2L220.1,363c-1.2-1.2-3.3-5.7-3.1-7.4l6.8-44.3c1.1-13,12.8-21.7,25.8-23.7l21.1-3.3
						c1.9-0.3,10.2-3.2,11.5-1.8L297.4,291.8z"/>
					<path class="st3" d="M339.4,346.2l-3.3,16.3c-0.7,2.2-2.6,6.3-4.9,6.7l-120.3-9.9c6.6-20.9,1.6-9.8,21.8-2.3
						c9.1,3.4,64.6,1.9,68.7-8.1c2.3-5.7,1.1-15.8-7-19.6c-9-4.2-14.7-17.9-13.4-22c0.9-2.8,11.8-16,13.8-18.9l26.4,17.5
						c5.2,0.8,6.3,12.2,7.8,17.2l11.3,17.2C340.8,341.4,339.8,345,339.4,346.2z"/>
					<polygon class="st4" points="241.3,385.3 335.3,370.5 336.3,364.4 234.6,380.4 					"/>
				</g>
			</g>
			<path class="st9" d="M234.4,312.1c-0.2,0-0.4,0-0.6,0c-0.8-0.2-1.3-1-1.1-1.7c0.1-0.4,2.6-11,12.5-14.7c0.8-0.3,1.6,0.1,1.9,0.9
				c0.3,0.8-0.1,1.6-0.9,1.9c-8.5,3.1-10.7,12.5-10.7,12.6C235.5,311.6,235,312,234.4,312.1z"/>
		</g>
	</g>
</g>
</svg>
