<?xml version="1.0" encoding="utf-8"?>
<!-- Generator: Adobe Illustrator 23.0.3, SVG Export Plug-In . SVG Version: 6.00 Build 0)  -->
<svg version="1.1" id="Layer_1" xmlns="http://www.w3.org/2000/svg" xmlns:xlink="http://www.w3.org/1999/xlink" x="0px" y="0px"
	 viewBox="0 0 500 500" style="enable-background:new 0 0 500 500;" xml:space="preserve">
<style type="text/css">
	.st0{clip-path:url(#SVGID_2_);}
	.st1{fill:#615777;}
	.st2{fill:#2F2549;}
	.st3{fill:#120223;}
	.st4{clip-path:url(#SVGID_4_);}
	.st5{fill:#FFFFFF;}
	.st6{fill:#5C00D3;}
	.st7{clip-path:url(#SVGID_6_);}
	.st8{opacity:0.35;fill:#FFFFFF;}
	.st9{opacity:0.15;}
</style>
<g>
	<g>
		<g>
			<defs>
				<path id="SVGID_1_" d="M177.9,327l-25.2-43.3c-1.8-2.5-2.3-5.7-1.6-8.7l20.6-71c5.5-22.7,25.8-31.7,49.2-31.7l48.8,2.9
					c5.6,0.3,10.9,2.4,15.2,6l49.1,40.9c4.4,3.6,7.4,8.6,8.6,14.1l11.3,50.5c0.3,2.2,0,4.4-1,6.4L340,325.6c-1.8,3.7-5.6,6-9.7,6
					H186.8C183.2,331.6,179.9,329.9,177.9,327z"/>
			</defs>
			<use xlink:href="#SVGID_1_"  style="overflow:visible;fill:#44375E;"/>
			<clipPath id="SVGID_2_">
				<use xlink:href="#SVGID_1_"  style="overflow:visible;"/>
			</clipPath>
			<g class="st0">
				<path class="st1" d="M299.1,186.1c-15.4-1.8-75.9-8.4-88.5,1.7c-14.6,11.6-26,81.4-26,88.4c0,5.8,9.6,37.9,12.8,48.5l-12.7,6.9
					c-3.5,0-18.8-4-20.8-6.9L143.1,290c-1.8-2.5-4.2-10.9-3.5-13.9l24.3-76.2c5.5-22.7,28.6-34.7,52-34.7H254c3.4,0,18.8-2.8,20.8,0
					L299.1,186.1z"/>
				<path class="st2" d="M358,293.5l-10.4,27.7c-1.8,3.6-6.3,10.4-10.4,10.4l-102-6.9c27.3-3.9,60.4-6.9,72.4-8.7
					c17.2-2.5,22.7-12.1,22.5-22.5c-0.1-6.9,0-24.3-6.9-31.2c-6.9-6.9-19.1-5.2-36.4-8.7c-17.3-3.5-24.3-38.1-20.8-45.1
					c2.3-4.6,25.3-24.8,29.6-29.5l41.6,38.1c8.9,2.8,7.7,23.2,9,32.4l15.2,33.4C361.8,285.3,359,291.5,358,293.5z"/>
				<polygon class="st3" points="174.3,335.1 344.1,335.1 347.6,324.7 163.9,324.7 				"/>
			</g>
		</g>
		<g>
			<defs>
				<polygon id="SVGID_3_" points="302.4,234.6 177.6,234.6 181.8,265.6 302.4,265.6 				"/>
			</defs>
			<clipPath id="SVGID_4_">
				<use xlink:href="#SVGID_3_"  style="overflow:visible;"/>
			</clipPath>
			<g class="st4">
				<circle class="st5" cx="208.2" cy="239.2" r="22.6"/>
				<circle class="st3" cx="208.2" cy="239.2" r="11.3"/>
				<circle class="st5" cx="272.3" cy="239.2" r="22.6"/>
				<circle class="st3" cx="272.3" cy="239.2" r="11.3"/>
				<circle class="st6" cx="208.2" cy="239.2" r="4.4"/>
				<circle class="st6" cx="272.3" cy="239.2" r="4.4"/>
			</g>
		</g>
		<g>
			<defs>
				<rect id="SVGID_5_" x="173.9" y="206.8" width="124.8" height="30"/>
			</defs>
			<clipPath id="SVGID_6_">
				<use xlink:href="#SVGID_5_"  style="overflow:visible;"/>
			</clipPath>
			<g class="st7">
				<circle class="st1" cx="208.2" cy="239.2" r="22.6"/>
				<circle class="st1" cx="272.3" cy="239.2" r="22.6"/>
			</g>
		</g>
		<path class="st8" d="M182.5,204.2c-0.3,0-0.6-0.1-1-0.2c-1.3-0.5-2-2-1.4-3.4c0.3-0.8,7.7-18.7,26.2-22.4c1.4-0.3,2.8,0.6,3.1,2
			c0.3,1.4-0.6,2.8-2,3.1c-15.8,3.2-22.3,19.1-22.4,19.2C184.5,203.6,183.6,204.2,182.5,204.2z"/>
	</g>
</g>
<g class="st9">
	<path d="M341.3,337H175.7c-2.6,0-4.7-2.1-4.7-4.7v-1.7c0-2.6,2.1-4.7,4.7-4.7h165.7c2.6,0,4.7,2.1,4.7,4.7v1.7
		C346,334.9,343.9,337,341.3,337z"/>
</g>
</svg>
