
<?xml version="1.0" encoding="utf-8"?>
<!-- Generator: Adobe Illustrator 23.0.3, SVG Export Plug-In . SVG Version: 6.00 Build 0)  -->
<svg version="1.1" id="Layer_1" xmlns="http://www.w3.org/2000/svg" xmlns:xlink="http://www.w3.org/1999/xlink" x="0px" y="0px"
	 viewBox="0 0 130 192" style="enable-background:new 0 0 130 192;" xml:space="preserve">
<style type="text/css">
	.st0{opacity:0.2;clip-path:url(#SVGID_2_);fill:#615777;}
	.st1{fill:#FFFFFF;}
	.st2{fill:#040203;}
</style>
<g>
	<defs>
		<path id="SVGID_1_" d="M79.1,43.6l-30.4-9.9L24.9,54.8c0,0,14.4,24.8,15.1,32.5s3.1,40.6,6.1,50.3s11,32.9,11,40.6s0,14.1,0,14.1
			h61.1c0,0-3.7-20.8-3.7-36.6s1-24.8-2.7-37.9S95.7,86.9,89.3,72.2S78.9,52.4,79.1,43.6"/>
	</defs>
	<use xlink:href="#SVGID_1_"  style="overflow:visible;fill:#FFFFFF;"/>
	<clipPath id="SVGID_2_">
		<use xlink:href="#SVGID_1_"  style="overflow:visible;"/>
	</clipPath>
	<path class="st0" d="M25.9,56.5c0,0,13.3,11.8,16.3,21.7C44,84,47,90.3,48.8,95.1s8,18.4,8,24.4c0,6,2.5,10.1,4.1,14.3
		c1.7,4.3,10.2,15.3,10.6,20.6c0.4,5.3,0.8,15.1-1.2,15.1c-2,0-13.3-8.8-15.4-13.3c-2-4.5-7.4-21.1-7.4-21.1l-6.7-9.3L54.3,198h72.2
		l-6.5-87.8l-10.6-8.6c0,0-1.2,6.7-2,12.8c-0.8,6.2,1,14.1-0.5,22.7c-1.5,8.6-5,12.6-5.5,18.1s-6.3,10.3-8.1,13.1
		c-1.8,2.8-4.8,0.3-4.8-2c0-2.3-2.5-11.3-2.5-16.9c0-5.5,4-8.3,4.5-11.8c0.5-3.5-1.8-16.9-1.8-23.2c0-6.3-5.9-16.3-11.3-26.2
		C62.1,60.6,75.2,55.5,80.3,41L25.9,56.5z"/>
</g>
<path class="st1" d="M18.7,43.5c0,0-4.5-10.1-3.5-16.9s3.7-10.6,5.5-10.7c3.4-0.3,9.2,3.8,12.4,7c1.2,1.2,5.2-1.2,12.9-1.5
	S60.3,22,60.3,22s10.6-11.1,14.9-7.6c4.4,3.5,7.6,15.1,7.2,18.6s-1.5,6.2-1.5,6.2S76.4,52,68,58.4c-3.3,2.5-12.9,9.9-19.3,9.9
	S34,61.8,30.9,59.6c-3-2.2-6.7-3.2-8.9-7.1S18.7,43.5,18.7,43.5z"/>
<path class="st2" d="M46.9,55.6c-2.4-0.3-6.4,0.2-5.9,2c0.5,1.6,4,4.9,5.9,4.7s5-1.7,5-3.4S50.7,56,46.9,55.6z"/>
<path class="st2" d="M61.3,41c-1.9,0.1-4,4-3,5c1,1,4,2.5,5.2,0C64.7,43.5,62.1,41,61.3,41z"/>
<path class="st2" d="M33.3,41c-1.2,0.7-3.9,3.7-2.3,6.3s5.4,1.1,5.5-1S34.3,40.4,33.3,41z"/>
</svg>
