<?xml version="1.0" encoding="utf-8"?>
<!-- Generator: Adobe Illustrator 23.0.6, SVG Export Plug-In . SVG Version: 6.00 Build 0)  -->
<!DOCTYPE svg PUBLIC "-//W3C//DTD SVG 1.1//EN" "http://www.w3.org/Graphics/SVG/1.1/DTD/svg11.dtd" [
  <!ENTITY ns_extend "http://ns.adobe.com/Extensibility/1.0/">
  <!ENTITY ns_ai "http://ns.adobe.com/AdobeIllustrator/10.0/">
  <!ENTITY ns_graphs "http://ns.adobe.com/Graphs/1.0/">
  <!ENTITY ns_vars "http://ns.adobe.com/Variables/1.0/">
  <!ENTITY ns_imrep "http://ns.adobe.com/ImageReplacement/1.0/">
  <!ENTITY ns_sfw "http://ns.adobe.com/SaveForWeb/1.0/">
  <!ENTITY ns_custom "http://ns.adobe.com/GenericCustomNamespace/1.0/">
  <!ENTITY ns_adobe_xpath "http://ns.adobe.com/XPath/1.0/">
]>
<svg version="1.1" id="Layer_1" xmlns:x="&ns_extend;" xmlns:i="&ns_ai;" xmlns:graph="&ns_graphs;"
   xmlns="http://www.w3.org/2000/svg" xmlns:xlink="http://www.w3.org/1999/xlink" x="0px" y="0px" viewBox="0 0 834 578"
   style="enable-background:new 0 0 834 578;" xml:space="preserve">
<style type="text/css">
  .st0{fill:none;}
  .st1{fill:#3C2C50;}
  .st2{fill:#EDEAF4;}
  .st3{fill:#5A4278;}
  .st4{clip-path:url(#SVGID_3_);}
  .st5{fill:#7858A0;}
  .st6{fill:#44375E;}
  .st7{clip-path:url(#SVGID_5_);}
  .st8{fill:#615777;}
  .st9{fill:#2F2549;}
  .st10{fill:#120223;}
  .st11{clip-path:url(#SVGID_7_);}
  .st12{fill:#FFFFFF;}
  .st13{fill:#5C00D3;}
  .st14{clip-path:url(#SVGID_9_);}
  .st15{opacity:0.35;fill:#FFFFFF;enable-background:new    ;}
  .st16{clip-path:url(#SVGID_11_);fill:#4A2495;}
  .st17{clip-path:url(#SVGID_13_);fill:#4A2495;}
  .st18{clip-path:url(#SVGID_15_);fill:#4A2495;}
  .st19{clip-path:url(#SVGID_18_);fill:#4A2495;}
  .st20{clip-path:url(#SVGID_20_);fill:#4F00C0;}
  .st21{clip-path:url(#SVGID_22_);fill:#4F00C0;}
  .st22{clip-path:url(#SVGID_24_);fill:#3F1287;}
  .st23{clip-path:url(#SVGID_26_);fill:#3F1287;}
  .st24{clip-path:url(#SVGID_28_);fill:#3F1287;}
  .st25{clip-path:url(#SVGID_30_);fill:#3F1287;}
  .st26{fill:#4B2299;}
  .st27{fill:#FF0055;}
  .st28{fill:none;stroke:#FF0055;stroke-miterlimit:10;}
  .st29{fill:#61DBEF;}
  .st30{fill:#4AD1D8;}
  .st31{fill:#4AC4D1;}
  .st32{opacity:0.66;}
  .st33{opacity:0.82;}
  .st34{opacity:0.1;fill:#FFFFFF;enable-background:new    ;}
  .st35{opacity:0.4;fill:#120223;enable-background:new    ;}
  .st36{opacity:0.27;}
  .st37{fill:url(#SVGID_31_);}
  .st38{clip-path:url(#SVGID_33_);}
  .st39{clip-path:url(#SVGID_35_);}
  .st40{clip-path:url(#SVGID_37_);}
  .st41{clip-path:url(#SVGID_39_);}
  .st42{clip-path:url(#SVGID_41_);}
  .st43{fill:#FAFF1F;}
  .st44{fill:#FFD31A;}
  .st45{fill:none;stroke:#FFD31A;stroke-miterlimit:10;}
  .st46{opacity:0.25;fill:#61DBEF;enable-background:new    ;}
  .st47{fill:none;stroke:#61DBEF;stroke-width:3;stroke-miterlimit:10;}
  .st48{opacity:0.5;fill:#FAFCFC;enable-background:new    ;}
  .st49{opacity:0.64;}
  .st50{fill:#0071DD;}
  .st51{fill:#004693;}
  .st52{fill:#4D3180;}
  .st53{fill:#4D4FB4;}
  .st54{clip-path:url(#SVGID_43_);}
  .st55{fill:#940FEA;}
  .st56{fill:none;stroke:#FF0055;stroke-width:3;stroke-miterlimit:10;}
  .st57{fill:#4E3B6B;}
  .st58{clip-path:url(#SVGID_45_);}
  .st59{fill:#41A0A5;}
  .st60{clip-path:url(#SVGID_47_);}
  .st61{fill:none;stroke:#09D666;stroke-width:3;stroke-miterlimit:10;}
  .st62{opacity:0.5;clip-path:url(#SVGID_49_);fill:#0BD3B6;}
  .st63{clip-path:url(#SVGID_49_);fill:#007C64;}
  .st64{opacity:0.15;}
  .st65{fill:#2E5B37;}
</style>
<metadata>
  <sfw  xmlns="&ns_sfw;">
    <slices></slices>
    <sliceSourceBounds  bottomLeftOrigin="true" height="578" width="834" x="0" y="-768"></sliceSourceBounds>
  </sfw>
</metadata>
<pattern  y="-190" width="3" height="3" patternUnits="userSpaceOnUse" id="SVGID_53_" viewBox="0 -3 3 3" style="overflow:visible;">
  <g>
    <rect y="-3" class="st0" width="3" height="3"/>
    <g>
      <rect y="-3" class="st0" width="3" height="3"/>
      <rect x="1" y="-2" class="st1" width="1" height="1"/>
      <rect y="-3" class="st0" width="3" height="3"/>
    </g>
  </g>
</pattern>
<g>
  <g>
    <circle class="st2" cx="1" cy="1" r="1"/>
    <circle class="st2" cx="65" cy="1" r="1"/>
    <circle class="st2" cx="129" cy="1" r="1"/>
    <circle class="st2" cx="193" cy="1" r="1"/>
    <circle class="st2" cx="257" cy="1" r="1"/>
    <circle class="st2" cx="321" cy="1" r="1"/>
    <circle class="st2" cx="385" cy="1" r="1"/>
    <circle class="st2" cx="449" cy="1" r="1"/>
    <circle class="st2" cx="513" cy="1" r="1"/>
    <circle class="st2" cx="577" cy="1" r="1"/>
    <circle class="st2" cx="641" cy="1" r="1"/>
    <circle class="st2" cx="705" cy="1" r="1"/>
    <circle class="st2" cx="769" cy="1" r="1"/>
    <circle class="st2" cx="833" cy="1" r="1"/>
    <circle class="st2" cx="1" cy="65" r="1"/>
    <circle class="st2" cx="65" cy="65" r="1"/>
    <circle class="st2" cx="129" cy="65" r="1"/>
    <circle class="st2" cx="193" cy="65" r="1"/>
    <circle class="st2" cx="257" cy="65" r="1"/>
    <circle class="st2" cx="321" cy="65" r="1"/>
    <circle class="st2" cx="385" cy="65" r="1"/>
    <circle class="st2" cx="449" cy="65" r="1"/>
    <circle class="st2" cx="513" cy="65" r="1"/>
    <circle class="st2" cx="577" cy="65" r="1"/>
    <circle class="st2" cx="641" cy="65" r="1"/>
    <circle class="st2" cx="705" cy="65" r="1"/>
    <circle class="st2" cx="769" cy="65" r="1"/>
    <circle class="st2" cx="833" cy="65" r="1"/>
    <circle class="st2" cx="1" cy="129" r="1"/>
    <circle class="st2" cx="65" cy="129" r="1"/>
    <circle class="st2" cx="129" cy="129" r="1"/>
    <circle class="st2" cx="193" cy="129" r="1"/>
    <circle class="st2" cx="257" cy="129" r="1"/>
    <circle class="st2" cx="321" cy="129" r="1"/>
    <circle class="st2" cx="385" cy="129" r="1"/>
    <circle class="st2" cx="449" cy="129" r="1"/>
    <circle class="st2" cx="513" cy="129" r="1"/>
    <circle class="st2" cx="577" cy="129" r="1"/>
    <circle class="st2" cx="641" cy="129" r="1"/>
    <circle class="st2" cx="705" cy="129" r="1"/>
    <circle class="st2" cx="769" cy="129" r="1"/>
    <circle class="st2" cx="833" cy="129" r="1"/>
    <circle class="st2" cx="1" cy="193" r="1"/>
    <circle class="st2" cx="65" cy="193" r="1"/>
    <circle class="st2" cx="129" cy="193" r="1"/>
    <circle class="st2" cx="193" cy="193" r="1"/>
    <circle class="st2" cx="257" cy="193" r="1"/>
    <circle class="st2" cx="321" cy="193" r="1"/>
    <circle class="st2" cx="385" cy="193" r="1"/>
    <circle class="st2" cx="449" cy="193" r="1"/>
    <circle class="st2" cx="513" cy="193" r="1"/>
    <circle class="st2" cx="577" cy="193" r="1"/>
    <circle class="st2" cx="641" cy="193" r="1"/>
    <circle class="st2" cx="705" cy="193" r="1"/>
    <circle class="st2" cx="769" cy="193" r="1"/>
    <circle class="st2" cx="833" cy="193" r="1"/>
    <circle class="st2" cx="1" cy="257" r="1"/>
    <circle class="st2" cx="65" cy="257" r="1"/>
    <circle class="st2" cx="129" cy="257" r="1"/>
    <circle class="st2" cx="193" cy="257" r="1"/>
    <circle class="st2" cx="257" cy="257" r="1"/>
    <circle class="st2" cx="321" cy="257" r="1"/>
    <circle class="st2" cx="385" cy="257" r="1"/>
    <circle class="st2" cx="449" cy="257" r="1"/>
    <circle class="st2" cx="513" cy="257" r="1"/>
    <circle class="st2" cx="577" cy="257" r="1"/>
    <circle class="st2" cx="641" cy="257" r="1"/>
    <circle class="st2" cx="705" cy="257" r="1"/>
    <circle class="st2" cx="769" cy="257" r="1"/>
    <circle class="st2" cx="833" cy="257" r="1"/>
    <circle class="st2" cx="1" cy="321" r="1"/>
    <circle class="st2" cx="65" cy="321" r="1"/>
    <circle class="st2" cx="129" cy="321" r="1"/>
    <circle class="st2" cx="193" cy="321" r="1"/>
    <circle class="st2" cx="257" cy="321" r="1"/>
    <circle class="st2" cx="321" cy="321" r="1"/>
    <circle class="st2" cx="385" cy="321" r="1"/>
    <circle class="st2" cx="449" cy="321" r="1"/>
    <circle class="st2" cx="513" cy="321" r="1"/>
    <circle class="st2" cx="577" cy="321" r="1"/>
    <circle class="st2" cx="641" cy="321" r="1"/>
    <circle class="st2" cx="705" cy="321" r="1"/>
    <circle class="st2" cx="769" cy="321" r="1"/>
    <circle class="st2" cx="833" cy="321" r="1"/>
    <circle class="st2" cx="1" cy="385" r="1"/>
    <circle class="st2" cx="65" cy="385" r="1"/>
    <circle class="st2" cx="129" cy="385" r="1"/>
    <circle class="st2" cx="193" cy="385" r="1"/>
    <circle class="st2" cx="257" cy="385" r="1"/>
    <circle class="st2" cx="321" cy="385" r="1"/>
    <circle class="st2" cx="385" cy="385" r="1"/>
    <circle class="st2" cx="449" cy="385" r="1"/>
    <circle class="st2" cx="513" cy="385" r="1"/>
    <circle class="st2" cx="577" cy="385" r="1"/>
    <circle class="st2" cx="641" cy="385" r="1"/>
    <circle class="st2" cx="705" cy="385" r="1"/>
    <circle class="st2" cx="769" cy="385" r="1"/>
    <circle class="st2" cx="833" cy="385" r="1"/>
    <circle class="st2" cx="1" cy="449" r="1"/>
    <circle class="st2" cx="65" cy="449" r="1"/>
    <circle class="st2" cx="129" cy="449" r="1"/>
    <circle class="st2" cx="193" cy="449" r="1"/>
    <circle class="st2" cx="257" cy="449" r="1"/>
    <circle class="st2" cx="321" cy="449" r="1"/>
    <circle class="st2" cx="385" cy="449" r="1"/>
    <circle class="st2" cx="449" cy="449" r="1"/>
    <circle class="st2" cx="513" cy="449" r="1"/>
    <circle class="st2" cx="577" cy="449" r="1"/>
    <circle class="st2" cx="641" cy="449" r="1"/>
    <circle class="st2" cx="705" cy="449" r="1"/>
    <circle class="st2" cx="769" cy="449" r="1"/>
    <circle class="st2" cx="833" cy="449" r="1"/>
    <circle class="st2" cx="1" cy="513" r="1"/>
    <circle class="st2" cx="65" cy="513" r="1"/>
    <circle class="st2" cx="129" cy="513" r="1"/>
    <circle class="st2" cx="193" cy="513" r="1"/>
    <circle class="st2" cx="257" cy="513" r="1"/>
    <circle class="st2" cx="321" cy="513" r="1"/>
    <circle class="st2" cx="385" cy="513" r="1"/>
    <circle class="st2" cx="449" cy="513" r="1"/>
    <circle class="st2" cx="513" cy="513" r="1"/>
    <circle class="st2" cx="577" cy="513" r="1"/>
    <circle class="st2" cx="641" cy="513" r="1"/>
    <circle class="st2" cx="705" cy="513" r="1"/>
    <circle class="st2" cx="769" cy="513" r="1"/>
    <circle class="st2" cx="833" cy="513" r="1"/>
    <circle class="st2" cx="1" cy="577" r="1"/>
    <circle class="st2" cx="65" cy="577" r="1"/>
    <circle class="st2" cx="129" cy="577" r="1"/>
    <circle class="st2" cx="193" cy="577" r="1"/>
    <circle class="st2" cx="257" cy="577" r="1"/>
    <circle class="st2" cx="321" cy="577" r="1"/>
    <circle class="st2" cx="385" cy="577" r="1"/>
    <circle class="st2" cx="449" cy="577" r="1"/>
    <circle class="st2" cx="513" cy="577" r="1"/>
    <circle class="st2" cx="577" cy="577" r="1"/>
    <circle class="st2" cx="641" cy="577" r="1"/>
    <circle class="st2" cx="705" cy="577" r="1"/>
    <circle class="st2" cx="769" cy="577" r="1"/>
    <circle class="st2" cx="833" cy="577" r="1"/>
  </g>
  <g>
    <g>
      
        <rect id="SVGID_1_" x="538" y="195" transform="matrix(0.7071 -0.7071 0.7071 0.7071 0.5278 451.2742)" class="st3" width="14" height="60"/>
    </g>
    <g>
      <defs>
        
          <rect id="SVGID_2_" x="538" y="195" transform="matrix(0.7071 -0.7071 0.7071 0.7071 0.5278 451.2742)" width="14" height="60"/>
      </defs>
      <clipPath id="SVGID_3_">
        <use xlink:href="#SVGID_2_"  style="overflow:visible;"/>
      </clipPath>
      <g class="st4">
        <polygon class="st5" points="537.2,254.6 527.9,251 530.1,180.9 539.4,184.6         "/>
        <polygon class="st5" points="541.4,255.9 539.6,255.3 541.7,185.3 543.5,185.9         "/>
      </g>
    </g>
  </g>
  <g>
    <g>
      <g>
        <path id="SVGID_17_" class="st6" d="M523,122.7l-7.3-12.5c-0.5-0.7-0.7-1.6-0.5-2.5l6-20.5c1.6-6.5,7.5-9.2,14.2-9.2l14.1,0.9
          c1.6,0.1,3.1,0.7,4.4,1.7L568,92.4c1.3,1,2.1,2.5,2.5,4.1l3.3,14.6c0.1,0.6,0,1.3-0.3,1.9l-3.7,9.4c-0.5,1.1-1.6,1.7-2.8,1.7
          h-41.5C524.5,124,523.5,123.5,523,122.7z"/>
      </g>
      <g>
        <defs>
          <path id="SVGID_4_" d="M523,122.7l-7.3-12.5c-0.5-0.7-0.7-1.6-0.5-2.5l6-20.5c1.6-6.5,7.5-9.2,14.2-9.2l14.1,0.9
            c1.6,0.1,3.1,0.7,4.4,1.7L568,92.4c1.3,1,2.1,2.5,2.5,4.1l3.3,14.6c0.1,0.6,0,1.3-0.3,1.9l-3.7,9.4c-0.5,1.1-1.6,1.7-2.8,1.7
            h-41.5C524.5,124,523.5,123.5,523,122.7z"/>
        </defs>
        <clipPath id="SVGID_5_">
          <use xlink:href="#SVGID_4_"  style="overflow:visible;"/>
        </clipPath>
        <g class="st7">
          <path class="st8" d="M558,82c-4.4-0.5-21.9-2.4-25.5,0.5c-4.2,3.4-7.5,23.5-7.5,25.5c0,1.7,2.8,10.9,3.7,14l-3.7,2
            c-1,0-5.4-1.2-6-2l-6-10c-0.5-0.7-1.2-3.1-1-4l7-22c1.6-6.5,8.3-10,15-10h11c1,0,5.4-0.8,6,0L558,82z"/>
          <path class="st9" d="M575,113l-3,8c-0.5,1-1.8,3-3,3l-29.4-2c7.9-1.1,17.4-2,20.9-2.5c4.9-0.7,6.5-3.5,6.5-6.5c0-2,0-7-2-9
            s-5.5-1.5-10.5-2.5s-7-11-6-13c0.7-1.3,7.3-7.2,8.5-8.5l12,11c2.6,0.8,2.2,6.7,2.6,9.4l4.4,9.6C576,110.6,575.2,112.4,575,113z
            "/>
          <polygon class="st10" points="522,125 571,125 572,122 519,122           "/>
        </g>
      </g>
    </g>
    <g>
      <g>
        <defs>
          <polygon id="SVGID_6_" points="559,96 523,96 524.2,104.9 559,104.9           "/>
        </defs>
        <clipPath id="SVGID_7_">
          <use xlink:href="#SVGID_6_"  style="overflow:visible;"/>
        </clipPath>
        <g class="st11">
          <circle class="st12" cx="531.8" cy="97.3" r="6.5"/>
          <circle class="st10" cx="531.8" cy="97.3" r="3.3"/>
          <circle class="st12" cx="550.2" cy="97.3" r="6.5"/>
          <circle class="st10" cx="550.2" cy="97.3" r="3.3"/>
          <circle class="st13" cx="531.8" cy="97.3" r="1.3"/>
          <circle class="st13" cx="550.2" cy="97.3" r="1.3"/>
        </g>
      </g>
    </g>
    <g>
      <g>
        <defs>
          <rect id="SVGID_8_" x="521.8" y="88" width="36" height="8"/>
        </defs>
        <clipPath id="SVGID_9_">
          <use xlink:href="#SVGID_8_"  style="overflow:visible;"/>
        </clipPath>
        <g class="st14">
          <circle class="st8" cx="531.8" cy="97.3" r="6.5"/>
          <circle class="st8" cx="550.2" cy="97.3" r="6.5"/>
        </g>
      </g>
    </g>
    <path class="st15" d="M524.3,87.2c-0.1,0-0.2,0-0.3-0.1c-0.4-0.2-0.6-0.6-0.4-1c0.1-0.2,2.2-5.4,7.5-6.5c0.4-0.1,0.8,0.2,0.9,0.6
      c0.1,0.4-0.2,0.8-0.6,0.9c-4.5,0.9-6.4,5.5-6.5,5.5C524.8,87.1,524.7,87.2,524.3,87.2z"/>
  </g>
  <g>
    <path class="st10" d="M444.5,483.5v-5H438c-0.5-4-2-7.6-4.4-10.6l4.6-4.6l-3.5-3.5l-4.6,4.6c-3-2.4-6.6-3.9-10.6-4.4v-6.4h-5v6.4
      c-4,0.5-7.6,2-10.6,4.4l-4.6-4.6l-3.5,3.5l4.6,4.6c-2.4,3-3.9,6.6-4.4,10.6h-6.6v5h6.4c0.5,4,2,7.6,4.4,10.6l-4.6,4.6l3.5,3.5
      l4.6-4.6c3,2.4,6.6,3.9,10.6,4.4v6.4h5V502c4-0.5,7.6-2,10.6-4.4l4.6,4.6l3.5-3.5l-4.6-4.6c2.4-3,3.9-6.6,4.4-10.6H444.5z"/>
    <path class="st12" d="M412,471.6v-5.9c-4.9,1.5-8.8,5.4-10.3,10.3h5.9C408.6,474.2,410.1,472.7,412,471.6z"/>
  </g>
  <g>
    <polyline class="st12" points="679,122.1 684.2,122 681.5,117.6 679,122.1     "/>
    <polyline class="st12" points="676.5,117.8 681.7,117.7 679,113.3 676.5,117.8     "/>
    <polyline class="st12" points="674,113.5 679.2,113.4 676.5,109 674,113.5     "/>
    <polyline class="st12" points="667.2,122.1 662,122 664.5,117.6 667.2,122.1     "/>
    <polyline class="st12" points="669.7,117.8 664.5,117.7 667.2,113.3 669.7,117.8     "/>
    <polyline class="st12" points="672.2,113.5 667,113.4 669.8,109 672.2,113.5     "/>
    <polyline class="st12" points="667.2,72 662,72 664.5,76.5 667.2,72     "/>
    <polyline class="st12" points="669.7,76.3 664.5,76.3 667.2,80.8 669.7,76.3     "/>
    <polyline class="st12" points="672.2,80.6 667,80.6 669.8,85.1 672.2,80.6     "/>
    <polyline class="st12" points="679,72 684.2,72 681.5,76.5 679,72     "/>
    <polyline class="st12" points="676.5,76.3 681.7,76.3 679,80.8 676.5,76.3     "/>
    <polyline class="st12" points="674,80.6 679.2,80.6 676.5,85.1 674,80.6     "/>
    <polyline class="st12" points="698.2,90.6 698,85.4 693.7,88 698.2,90.6     "/>
    <polyline class="st12" points="693.8,93.1 693.8,87.9 689.3,90.6 693.8,93.1     "/>
    <polyline class="st12" points="689.5,95.7 689.5,90.5 685,93.2 689.5,95.7     "/>
    <polyline class="st12" points="698.2,102.5 698,107.7 693.7,105 698.2,102.5     "/>
    <polyline class="st12" points="693.8,99.9 693.8,105.1 689.3,102.5 693.8,99.9     "/>
    <polyline class="st12" points="689.5,97.4 689.5,102.6 685,99.9 689.5,97.4     "/>
    <polyline class="st12" points="648,102.5 648,107.7 652.5,105 648,102.5     "/>
    <polyline class="st12" points="652.3,99.9 652.3,105.1 656.8,102.5 652.3,99.9     "/>
    <polyline class="st12" points="656.7,97.4 656.7,102.6 661.2,99.9 656.7,97.4     "/>
    <polyline class="st12" points="648,90.6 648,85.4 652.5,88 648,90.6     "/>
    <polyline class="st12" points="652.3,93.1 652.3,87.9 656.8,90.6 652.3,93.1     "/>
    <polyline class="st12" points="656.7,95.7 656.7,90.5 661.2,93.2 656.7,95.7     "/>
    <path class="st13" d="M673,103.1l11.5,19.5c6.4-2.9,11.6-8.1,14.3-14.6l-19.3-11.4l19-11.2c-2.9-6.3-8-11.3-14.4-14.1L673,90
      l-11-18.7c-6.4,2.7-11.5,7.8-14.4,14.1l19,11.2L647.2,108c2.7,6.5,7.9,11.7,14.3,14.6L673,103.1"/>
    <g>
      <g>
        <defs>
          <path id="SVGID_10_" d="M673,103.1l11.5,19.5c6.4-2.9,11.6-8.1,14.3-14.6l-19.3-11.4l19-11.2c-2.9-6.3-8-11.3-14.4-14.1L673,90
            l-11-18.7c-6.4,2.7-11.5,7.8-14.4,14.1l19,11.2L647.2,108c2.7,6.5,7.9,11.7,14.3,14.6L673,103.1"/>
        </defs>
        <clipPath id="SVGID_11_">
          <use xlink:href="#SVGID_10_"  style="overflow:visible;"/>
        </clipPath>
        <path class="st16" d="M673,102.1l-15.6,18.2c1.3,0.9,2.7,1.6,4.1,2.3l11.5-19.5l11.5,19.5c1.4-0.7,2.8-1.4,4.1-2.3L673,102.1"/>
      </g>
      <g>
        <defs>
          <path id="SVGID_12_" d="M673,103.1l11.5,19.5c6.4-2.9,11.6-8.1,14.3-14.6l-19.3-11.4l19-11.2c-2.9-6.3-8-11.3-14.4-14.1L673,90
            l-11-18.7c-6.4,2.7-11.5,7.8-14.4,14.1l19,11.2L647.2,108c2.7,6.5,7.9,11.7,14.3,14.6L673,103.1"/>
        </defs>
        <clipPath id="SVGID_13_">
          <use xlink:href="#SVGID_12_"  style="overflow:visible;"/>
        </clipPath>
        <path class="st17" d="M686.2,75.6c-1.7,0.1-3.4,0.4-5.2,0.8l-2.5,4.3l-2.3,4l-3.2,5.5l-4.7-7.9c-0.6,0.4-1.2,0.9-1.8,1.4
          l6.4,7.5L686.2,75.6"/>
      </g>
      <g>
        <defs>
          <path id="SVGID_14_" d="M673,103.1l11.5,19.5c6.4-2.9,11.6-8.1,14.3-14.6l-19.3-11.4l19-11.2c-2.9-6.3-8-11.3-14.4-14.1L673,90
            l-11-18.7c-6.4,2.7-11.5,7.8-14.4,14.1l19,11.2L647.2,108c2.7,6.5,7.9,11.7,14.3,14.6L673,103.1"/>
        </defs>
        <clipPath id="SVGID_15_">
          <use xlink:href="#SVGID_14_"  style="overflow:visible;"/>
        </clipPath>
        <path class="st18" d="M660.5,90.7c-0.4,0.6-0.7,1.2-1.1,1.8l7,4.1l-5.5,3.2l-4.3,2.5l-1.5,0.9c-0.4,1.5-0.8,3.1-1.1,4.8
          l13.4-11.4L660.5,90.7"/>
      </g>
      <g>
        <defs>
          <path id="SVGID_16_" d="M673,103.1l11.5,19.5c6.4-2.9,11.6-8.1,14.3-14.6l-19.3-11.4l19-11.2c-2.9-6.3-8-11.3-14.4-14.1L673,90
            l-11-18.7c-6.4,2.7-11.5,7.8-14.4,14.1l19,11.2L647.2,108c2.7,6.5,7.9,11.7,14.3,14.6L673,103.1"/>
        </defs>
        <clipPath id="SVGID_18_">
          <use xlink:href="#SVGID_16_"  style="overflow:visible;"/>
        </clipPath>
        <path class="st19" d="M696.2,81.4l-17.7,15.2l18.1,15.5c0.8-1.3,1.6-2.7,2.2-4.2l-9.3-5.5l-4.4-2.6l-5.6-3.3l19-11.2
          C697.8,84,697,82.7,696.2,81.4"/>
      </g>
      <g>
        <defs>
          <path id="SVGID_19_" d="M673,103.1l11.5,19.5c6.4-2.9,11.6-8.1,14.3-14.6l-19.3-11.4l19-11.2c-2.9-6.3-8-11.3-14.4-14.1L673,90
            l-11-18.7c-6.4,2.7-11.5,7.8-14.4,14.1l19,11.2L647.2,108c2.7,6.5,7.9,11.7,14.3,14.6L673,103.1"/>
        </defs>
        <clipPath id="SVGID_20_">
          <use xlink:href="#SVGID_19_"  style="overflow:visible;"/>
        </clipPath>
        <path class="st20" d="M657.8,73.5c-3.2,2.1-6,4.8-8.1,7.9l10.8,9.2c1.8-2.8,3.8-5.2,6-7.1L657.8,73.5"/>
      </g>
      <g>
        <defs>
          <path id="SVGID_21_" d="M673,103.1l11.5,19.5c6.4-2.9,11.6-8.1,14.3-14.6l-19.3-11.4l19-11.2c-2.9-6.3-8-11.3-14.4-14.1L673,90
            l-11-18.7c-6.4,2.7-11.5,7.8-14.4,14.1l19,11.2L647.2,108c2.7,6.5,7.9,11.7,14.3,14.6L673,103.1"/>
        </defs>
        <clipPath id="SVGID_22_">
          <use xlink:href="#SVGID_21_"  style="overflow:visible;"/>
        </clipPath>
        <path class="st21" d="M654,108.1l-4.8,4.1c1.1,1.7,2.3,3.2,3.7,4.6C653.2,113.6,653.7,110.7,654,108.1 M688,73.5l-1.8,2
          c1.4-0.1,2.7-0.2,3.9-0.2c0.1,0,0.3,0,0.4,0C689.8,74.7,689,74.1,688,73.5"/>
      </g>
      <g>
        <defs>
          <path id="SVGID_23_" d="M673,103.1l11.5,19.5c6.4-2.9,11.6-8.1,14.3-14.6l-19.3-11.4l19-11.2c-2.9-6.3-8-11.3-14.4-14.1L673,90
            l-11-18.7c-6.4,2.7-11.5,7.8-14.4,14.1l19,11.2L647.2,108c2.7,6.5,7.9,11.7,14.3,14.6L673,103.1"/>
        </defs>
        <clipPath id="SVGID_24_">
          <use xlink:href="#SVGID_23_"  style="overflow:visible;"/>
        </clipPath>
        <path class="st22" d="M684,71.4l-0.4,0.7l-2.3,3.9l-0.2,0.4l0,0c1.8-0.4,3.6-0.7,5.2-0.8l1.8-2C686.8,72.7,685.5,72,684,71.4"/>
      </g>
      <g>
        <defs>
          <path id="SVGID_25_" d="M673,103.1l11.5,19.5c6.4-2.9,11.6-8.1,14.3-14.6l-19.3-11.4l19-11.2c-2.9-6.3-8-11.3-14.4-14.1L673,90
            l-11-18.7c-6.4,2.7-11.5,7.8-14.4,14.1l19,11.2L647.2,108c2.7,6.5,7.9,11.7,14.3,14.6L673,103.1"/>
        </defs>
        <clipPath id="SVGID_26_">
          <use xlink:href="#SVGID_25_"  style="overflow:visible;"/>
        </clipPath>
        <path class="st23" d="M662,71.4c-1.4,0.6-2.8,1.3-4,2.1l8.7,10.1c0.6-0.5,1.2-1,1.8-1.4l-0.9-1.6l-0.1-0.1l-2.5-4.2l-0.1-0.1
          l-2.5-4.2L662,71.4"/>
      </g>
      <g>
        <defs>
          <path id="SVGID_27_" d="M673,103.1l11.5,19.5c6.4-2.9,11.6-8.1,14.3-14.6l-19.3-11.4l19-11.2c-2.9-6.3-8-11.3-14.4-14.1L673,90
            l-11-18.7c-6.4,2.7-11.5,7.8-14.4,14.1l19,11.2L647.2,108c2.7,6.5,7.9,11.7,14.3,14.6L673,103.1"/>
        </defs>
        <clipPath id="SVGID_28_">
          <use xlink:href="#SVGID_27_"  style="overflow:visible;"/>
        </clipPath>
        <path class="st24" d="M649.8,81.4c-0.9,1.3-1.6,2.6-2.3,4l11.9,7c0.4-0.6,0.7-1.2,1.1-1.8L649.8,81.4"/>
      </g>
      <g>
        <defs>
          <path id="SVGID_29_" d="M673,103.1l11.5,19.5c6.4-2.9,11.6-8.1,14.3-14.6l-19.3-11.4l19-11.2c-2.9-6.3-8-11.3-14.4-14.1L673,90
            l-11-18.7c-6.4,2.7-11.5,7.8-14.4,14.1l19,11.2L647.2,108c2.7,6.5,7.9,11.7,14.3,14.6L673,103.1"/>
        </defs>
        <clipPath id="SVGID_30_">
          <use xlink:href="#SVGID_29_"  style="overflow:visible;"/>
        </clipPath>
        <path class="st25" d="M655.2,103.3l-2.8,1.7l-4.3,2.5l-0.9,0.5c0.6,1.5,1.3,2.8,2.2,4.2l4.8-4.1
          C654.5,106.4,654.8,104.8,655.2,103.3"/>
      </g>
    </g>
    <circle class="st26" cx="692" cy="110.1" r="5"/>
    <circle class="st26" cx="685" cy="84.1" r="4"/>
    <circle class="st26" cx="672" cy="96.1" r="3"/>
    <circle class="st26" cx="658" cy="109.1" r="5"/>
    <circle class="st26" cx="663" cy="82.1" r="2"/>
    <circle class="st26" cx="681" cy="105.1" r="2"/>
  </g>
  <g>
    <circle class="st27" cx="160.9" cy="97" r="30"/>
    <polygon class="st12" points="184.8,97 147.6,76 147.6,118     "/>
    <g>
      <g>
        <line class="st28" x1="170.9" y1="97" x2="150.4" y2="97"/>
        <line class="st28" x1="160.6" y1="86.8" x2="160.6" y2="107.2"/>
        <line class="st28" x1="168.6" y1="105.1" x2="152.6" y2="88.9"/>
        <line class="st28" x1="168.6" y1="88.9" x2="152.6" y2="105.1"/>
      </g>
      <g>
        <line class="st28" x1="167.6" y1="94.1" x2="153.6" y2="99.9"/>
        <line class="st28" x1="157.8" y1="90" x2="163.6" y2="104"/>
        <line class="st28" x1="167.6" y1="99.9" x2="153.6" y2="94.1"/>
        <line class="st28" x1="163.6" y1="90" x2="157.8" y2="104"/>
      </g>
    </g>
  </g>
  <g>
    
      <rect x="153.9" y="195" transform="matrix(0.7071 -0.7071 0.7071 0.7071 -111.958 179.7097)" class="st29" width="14" height="60"/>
    <g>
      <path class="st30" d="M152.9,226.8l-11.3-11.3c12.2,1.2,21.4,4.5,27,7.2l11.3,11.3C174.2,231.4,165.1,228,152.9,226.8z"/>
      <path class="st31" d="M141.6,215.5l-6.8-6.8l9.9-9.9l23.9,23.9C162.9,220.1,153.8,216.7,141.6,215.5z"/>
    </g>
  </g>
  <g>
    <g>
      <g class="st32">
        <path class="st29" d="M437.5,377.7c1.8-1,3.2-2.4,4.2-4.2c-0.9,0.5-2,0.9-3.1,1.1C438.5,375.8,438,376.8,437.5,377.7z"/>
      </g>
      <g class="st32">
        <path class="st29" d="M396.4,328.3c-1.8,1-3.2,2.4-4.2,4.2c0.9-0.5,2-0.9,3.1-1.1C395.5,330.2,395.9,329.2,396.4,328.3z"/>
      </g>
      <g>
        <path class="st29" d="M443,337.4c0-5.7-4.7-10.4-10.4-10.4h-31.2c-1.8,0-3.5,0.5-5,1.3c-0.5,0.9-0.9,2-1.1,3.1
          c0.6-0.1,1.2-0.2,1.9-0.2h31.2c5.7,0,10.4,4.7,10.4,10.4v31.2c0,0.6-0.1,1.3-0.2,1.9c1.1-0.2,2.1-0.6,3.1-1.1
          c0.8-1.5,1.3-3.2,1.3-5V337.4z"/>
      </g>
      <g class="st33">
        <path class="st29" d="M436.8,374.8h-31.2c-5.7,0-10.4-4.7-10.4-10.4v-31.2c0-0.6,0.1-1.3,0.2-1.9c-1.1,0.2-2.1,0.6-3.1,1.1
          c-0.8,1.5-1.3,3.2-1.3,5v31.2c0,5.7,4.7,10.4,10.4,10.4h31.2c1.8,0,3.5-0.5,5-1.3c0.5-0.9,0.9-2,1.1-3.1
          C438,374.8,437.4,374.8,436.8,374.8z"/>
      </g>
      <g class="st32">
        <path class="st29" d="M395.1,364.4c0,5.7,4.7,10.4,10.4,10.4h31.2c0.6,0,1.3-0.1,1.9-0.2c0.1-0.6,0.2-1.2,0.2-1.9v-31.2
          c0-5.7-4.7-10.4-10.4-10.4h-31.3c-0.6,0-1.3,0.1-1.9,0.2c-0.1,0.6-0.2,1.2-0.2,1.9v31.2H395.1z"/>
      </g>
    </g>
    <path class="st34" d="M432.5,327h-31.2c-1.2,0-2.3,0.2-3.4,0.6c3.4,9.3,12.5,28.8,34.5,51.4h0.1c5.7,0,10.4-4.7,10.4-10.4v-31.2
      C443,331.7,438.2,327,432.5,327z"/>
    <path class="st34" d="M432.5,327h-19.3c4.6,7,13.8,18.6,29.7,28.9v-18.5C443,331.7,438.2,327,432.5,327z"/>
  </g>
  <g>
    <path class="st35" d="M529.3,382.5h31.2c5.7,0,10.4-4.7,10.4-10.4v-31.2c0-5.7-4.7-10.4-10.4-10.4h-31.2
      c-5.7,0-10.4,4.7-10.4,10.4v31.2C519,377.8,523.7,382.5,529.3,382.5z"/>
    <g class="st36">
      <path class="st29" d="M560.5,335.5c3,0,5.4,2.4,5.4,5.4v31.2c0,3-2.4,5.4-5.4,5.4h-31.2c-3,0-5.4-2.4-5.4-5.4v-31.2
        c0-3,2.4-5.4,5.4-5.4H560.5 M560.5,330.5h-31.2c-5.7,0-10.4,4.7-10.4,10.4v31.2c0,5.7,4.7,10.4,10.4,10.4h31.2
        c5.7,0,10.4-4.7,10.4-10.4v-31.2C571,335.2,566.2,330.5,560.5,330.5L560.5,330.5z"/>
    </g>
    <rect x="529" y="327.5" class="st29" width="31" height="2.9"/>
    <rect x="525" y="325" class="st29" width="39" height="3"/>
    <g>
      <g>
        <path class="st29" d="M560.5,331.5c5.2,0,9.4,4.2,9.4,9.4v31.2c0,5.2-4.2,9.4-9.4,9.4h-31.2c-5.2,0-9.4-4.2-9.4-9.4v-31.2
          c0-5.2,4.2-9.4,9.4-9.4H560.5 M560.5,330.5h-31.2c-5.7,0-10.4,4.7-10.4,10.4v31.2c0,5.7,4.7,10.4,10.4,10.4h31.2
          c5.7,0,10.4-4.7,10.4-10.4v-31.2C571,335.2,566.2,330.5,560.5,330.5L560.5,330.5z"/>
      </g>
    </g>
  </g>
  <g>
    <g>
      <path class="st3" d="M657.4,379h31.2c5.7,0,10.4-4.7,10.4-10.4v-31.2c0-5.7-4.7-10.4-10.4-10.4h-31.2c-5.7,0-10.4,4.7-10.4,10.4
        v31.2C647,374.3,651.7,379,657.4,379z"/>
    </g>
    <g>
      <pattern  id="SVGID_31_" xlink:href="#SVGID_53_" patternTransform="matrix(2.08 0 0 -2.08 16751.1992 -27556)">
      </pattern>
      <path class="st37" d="M657.4,379h31.2c5.7,0,10.4-4.7,10.4-10.4v-31.2c0-5.7-4.7-10.4-10.4-10.4h-31.2c-5.7,0-10.4,4.7-10.4,10.4
        v31.2C647,374.3,651.7,379,657.4,379z"/>
    </g>
  </g>
  <g>
    <g>
      <g>
        <polygon id="SVGID_58_" class="st3" points="513,449 513,469 521,484 529,469.3 537,484 545,469.3 553,484 560.8,469.3 
          568.8,484 577,469 577,449         "/>
      </g>
      <g>
        <defs>
          <polygon id="SVGID_32_" points="513,449 513,469 521,484 529,469.3 537,484 545,469.3 553,484 560.8,469.3 568.8,484 577,469 
            577,449           "/>
        </defs>
        <clipPath id="SVGID_33_">
          <use xlink:href="#SVGID_32_"  style="overflow:visible;"/>
        </clipPath>
        <g class="st38">
          <polygon class="st5" points="562.8,490.9 544,501.7 506.1,435.8 525,425           "/>
        </g>
      </g>
    </g>
    <g>
      <g>
        <polygon id="SVGID_60_" class="st3" points="576.8,478 568.8,492.7 561,478 553,492.7 545,478 537,492.7 529,478 521,492.8 
          513,478 513,493 513,513 577,513 577,493         "/>
      </g>
      <g>
        <defs>
          <polygon id="SVGID_34_" points="576.8,478 568.8,492.7 561,478 553,492.7 545,478 537,492.7 529,478 521,492.8 513,478 
            513,493 513,513 577,513 577,493           "/>
        </defs>
        <clipPath id="SVGID_35_">
          <use xlink:href="#SVGID_34_"  style="overflow:visible;"/>
        </clipPath>
        <g class="st39">
          <g>
            <polygon class="st5" points="588.2,525.7 569.7,536.3 531.8,470.4 550.5,459.8             "/>
          </g>
        </g>
      </g>
    </g>
  </g>
  <g>
    <g>
      <g>
        <polygon id="SVGID_100_" class="st3" points="695,212.3 673,199.5 650.8,212.3 673,225         "/>
      </g>
      <g>
        <defs>
          <polygon id="SVGID_36_" points="695,212.3 673,199.5 650.8,212.3 673,225           "/>
        </defs>
        <clipPath id="SVGID_37_">
          <use xlink:href="#SVGID_36_"  style="overflow:visible;"/>
        </clipPath>
        <g class="st40">
          <polygon class="st5" points="703.2,181.4 708.2,190 662.7,243.3 657.8,234.6           "/>
          <polygon class="st5" points="700.8,177.7 701.8,179.3 656.3,232.6 655.2,231           "/>
        </g>
      </g>
    </g>
    <g>
      <g>
        <polygon id="SVGID_102_" class="st3" points="649.8,214.2 649.8,239.8 672,252.5 672,227         "/>
      </g>
      <g>
        <defs>
          <polygon id="SVGID_38_" points="649.8,214.2 649.8,239.8 672,252.5 672,227           "/>
        </defs>
        <clipPath id="SVGID_39_">
          <use xlink:href="#SVGID_38_"  style="overflow:visible;"/>
        </clipPath>
        <g class="st41">
          <polygon class="st5" points="619.2,228.8 622.7,219.5 692.7,219.5 689.3,228.9           "/>
          <polygon class="st5" points="618,233.1 618.7,231.2 688.7,231.3 688.2,233.2           "/>
        </g>
      </g>
    </g>
    <g>
      <g>
        <polygon id="SVGID_104_" class="st3" points="674,252.5 696,239.8 696,214.3 674,227         "/>
      </g>
      <g>
        <defs>
          <polygon id="SVGID_40_" points="674,252.5 696,239.8 696,214.3 674,227           "/>
        </defs>
        <clipPath id="SVGID_41_">
          <use xlink:href="#SVGID_40_"  style="overflow:visible;"/>
        </clipPath>
        <g class="st42">
          <polygon class="st5" points="703.8,271 694,273.3 655.5,214.8 665.2,212.4           "/>
          <polygon class="st5" points="708,269.6 706,270.2 667.7,211.7 669.5,211.1           "/>
        </g>
      </g>
    </g>
  </g>
  <g>
    <polygon class="st29" points="444,198 391.4,198 444,250.6     "/>
    <polygon class="st31" points="442.6,252 390,199.4 390,252     "/>
  </g>
  <g>
    <g>
      
        <rect x="282.2" y="196.7" transform="matrix(0.7071 -0.7071 0.7071 0.7071 -75.5889 270.9265)" class="st29" width="14" height="60"/>
      <g>
        <path class="st30" d="M281.2,228.5l-11.3-11.3c12.2,1.2,21.4,4.5,27,7.2l11.3,11.3C302.5,233.1,293.4,229.7,281.2,228.5z"/>
        <path class="st31" d="M269.9,217.2l-6.8-6.8l9.9-9.9l23.9,23.9C291.2,221.8,282.1,218.4,269.9,217.2z"/>
      </g>
    </g>
    
      <rect x="293.9" y="191.1" transform="matrix(0.7071 -0.7071 0.7071 0.7071 -69.9321 273.2697)" class="st3" width="2" height="60"/>
  </g>
  <g>
    <g>
      <g>
        <circle class="st43" cx="304.9" cy="473.2" r="7.6"/>
        <path class="st44" d="M304.9,466.6c3.6,0,6.6,3,6.6,6.6s-3,6.6-6.6,6.6s-6.6-3-6.6-6.6C298.2,469.5,301.2,466.6,304.9,466.6
           M304.9,464.6c-4.7,0-8.6,3.8-8.6,8.6s3.8,8.6,8.6,8.6c4.8,0,8.6-3.8,8.6-8.6S309.6,464.6,304.9,464.6L304.9,464.6z"/>
      </g>
      <g>
        <line class="st45" x1="305" y1="468" x2="305" y2="478"/>
      </g>
      <g>
        <line class="st45" x1="310" y1="473" x2="300" y2="473"/>
      </g>
      <g>
        <line class="st45" x1="301.5" y1="469.5" x2="308.5" y2="476.5"/>
      </g>
      <g>
        <line class="st45" x1="308.5" y1="469.5" x2="301.5" y2="476.5"/>
      </g>
      <g>
        <circle class="st43" cx="304.9" cy="473.2" r="2.1"/>
      </g>
      <polygon class="st46" points="301.9,506.5 277.9,506.5 274.9,473.5 304.9,473.5       "/>
      <path class="st47" d="M263.5,468.5l7-8.9c1.3-1.6,3.7-0.9,4.1,1.1l12.7,45.8"/>
      <rect x="276" y="487" class="st29" width="28" height="19"/>
    </g>
    <polygon class="st48" points="280,474 283,507 285,507 282,474     "/>
    <polygon class="st48" points="284,474 287,507 289,507 286,474     "/>
    <g class="st49">
      <path class="st29" d="M304,474v32h-28v-32H304 M305,473h-30v34h30V473L305,473z"/>
    </g>
  </g>
  <g>
    <path class="st50" d="M139.8,485.3c0.1,0,0.3,0,0.4,0l0,0h42.5v-16.7h-42.5l0,0c-0.1,0-0.3,0-0.4,0c-3.7,0-6.8,3.7-6.8,8.3
      C132.9,481.6,135.9,485.3,139.8,485.3"/>
    <path class="st51" d="M182.2,485.3c3.7,0,6.8-3.7,6.8-8.3c0-4.6-3-8.3-6.8-8.3c-3.7,0-6.8,3.7-6.8,8.3
      C175.4,481.6,178.4,485.3,182.2,485.3"/>
    <path class="st27" d="M148.2,466.7v2c-1.8,0-3.3,0.5-4.4,1.6c-3,3-2.9,9.7-2.9,14.5c0,0.6,0,1.1,0,1.6v9.5h-2v-9.5
      c0-0.5,0-1,0-1.6c0-5.2-0.1-12.3,3.5-15.9C143.9,467.4,145.9,466.7,148.2,466.7z"/>
    <path class="st27" d="M183.9,496v-9.5c0-0.4,0-0.9,0-1.4c-0.6,0.2-1.2,0.3-1.8,0.3h-0.2c0,0.4,0,0.8,0,1.1v9.5H183.9"/>
    <path class="st27" d="M171.8,485.4c-0.3,0-0.6-0.1-0.8-0.1h-2c-0.4,0.4-0.8,0.7-1.3,1c1.3,0.8,2.9,1.1,4.8,1.1v-0.1
      c-0.3,0-0.5,0-0.8,0v-1.9"/>
    <path class="st27" d="M176.6,468.7v-2c-1.6,0-3.1,0.3-4.4,0.7c0.9,0.3,1.7,0.7,2.5,1.2h1.9"/>
    <path class="st27" d="M166.9,468.7v-2c-1.4,0-2.7,0.2-4,0.6c1.1,0.3,2,0.8,2.9,1.4H166.9"/>
    <path class="st27" d="M158.1,486.3c1.3,0.8,2.9,1.1,4.9,1.1v-2c-0.6,0-1.2,0-1.7-0.1h-1.9C158.9,485.7,158.6,486,158.1,486.3"/>
    <path class="st27" d="M153.4,485.4c-0.3,0-0.6-0.1-0.8-0.1h-4.4c1.4,1.4,3.4,2.1,6.1,2.1v-0.1c-0.3,0-0.5,0-0.8,0L153.4,485.4"/>
    <path class="st27" d="M158.1,468.7v-2c-1.6,0-3.1,0.3-4.4,0.7c0.9,0.3,1.7,0.7,2.5,1.2h1.9"/>
    <path class="st27" d="M172.2,467.4c-1.4-0.5-2.9-0.8-5.3-0.8v2c1.1,0,1.4,0,1.8,0.1h1C170.4,468.2,171.2,467.7,172.2,467.4"/>
    <path class="st27" d="M171.8,485.4L171.8,485.4c0.3,0,0.5,0.1,0.8,0.1v1.9c2.2-0.1,4-0.8,5.2-2h-4.8
      C172.6,485.4,172.1,485.4,171.8,485.4"/>
    <path class="st27" d="M171.8,485.4v2c0.3,0,0.6,0,0.8,0v-1.9C172.2,485.5,171.9,485.4,171.8,485.4"/>
    <path class="st27" d="M171.8,485.4v2c0.3,0,0.6,0,0.8,0v-1.9C172.2,485.5,171.9,485.4,171.8,485.4"/>
    <path class="st27" d="M174.6,468.7c-0.7-0.5-1.6-0.9-2.5-1.2c-0.9,0.3-1.8,0.7-2.5,1.2H174.6"/>
    <path class="st27" d="M172.2,467.4L172.2,467.4c-0.9,0.3-1.8,0.7-2.5,1.2h5C173.9,468.2,173.1,467.8,172.2,467.4L172.2,467.4"/>
    <path class="st27" d="M163.1,467.3c-1.3-0.4-2.6-0.6-5.1-0.6v2c1.3,0,1.7,0,2,0.1h0.1C160.9,468.1,161.9,467.6,163.1,467.3"/>
    <path class="st27" d="M164.1,485.3c-0.4,0-0.8,0.1-1.2,0.1v2c1.9,0,3.5-0.4,4.7-1.1c-0.5-0.3-0.9-0.6-1.2-1H164.1"/>
    <path class="st27" d="M166.4,485.3c0.4,0.4,0.8,0.7,1.2,1c0.5-0.3,0.9-0.6,1.3-1H166.4"/>
    <path class="st27" d="M168.9,485.3h-2.5c0.4,0.4,0.8,0.7,1.2,1C168.1,486,168.6,485.7,168.9,485.3"/>
    <path class="st27" d="M165.9,468.7c-0.9-0.6-1.8-1.1-2.9-1.4c-1.1,0.3-2.1,0.8-3,1.4H165.9"/>
    <path class="st27" d="M163.1,467.3L163.1,467.3c-1.1,0.3-2.1,0.8-3,1.4h5.9C165.1,468.1,164.1,467.6,163.1,467.3L163.1,467.3"/>
    <path class="st27" d="M154.4,485.3c-0.4,0-0.8,0.1-1.2,0.1l0,0c0.3,0,0.5,0,0.8,0v1.9c1.6-0.1,2.9-0.4,3.9-1.1
      c-0.5-0.3-0.9-0.6-1.2-1L154.4,485.3"/>
    <path class="st27" d="M153.9,467.4c-1.4-0.5-2.9-0.8-5.9-0.8v2c1.7,0,2,0,2.4,0.1h1C152.1,468.2,152.9,467.7,153.9,467.4"/>
    <path class="st27" d="M156.9,485.3c0.4,0.4,0.8,0.7,1.2,1c0.5-0.3,0.9-0.6,1.3-1H156.9"/>
    <path class="st27" d="M159.4,485.3h-2.5c0.4,0.4,0.8,0.7,1.2,1C158.6,486,158.9,485.7,159.4,485.3"/>
    <path class="st27" d="M156.2,468.7c-0.7-0.5-1.6-0.9-2.5-1.2c-0.9,0.3-1.8,0.7-2.5,1.2H156.2"/>
    <path class="st27" d="M153.9,467.4L153.9,467.4c-0.9,0.3-1.8,0.7-2.5,1.2h5C155.6,468.2,154.6,467.8,153.9,467.4L153.9,467.4"/>
    <path class="st27" d="M153.4,485.4v2c0.3,0,0.6,0,0.8,0v-1.9C153.9,485.5,153.6,485.4,153.4,485.4"/>
    <path class="st27" d="M153.4,485.4v2c0.3,0,0.6,0,0.8,0v-1.9C153.9,485.5,153.6,485.4,153.4,485.4"/>
    <path class="st52" d="M182.6,471.2v14.1l0,0c0.5,0,0.9-0.1,1.4-0.3c0-0.2,0-0.4,0-0.6C184.1,480.2,184.1,474.9,182.6,471.2"/>
    <path class="st27" d="M181.1,468.7l-0.2-0.3c-1.1-1.2-2.6-1.7-4.3-1.7v2H181.1"/>
    <path class="st27" d="M169.1,471.8c0.9-0.9,1.9-1.7,3.1-2.2c-0.8-0.4-1.7-0.6-2.7-0.8c-0.6,0.4-1.2,0.9-1.7,1.4
      C168.2,470.7,168.6,471.2,169.1,471.8"/>
    <path class="st27" d="M167.8,483.7c-1-1.1-1.4-2.8-1.4-5.2c0-1.7,0.5-3.5,1.4-5c-0.4-0.6-0.8-1.2-1.3-1.7c-1.4,2-2.2,4.4-2.2,6.7
      c0,2.8,0.6,4.9,1.7,6.4C166.8,484.6,167.2,484.2,167.8,483.7"/>
    <path class="st27" d="M168.9,485.3h1.9c-0.6-0.1-1.1-0.2-1.5-0.4C169.2,485,169.1,485.2,168.9,485.3"/>
    <path class="st53" d="M176.6,468.7h-1.9l0.2,0.1l0,0l0,0C175.4,468.7,176.1,468.7,176.6,468.7L176.6,468.7"/>
    <path class="st27" d="M159.4,485.3h1.9c-0.6-0.1-1.1-0.2-1.5-0.4C159.6,485,159.4,485.2,159.4,485.3"/>
    <path class="st27" d="M159.4,471.8c1-1,2.2-1.8,3.6-2.4c-0.9-0.4-1.9-0.6-3-0.7c-0.7,0.5-1.3,1-1.9,1.5
      C158.6,470.7,159.1,471.2,159.4,471.8"/>
    <path class="st27" d="M156.4,484.9c0.7-0.3,1.2-0.7,1.7-1.2c-1-1.1-1.4-2.8-1.4-5.2c0-1.7,0.5-3.5,1.4-5c-0.4-0.6-0.8-1.2-1.3-1.7
      c-1.4,2-2.2,4.4-2.2,6.7C154.6,481.3,155.2,483.4,156.4,484.9"/>
    <path class="st50" d="M165.9,468.7c0.3,0,0.6,0,1,0l0,0H165.9L165.9,468.7"/>
    <polyline class="st53" points="158.1,468.7 156.2,468.7 156.4,468.8 156.4,468.8 156.4,468.8 158.1,468.7 158.1,468.7     "/>
    <path class="st27" d="M147.9,478.5c0-3.6,2.1-7.2,5.9-8.9c-0.8-0.4-1.7-0.6-2.7-0.8c-3.3,2.3-5.2,6-5.2,9.7c0,3.1,0.7,5.4,2.1,6.9
      h4.4C149.4,484.8,147.9,482.7,147.9,478.5"/>
    <path class="st53" d="M177.1,482.6c-0.8,1.6-2.2,2.5-4.3,2.7h4.8c0.4-0.4,0.7-0.8,0.9-1.2C178.1,483.7,177.6,483.2,177.1,482.6
       M174.9,468.8L174.9,468.8c-1,0.1-1.9,0.4-2.7,0.8c1.7,0.8,3.1,2,4.1,3.5c0.3-0.7,0.7-1.3,1.1-1.9
      C176.6,470.3,175.9,469.5,174.9,468.8"/>
    <path class="st52" d="M177.4,471.2c-0.4,0.6-0.8,1.2-1.1,1.9c1.1,1.6,1.7,3.5,1.7,5.4c0,1.7-0.2,3.1-0.7,4.2
      c0.4,0.6,0.9,1.1,1.5,1.5c0.8-1.4,1.3-3.3,1.3-5.7C179.9,475.9,179.1,473.3,177.4,471.2"/>
    <path class="st53" d="M169.6,468.7h-1c0.3,0,0.5,0.1,0.8,0.1L169.6,468.7"/>
    <path class="st27" d="M174.9,468.8l-0.2-0.1h-5l-0.2,0.1c1,0.2,1.9,0.4,2.7,0.8C173.1,469.2,173.9,469,174.9,468.8z"/>
    <path class="st53" d="M169.1,471.8L169.1,471.8L169.1,471.8c-0.5,0.5-0.9,1.1-1.3,1.7c0.9,1.5,1.4,3.2,1.4,4.9
      c0,2.4-0.5,4.1-1.4,5.3c0.4,0.5,1,0.9,1.6,1.2c1.2-1.5,1.8-3.6,1.8-6.5C171.1,476.1,170.4,473.8,169.1,471.8"/>
    <path class="st50" d="M160.1,468.7h-0.1H160.1z"/>
    <path class="st53" d="M165.9,468.7L165.9,468.7c-1.1,0.1-2.1,0.3-3,0.7c1.4,0.6,2.5,1.4,3.5,2.4c0.4-0.5,0.8-1.1,1.3-1.6
      C167.2,469.7,166.6,469.2,165.9,468.7"/>
    <path class="st53" d="M166.1,484.9L166.1,484.9L166.1,484.9c-0.6,0.2-1.2,0.4-1.9,0.5h2.3C166.4,485.2,166.1,485,166.1,484.9"/>
    <path class="st27" d="M169.4,484.9c-0.7-0.3-1.2-0.7-1.6-1.2c-0.4,0.5-1,0.9-1.7,1.2c0.1,0.2,0.3,0.3,0.4,0.5h2.5
      C169.1,485.2,169.2,485,169.4,484.9z"/>
    <path class="st27" d="M166.4,471.8c0.5,0.5,0.9,1.1,1.3,1.7c0.4-0.6,0.8-1.2,1.3-1.7c-0.4-0.5-0.8-1.1-1.3-1.6
      C167.2,470.7,166.9,471.2,166.4,471.8z"/>
    <path class="st27" d="M165.9,468.7L165.9,468.7l-6-0.1l0,0c1.1,0.1,2.1,0.4,3,0.7C163.9,469,164.9,468.8,165.9,468.7z"/>
    <path class="st53" d="M156.4,468.8L156.4,468.8c-1,0.1-1.9,0.4-2.7,0.8c1.2,0.5,2.2,1.3,3.1,2.2c0.4-0.5,0.8-1.1,1.3-1.6
      C157.6,469.7,157.1,469.2,156.4,468.8"/>
    <path class="st53" d="M159.4,471.8L159.4,471.8L159.4,471.8c-0.5,0.5-0.9,1.1-1.3,1.7c0.9,1.5,1.4,3.2,1.4,4.9
      c0,2.4-0.5,4.1-1.4,5.3c0.4,0.5,1,0.9,1.6,1.2c1.2-1.5,1.8-3.6,1.8-6.5C161.6,476.1,160.8,473.8,159.4,471.8"/>
    <path class="st53" d="M151.2,468.7h-1c0.3,0,0.5,0.1,0.8,0.1L151.2,468.7"/>
    <path class="st53" d="M156.4,484.9L156.4,484.9L156.4,484.9c-0.6,0.2-1.2,0.4-1.9,0.5h2.3C156.6,485.2,156.6,485,156.4,484.9"/>
    <path class="st27" d="M158.1,483.7c-0.4,0.5-1,0.9-1.7,1.2c0.1,0.2,0.3,0.3,0.4,0.5h2.5c0.1-0.1,0.3-0.3,0.4-0.4
      C159.1,484.6,158.6,484.2,158.1,483.7z"/>
    <path class="st27" d="M156.9,471.8c0.5,0.5,0.9,1.1,1.3,1.7c0.4-0.6,0.8-1.2,1.3-1.7c-0.4-0.5-0.8-1.1-1.3-1.6
      C157.6,470.7,157.2,471.2,156.9,471.8z"/>
    <path class="st27" d="M156.4,468.8l-0.2-0.1h-5l-0.2,0.1c1,0.2,1.9,0.4,2.7,0.8C154.6,469.2,155.6,469,156.4,468.8z"/>
    <path class="st53" d="M182.2,485.3L182.2,485.3L182.2,485.3L182.2,485.3 M181.1,468.7h-4.5l0,0c1,0,1.9,0.3,2.6,0.9
      C179.9,469.2,180.4,468.9,181.1,468.7L181.1,468.7"/>
    <path class="st52" d="M181.2,468.8c-0.7,0.1-1.4,0.4-2,0.8c0.1,0.1,0.2,0.2,0.3,0.3c2.7,2.7,2.6,9.8,2.5,14.5c0,0.3,0,0.6,0,1h0.2
      l0,0c0.1,0,0.3,0,0.4,0v-14.1l0,0C182.2,470.2,181.8,469.4,181.2,468.8"/>
  </g>
  <g>
    <g>
      <defs>
        <rect id="SVGID_42_" x="257" y="65" width="64" height="64"/>
      </defs>
      <clipPath id="SVGID_43_">
        <use xlink:href="#SVGID_42_"  style="overflow:visible;"/>
      </clipPath>
      <g class="st54">
        <g>
          
            <image style="overflow:visible;opacity:0.5;enable-background:new    ;" width="90" height="60" xlink:href="drafts/tiles/5C38DF8F0A7D0549.png"  transform="matrix(1 0 0 1 243.95 67)">
          </image>
          <g>
            <path class="st55" d="M259.8,97c10.6,0,17.6-15,29.1-15s18.5,15,29.9,15c-11.4,0-19.4,15-29.9,15S270.2,97,259.8,97z"/>
          </g>
        </g>
        <g>
          <path class="st56" d="M257,97c0,0,0.5,0,1.1,0c3.2,0,3.7,3.2,5.3,3.2c2.5,0,4.4-11.5,6.3-11.6c2.6-0.1,5.6,22.1,8.4,22.1
            c3.5,0,6-31.4,10.5-31.6c4.4-0.2,6.1,31.9,10.5,31.6c3.4-0.2,7.3-21.3,9.5-21.1c1.5,0.1,3.2,8.5,6.3,9.5
            c1.6,0.5,0.5-2.1,3.2-2.1c0.3,0,2.8,0,2.8,0"/>
        </g>
      </g>
    </g>
  </g>
  <g>
    <g>
      <path class="st1" d="M317,359.8V350h-5.5c-1.2,9-11.1,16-23,16s-21.9-7-23-16H260v9.9c0,12.7,12.8,23.1,28.5,23.1
        S317,372.6,317,359.8z"/>
      <path class="st57" d="M317,348.2c0-12.8-12.8-23.2-28.5-23.2S260,335.4,260,348.2c0,12.8,12.8,23.2,28.5,23.2
        C304.2,371.3,317,361,317,348.2z M265.5,350c1.2-9,11.1-16,23-16s21.9,7,23,16c-1.2,9-11.1,16-23,16S266.6,359,265.5,350z"/>
      <path class="st1" d="M288.5,333.9c12,0,21.9,7,23,16c0.1-0.6,0.1-1.2,0.1-1.8c0-9.8-10.4-17.8-23.2-17.8
        c-12.8,0-23.2,8-23.2,17.8c0,0.6,0,1.2,0.1,1.8C266.6,341,276.5,333.9,288.5,333.9z"/>
    </g>
    <g>
      <g>
        <defs>
          <path id="SVGID_44_" d="M311.5,350c-1.2,9-11.1,16-23,16s-21.9-7-23-16c1.2-9,11.1-16,23-16S310.3,341,311.5,350z"/>
        </defs>
        <clipPath id="SVGID_45_">
          <use xlink:href="#SVGID_44_"  style="overflow:visible;"/>
        </clipPath>
        <g class="st58">
          <rect x="271" y="315" class="st3" width="3" height="69"/>
          <rect x="277" y="315" class="st3" width="3" height="69"/>
          <g>
            <rect x="265" y="315" class="st3" width="3" height="69"/>
          </g>
          <rect x="283" y="315" class="st3" width="3" height="69"/>
          <rect x="289" y="315" class="st3" width="3" height="69"/>
          <rect x="295" y="315" class="st3" width="3" height="69"/>
          <rect x="301" y="315" class="st3" width="3" height="69"/>
          <g>
            <rect x="307" y="315" class="st3" width="3" height="69"/>
          </g>
        </g>
      </g>
    </g>
  </g>
  <g>
    <g>
      <path class="st59" d="M189,358.8V349h-5.5c-1.2,9-11.1,16-23,16s-21.9-7-23-16H132v9.9c0,12.7,12.8,23.1,28.5,23.1
        S189,371.6,189,358.8z"/>
      <path class="st31" d="M189,347.2c0-12.8-12.8-23.2-28.5-23.2S132,334.4,132,347.2c0,12.8,12.8,23.2,28.5,23.2
        C176.2,370.3,189,360,189,347.2z M137.5,349c1.2-9,11.1-16,23-16s21.9,7,23,16c-1.2,9-11.1,16-23,16S138.6,358,137.5,349z"/>
      <path class="st59" d="M160.5,332.9c12,0,21.9,7,23,16c0.1-0.6,0.1-1.2,0.1-1.8c0-9.8-10.4-17.8-23.2-17.8
        c-12.8,0-23.2,8-23.2,17.8c0,0.6,0,1.2,0.1,1.8C138.6,340,148.5,332.9,160.5,332.9z"/>
    </g>
    <g>
      <g>
        <defs>
          <path id="SVGID_46_" d="M183.5,349c-1.2,9-11.1,16-23,16s-21.9-7-23-16c1.2-9,11.1-16,23-16S182.3,340,183.5,349z"/>
        </defs>
        <clipPath id="SVGID_47_">
          <use xlink:href="#SVGID_46_"  style="overflow:visible;"/>
        </clipPath>
        <g class="st60">
          <rect x="143" y="314" class="st29" width="3" height="69"/>
          <rect x="149" y="314" class="st29" width="3" height="69"/>
          <g>
            <rect x="137" y="314" class="st29" width="3" height="69"/>
          </g>
          <rect x="155" y="314" class="st29" width="3" height="69"/>
          <rect x="161" y="314" class="st29" width="3" height="69"/>
          <rect x="167" y="314" class="st29" width="3" height="69"/>
          <rect x="173" y="314" class="st29" width="3" height="69"/>
          <g>
            <rect x="179" y="314" class="st29" width="3" height="69"/>
          </g>
        </g>
      </g>
    </g>
  </g>
  <g>
    <g>
      <path class="st61" d="M405.4,106.7c0,0-14.4,2.5-14.4,16.5"/>
      <g>
        <polygon class="st12" points="441.9,86.2 441.6,81 437.3,83.9         "/>
        <polygon class="st12" points="437.7,89 437.4,83.8 433.1,86.7         "/>
        <polygon class="st12" points="433.6,91.7 433.2,86.5 428.9,89.4         "/>
        <polygon class="st12" points="429.4,94.5 429.1,89.3 424.7,92.2         "/>
      </g>
      <g>
        <polygon class="st12" points="428.5,98.4 423.8,100.7 428.1,103.6         "/>
        <polygon class="st12" points="432.6,101.2 427.9,103.5 432.2,106.4         "/>
        <polygon class="st12" points="436.7,104 432.1,106.3 436.4,109.2         "/>
        <polygon class="st12" points="440.9,106.8 436.2,109.1 440.5,112         "/>
      </g>
      <g>
        <defs>
          <path id="SVGID_48_" d="M418.9,96.7l23.3-15.7c-5-7.4-13.5-12.3-23.2-12.3c-15.5,0-28,12.5-28,28c0,15.5,12.5,28,28,28
            c9.6,0,18.1-4.9,23.2-12.3L418.9,96.7z"/>
        </defs>
        <use xlink:href="#SVGID_48_"  style="overflow:visible;fill:#09D67E;"/>
        <clipPath id="SVGID_49_">
          <use xlink:href="#SVGID_48_"  style="overflow:visible;"/>
        </clipPath>
        <path class="st62" d="M397,71.7c0,0-11,48,53,45s-18,20-18,20l-32-7l-13-36v-16L397,71.7z"/>
        <polygon class="st63" points="440,74.7 417,96.7 441,118.7 446,111.7 447,86.7 445,78.7         "/>
      </g>
      <g class="st64">
        <g>
          <circle class="st65" cx="425" cy="78.7" r="5"/>
        </g>
        <g>
          <circle class="st65" cx="400" cy="86.7" r="4"/>
        </g>
        <g>
          <circle class="st65" cx="412" cy="99.7" r="3"/>
        </g>
        <g>
          <circle class="st65" cx="423" cy="114.7" r="5"/>
        </g>
        <g>
          <circle class="st65" cx="398" cy="108.7" r="2"/>
        </g>
        <g>
          <circle class="st65" cx="408" cy="74.7" r="2"/>
        </g>
      </g>
    </g>
  </g>
</g>
</svg>
