<svg version="1.1" id="prefix__Layer_1" xmlns="http://www.w3.org/2000/svg" xmlns:xlink="http://www.w3.org/1999/xlink" x="0" y="0" viewBox="0 0 834 578" xml:space="preserve"><style>.prefix__st0{fill:none}.prefix__st1{fill:#3c2c50}.prefix__st2{fill:#edeaf4}.prefix__st3{fill:#5a4278}.prefix__st5{fill:#7858a0}.prefix__st8{fill:#615777}.prefix__st10{fill:#120223}.prefix__st12{fill:#fff}.prefix__st13{fill:#5c00d3}.prefix__st26{fill:#4b2299}.prefix__st27{fill:#f05}.prefix__st28{fill:none;stroke:#f05;stroke-miterlimit:10}.prefix__st29{fill:#61dbef}.prefix__st30{fill:#4ad1d8}.prefix__st31{fill:#4ac4d1}.prefix__st32{opacity:.66}.prefix__st34{opacity:.1;fill:#fff;enable-background:new}.prefix__st43{fill:#faff1f}.prefix__st45{fill:none;stroke:#ffd31a;stroke-miterlimit:10}.prefix__st48{opacity:.5;fill:#fafcfc;enable-background:new}.prefix__st50{fill:#0071dd}.prefix__st52{fill:#4d3180}.prefix__st53{fill:#4d4fb4}.prefix__st59{fill:#41a0a5}.prefix__st65{fill:#2e5b37}</style><pattern y="-190" width="3" height="3" patternUnits="userSpaceOnUse" id="prefix__SVGID_53_" viewBox="0 -3 3 3" overflow="visible"><path class="prefix__st0" d="M0-3h3v3H0z"/><path class="prefix__st0" d="M0-3h3v3H0z"/><path class="prefix__st1" d="M1-2h1v1H1z"/><path class="prefix__st0" d="M0-3h3v3H0z"/></pattern><circle class="prefix__st2" cx="1" cy="1" r="1"/><circle class="prefix__st2" cx="65" cy="1" r="1"/><circle class="prefix__st2" cx="129" cy="1" r="1"/><circle class="prefix__st2" cx="193" cy="1" r="1"/><circle class="prefix__st2" cx="257" cy="1" r="1"/><circle class="prefix__st2" cx="321" cy="1" r="1"/><circle class="prefix__st2" cx="385" cy="1" r="1"/><circle class="prefix__st2" cx="449" cy="1" r="1"/><circle class="prefix__st2" cx="513" cy="1" r="1"/><circle class="prefix__st2" cx="577" cy="1" r="1"/><circle class="prefix__st2" cx="641" cy="1" r="1"/><circle class="prefix__st2" cx="705" cy="1" r="1"/><circle class="prefix__st2" cx="769" cy="1" r="1"/><circle class="prefix__st2" cx="833" cy="1" r="1"/><circle class="prefix__st2" cx="1" cy="65" r="1"/><circle class="prefix__st2" cx="65" cy="65" r="1"/><circle class="prefix__st2" cx="129" cy="65" r="1"/><circle class="prefix__st2" cx="193" cy="65" r="1"/><circle class="prefix__st2" cx="257" cy="65" r="1"/><circle class="prefix__st2" cx="321" cy="65" r="1"/><circle class="prefix__st2" cx="385" cy="65" r="1"/><circle class="prefix__st2" cx="449" cy="65" r="1"/><circle class="prefix__st2" cx="513" cy="65" r="1"/><circle class="prefix__st2" cx="577" cy="65" r="1"/><circle class="prefix__st2" cx="641" cy="65" r="1"/><circle class="prefix__st2" cx="705" cy="65" r="1"/><circle class="prefix__st2" cx="769" cy="65" r="1"/><circle class="prefix__st2" cx="833" cy="65" r="1"/><circle class="prefix__st2" cx="1" cy="129" r="1"/><circle class="prefix__st2" cx="65" cy="129" r="1"/><circle class="prefix__st2" cx="129" cy="129" r="1"/><circle class="prefix__st2" cx="193" cy="129" r="1"/><circle class="prefix__st2" cx="257" cy="129" r="1"/><circle class="prefix__st2" cx="321" cy="129" r="1"/><circle class="prefix__st2" cx="385" cy="129" r="1"/><circle class="prefix__st2" cx="449" cy="129" r="1"/><circle class="prefix__st2" cx="513" cy="129" r="1"/><circle class="prefix__st2" cx="577" cy="129" r="1"/><circle class="prefix__st2" cx="641" cy="129" r="1"/><circle class="prefix__st2" cx="705" cy="129" r="1"/><circle class="prefix__st2" cx="769" cy="129" r="1"/><circle class="prefix__st2" cx="833" cy="129" r="1"/><circle class="prefix__st2" cx="1" cy="193" r="1"/><circle class="prefix__st2" cx="65" cy="193" r="1"/><circle class="prefix__st2" cx="129" cy="193" r="1"/><circle class="prefix__st2" cx="193" cy="193" r="1"/><circle class="prefix__st2" cx="257" cy="193" r="1"/><circle class="prefix__st2" cx="321" cy="193" r="1"/><circle class="prefix__st2" cx="385" cy="193" r="1"/><circle class="prefix__st2" cx="449" cy="193" r="1"/><circle class="prefix__st2" cx="513" cy="193" r="1"/><circle class="prefix__st2" cx="577" cy="193" r="1"/><circle class="prefix__st2" cx="641" cy="193" r="1"/><circle class="prefix__st2" cx="705" cy="193" r="1"/><circle class="prefix__st2" cx="769" cy="193" r="1"/><circle class="prefix__st2" cx="833" cy="193" r="1"/><circle class="prefix__st2" cx="1" cy="257" r="1"/><circle class="prefix__st2" cx="65" cy="257" r="1"/><circle class="prefix__st2" cx="129" cy="257" r="1"/><circle class="prefix__st2" cx="193" cy="257" r="1"/><circle class="prefix__st2" cx="257" cy="257" r="1"/><circle class="prefix__st2" cx="321" cy="257" r="1"/><circle class="prefix__st2" cx="385" cy="257" r="1"/><circle class="prefix__st2" cx="449" cy="257" r="1"/><circle class="prefix__st2" cx="513" cy="257" r="1"/><circle class="prefix__st2" cx="577" cy="257" r="1"/><circle class="prefix__st2" cx="641" cy="257" r="1"/><circle class="prefix__st2" cx="705" cy="257" r="1"/><circle class="prefix__st2" cx="769" cy="257" r="1"/><circle class="prefix__st2" cx="833" cy="257" r="1"/><circle class="prefix__st2" cx="1" cy="321" r="1"/><circle class="prefix__st2" cx="65" cy="321" r="1"/><circle class="prefix__st2" cx="129" cy="321" r="1"/><circle class="prefix__st2" cx="193" cy="321" r="1"/><circle class="prefix__st2" cx="257" cy="321" r="1"/><circle class="prefix__st2" cx="321" cy="321" r="1"/><circle class="prefix__st2" cx="385" cy="321" r="1"/><circle class="prefix__st2" cx="449" cy="321" r="1"/><circle class="prefix__st2" cx="513" cy="321" r="1"/><circle class="prefix__st2" cx="577" cy="321" r="1"/><circle class="prefix__st2" cx="641" cy="321" r="1"/><circle class="prefix__st2" cx="705" cy="321" r="1"/><circle class="prefix__st2" cx="769" cy="321" r="1"/><circle class="prefix__st2" cx="833" cy="321" r="1"/><circle class="prefix__st2" cx="1" cy="385" r="1"/><circle class="prefix__st2" cx="65" cy="385" r="1"/><circle class="prefix__st2" cx="129" cy="385" r="1"/><circle class="prefix__st2" cx="193" cy="385" r="1"/><circle class="prefix__st2" cx="257" cy="385" r="1"/><circle class="prefix__st2" cx="321" cy="385" r="1"/><circle class="prefix__st2" cx="385" cy="385" r="1"/><circle class="prefix__st2" cx="449" cy="385" r="1"/><circle class="prefix__st2" cx="513" cy="385" r="1"/><circle class="prefix__st2" cx="577" cy="385" r="1"/><circle class="prefix__st2" cx="641" cy="385" r="1"/><circle class="prefix__st2" cx="705" cy="385" r="1"/><circle class="prefix__st2" cx="769" cy="385" r="1"/><circle class="prefix__st2" cx="833" cy="385" r="1"/><circle class="prefix__st2" cx="1" cy="449" r="1"/><circle class="prefix__st2" cx="65" cy="449" r="1"/><circle class="prefix__st2" cx="129" cy="449" r="1"/><circle class="prefix__st2" cx="193" cy="449" r="1"/><circle class="prefix__st2" cx="257" cy="449" r="1"/><circle class="prefix__st2" cx="321" cy="449" r="1"/><circle class="prefix__st2" cx="385" cy="449" r="1"/><circle class="prefix__st2" cx="449" cy="449" r="1"/><circle class="prefix__st2" cx="513" cy="449" r="1"/><circle class="prefix__st2" cx="577" cy="449" r="1"/><circle class="prefix__st2" cx="641" cy="449" r="1"/><circle class="prefix__st2" cx="705" cy="449" r="1"/><circle class="prefix__st2" cx="769" cy="449" r="1"/><circle class="prefix__st2" cx="833" cy="449" r="1"/><circle class="prefix__st2" cx="1" cy="513" r="1"/><circle class="prefix__st2" cx="65" cy="513" r="1"/><circle class="prefix__st2" cx="129" cy="513" r="1"/><circle class="prefix__st2" cx="193" cy="513" r="1"/><circle class="prefix__st2" cx="257" cy="513" r="1"/><circle class="prefix__st2" cx="321" cy="513" r="1"/><circle class="prefix__st2" cx="385" cy="513" r="1"/><circle class="prefix__st2" cx="449" cy="513" r="1"/><circle class="prefix__st2" cx="513" cy="513" r="1"/><circle class="prefix__st2" cx="577" cy="513" r="1"/><circle class="prefix__st2" cx="641" cy="513" r="1"/><circle class="prefix__st2" cx="705" cy="513" r="1"/><circle class="prefix__st2" cx="769" cy="513" r="1"/><circle class="prefix__st2" cx="833" cy="513" r="1"/><circle class="prefix__st2" cx="1" cy="577" r="1"/><circle class="prefix__st2" cx="65" cy="577" r="1"/><circle class="prefix__st2" cx="129" cy="577" r="1"/><circle class="prefix__st2" cx="193" cy="577" r="1"/><circle class="prefix__st2" cx="257" cy="577" r="1"/><circle class="prefix__st2" cx="321" cy="577" r="1"/><circle class="prefix__st2" cx="385" cy="577" r="1"/><circle class="prefix__st2" cx="449" cy="577" r="1"/><circle class="prefix__st2" cx="513" cy="577" r="1"/><circle class="prefix__st2" cx="577" cy="577" r="1"/><circle class="prefix__st2" cx="641" cy="577" r="1"/><circle class="prefix__st2" cx="705" cy="577" r="1"/><circle class="prefix__st2" cx="769" cy="577" r="1"/><circle class="prefix__st2" cx="833" cy="577" r="1"/><g><path id="prefix__SVGID_1_" transform="rotate(-45.001 545 225.007)" class="prefix__st3" d="M538 195h14v60h-14z"/><defs><path id="prefix__SVGID_2_" transform="rotate(-45.001 545 225.007)" d="M538 195h14v60h-14z"/></defs><clipPath id="prefix__SVGID_3_"><use xlink:href="#prefix__SVGID_2_" overflow="visible"/></clipPath><g clip-path="url(#prefix__SVGID_3_)"><path class="prefix__st5" d="M537.2 254.6l-9.3-3.6 2.2-70.1 9.3 3.7zM541.4 255.9l-1.8-.6 2.1-70 1.8.6z"/></g></g><g><path id="prefix__SVGID_17_" d="M523 122.7l-7.3-12.5c-.5-.7-.7-1.6-.5-2.5l6-20.5c1.6-6.5 7.5-9.2 14.2-9.2l14.1.9c1.6.1 3.1.7 4.4 1.7L568 92.4c1.3 1 2.1 2.5 2.5 4.1l3.3 14.6c.1.6 0 1.3-.3 1.9l-3.7 9.4c-.5 1.1-1.6 1.7-2.8 1.7h-41.5c-1-.1-2-.6-2.5-1.4z" fill="#44375e"/><defs><path id="prefix__SVGID_4_" d="M523 122.7l-7.3-12.5c-.5-.7-.7-1.6-.5-2.5l6-20.5c1.6-6.5 7.5-9.2 14.2-9.2l14.1.9c1.6.1 3.1.7 4.4 1.7L568 92.4c1.3 1 2.1 2.5 2.5 4.1l3.3 14.6c.1.6 0 1.3-.3 1.9l-3.7 9.4c-.5 1.1-1.6 1.7-2.8 1.7h-41.5c-1-.1-2-.6-2.5-1.4z"/></defs><clipPath id="prefix__SVGID_5_"><use xlink:href="#prefix__SVGID_4_" overflow="visible"/></clipPath><g clip-path="url(#prefix__SVGID_5_)"><path class="prefix__st8" d="M558 82c-4.4-.5-21.9-2.4-25.5.5-4.2 3.4-7.5 23.5-7.5 25.5 0 1.7 2.8 10.9 3.7 14l-3.7 2c-1 0-5.4-1.2-6-2l-6-10c-.5-.7-1.2-3.1-1-4l7-22c1.6-6.5 8.3-10 15-10h11c1 0 5.4-.8 6 0l7 6z"/><path d="M575 113l-3 8c-.5 1-1.8 3-3 3l-29.4-2c7.9-1.1 17.4-2 20.9-2.5 4.9-.7 6.5-3.5 6.5-6.5 0-2 0-7-2-9s-5.5-1.5-10.5-2.5-7-11-6-13c.7-1.3 7.3-7.2 8.5-8.5l12 11c2.6.8 2.2 6.7 2.6 9.4l4.4 9.6c0 .6-.8 2.4-1 3z" fill="#2f2549"/><path class="prefix__st10" d="M522 125h49l1-3h-53z"/></g><g><defs><path id="prefix__SVGID_6_" d="M559 96h-36l1.2 8.9H559z"/></defs><clipPath id="prefix__SVGID_7_"><use xlink:href="#prefix__SVGID_6_" overflow="visible"/></clipPath><g clip-path="url(#prefix__SVGID_7_)"><circle class="prefix__st12" cx="531.8" cy="97.3" r="6.5"/><circle class="prefix__st10" cx="531.8" cy="97.3" r="3.3"/><circle class="prefix__st12" cx="550.2" cy="97.3" r="6.5"/><circle class="prefix__st10" cx="550.2" cy="97.3" r="3.3"/><circle class="prefix__st13" cx="531.8" cy="97.3" r="1.3"/><circle class="prefix__st13" cx="550.2" cy="97.3" r="1.3"/></g></g><g><defs><path id="prefix__SVGID_8_" d="M521.8 88h36v8h-36z"/></defs><clipPath id="prefix__SVGID_9_"><use xlink:href="#prefix__SVGID_8_" overflow="visible"/></clipPath><g clip-path="url(#prefix__SVGID_9_)"><circle class="prefix__st8" cx="531.8" cy="97.3" r="6.5"/><circle class="prefix__st8" cx="550.2" cy="97.3" r="6.5"/></g></g><path d="M524.3 87.2c-.1 0-.2 0-.3-.1-.4-.2-.6-.6-.4-1 .1-.2 2.2-5.4 7.5-6.5.4-.1.8.2.9.6.1.4-.2.8-.6.9-4.5.9-6.4 5.5-6.5 5.5-.1.5-.2.6-.6.6z" opacity=".35" fill="#fff"/></g><g><path class="prefix__st10" d="M444.5 483.5v-5H438c-.5-4-2-7.6-4.4-10.6l4.6-4.6-3.5-3.5-4.6 4.6c-3-2.4-6.6-3.9-10.6-4.4v-6.4h-5v6.4c-4 .5-7.6 2-10.6 4.4l-4.6-4.6-3.5 3.5 4.6 4.6c-2.4 3-3.9 6.6-4.4 10.6h-6.6v5h6.4c.5 4 2 7.6 4.4 10.6l-4.6 4.6 3.5 3.5 4.6-4.6c3 2.4 6.6 3.9 10.6 4.4v6.4h5V502c4-.5 7.6-2 10.6-4.4l4.6 4.6 3.5-3.5-4.6-4.6c2.4-3 3.9-6.6 4.4-10.6h6.7z"/><path class="prefix__st12" d="M412 471.6v-5.9c-4.9 1.5-8.8 5.4-10.3 10.3h5.9c1-1.8 2.5-3.3 4.4-4.4z"/></g><g><path class="prefix__st12" d="M679 122.1l5.2-.1-2.7-4.4-2.5 4.5"/><path class="prefix__st12" d="M676.5 117.8l5.2-.1-2.7-4.4-2.5 4.5"/><path class="prefix__st12" d="M674 113.5l5.2-.1-2.7-4.4-2.5 4.5M667.2 122.1l-5.2-.1 2.5-4.4 2.7 4.5"/><path class="prefix__st12" d="M669.7 117.8l-5.2-.1 2.7-4.4 2.5 4.5"/><path class="prefix__st12" d="M672.2 113.5l-5.2-.1 2.8-4.4 2.4 4.5M667.2 72H662l2.5 4.5 2.7-4.5"/><path class="prefix__st12" d="M669.7 76.3h-5.2l2.7 4.5 2.5-4.5"/><path class="prefix__st12" d="M672.2 80.6H667l2.8 4.5 2.4-4.5M679 72h5.2l-2.7 4.5L679 72"/><path class="prefix__st12" d="M676.5 76.3h5.2l-2.7 4.5-2.5-4.5"/><path class="prefix__st12" d="M674 80.6h5.2l-2.7 4.5-2.5-4.5M698.2 90.6l-.2-5.2-4.3 2.6 4.5 2.6"/><path class="prefix__st12" d="M693.8 93.1v-5.2l-4.5 2.7 4.5 2.5"/><path class="prefix__st12" d="M689.5 95.7v-5.2l-4.5 2.7 4.5 2.5M698.2 102.5l-.2 5.2-4.3-2.7 4.5-2.5"/><path class="prefix__st12" d="M693.8 99.9v5.2l-4.5-2.6 4.5-2.6"/><path class="prefix__st12" d="M689.5 97.4v5.2l-4.5-2.7 4.5-2.5M648 102.5v5.2l4.5-2.7-4.5-2.5"/><path class="prefix__st12" d="M652.3 99.9v5.2l4.5-2.6-4.5-2.6"/><path class="prefix__st12" d="M656.7 97.4v5.2l4.5-2.7-4.5-2.5M648 90.6v-5.2l4.5 2.6-4.5 2.6"/><path class="prefix__st12" d="M652.3 93.1v-5.2l4.5 2.7-4.5 2.5"/><path class="prefix__st12" d="M656.7 95.7v-5.2l4.5 2.7-4.5 2.5"/><path class="prefix__st13" d="M673 103.1l11.5 19.5c6.4-2.9 11.6-8.1 14.3-14.6l-19.3-11.4 19-11.2c-2.9-6.3-8-11.3-14.4-14.1L673 90l-11-18.7c-6.4 2.7-11.5 7.8-14.4 14.1l19 11.2-19.4 11.4c2.7 6.5 7.9 11.7 14.3 14.6l11.5-19.5"/><defs><path id="prefix__SVGID_10_" d="M673 103.1l11.5 19.5c6.4-2.9 11.6-8.1 14.3-14.6l-19.3-11.4 19-11.2c-2.9-6.3-8-11.3-14.4-14.1L673 90l-11-18.7c-6.4 2.7-11.5 7.8-14.4 14.1l19 11.2-19.4 11.4c2.7 6.5 7.9 11.7 14.3 14.6l11.5-19.5"/></defs><clipPath id="prefix__SVGID_11_"><use xlink:href="#prefix__SVGID_10_" overflow="visible"/></clipPath><path d="M673 102.1l-15.6 18.2c1.3.9 2.7 1.6 4.1 2.3l11.5-19.5 11.5 19.5c1.4-.7 2.8-1.4 4.1-2.3L673 102.1" clip-path="url(#prefix__SVGID_11_)" fill="#4a2495"/><defs><path id="prefix__SVGID_12_" d="M673 103.1l11.5 19.5c6.4-2.9 11.6-8.1 14.3-14.6l-19.3-11.4 19-11.2c-2.9-6.3-8-11.3-14.4-14.1L673 90l-11-18.7c-6.4 2.7-11.5 7.8-14.4 14.1l19 11.2-19.4 11.4c2.7 6.5 7.9 11.7 14.3 14.6l11.5-19.5"/></defs><clipPath id="prefix__SVGID_13_"><use xlink:href="#prefix__SVGID_12_" overflow="visible"/></clipPath><path d="M686.2 75.6c-1.7.1-3.4.4-5.2.8l-2.5 4.3-2.3 4-3.2 5.5-4.7-7.9c-.6.4-1.2.9-1.8 1.4l6.4 7.5 13.3-15.6" clip-path="url(#prefix__SVGID_13_)" fill="#4a2495"/><defs><path id="prefix__SVGID_14_" d="M673 103.1l11.5 19.5c6.4-2.9 11.6-8.1 14.3-14.6l-19.3-11.4 19-11.2c-2.9-6.3-8-11.3-14.4-14.1L673 90l-11-18.7c-6.4 2.7-11.5 7.8-14.4 14.1l19 11.2-19.4 11.4c2.7 6.5 7.9 11.7 14.3 14.6l11.5-19.5"/></defs><clipPath id="prefix__SVGID_15_"><use xlink:href="#prefix__SVGID_14_" overflow="visible"/></clipPath><path d="M660.5 90.7c-.4.6-.7 1.2-1.1 1.8l7 4.1-5.5 3.2-4.3 2.5-1.5.9c-.4 1.5-.8 3.1-1.1 4.8l13.4-11.4-6.9-5.9" clip-path="url(#prefix__SVGID_15_)" fill="#4a2495"/><defs><path id="prefix__SVGID_16_" d="M673 103.1l11.5 19.5c6.4-2.9 11.6-8.1 14.3-14.6l-19.3-11.4 19-11.2c-2.9-6.3-8-11.3-14.4-14.1L673 90l-11-18.7c-6.4 2.7-11.5 7.8-14.4 14.1l19 11.2-19.4 11.4c2.7 6.5 7.9 11.7 14.3 14.6l11.5-19.5"/></defs><clipPath id="prefix__SVGID_18_"><use xlink:href="#prefix__SVGID_16_" overflow="visible"/></clipPath><path d="M696.2 81.4l-17.7 15.2 18.1 15.5c.8-1.3 1.6-2.7 2.2-4.2l-9.3-5.5-4.4-2.6-5.6-3.3 19-11.2c-.7-1.3-1.5-2.6-2.3-3.9" clip-path="url(#prefix__SVGID_18_)" fill="#4a2495"/><g><defs><path id="prefix__SVGID_19_" d="M673 103.1l11.5 19.5c6.4-2.9 11.6-8.1 14.3-14.6l-19.3-11.4 19-11.2c-2.9-6.3-8-11.3-14.4-14.1L673 90l-11-18.7c-6.4 2.7-11.5 7.8-14.4 14.1l19 11.2-19.4 11.4c2.7 6.5 7.9 11.7 14.3 14.6l11.5-19.5"/></defs><clipPath id="prefix__SVGID_20_"><use xlink:href="#prefix__SVGID_19_" overflow="visible"/></clipPath><path d="M657.8 73.5c-3.2 2.1-6 4.8-8.1 7.9l10.8 9.2c1.8-2.8 3.8-5.2 6-7.1l-8.7-10" clip-path="url(#prefix__SVGID_20_)" fill="#4f00c0"/></g><g><defs><path id="prefix__SVGID_21_" d="M673 103.1l11.5 19.5c6.4-2.9 11.6-8.1 14.3-14.6l-19.3-11.4 19-11.2c-2.9-6.3-8-11.3-14.4-14.1L673 90l-11-18.7c-6.4 2.7-11.5 7.8-14.4 14.1l19 11.2-19.4 11.4c2.7 6.5 7.9 11.7 14.3 14.6l11.5-19.5"/></defs><clipPath id="prefix__SVGID_22_"><use xlink:href="#prefix__SVGID_21_" overflow="visible"/></clipPath><path d="M654 108.1l-4.8 4.1c1.1 1.7 2.3 3.2 3.7 4.6.3-3.2.8-6.1 1.1-8.7m34-34.6l-1.8 2c1.4-.1 2.7-.2 3.9-.2h.4c-.7-.6-1.5-1.2-2.5-1.8" clip-path="url(#prefix__SVGID_22_)" fill="#4f00c0"/></g><g><defs><path id="prefix__SVGID_23_" d="M673 103.1l11.5 19.5c6.4-2.9 11.6-8.1 14.3-14.6l-19.3-11.4 19-11.2c-2.9-6.3-8-11.3-14.4-14.1L673 90l-11-18.7c-6.4 2.7-11.5 7.8-14.4 14.1l19 11.2-19.4 11.4c2.7 6.5 7.9 11.7 14.3 14.6l11.5-19.5"/></defs><clipPath id="prefix__SVGID_24_"><use xlink:href="#prefix__SVGID_23_" overflow="visible"/></clipPath><path d="M684 71.4l-.4.7-2.3 3.9-.2.4c1.8-.4 3.6-.7 5.2-.8l1.8-2c-1.3-.9-2.6-1.6-4.1-2.2" clip-path="url(#prefix__SVGID_24_)" fill="#3f1287"/></g><g><defs><path id="prefix__SVGID_25_" d="M673 103.1l11.5 19.5c6.4-2.9 11.6-8.1 14.3-14.6l-19.3-11.4 19-11.2c-2.9-6.3-8-11.3-14.4-14.1L673 90l-11-18.7c-6.4 2.7-11.5 7.8-14.4 14.1l19 11.2-19.4 11.4c2.7 6.5 7.9 11.7 14.3 14.6l11.5-19.5"/></defs><clipPath id="prefix__SVGID_26_"><use xlink:href="#prefix__SVGID_25_" overflow="visible"/></clipPath><path d="M662 71.4c-1.4.6-2.8 1.3-4 2.1l8.7 10.1c.6-.5 1.2-1 1.8-1.4l-.9-1.6-.1-.1-2.5-4.2-.1-.1-2.5-4.2-.4-.6" clip-path="url(#prefix__SVGID_26_)" fill="#3f1287"/></g><g><defs><path id="prefix__SVGID_27_" d="M673 103.1l11.5 19.5c6.4-2.9 11.6-8.1 14.3-14.6l-19.3-11.4 19-11.2c-2.9-6.3-8-11.3-14.4-14.1L673 90l-11-18.7c-6.4 2.7-11.5 7.8-14.4 14.1l19 11.2-19.4 11.4c2.7 6.5 7.9 11.7 14.3 14.6l11.5-19.5"/></defs><clipPath id="prefix__SVGID_28_"><use xlink:href="#prefix__SVGID_27_" overflow="visible"/></clipPath><path d="M649.8 81.4c-.9 1.3-1.6 2.6-2.3 4l11.9 7c.4-.6.7-1.2 1.1-1.8l-10.7-9.2" clip-path="url(#prefix__SVGID_28_)" fill="#3f1287"/></g><g><defs><path id="prefix__SVGID_29_" d="M673 103.1l11.5 19.5c6.4-2.9 11.6-8.1 14.3-14.6l-19.3-11.4 19-11.2c-2.9-6.3-8-11.3-14.4-14.1L673 90l-11-18.7c-6.4 2.7-11.5 7.8-14.4 14.1l19 11.2-19.4 11.4c2.7 6.5 7.9 11.7 14.3 14.6l11.5-19.5"/></defs><clipPath id="prefix__SVGID_30_"><use xlink:href="#prefix__SVGID_29_" overflow="visible"/></clipPath><path d="M655.2 103.3l-2.8 1.7-4.3 2.5-.9.5c.6 1.5 1.3 2.8 2.2 4.2l4.8-4.1c.3-1.7.6-3.3 1-4.8" clip-path="url(#prefix__SVGID_30_)" fill="#3f1287"/></g><circle class="prefix__st26" cx="692" cy="110.1" r="5"/><circle class="prefix__st26" cx="685" cy="84.1" r="4"/><circle class="prefix__st26" cx="672" cy="96.1" r="3"/><circle class="prefix__st26" cx="658" cy="109.1" r="5"/><circle class="prefix__st26" cx="663" cy="82.1" r="2"/><circle class="prefix__st26" cx="681" cy="105.1" r="2"/></g><g><circle class="prefix__st27" cx="160.9" cy="97" r="30"/><path class="prefix__st12" d="M184.8 97l-37.2-21v42z"/><path class="prefix__st28" d="M170.9 97h-20.5M160.6 86.8v20.4M168.6 105.1l-16-16.2M168.6 88.9l-16 16.2"/><g><path class="prefix__st28" d="M167.6 94.1l-14 5.8M157.8 90l5.8 14M167.6 99.9l-14-5.8M163.6 90l-5.8 14"/></g></g><g><path transform="rotate(-45.001 160.948 225.003)" class="prefix__st29" d="M153.9 195h14v60h-14z"/><path class="prefix__st30" d="M152.9 226.8l-11.3-11.3c12.2 1.2 21.4 4.5 27 7.2l11.3 11.3c-5.7-2.6-14.8-6-27-7.2z"/><path class="prefix__st31" d="M141.6 215.5l-6.8-6.8 9.9-9.9 23.9 23.9c-5.7-2.6-14.8-6-27-7.2z"/></g><g><g class="prefix__st32"><path class="prefix__st29" d="M437.5 377.7c1.8-1 3.2-2.4 4.2-4.2-.9.5-2 .9-3.1 1.1-.1 1.2-.6 2.2-1.1 3.1z"/></g><g class="prefix__st32"><path class="prefix__st29" d="M396.4 328.3c-1.8 1-3.2 2.4-4.2 4.2.9-.5 2-.9 3.1-1.1.2-1.2.6-2.2 1.1-3.1z"/></g><path class="prefix__st29" d="M443 337.4c0-5.7-4.7-10.4-10.4-10.4h-31.2c-1.8 0-3.5.5-5 1.3-.5.9-.9 2-1.1 3.1.6-.1 1.2-.2 1.9-.2h31.2c5.7 0 10.4 4.7 10.4 10.4v31.2c0 .6-.1 1.3-.2 1.9 1.1-.2 2.1-.6 3.1-1.1.8-1.5 1.3-3.2 1.3-5v-31.2z"/><path class="prefix__st29" d="M436.8 374.8h-31.2c-5.7 0-10.4-4.7-10.4-10.4v-31.2c0-.6.1-1.3.2-1.9-1.1.2-2.1.6-3.1 1.1-.8 1.5-1.3 3.2-1.3 5v31.2c0 5.7 4.7 10.4 10.4 10.4h31.2c1.8 0 3.5-.5 5-1.3.5-.9.9-2 1.1-3.1-.7.2-1.3.2-1.9.2z" opacity=".82"/><g class="prefix__st32"><path class="prefix__st29" d="M395.1 364.4c0 5.7 4.7 10.4 10.4 10.4h31.2c.6 0 1.3-.1 1.9-.2.1-.6.2-1.2.2-1.9v-31.2c0-5.7-4.7-10.4-10.4-10.4h-31.3c-.6 0-1.3.1-1.9.2-.1.6-.2 1.2-.2 1.9v31.2h.1z"/></g><path class="prefix__st34" d="M432.5 327h-31.2c-1.2 0-2.3.2-3.4.6 3.4 9.3 12.5 28.8 34.5 51.4h.1c5.7 0 10.4-4.7 10.4-10.4v-31.2c.1-5.7-4.7-10.4-10.4-10.4z"/><path class="prefix__st34" d="M432.5 327h-19.3c4.6 7 13.8 18.6 29.7 28.9v-18.5c.1-5.7-4.7-10.4-10.4-10.4z"/></g><g><path d="M529.3 382.5h31.2c5.7 0 10.4-4.7 10.4-10.4v-31.2c0-5.7-4.7-10.4-10.4-10.4h-31.2c-5.7 0-10.4 4.7-10.4 10.4v31.2c.1 5.7 4.8 10.4 10.4 10.4z" opacity=".4" fill="#120223"/><path class="prefix__st29" d="M560.5 335.5c3 0 5.4 2.4 5.4 5.4v31.2c0 3-2.4 5.4-5.4 5.4h-31.2c-3 0-5.4-2.4-5.4-5.4v-31.2c0-3 2.4-5.4 5.4-5.4h31.2m0-5h-31.2c-5.7 0-10.4 4.7-10.4 10.4v31.2c0 5.7 4.7 10.4 10.4 10.4h31.2c5.7 0 10.4-4.7 10.4-10.4v-31.2c.1-5.7-4.7-10.4-10.4-10.4z" opacity=".27"/><path class="prefix__st29" d="M529 327.5h31v2.9h-31z"/><path class="prefix__st29" d="M525 325h39v3h-39zM560.5 331.5c5.2 0 9.4 4.2 9.4 9.4v31.2c0 5.2-4.2 9.4-9.4 9.4h-31.2c-5.2 0-9.4-4.2-9.4-9.4v-31.2c0-5.2 4.2-9.4 9.4-9.4h31.2m0-1h-31.2c-5.7 0-10.4 4.7-10.4 10.4v31.2c0 5.7 4.7 10.4 10.4 10.4h31.2c5.7 0 10.4-4.7 10.4-10.4v-31.2c.1-5.7-4.7-10.4-10.4-10.4z"/></g><g><path class="prefix__st3" d="M657.4 379h31.2c5.7 0 10.4-4.7 10.4-10.4v-31.2c0-5.7-4.7-10.4-10.4-10.4h-31.2c-5.7 0-10.4 4.7-10.4 10.4v31.2c0 5.7 4.7 10.4 10.4 10.4z"/><pattern id="prefix__SVGID_31_" xlink:href="#prefix__SVGID_53_" patternTransform="matrix(2.08 0 0 -2.08 16751.2 -27556)"/><path d="M657.4 379h31.2c5.7 0 10.4-4.7 10.4-10.4v-31.2c0-5.7-4.7-10.4-10.4-10.4h-31.2c-5.7 0-10.4 4.7-10.4 10.4v31.2c0 5.7 4.7 10.4 10.4 10.4z" fill="url(#prefix__SVGID_31_)"/></g><g><path id="prefix__SVGID_58_" class="prefix__st3" d="M513 449v20l8 15 8-14.7 8 14.7 8-14.7 8 14.7 7.8-14.7 8 14.7 8.2-15v-20z"/><defs><path id="prefix__SVGID_32_" d="M513 449v20l8 15 8-14.7 8 14.7 8-14.7 8 14.7 7.8-14.7 8 14.7 8.2-15v-20z"/></defs><clipPath id="prefix__SVGID_33_"><use xlink:href="#prefix__SVGID_32_" overflow="visible"/></clipPath><g clip-path="url(#prefix__SVGID_33_)"><path class="prefix__st5" d="M562.8 490.9L544 501.7l-37.9-65.9L525 425z"/></g><g><path id="prefix__SVGID_60_" class="prefix__st3" d="M576.8 478l-8 14.7L561 478l-8 14.7-8-14.7-8 14.7-8-14.7-8 14.8-8-14.8v35h64v-20z"/><defs><path id="prefix__SVGID_34_" d="M576.8 478l-8 14.7L561 478l-8 14.7-8-14.7-8 14.7-8-14.7-8 14.8-8-14.8v35h64v-20z"/></defs><clipPath id="prefix__SVGID_35_"><use xlink:href="#prefix__SVGID_34_" overflow="visible"/></clipPath><g clip-path="url(#prefix__SVGID_35_)"><path class="prefix__st5" d="M588.2 525.7l-18.5 10.6-37.9-65.9 18.7-10.6z"/></g></g></g><g><path id="prefix__SVGID_100_" class="prefix__st3" d="M695 212.3l-22-12.8-22.2 12.8L673 225z"/><defs><path id="prefix__SVGID_36_" d="M695 212.3l-22-12.8-22.2 12.8L673 225z"/></defs><clipPath id="prefix__SVGID_37_"><use xlink:href="#prefix__SVGID_36_" overflow="visible"/></clipPath><g clip-path="url(#prefix__SVGID_37_)"><path class="prefix__st5" d="M703.2 181.4l5 8.6-45.5 53.3-4.9-8.7zM700.8 177.7l1 1.6-45.5 53.3-1.1-1.6z"/></g><g><path id="prefix__SVGID_102_" class="prefix__st3" d="M649.8 214.2v25.6l22.2 12.7V227z"/><defs><path id="prefix__SVGID_38_" d="M649.8 214.2v25.6l22.2 12.7V227z"/></defs><clipPath id="prefix__SVGID_39_"><use xlink:href="#prefix__SVGID_38_" overflow="visible"/></clipPath><g clip-path="url(#prefix__SVGID_39_)"><path class="prefix__st5" d="M619.2 228.8l3.5-9.3h70l-3.4 9.4zM618 233.1l.7-1.9 70 .1-.5 1.9z"/></g></g><g><path id="prefix__SVGID_104_" class="prefix__st3" d="M674 252.5l22-12.7v-25.5L674 227z"/><defs><path id="prefix__SVGID_40_" d="M674 252.5l22-12.7v-25.5L674 227z"/></defs><clipPath id="prefix__SVGID_41_"><use xlink:href="#prefix__SVGID_40_" overflow="visible"/></clipPath><g clip-path="url(#prefix__SVGID_41_)"><path class="prefix__st5" d="M703.8 271l-9.8 2.3-38.5-58.5 9.7-2.4zM708 269.6l-2 .6-38.3-58.5 1.8-.6z"/></g></g></g><g><path class="prefix__st29" d="M444 198h-52.6l52.6 52.6z"/><path class="prefix__st31" d="M442.6 252L390 199.4V252z"/></g><g><path transform="rotate(-45.001 289.242 226.712)" class="prefix__st29" d="M282.2 196.7h14v60h-14z"/><path class="prefix__st30" d="M281.2 228.5l-11.3-11.3c12.2 1.2 21.4 4.5 27 7.2l11.3 11.3c-5.7-2.6-14.8-6-27-7.2z"/><path class="prefix__st31" d="M269.9 217.2l-6.8-6.8 9.9-9.9 23.9 23.9c-5.7-2.6-14.8-6-27-7.2z"/><path transform="rotate(-45.001 294.899 221.055)" class="prefix__st3" d="M293.9 191.1h2v60h-2z"/></g><g><circle class="prefix__st43" cx="304.9" cy="473.2" r="7.6"/><path d="M304.9 466.6c3.6 0 6.6 3 6.6 6.6s-3 6.6-6.6 6.6-6.6-3-6.6-6.6c-.1-3.7 2.9-6.6 6.6-6.6m0-2c-4.7 0-8.6 3.8-8.6 8.6s3.8 8.6 8.6 8.6 8.6-3.8 8.6-8.6-3.9-8.6-8.6-8.6z" fill="#ffd31a"/><path class="prefix__st45" d="M305 468v10M310 473h-10M301.5 469.5l7 7M308.5 469.5l-7 7"/><circle class="prefix__st43" cx="304.9" cy="473.2" r="2.1"/><path opacity=".25" fill="#61dbef" d="M301.9 506.5h-24l-3-33h30z"/><path d="M263.5 468.5l7-8.9c1.3-1.6 3.7-.9 4.1 1.1l12.7 45.8" fill="none" stroke="#61dbef" stroke-width="3" stroke-miterlimit="10"/><path class="prefix__st29" d="M276 487h28v19h-28z"/><path class="prefix__st48" d="M280 474l3 33h2l-3-33zM284 474l3 33h2l-3-33z"/><g opacity=".64"><path class="prefix__st29" d="M304 474v32h-28v-32h28m1-1h-30v34h30v-34z"/></g></g><g><path class="prefix__st50" d="M139.8 485.3h42.9v-16.7h-42.9c-3.7 0-6.8 3.7-6.8 8.3-.1 4.7 2.9 8.4 6.8 8.4"/><path d="M182.2 485.3c3.7 0 6.8-3.7 6.8-8.3 0-4.6-3-8.3-6.8-8.3-3.7 0-6.8 3.7-6.8 8.3 0 4.6 3 8.3 6.8 8.3" fill="#004693"/><path class="prefix__st27" d="M148.2 466.7v2c-1.8 0-3.3.5-4.4 1.6-3 3-2.9 9.7-2.9 14.5v11.1h-2v-9.5-1.6c0-5.2-.1-12.3 3.5-15.9 1.5-1.5 3.5-2.2 5.8-2.2zM183.9 496v-9.5-1.4c-.6.2-1.2.3-1.8.3h-.2V496h2M171.8 485.4c-.3 0-.6-.1-.8-.1h-2c-.4.4-.8.7-1.3 1 1.3.8 2.9 1.1 4.8 1.1v-.1h-.8v-1.9M176.6 468.7v-2c-1.6 0-3.1.3-4.4.7.9.3 1.7.7 2.5 1.2h1.9M166.9 468.7v-2c-1.4 0-2.7.2-4 .6 1.1.3 2 .8 2.9 1.4h1.1M158.1 486.3c1.3.8 2.9 1.1 4.9 1.1v-2c-.6 0-1.2 0-1.7-.1h-1.9c-.5.4-.8.7-1.3 1M153.4 485.4c-.3 0-.6-.1-.8-.1h-4.4c1.4 1.4 3.4 2.1 6.1 2.1v-.1h-.8l-.1-1.9M158.1 468.7v-2c-1.6 0-3.1.3-4.4.7.9.3 1.7.7 2.5 1.2h1.9"/><path class="prefix__st27" d="M172.2 467.4c-1.4-.5-2.9-.8-5.3-.8v2c1.1 0 1.4 0 1.8.1h1c.7-.5 1.5-1 2.5-1.3M171.8 485.4c.3 0 .5.1.8.1v1.9c2.2-.1 4-.8 5.2-2h-6"/><path class="prefix__st27" d="M171.8 485.4v2h.8v-1.9c-.4 0-.7-.1-.8-.1"/><path class="prefix__st27" d="M171.8 485.4v2h.8v-1.9c-.4 0-.7-.1-.8-.1M174.6 468.7c-.7-.5-1.6-.9-2.5-1.2-.9.3-1.8.7-2.5 1.2h5"/><path class="prefix__st27" d="M172.2 467.4c-.9.3-1.8.7-2.5 1.2h5c-.8-.4-1.6-.8-2.5-1.2M163.1 467.3c-1.3-.4-2.6-.6-5.1-.6v2c1.3 0 1.7 0 2 .1h.1c.8-.7 1.8-1.2 3-1.5M164.1 485.3c-.4 0-.8.1-1.2.1v2c1.9 0 3.5-.4 4.7-1.1-.5-.3-.9-.6-1.2-1h-2.3"/><path class="prefix__st27" d="M166.4 485.3c.4.4.8.7 1.2 1 .5-.3.9-.6 1.3-1h-2.5"/><path class="prefix__st27" d="M168.9 485.3h-2.5c.4.4.8.7 1.2 1 .5-.3 1-.6 1.3-1M165.9 468.7c-.9-.6-1.8-1.1-2.9-1.4-1.1.3-2.1.8-3 1.4h5.9"/><path class="prefix__st27" d="M163.1 467.3c-1.1.3-2.1.8-3 1.4h5.9c-.9-.6-1.9-1.1-2.9-1.4M154.4 485.3c-.4 0-.8.1-1.2.1h.8v1.9c1.6-.1 2.9-.4 3.9-1.1-.5-.3-.9-.6-1.2-1l-2.3.1M153.9 467.4c-1.4-.5-2.9-.8-5.9-.8v2c1.7 0 2 0 2.4.1h1c.7-.5 1.5-1 2.5-1.3M156.9 485.3c.4.4.8.7 1.2 1 .5-.3.9-.6 1.3-1h-2.5"/><path class="prefix__st27" d="M159.4 485.3h-2.5c.4.4.8.7 1.2 1 .5-.3.8-.6 1.3-1M156.2 468.7c-.7-.5-1.6-.9-2.5-1.2-.9.3-1.8.7-2.5 1.2h5"/><path class="prefix__st27" d="M153.9 467.4c-.9.3-1.8.7-2.5 1.2h5c-.8-.4-1.8-.8-2.5-1.2M153.4 485.4v2h.8v-1.9c-.3 0-.6-.1-.8-.1"/><path class="prefix__st27" d="M153.4 485.4v2h.8v-1.9c-.3 0-.6-.1-.8-.1"/><path class="prefix__st52" d="M182.6 471.2v14.1c.5 0 .9-.1 1.4-.3v-.6c.1-4.2.1-9.5-1.4-13.2"/><path class="prefix__st27" d="M181.1 468.7l-.2-.3c-1.1-1.2-2.6-1.7-4.3-1.7v2h4.5M169.1 471.8c.9-.9 1.9-1.7 3.1-2.2-.8-.4-1.7-.6-2.7-.8-.6.4-1.2.9-1.7 1.4.4.5.8 1 1.3 1.6M167.8 483.7c-1-1.1-1.4-2.8-1.4-5.2 0-1.7.5-3.5 1.4-5-.4-.6-.8-1.2-1.3-1.7-1.4 2-2.2 4.4-2.2 6.7 0 2.8.6 4.9 1.7 6.4.8-.3 1.2-.7 1.8-1.2M168.9 485.3h1.9c-.6-.1-1.1-.2-1.5-.4-.1.1-.2.3-.4.4"/><path class="prefix__st53" d="M176.6 468.7h-1.9l.2.1c.5-.1 1.2-.1 1.7-.1"/><path class="prefix__st27" d="M159.4 485.3h1.9c-.6-.1-1.1-.2-1.5-.4-.2.1-.4.3-.4.4M159.4 471.8c1-1 2.2-1.8 3.6-2.4-.9-.4-1.9-.6-3-.7-.7.5-1.3 1-1.9 1.5.5.5 1 1 1.3 1.6M156.4 484.9c.7-.3 1.2-.7 1.7-1.2-1-1.1-1.4-2.8-1.4-5.2 0-1.7.5-3.5 1.4-5-.4-.6-.8-1.2-1.3-1.7-1.4 2-2.2 4.4-2.2 6.7 0 2.8.6 4.9 1.8 6.4"/><path class="prefix__st50" d="M165.9 468.7h1-1"/><path class="prefix__st53" d="M158.1 468.7h-1.9l.2.1 1.7-.1"/><path class="prefix__st27" d="M147.9 478.5c0-3.6 2.1-7.2 5.9-8.9-.8-.4-1.7-.6-2.7-.8-3.3 2.3-5.2 6-5.2 9.7 0 3.1.7 5.4 2.1 6.9h4.4c-3-.6-4.5-2.7-4.5-6.9"/><path class="prefix__st53" d="M177.1 482.6c-.8 1.6-2.2 2.5-4.3 2.7h4.8c.4-.4.7-.8.9-1.2-.4-.4-.9-.9-1.4-1.5m-2.2-13.8c-1 .1-1.9.4-2.7.8 1.7.8 3.1 2 4.1 3.5.3-.7.7-1.3 1.1-1.9-.8-.9-1.5-1.7-2.5-2.4"/><path class="prefix__st52" d="M177.4 471.2c-.4.6-.8 1.2-1.1 1.9 1.1 1.6 1.7 3.5 1.7 5.4 0 1.7-.2 3.1-.7 4.2.4.6.9 1.1 1.5 1.5.8-1.4 1.3-3.3 1.3-5.7-.2-2.6-1-5.2-2.7-7.3"/><path class="prefix__st53" d="M169.6 468.7h-1c.3 0 .5.1.8.1l.2-.1"/><path class="prefix__st27" d="M174.9 468.8l-.2-.1h-5l-.2.1c1 .2 1.9.4 2.7.8.9-.4 1.7-.6 2.7-.8z"/><path class="prefix__st53" d="M169.1 471.8c-.5.5-.9 1.1-1.3 1.7.9 1.5 1.4 3.2 1.4 4.9 0 2.4-.5 4.1-1.4 5.3.4.5 1 .9 1.6 1.2 1.2-1.5 1.8-3.6 1.8-6.5-.1-2.3-.8-4.6-2.1-6.6"/><path class="prefix__st50" d="M160.1 468.7h-.1.1z"/><path class="prefix__st53" d="M165.9 468.7c-1.1.1-2.1.3-3 .7 1.4.6 2.5 1.4 3.5 2.4.4-.5.8-1.1 1.3-1.6-.5-.5-1.1-1-1.8-1.5M166.1 484.9c-.6.2-1.2.4-1.9.5h2.3c-.1-.2-.4-.4-.4-.5"/><path class="prefix__st27" d="M169.4 484.9c-.7-.3-1.2-.7-1.6-1.2-.4.5-1 .9-1.7 1.2.1.2.3.3.4.5h2.5c.1-.2.2-.4.4-.5zM166.4 471.8c.5.5.9 1.1 1.3 1.7.4-.6.8-1.2 1.3-1.7-.4-.5-.8-1.1-1.3-1.6-.5.5-.8 1-1.3 1.6zM165.9 468.7l-6-.1c1.1.1 2.1.4 3 .7 1-.3 2-.5 3-.6z"/><path class="prefix__st53" d="M156.4 468.8c-1 .1-1.9.4-2.7.8 1.2.5 2.2 1.3 3.1 2.2.4-.5.8-1.1 1.3-1.6-.5-.5-1-1-1.7-1.4M159.4 471.8c-.5.5-.9 1.1-1.3 1.7.9 1.5 1.4 3.2 1.4 4.9 0 2.4-.5 4.1-1.4 5.3.4.5 1 .9 1.6 1.2 1.2-1.5 1.8-3.6 1.8-6.5.1-2.3-.7-4.6-2.1-6.6M151.2 468.7h-1c.3 0 .5.1.8.1l.2-.1M156.4 484.9c-.6.2-1.2.4-1.9.5h2.3c-.2-.2-.2-.4-.4-.5"/><path class="prefix__st27" d="M158.1 483.7c-.4.5-1 .9-1.7 1.2.1.2.3.3.4.5h2.5l.4-.4c-.6-.4-1.1-.8-1.6-1.3zM156.9 471.8c.5.5.9 1.1 1.3 1.7.4-.6.8-1.2 1.3-1.7-.4-.5-.8-1.1-1.3-1.6-.6.5-1 1-1.3 1.6zM156.4 468.8l-.2-.1h-5l-.2.1c1 .2 1.9.4 2.7.8.9-.4 1.9-.6 2.7-.8z"/><path class="prefix__st53" d="M181.1 468.7h-4.5c1 0 1.9.3 2.6.9.7-.4 1.2-.7 1.9-.9"/><path class="prefix__st52" d="M181.2 468.8c-.7.1-1.4.4-2 .8l.3.3c2.7 2.7 2.6 9.8 2.5 14.5v1H182.6v-14.1c-.4-1.1-.8-1.9-1.4-2.5"/></g><g><defs><path id="prefix__SVGID_42_" d="M257 65h64v64h-64z"/></defs><clipPath id="prefix__SVGID_43_"><use xlink:href="#prefix__SVGID_42_" overflow="visible"/></clipPath><g clip-path="url(#prefix__SVGID_43_)"><image width="90" height="60" xlink:href="drafts/tiles/5C38DF8F0A7D0549.png" transform="translate(243.95 67)" overflow="visible" opacity=".5"/><path d="M259.8 97c10.6 0 17.6-15 29.1-15s18.5 15 29.9 15c-11.4 0-19.4 15-29.9 15s-18.7-15-29.1-15z" fill="#940fea"/><g><path d="M257 97h1.1c3.2 0 3.7 3.2 5.3 3.2 2.5 0 4.4-11.5 6.3-11.6 2.6-.1 5.6 22.1 8.4 22.1 3.5 0 6-31.4 10.5-31.6 4.4-.2 6.1 31.9 10.5 31.6 3.4-.2 7.3-21.3 9.5-21.1 1.5.1 3.2 8.5 6.3 9.5 1.6.5.5-2.1 3.2-2.1h2.8" fill="none" stroke="#f05" stroke-width="3" stroke-miterlimit="10"/></g></g></g><g><path class="prefix__st1" d="M317 359.8V350h-5.5c-1.2 9-11.1 16-23 16s-21.9-7-23-16H260v9.9c0 12.7 12.8 23.1 28.5 23.1s28.5-10.4 28.5-23.2z"/><path d="M317 348.2c0-12.8-12.8-23.2-28.5-23.2S260 335.4 260 348.2c0 12.8 12.8 23.2 28.5 23.2 15.7-.1 28.5-10.4 28.5-23.2zm-51.5 1.8c1.2-9 11.1-16 23-16s21.9 7 23 16c-1.2 9-11.1 16-23 16s-21.9-7-23-16z" fill="#4e3b6b"/><path class="prefix__st1" d="M288.5 333.9c12 0 21.9 7 23 16 .1-.6.1-1.2.1-1.8 0-9.8-10.4-17.8-23.2-17.8-12.8 0-23.2 8-23.2 17.8 0 .6 0 1.2.1 1.8 1.3-8.9 11.2-16 23.2-16z"/><g><defs><path id="prefix__SVGID_44_" d="M311.5 350c-1.2 9-11.1 16-23 16s-21.9-7-23-16c1.2-9 11.1-16 23-16s21.8 7 23 16z"/></defs><clipPath id="prefix__SVGID_45_"><use xlink:href="#prefix__SVGID_44_" overflow="visible"/></clipPath><g clip-path="url(#prefix__SVGID_45_)"><path class="prefix__st3" d="M271 315h3v69h-3zM277 315h3v69h-3zM265 315h3v69h-3zM283 315h3v69h-3zM289 315h3v69h-3zM295 315h3v69h-3zM301 315h3v69h-3zM307 315h3v69h-3z"/></g></g></g><g><path class="prefix__st59" d="M189 358.8V349h-5.5c-1.2 9-11.1 16-23 16s-21.9-7-23-16H132v9.9c0 12.7 12.8 23.1 28.5 23.1s28.5-10.4 28.5-23.2z"/><path class="prefix__st31" d="M189 347.2c0-12.8-12.8-23.2-28.5-23.2S132 334.4 132 347.2c0 12.8 12.8 23.2 28.5 23.2 15.7-.1 28.5-10.4 28.5-23.2zm-51.5 1.8c1.2-9 11.1-16 23-16s21.9 7 23 16c-1.2 9-11.1 16-23 16s-21.9-7-23-16z"/><path class="prefix__st59" d="M160.5 332.9c12 0 21.9 7 23 16 .1-.6.1-1.2.1-1.8 0-9.8-10.4-17.8-23.2-17.8-12.8 0-23.2 8-23.2 17.8 0 .6 0 1.2.1 1.8 1.3-8.9 11.2-16 23.2-16z"/><g><defs><path id="prefix__SVGID_46_" d="M183.5 349c-1.2 9-11.1 16-23 16s-21.9-7-23-16c1.2-9 11.1-16 23-16s21.8 7 23 16z"/></defs><clipPath id="prefix__SVGID_47_"><use xlink:href="#prefix__SVGID_46_" overflow="visible"/></clipPath><g clip-path="url(#prefix__SVGID_47_)"><path class="prefix__st29" d="M143 314h3v69h-3zM149 314h3v69h-3zM137 314h3v69h-3zM155 314h3v69h-3zM161 314h3v69h-3zM167 314h3v69h-3zM173 314h3v69h-3zM179 314h3v69h-3z"/></g></g></g><g><path d="M405.4 106.7s-14.4 2.5-14.4 16.5" fill="none" stroke="#09d666" stroke-width="3" stroke-miterlimit="10"/><path class="prefix__st12" d="M441.9 86.2l-.3-5.2-4.3 2.9z"/><path class="prefix__st12" d="M437.7 89l-.3-5.2-4.3 2.9z"/><path class="prefix__st12" d="M433.6 91.7l-.4-5.2-4.3 2.9z"/><path class="prefix__st12" d="M429.4 94.5l-.3-5.2-4.4 2.9z"/><g><path class="prefix__st12" d="M428.5 98.4l-4.7 2.3 4.3 2.9z"/><path class="prefix__st12" d="M432.6 101.2l-4.7 2.3 4.3 2.9z"/><path class="prefix__st12" d="M436.7 104l-4.6 2.3 4.3 2.9z"/><path class="prefix__st12" d="M440.9 106.8l-4.7 2.3 4.3 2.9z"/></g><g><defs><path id="prefix__SVGID_48_" d="M418.9 96.7L442.2 81c-5-7.4-13.5-12.3-23.2-12.3-15.5 0-28 12.5-28 28s12.5 28 28 28c9.6 0 18.1-4.9 23.2-12.3l-23.3-15.7z"/></defs><use xlink:href="#prefix__SVGID_48_" overflow="visible" fill="#09d67e"/><clipPath id="prefix__SVGID_49_"><use xlink:href="#prefix__SVGID_48_" overflow="visible"/></clipPath><path d="M397 71.7s-11 48 53 45-18 20-18 20l-32-7-13-36v-16l10-6z" opacity=".5" clip-path="url(#prefix__SVGID_49_)" fill="#0bd3b6"/><path clip-path="url(#prefix__SVGID_49_)" fill="#007c64" d="M440 74.7l-23 22 24 22 5-7 1-25-2-8z"/></g><g opacity=".15"><circle class="prefix__st65" cx="425" cy="78.7" r="5"/><circle class="prefix__st65" cx="400" cy="86.7" r="4"/><circle class="prefix__st65" cx="412" cy="99.7" r="3"/><circle class="prefix__st65" cx="423" cy="114.7" r="5"/><circle class="prefix__st65" cx="398" cy="108.7" r="2"/><circle class="prefix__st65" cx="408" cy="74.7" r="2"/></g></g></svg>