<?xml version="1.0" encoding="utf-8"?>
<svg version="1.1" id="Layer_1" xmlns="http://www.w3.org/2000/svg" xmlns:xlink="http://www.w3.org/1999/xlink" x="0px" y="0px"
	 viewBox="0 0 430 350" style="enable-background:new 0 0 430 350;" xml:space="preserve">
<style type="text/css">
	.st0{fill:#44375E;}
	.st1{clip-path:url(#SVGID_2_);}
	.st2{fill:#120223;}
	.st3{fill:#615777;}
	.st4{fill:#2F2549;}
	.st5{opacity:0.35;fill:none;stroke:#FFFFFF;stroke-width:5;stroke-linecap:round;stroke-miterlimit:10;enable-background:new    ;}
	.st6{clip-path:url(#SVGID_4_);}
	.st7{fill:#FFFFFF;}
	.st8{fill:#5C00D3;}
	.st9{clip-path:url(#SVGID_6_);}
	.st10{opacity:0.2;fill:#FFFFFF;enable-background:new    ;}
	.st11{opacity:0.2;clip-path:url(#SVGID_8_);fill:#615777;enable-background:new    ;}
</style>
<path class="st0" d="M134.2,325.6l-32.8-48.2c-1.9-2.7-2.7-6.2-1.9-9.6l23.1-79c6.2-25.1,28.9-35.5,54.7-35.5l55.1,2.7
	c5,0.4,9.6,2.3,13.5,5.8l55.1,49.7c8.1,7.3,13.5,17,15.8,27.8l8.5,41.2c0.4,2.3,0,5-1.2,7.3L308.7,324c-1.9,4.2-6.2,6.6-10.8,6.6
	H144.3C140.4,330.6,136.6,328.7,134.2,325.6z"/>
<g>
	<defs>
		<path id="SVGID_1_" d="M134.2,325.6l-32.8-48.2c-1.9-2.7-2.7-6.2-1.9-9.6l23.1-79c6.2-25.1,28.9-35.5,54.7-35.5l55.1,2.7
			c5,0.4,9.6,2.3,13.5,5.8l55.1,49.7c8.1,7.3,13.5,17,15.8,27.8l8.5,41.2c0.4,2.3,0,5-1.2,7.3L308.7,324c-1.9,4.2-6.2,6.6-10.8,6.6
			H144.3C140.4,330.6,136.6,328.7,134.2,325.6z"/>
	</defs>
	<clipPath id="SVGID_2_">
		<use xlink:href="#SVGID_1_"  style="overflow:visible;"/>
	</clipPath>
	<g class="st1">
		<path class="st2" d="M129.6,322.9l5,7.7h173.1l5-7.7H129.6z"/>
		<path class="st3" d="M259.1,165.7c-17-1.9-79-6.6-93.3,5c-16.2,13.1-28.9,90.6-28.9,98.3c0,6.6,10.8,42,14.3,54h-21.6
			c-3.9,0-3.9,3.1-5.8,0l-30.1-42.8c-1.9-2.7-2.7-6.2-1.9-9.6l30.8-81.7c6.2-25.1,25.8-40.9,52-40.9h37.8c3.9,0,20.8,2.7,23.1,5.8
			L259.1,165.7z"/>
		<path class="st4" d="M328.5,286.7L314.6,316c-1.9,3.9,3.5,6.6-1.2,6.6H193.2c30.4-4.2,69.4-9.6,80.6-9.6
			c19.3,0,25.1-19.7,25.1-25.1c0-7.7,0-27-7.7-34.7c-7.7-7.7-21.2-5.8-40.5-9.6s-27-42.4-23.1-50.1c2.7-5,19.7-23.5,24.7-28.5
			l50.1,40.9c10,3.1,17,11.6,18.5,22l8.5,52C330,282.1,329.7,284.8,328.5,286.7L328.5,286.7z"/>
		<path class="st5" d="M134.6,186.1c0,0,7.7-19.3,27-23.1"/>
	</g>
</g>
<g>
	<defs>
		<rect id="SVGID_3_" x="129.2" y="222.7" width="138.8" height="34.3"/>
	</defs>
	<clipPath id="SVGID_4_">
		<use xlink:href="#SVGID_3_"  style="overflow:visible;"/>
	</clipPath>
	<g class="st6">
		<circle class="st7" cx="163.2" cy="227.7" r="25.1"/>
		<circle class="st2" cx="163.2" cy="227.7" r="12.7"/>
		<circle class="st7" cx="234.5" cy="227.7" r="25.1"/>
		<circle class="st2" cx="234.5" cy="227.7" r="12.7"/>
		<circle class="st8" cx="163.2" cy="227.7" r="5"/>
		<circle class="st8" cx="235.6" cy="227.7" r="5"/>
	</g>
</g>
<g>
	<g>
		<defs>
			<rect id="SVGID_5_" x="129.2" y="191.9" width="138.8" height="30.8"/>
		</defs>
		<clipPath id="SVGID_6_">
			<use xlink:href="#SVGID_5_"  style="overflow:visible;"/>
		</clipPath>
		<g class="st9">
			<circle class="st10" cx="163.2" cy="227.7" r="25.1"/>
			<circle class="st10" cx="234.5" cy="227.7" r="25.1"/>
		</g>
	</g>
</g>
<g>
	<g>
		<path id="prefix__g" class="st7" d="M231.9,128.8c-1.4,6.9-4,13-8,18s-13,9-13,9s-6,1-8,0s-1-4,3-7s4-12,3-24s-6-17-10.5-24.9
			c-8.9-15.5-12.1-32.5-18.5-49.1c-0.6-1.5-1.4-2.9-1.5-4.5c-0.2-2.9,1-6.5,2.5-9.1c1.3-2.4,2.9-2.9,5.5-2.9c1.7,0,2.8,1.6,4.4,2.2
			c1.2,0.4,2.5,0,3.7-0.4c4-1.2,8.4-0.9,12.2,0.7c1.9,0.8,4,2,5.9,1.3c1.2-0.4,2.2-1.5,3.5-1.8c1.9-0.4,4.2,0.6,5,2.4
			c3.4,7.6,2.4,12.6,1.4,15.6c0.5,8.2,5.2,18,10.9,24c2.7,2.8,5.9,5.2,9.1,7.5c13.9,9.8,29.1,17.8,43,27.7
			c13.9,9.9,27.3,21.9,33.6,37.8c5,12.5,3,33.5,0,37.5s-14,11-14,11s15,8,23,23s6,28,0,34c-6,6-17,13-17,13s0-11,3-21s2.4-13-1.3-22
			c-3.7-9-22-24.5-22-24.5l-26.2-24c0,0-5.2-25.2-12.5-36.5C246.4,133.3,232.4,126.3,231.9,128.8L231.9,128.8z"/>
	</g>
	<g>
		<defs>
			<path id="SVGID_7_" d="M231.9,128.8c-1.4,6.9-4,13-8,18s-13,9-13,9s-6,1-8,0s-1-4,3-7s4-12,3-24s-6-17-10.5-24.9
				c-8.9-15.5-12.1-32.5-18.5-49.1c-0.6-1.5-1.4-2.9-1.5-4.5c-0.2-2.9,1-6.5,2.5-9.1c1.3-2.4,2.9-2.9,5.5-2.9c1.7,0,2.8,1.6,4.4,2.2
				c1.2,0.4,2.5,0,3.7-0.4c4-1.2,8.4-0.9,12.2,0.7c1.9,0.8,4,2,5.9,1.3c1.2-0.4,2.2-1.5,3.5-1.8c1.9-0.4,4.2,0.6,5,2.4
				c3.4,7.6,2.4,12.6,1.4,15.6c0.5,8.2,5.2,18,10.9,24c2.7,2.8,5.9,5.2,9.1,7.5c13.9,9.8,29.1,17.8,43,27.7
				c13.9,9.9,27.3,21.9,33.6,37.8c5,12.5,3,33.5,0,37.5s-14,11-14,11s15,8,23,23s6,28,0,34c-6,6-17,13-17,13s0-11,3-21
				s2.4-13-1.3-22c-3.7-9-22-24.5-22-24.5l-26.2-24c0,0-5.2-25.2-12.5-36.5C246.4,133.3,232.4,126.3,231.9,128.8L231.9,128.8z"/>
		</defs>
		<clipPath id="SVGID_8_">
			<use xlink:href="#SVGID_7_"  style="overflow:visible;"/>
		</clipPath>
		<path class="st11" d="M184.4,65.3c0,0,6,9,12,10s21.5-7.5,23.5-10.5c0,0-1.4,11.3-4,17c-8.5,18.5-9,42-9,42l-20-40l-1-14
			C185.9,69.8,184.4,65.3,184.4,65.3z M231.4,134.3l4-18c0,0,13,3,19,11s7,18,8,30s0,29,0,29l-28-39L231.4,134.3z M310.4,134.3
			c0,0,10,8,8,24s-10,24-15,27s-16,8-16,8s21,6,29,12s19-20,19-20l-2-36L310.4,134.3z M307.4,240.3c0,0,1,18,32,14s-6,22-6,22
			l-39,15l-8-41L307.4,240.3L307.4,240.3z"/>
	</g>
</g>
<path class="st2" d="M191.3,51.2c-1.7-0.6-3.4,4.7-1.7,5.2S194.8,52.3,191.3,51.2 M209,53c-2.6,0-1,5.7,0.8,5.4
	C211.7,58.2,211.6,53,209,53z M197.4,61.3c-4,0-4,2-4,3c0,1,3,4,4,4s4-2,4-4S199.4,61.3,197.4,61.3z"/>
</svg>
