<svg xmlns="http://www.w3.org/2000/svg" xmlns:xlink="http://www.w3.org/1999/xlink" viewBox="0 0 300 350">
    <path fill="#44375E" d="M69.2 325.6l-32.8-48.2c-1.9-2.7-2.7-6.2-1.9-9.6l23.1-79c6.2-25.1 28.9-35.5 54.7-35.5l55.1 2.7c5 .4 9.6 2.3 13.5 5.8l55.1 49.7c8.1 7.3 13.5 17 15.8 27.8l8.5 41.2c.4 2.3 0 5-1.2 7.3L243.7 324c-1.9 4.2-6.2 6.6-10.8 6.6H79.3c-3.9 0-7.7-1.9-10.1-5z"/>
    <defs>
        <path id="prefix__a" d="M69.2 325.6l-32.8-48.2c-1.9-2.7-2.7-6.2-1.9-9.6l23.1-79c6.2-25.1 28.9-35.5 54.7-35.5l55.1 2.7c5 .4 9.6 2.3 13.5 5.8l55.1 49.7c8.1 7.3 13.5 17 15.8 27.8l8.5 41.2c.4 2.3 0 5-1.2 7.3L243.7 324c-1.9 4.2-6.2 6.6-10.8 6.6H79.3c-3.9 0-7.7-1.9-10.1-5z"/>
    </defs>
    <clipPath id="prefix__b">
        <use xlink:href="#prefix__a" overflow="visible"/>
    </clipPath>
    <g clip-path="url(#prefix__b)">
        <path fill="#120223" d="M64.6 322.9l5 7.7H242.7l5-7.7z"/>
        <path fill="#615777" d="M194.1 165.7c-17-1.9-79-6.6-93.3 5-16.2 13.1-28.9 90.6-28.9 98.3 0 6.6 10.8 42 14.3 54H64.6c-3.9 0-3.9 3.1-5.8 0l-30.1-42.8c-1.9-2.7-2.7-6.2-1.9-9.6l30.8-81.7c6.2-25.1 25.8-40.9 52-40.9h37.8c3.9 0 20.8 2.7 23.1 5.8l23.6 11.9z"/>
        <path fill="#2F2549" d="M263.5 286.7L249.6 316c-1.9 3.9 3.5 6.6-1.2 6.6H128.2c30.4-4.2 69.4-9.6 80.6-9.6 19.3 0 25.1-19.7 25.1-25.1 0-7.7 0-27-7.7-34.7s-21.2-5.8-40.5-9.6-27-42.4-23.1-50.1c2.7-5 19.7-23.5 24.7-28.5l50.1 40.9c10 3.1 17 11.6 18.5 22l8.5 52c.6 2.2.3 4.9-.9 6.8z"/>
        <path opacity=".35" fill="none" stroke="#FFF" stroke-width="5" stroke-linecap="round" stroke-miterlimit="10" d="M69.6 186.1s7.7-19.3 27-23.1"/>
    </g>
    <defs>
        <path id="prefix__c" d="M64.2 222.7H203V257H64.2z"/>
    </defs>
    <clipPath id="prefix__d">
        <use xlink:href="#prefix__c" overflow="visible"/>
    </clipPath>
    <g clip-path="url(#prefix__d)">
        <circle fill="#FFF" cx="98.2" cy="227.7" r="25.1"/>
        <circle fill="#120223" cx="98.2" cy="227.7" r="12.7"/>
        <circle fill="#FFF" cx="169.5" cy="227.7" r="25.1"/>
        <circle fill="#120223" cx="169.5" cy="227.7" r="12.7"/>
        <circle fill="#5C00D3" cx="98.2" cy="227.7" r="5"/>
        <circle fill="#5C00D3" cx="170.6" cy="227.7" r="5"/>
    </g>
    <g>
        <defs>
            <path id="prefix__e" d="M64.2 191.9H203v30.8H64.2z"/>
        </defs>
        <clipPath id="prefix__f">
            <use xlink:href="#prefix__e" overflow="visible"/>
        </clipPath>
        <g clip-path="url(#prefix__f)" fill="#FFF">
            <circle opacity=".2" cx="98.2" cy="227.7" r="25.1"/>
            <circle opacity=".2" cx="169.5" cy="227.7" r="25.1"/>
        </g>
    </g>
    <g>
        <defs>
            <path id="prefix__g" d="M166.9 128.8c-1.4 6.9-4 13-8 18s-13 9-13 9-6 1-8 0-1-4 3-7 4-12 3-24-6-17-10.5-24.9c-8.9-15.5-12.1-32.5-18.5-49.1-.6-1.5-1.4-2.9-1.5-4.5-.2-2.9 1-6.5 2.5-9.1 1.3-2.4 2.9-2.9 5.5-2.9 1.7 0 2.8 1.6 4.4 2.2 1.2.4 2.5 0 3.7-.4 4-1.2 8.4-.9 12.2.7 1.9.8 4 2 5.9 1.3 1.2-.4 2.2-1.5 3.5-1.8 1.9-.4 4.2.6 5 2.4 3.4 7.6 2.4 12.6 1.4 15.6.5 8.2 5.2 18 10.9 24 2.7 2.8 5.9 5.2 9.1 7.5 13.9 9.8 29.1 17.8 43 27.7 13.9 9.9 27.3 21.9 33.6 37.8 5 12.5 3 33.5 0 37.5s-14 11-14 11 15 8 23 23 6 28 0 34-17 13-17 13 0-11 3-21 2.4-13-1.3-22-22-24.5-22-24.5l-26.2-24s-5.2-25.2-12.5-36.5c-5.7-8.5-19.7-15.5-20.2-13z"/>
        </defs>
        <use xlink:href="#prefix__g" overflow="visible" fill="#FFF"/>
        <clipPath id="prefix__h">
            <use xlink:href="#prefix__g" overflow="visible"/>
        </clipPath>
        <path opacity=".2" clip-path="url(#prefix__h)" fill="#615777" d="M119.4 65.3s6 9 12 10 21.5-7.5 23.5-10.5c0 0-1.4 11.3-4 17-8.5 18.5-9 42-9 42l-20-40-1-14-1.5-4.5zM166.4 134.3l4-18s13 3 19 11 7 18 8 30 0 29 0 29l-28-39-3-13zM245.4 134.3s10 8 8 24-10 24-15 27-16 8-16 8 21 6 29 12 19-20 19-20l-2-36-23-15zM242.4 240.3s1 18 32 14-6 22-6 22l-39 15-8-41 21-10z"/>
    </g>
    <path fill="#120223" d="M126.3 51.2c-1.7-.6-3.4 4.7-1.7 5.2s5.2-4.1 1.7-5.2M144 53c-2.6 0-1 5.7.8 5.4 1.9-.2 1.8-5.4-.8-5.4zM132.4 61.3c-4 0-4 2-4 3s3 4 4 4 4-2 4-4-2-3-4-3z"/>
</svg>
