<?xml version="1.0" encoding="utf-8"?>
<!-- Generator: Adobe Illustrator 23.0.6, SVG Export Plug-In . SVG Version: 6.00 Build 0)  -->
<!DOCTYPE svg PUBLIC "-//W3C//DTD SVG 1.1//EN" "http://www.w3.org/Graphics/SVG/1.1/DTD/svg11.dtd" [
  <!ENTITY ns_extend "http://ns.adobe.com/Extensibility/1.0/">
  <!ENTITY ns_ai "http://ns.adobe.com/AdobeIllustrator/10.0/">
  <!ENTITY ns_graphs "http://ns.adobe.com/Graphs/1.0/">
  <!ENTITY ns_vars "http://ns.adobe.com/Variables/1.0/">
  <!ENTITY ns_imrep "http://ns.adobe.com/ImageReplacement/1.0/">
  <!ENTITY ns_sfw "http://ns.adobe.com/SaveForWeb/1.0/">
  <!ENTITY ns_custom "http://ns.adobe.com/GenericCustomNamespace/1.0/">
  <!ENTITY ns_adobe_xpath "http://ns.adobe.com/XPath/1.0/">
]>
<svg version="1.1" id="Layer_1" xmlns:x="&ns_extend;" xmlns:i="&ns_ai;" xmlns:graph="&ns_graphs;"
   xmlns="http://www.w3.org/2000/svg" xmlns:xlink="http://www.w3.org/1999/xlink" x="0px" y="0px" viewBox="0 0 300 350"
   enable-background="new 0 0 300 350" xml:space="preserve">
<metadata>
  <sfw  xmlns="&ns_sfw;">
    <slices></slices>
    <sliceSourceBounds  bottomLeftOrigin="true" height="296.3" width="260.2" x="76.6" y="-455.6"></sliceSourceBounds>
  </sfw>
</metadata>
<g id="Qregular">
  <g>
    <g>
      <path id="404_SVGID_5_" fill="#44375E" d="M69.2,325.6l-32.8-48.2c-1.9-2.7-2.7-6.2-1.9-9.6l23.1-79c6.2-25.1,28.9-35.5,54.7-35.5
        l55.1,2.7c5,0.4,9.6,2.3,13.5,5.8l55.1,49.7c8.1,7.3,13.5,17,15.8,27.8l8.5,41.2c0.4,2.3,0,5-1.2,7.3l-15.4,36.2
        c-1.9,4.2-6.2,6.6-10.8,6.6H79.3C75.4,330.6,71.6,328.7,69.2,325.6z"/>
    </g>
    <g>
      <defs>
        <path id="404_SVGID_1_" d="M69.2,325.6l-32.8-48.2c-1.9-2.7-2.7-6.2-1.9-9.6l23.1-79c6.2-25.1,28.9-35.5,54.7-35.5l55.1,2.7
          c5,0.4,9.6,2.3,13.5,5.8l55.1,49.7c8.1,7.3,13.5,17,15.8,27.8l8.5,41.2c0.4,2.3,0,5-1.2,7.3l-15.4,36.2
          c-1.9,4.2-6.2,6.6-10.8,6.6H79.3C75.4,330.6,71.6,328.7,69.2,325.6z"/>
      </defs>
      <clipPath id="404_SVGID_2_">
        <use xlink:href="#404_SVGID_1_"  overflow="visible"/>
      </clipPath>
      <g clip-path="url(#404_SVGID_2_)">
        <polygon fill="#120223" points="64.6,322.9 69.6,330.6 230.4,330.6 242.7,330.6 247.7,322.9         "/>
        <path fill="#615777" d="M194.1,165.7c-17-1.9-79-6.6-93.3,5c-16.2,13.1-28.9,90.6-28.9,98.3c0,6.6,10.8,42,14.3,54H64.6
          c-3.9,0-3.9,3.1-5.8,0l-30.1-42.8c-1.9-2.7-2.7-6.2-1.9-9.6l30.8-81.7c6.2-25.1,25.8-40.9,52-40.9h37.8c3.9,0,20.8,2.7,23.1,5.8
          L194.1,165.7z"/>
        <path fill="#2F2549" d="M263.5,286.7L249.6,316c-1.9,3.9,3.5,6.6-1.2,6.6H128.2c30.4-4.2,69.4-9.6,80.6-9.6
          c19.3,0,25.1-19.7,25.1-25.1c0-7.7,0-27-7.7-34.7s-21.2-5.8-40.5-9.6s-27-42.4-23.1-50.1c2.7-5,19.7-23.5,24.7-28.5l50.1,40.9
          c10,3.1,17,11.6,18.5,22l8.5,52C265,282.1,264.7,284.8,263.5,286.7z"/>
        
          <path opacity="0.35" fill="none" stroke="#FFFFFF" stroke-width="5" stroke-linecap="round" stroke-miterlimit="10" enable-background="new    " d="
          M69.6,186.1c0,0,7.7-19.3,27-23.1"/>
      </g>
    </g>
  </g>
  <g id="EyesOpen">
    <g>
      <defs>
        <rect id="404_SVGID_3_" x="64.2" y="222.7" width="138.8" height="34.3"/>
      </defs>
      <clipPath id="404_SVGID_4_">
        <use xlink:href="#404_SVGID_3_"  overflow="visible"/>
      </clipPath>
      <g clip-path="url(#404_SVGID_4_)">
        <circle fill="#FFFFFF" cx="98.2" cy="227.7" r="25.1"/>
        <circle fill="#120223" cx="98.2" cy="227.7" r="12.7"/>
        <circle fill="#FFFFFF" cx="169.5" cy="227.7" r="25.1"/>
        <circle fill="#120223" cx="169.5" cy="227.7" r="12.7"/>
        <circle fill="#5C00D3" cx="98.2" cy="227.7" r="5"/>
        <circle fill="#5C00D3" cx="170.6" cy="227.7" r="5"/>
      </g>
    </g>
  </g>
  <g id="EyesClosed">
    <g>
      <defs>
        <rect id="404_SVGID_6_" x="64.2" y="191.9" width="138.8" height="30.8"/>
      </defs>
      <clipPath id="404_SVGID_7_">
        <use xlink:href="#404_SVGID_6_"  overflow="visible"/>
      </clipPath>
      <g clip-path="url(#404_SVGID_7_)">
        <circle opacity="0.2" fill="#FFFFFF" enable-background="new    " cx="98.2" cy="227.7" r="25.1"/>
        <circle opacity="0.2" fill="#FFFFFF" enable-background="new    " cx="169.5" cy="227.7" r="25.1"/>
      </g>
    </g>
  </g>
</g>
<g>
  <defs>
    <path id="404_SVGID_8_" d="M166.9,128.8c-1.4,6.9-4,13-8,18s-13,9-13,9s-6,1-8,0s-1-4,3-7s4-12,3-24s-6-17-10.5-24.9
      c-8.9-15.5-12.1-32.5-18.5-49.1c-0.6-1.5-1.4-2.9-1.5-4.5c-0.2-2.9,1-6.5,2.5-9.1c1.3-2.4,2.9-2.9,5.5-2.9c1.7,0,2.8,1.6,4.4,2.2
      c1.2,0.4,2.5,0,3.7-0.4c4-1.2,8.4-0.9,12.2,0.7c1.9,0.8,4,2,5.9,1.3c1.2-0.4,2.2-1.5,3.5-1.8c1.9-0.4,4.2,0.6,5,2.4
      c3.4,7.6,2.4,12.6,1.4,15.6c0.5,8.2,5.2,18,10.9,24c2.7,2.8,5.9,5.2,9.1,7.5c13.9,9.8,29.1,17.8,43,27.7
      c13.9,9.9,27.3,21.9,33.6,37.8c5,12.5,3,33.5,0,37.5s-14,11-14,11s15,8,23,23s6,28,0,34s-17,13-17,13s0-11,3-21s2.4-13-1.3-22
      c-3.7-9-22-24.5-22-24.5l-26.2-24c0,0-5.2-25.2-12.5-36.5C181.4,133.3,167.4,126.3,166.9,128.8z"/>
  </defs>
  <use xlink:href="#404_SVGID_8_"  overflow="visible" fill="#FFFFFF"/>
  <clipPath id="404_SVGID_9_">
    <use xlink:href="#404_SVGID_8_"  overflow="visible"/>
  </clipPath>
  <path opacity="0.2" clip-path="url(#404_SVGID_9_)" fill="#615777" d="M119.4,65.3c0,0,6,9,12,10c6,1,21.5-7.5,23.5-10.5
    c0,0-1.4,11.3-4,17c-8.5,18.5-9,42-9,42l-20-40l-1-14L119.4,65.3z"/>
  <path opacity="0.2" clip-path="url(#404_SVGID_9_)" fill="#615777" d="M166.4,134.3l4-18c0,0,13,3,19,11s7,18,8,30s0,29,0,29l-28-39
    L166.4,134.3z"/>
  <path opacity="0.2" clip-path="url(#404_SVGID_9_)" fill="#615777" d="M245.4,134.3c0,0,10,8,8,24s-10,24-15,27s-16,8-16,8s21,6,29,12
    s19-20,19-20l-2-36L245.4,134.3z"/>
  <path opacity="0.2" clip-path="url(#404_SVGID_9_)" fill="#615777" d="M242.4,240.3c0,0,1,18,32,14s-6,22-6,22l-39,15l-8-41
    L242.4,240.3z"/>
</g>
<path fill="#120223" d="M126.3,51.2c-1.7-0.6-3.4,4.7-1.7,5.2S129.8,52.3,126.3,51.2"/>
<path fill="#120223" d="M144,53c-2.6,0-1,5.7,0.8,5.4C146.7,58.2,146.6,53,144,53z"/>
<path fill="#120223" d="M132.4,61.3c-4,0-4,2-4,3c0,1,3,4,4,4s4-2,4-4C136.4,62.3,134.4,61.3,132.4,61.3z"/>
</svg>
