<?xml version="1.0" encoding="utf-8"?>
<!-- Generator: Adobe Illustrator 23.0.3, SVG Export Plug-In . SVG Version: 6.00 Build 0)  -->
<svg version="1.1" id="Layer_1" xmlns="http://www.w3.org/2000/svg" xmlns:xlink="http://www.w3.org/1999/xlink" x="0px" y="0px"
	 viewBox="0 0 30 30" style="enable-background:new 0 0 30 30;" xml:space="preserve">
<style type="text/css">
	.st0{fill:none;}
	.st1{fill:#5C00D3;}
</style>
<path id="prefix__Outline" class="st0" d="M16.5,15l11.3-8C25.2,3.4,21,1,16.3,1c-7.7,0-14,6.3-14,14s6.3,14,14,14
	c4.8,0,9-2.4,11.5-6L16.5,15z"/>
<path class="st1" d="M16.3,28c-7.2,0-13-5.8-13-13s5.8-13,13-13c3.8,0,7.5,1.8,10.1,4.8L14.8,15l11.6,8.2C23.9,26.2,20.2,28,16.3,28
	z"/>
<path class="st1" d="M16.3,26c-6.1,0-11-4.9-11-11s4.9-11,11-11c2.5,0,5,0.9,7,2.5l-12,8.5l12,8.5C21.4,25.1,18.9,26,16.3,26z"/>
</svg>
