<svg width="49" height="29" viewBox="0 0 49 29" fill="none" xmlns="http://www.w3.org/2000/svg">
<path fill-rule="evenodd" clip-rule="evenodd" d="M24.4999 4.5C17.3905 4.5 11.2018 8.4418 8 14.2591C11.2018 20.0765 17.3906 24.0183 24.5 24.0183C31.6094 24.0183 37.7982 20.0765 41 14.2592C37.7982 8.44185 31.6094 4.5 24.4999 4.5ZM24.4999 21.9271C28.7348 21.9271 32.1679 18.494 32.1679 14.2592C32.1679 10.0243 28.7348 6.59126 24.4999 6.59126C20.2651 6.59126 16.832 10.0243 16.832 14.2592C16.832 18.494 20.2651 21.9271 24.4999 21.9271ZM28.6825 14.2592C28.6825 16.5691 26.8099 18.4417 24.5 18.4417C22.19 18.4417 20.3175 16.5691 20.3175 14.2592C20.3175 11.9492 22.19 10.0767 24.5 10.0767C26.8099 10.0767 28.6825 11.9492 28.6825 14.2592ZM26.5912 13.5621C26.9762 13.5621 27.2883 13.25 27.2883 12.865C27.2883 12.48 26.9762 12.1679 26.5912 12.1679C26.2062 12.1679 25.8941 12.48 25.8941 12.865C25.8941 13.25 26.2062 13.5621 26.5912 13.5621Z" fill="white"/>
</svg>
