<svg xmlns="http://www.w3.org/2000/svg" width="15.201" height="17" viewBox="0 0 15.201 17">
  <g id="Group_2" data-name="Group 2" transform="translate(-319.847 -7)">
    <circle id="Ellipse_2" data-name="Ellipse 2" cx="1.553" cy="1.553" r="1.553" transform="translate(325.894 13.947)" fill="currentColor"/>
    <path id="Path_5" data-name="Path 5" d="M334.808,11.25a2.908,2.908,0,0,0-2.675-1.114,8.979,8.979,0,0,0-1.7.185C329.747,8.305,328.666,7,327.447,7s-2.3,1.305-2.991,3.321a8.969,8.969,0,0,0-1.694-.185,2.909,2.909,0,0,0-2.676,1.114c-.609,1.056-.02,2.644,1.38,4.25-1.4,1.606-1.989,3.194-1.38,4.25a2.909,2.909,0,0,0,2.676,1.114,8.893,8.893,0,0,0,1.694-.186c.691,2.017,1.772,3.322,2.991,3.322s2.3-1.305,2.991-3.321a8.979,8.979,0,0,0,1.7.185,2.908,2.908,0,0,0,2.675-1.114c.61-1.056.021-2.644-1.38-4.25C334.829,13.894,335.418,12.306,334.808,11.25Zm-2.675-.364c1.031,0,1.751.263,2.026.739.4.694-.075,1.955-1.247,3.32a15.536,15.536,0,0,0-1.809-1.556,15.535,15.535,0,0,0-.444-2.349A8.024,8.024,0,0,1,332.133,10.886Zm-3.172,7.236c-.5.288-1.007.547-1.514.778-.507-.231-1.014-.49-1.514-.778s-.978-.6-1.432-.922c-.052-.544-.082-1.111-.082-1.7s.03-1.156.082-1.7c.454-.321.929-.632,1.432-.922s1.007-.547,1.514-.778c.507.231,1.015.49,1.514.778s.987.6,1.432.921c.052.545.082,1.112.082,1.7s-.03,1.156-.082,1.7C329.948,17.518,329.471,17.828,328.961,18.122Zm1.3.073a14.305,14.305,0,0,1-.343,1.6,14.164,14.164,0,0,1-1.553-.5c.322-.162.645-.334.967-.52S329.965,18.392,330.265,18.195Zm-3.74,1.1a14.145,14.145,0,0,1-1.552.5,14.083,14.083,0,0,1-.343-1.6c.3.2.607.391.928.577S326.2,19.13,326.525,19.292ZM323.7,16.586a13.915,13.915,0,0,1-1.211-1.086,13.915,13.915,0,0,1,1.211-1.086c-.021.357-.035.717-.035,1.086S323.683,16.229,323.7,16.586Zm.926-3.781a14.083,14.083,0,0,1,.343-1.6,14.145,14.145,0,0,1,1.552.5c-.322.162-.644.334-.967.52S324.93,12.608,324.63,12.805Zm3.739-1.1a14.163,14.163,0,0,1,1.553-.5,14.335,14.335,0,0,1,.343,1.6c-.3-.2-.608-.39-.929-.576S328.691,11.87,328.369,11.708Zm2.821,2.7A13.992,13.992,0,0,1,332.4,15.5a13.992,13.992,0,0,1-1.209,1.092c.021-.358.035-.721.035-1.092S331.211,14.766,331.19,14.408ZM327.447,7.75c.8,0,1.656,1.043,2.252,2.74a15.491,15.491,0,0,0-2.252.787,15.409,15.409,0,0,0-2.252-.787C325.791,8.793,326.646,7.75,327.447,7.75Zm-5.934,6.617c-.824-1.133-1.115-2.158-.778-2.742.275-.476,1-.739,2.027-.739a8.024,8.024,0,0,1,1.474.154,15.411,15.411,0,0,0-.444,2.349,15.479,15.479,0,0,0-1.8,1.548C321.828,14.747,321.652,14.558,321.513,14.367Zm1.249,5.747c-1.032,0-1.752-.263-2.027-.739-.337-.584-.046-1.609.778-2.742.139-.191.315-.38.478-.57a15.479,15.479,0,0,0,1.8,1.548,15.411,15.411,0,0,0,.444,2.349A8.024,8.024,0,0,1,322.762,20.114Zm4.685,3.136c-.8,0-1.656-1.043-2.252-2.74a15.409,15.409,0,0,0,2.252-.787,15.491,15.491,0,0,0,2.252.787C329.1,22.207,328.249,23.25,327.447,23.25Zm6.712-3.875c-.275.476-.995.739-2.026.739a8.024,8.024,0,0,1-1.474-.154,15.559,15.559,0,0,0,.444-2.349,15.536,15.536,0,0,0,1.809-1.556C334.084,17.42,334.56,18.681,334.159,19.375Z" fill="currentColor"/>
  </g>
</svg>
