<svg xmlns="http://www.w3.org/2000/svg" viewBox="0 0 30 30">
  <path d="M29.1 16.5V14h-3.3c-.3-2-1-3.9-2.2-5.4l2.3-2.3-1.8-1.8-2.3 2.3c-1.5-1.2-3.4-2-5.4-2.2V1.2h-2.5v3.3c-2 .3-3.9 1-5.4 2.2L6.1 4.4 4.4 6.2l2.3 2.3c-1.2 1.5-2 3.4-2.2 5.4H1.1v2.5h3.3c.3 2 1 3.9 2.2 5.4l-2.3 2.3L6.1 26l2.3-2.3c1.5 1.2 3.4 2 5.4 2.2v3.3h2.5v-3.3c2-.3 3.9-1 5.4-2.2L24 26l1.8-1.8-2.3-2.3c1.2-1.5 2-3.4 2.2-5.4h3.4z" fill="none" stroke="#fff" stroke-width="1" stroke-miterlimit="10"/>
  <circle cx="15.1" cy="15.2" r="8" fill="#f05"/>
</svg>
