<?xml version="1.0" encoding="utf-8"?>
<!-- Generator: Adobe Illustrator 23.0.3, SVG Export Plug-In . SVG Version: 6.00 Build 0)  -->
<svg version="1.1" id="Layer_1" xmlns="http://www.w3.org/2000/svg" xmlns:xlink="http://www.w3.org/1999/xlink" x="0px" y="0px"
	 viewBox="0 0 30 30" style="enable-background:new 0 0 30 30;" xml:space="preserve">
<style type="text/css">
	.st0{opacity:0.1;fill:#FFFFFF;}
</style>
<path class="st0" d="M29.1,16.5V14h-3.3c-0.3-2-1-3.9-2.2-5.4l2.3-2.3l-1.8-1.8l-2.3,2.3c-1.5-1.2-3.4-2-5.4-2.2V1.2h-2.5v3.3
	c-2,0.3-3.9,1-5.4,2.2L6.1,4.4L4.4,6.2l2.3,2.3c-1.2,1.5-2,3.4-2.2,5.4H1.1v2.5h3.3c0.3,2,1,3.9,2.2,5.4l-2.3,2.3L6.1,26l2.3-2.3
	c1.5,1.2,3.4,2,5.4,2.2v3.3h2.5v-3.3c2-0.3,3.9-1,5.4-2.2L24,26l1.8-1.8l-2.3-2.3c1.2-1.5,2-3.4,2.2-5.4
	C25.7,16.5,29.1,16.5,29.1,16.5z"/>
</svg>
