<svg version="1.1" id="prefix__prefix__Layer_1" 
  xmlns="http://www.w3.org/2000/svg" x="0" y="0" viewBox="0 0 30 30" xml:space="preserve">
  <style>
        .prefix__prefix__st0{fill:#fff}
  </style>
  <path class="prefix__prefix__st0" d="M18.9 15.1c0-2.4-1.7-4-3.9-4-2.3 0-3.9 1.6-3.9 4s1.7 4 3.9 4c2.3 0 3.9-1.7 3.9-4z"/>
  <path class="prefix__prefix__st0" d="M3 3v24h24V3H3zm16.1 21.3c-1.9 0-3.2-.7-5.1-2.7-3.5-.4-5.9-3-5.9-6.5 0-3.8 2.9-6.6 6.9-6.6s6.9 2.8 6.9 6.5c0 3-1.8 5.3-4.5 6.2.6.6 1.2.9 1.8.9.8 0 1.5-.3 2.1-.9l1.3 1.5c-.9 1-2.1 1.6-3.5 1.6z"/>
</svg>
