<?xml version="1.0" standalone="no"?>
<!DOCTYPE svg PUBLIC "-//W3C//DTD SVG 20010904//EN"
 "http://www.w3.org/TR/2001/REC-SVG-20010904/DTD/svg10.dtd">
<svg version="1.0" xmlns="http://www.w3.org/2000/svg"
 width="512.000000pt" height="512.000000pt" viewBox="0 0 512.000000 512.000000"
 preserveAspectRatio="xMidYMid meet">
<metadata>
Created by potrace 1.11, written by Peter Selinger 2001-2013
</metadata>
<g transform="translate(0.000000,512.000000) scale(0.100000,-0.100000)"
fill="#000000" stroke="none">
<path d="M1584 4329 c-471 -42 -829 -261 -984 -603 -16 -36 -89 -267 -161
-513 -72 -246 -198 -677 -280 -957 -162 -553 -170 -594 -131 -675 10 -20 176
-270 369 -553 193 -284 357 -526 363 -538 22 -40 93 -111 135 -133 l40 -22
1810 -3 c2032 -3 1870 -9 1949 72 36 36 65 98 230 486 158 373 190 455 193
505 4 50 -14 152 -97 555 -55 272 -114 534 -130 582 -51 152 -133 295 -233
405 -45 49 -730 672 -1217 1107 -269 240 -192 220 -1025 262 -719 36 -695 35
-831 23z m-130 -160 c53 -41 25 -100 -56 -119 -202 -48 -388 -204 -513 -433
-39 -71 -63 -92 -95 -82 -56 18 -63 60 -24 138 122 243 351 440 584 501 73 19
73 19 104 -5z m-281 -1426 c-5 -16 -8 -59 -8 -98 1 -116 58 -200 174 -253 45
-21 64 -24 125 -20 189 12 304 169 263 361 l-8 37 145 0 145 0 7 -56 c8 -71
-2 -163 -28 -239 -59 -176 -217 -323 -394 -369 -79 -20 -209 -20 -288 0 -181
47 -336 192 -400 373 -20 58 -34 220 -22 266 l6 25 145 0 145 0 -7 -27z m1610
-10 c-29 -141 30 -272 150 -335 62 -33 194 -33 257 0 104 54 154 136 155 252
0 41 -4 85 -8 98 l-8 22 144 0 c167 0 157 7 157 -112 0 -258 -176 -488 -426
-553 -68 -18 -191 -20 -266 -4 -155 32 -310 154 -382 299 -47 97 -71 214 -62
304 l8 66 144 0 145 0 -8 -37z"/>
</g>
</svg>
