<svg width="49" height="29" viewBox="0 0 49 29" fill="none" xmlns="http://www.w3.org/2000/svg">
<path d="M4.33064 13.9173C4.16532 13.9071 4.16532 13.9071 4 13.9071L4.33064 13.9173ZM4.33064 13.9173C4.4753 13.9274 4.4753 13.9274 4.64063 13.9375M4.33064 13.9173L4.64063 13.9375M4.64063 13.9375C4.80595 13.9476 4.80595 13.9476 4.97127 13.9476M4.64063 13.9375L4.97127 13.9476M4.97127 13.9476C5.13659 13.9577 5.13659 13.9577 5.28125 13.9678M4.97127 13.9476L5.28125 13.9678M5.28125 13.9678C5.44657 13.9678 5.44657 13.9678 5.6119 13.9678M5.28125 13.9678H5.6119M5.6119 13.9678C5.77722 13.9678 5.77722 13.9678 5.94254 13.9678M5.6119 13.9678H5.94254M5.94254 13.9678C6.10786 13.9577 6.10786 13.9577 6.25252 13.9476M5.94254 13.9678L6.25252 13.9476M6.25252 13.9476C6.41784 13.9375 6.41784 13.9375 6.58317 13.9173M6.25252 13.9476L6.58317 13.9173M6.58317 13.9173C6.74849 13.897 6.74849 13.897 6.91381 13.8667M6.58317 13.9173L6.91381 13.8667M6.91381 13.8667C7.05847 13.8465 7.05847 13.8465 7.22379 13.806M6.91381 13.8667L7.22379 13.806M7.22379 13.806C7.38911 13.7757 7.38911 13.7757 7.55444 13.7352M7.22379 13.806L7.55444 13.7352M7.55444 13.7352C7.71976 13.7049 7.71976 13.7049 7.86441 13.6644M7.55444 13.7352L7.86441 13.6644M7.86441 13.6644C8.02974 13.6341 8.02974 13.624 8.19506 13.5936M7.86441 13.6644L8.19506 13.5936M8.19506 13.5936C8.36038 13.5633 8.36038 13.5633 8.52571 13.5431M8.19506 13.5936L8.52571 13.5431M8.52571 13.5431C8.69103 13.533 8.69103 13.5228 8.83569 13.5228M8.52571 13.5431L8.83569 13.5228M8.83569 13.5228C9.00101 13.5228 9.00101 13.5228 9.16633 13.5532M8.83569 13.5228L9.16633 13.5532M9.16633 13.5532C9.33165 13.5734 9.33165 13.5734 9.49698 13.624M9.16633 13.5532L9.49698 13.624M9.49698 13.624C9.64163 13.6745 9.64163 13.6745 9.80696 13.7554M9.49698 13.624L9.80696 13.7554M9.80696 13.7554C9.97228 13.8262 9.97228 13.8262 10.1376 13.9375M9.80696 13.7554L10.1376 13.9375M10.1376 13.9375C10.3029 14.0386 10.3029 14.0386 10.4476 14.16M10.1376 13.9375L10.4476 14.16M10.4476 14.16C10.6129 14.2813 10.6129 14.2914 10.7782 14.4128M10.4476 14.16L10.7782 14.4128M10.7782 14.4128C10.9435 14.5443 10.9435 14.5544 11.1089 14.6757M10.7782 14.4128L11.1089 14.6757M11.1089 14.6757C11.2742 14.787 11.2742 14.7971 11.4189 14.8881M11.1089 14.6757L11.4189 14.8881M11.4189 14.8881C11.5842 14.9892 11.5842 14.9892 11.7495 15.0398M11.4189 14.8881L11.7495 15.0398M11.7495 15.0398C11.9148 15.0904 11.9148 15.0904 12.0801 15.0803M11.7495 15.0398L12.0801 15.0803M12.0801 15.0803C12.2248 15.0701 12.2248 15.0701 12.3901 14.9892M12.0801 15.0803L12.3901 14.9892M12.3901 14.9892C12.5554 14.8982 12.5554 14.8982 12.7208 14.7364M12.3901 14.9892L12.7208 14.7364M12.7208 14.7364C12.8861 14.5645 12.8861 14.5645 13.0307 14.3218M12.7208 14.7364L13.0307 14.3218M13.0307 14.3218C13.1961 14.0791 13.1961 14.0791 13.3614 13.7757M13.0307 14.3218L13.3614 13.7757M13.3614 13.7757C13.5267 13.4723 13.5267 13.4622 13.692 13.1183M13.3614 13.7757L13.692 13.1183M13.692 13.1183C13.8574 12.7846 13.8574 12.7745 14.002 12.4306M13.692 13.1183L14.002 12.4306M14.002 12.4306C14.1673 12.0868 14.1673 12.0767 14.3327 11.7733M14.002 12.4306L14.3327 11.7733M14.3327 11.7733C14.498 11.4598 14.498 11.4598 14.6633 11.2373M14.3327 11.7733L14.6633 11.2373M14.6633 11.2373C14.808 11.0148 14.808 11.0047 14.9733 10.9035M14.6633 11.2373L14.9733 10.9035M14.9733 10.9035C15.1386 10.8125 15.1386 10.8024 15.3039 10.8631M14.9733 10.9035L15.3039 10.8631M15.3039 10.8631C15.4693 10.9238 15.4693 10.9238 15.6139 11.1564M15.3039 10.8631L15.6139 11.1564M15.6139 11.1564C15.7792 11.3991 15.7792 11.3991 15.9446 11.8137M15.6139 11.1564L15.9446 11.8137M15.9446 11.8137C16.1099 12.2284 16.1099 12.2385 16.2752 12.8048M15.9446 11.8137L16.2752 12.8048M16.2752 12.8048C16.4405 13.3711 16.4405 13.3813 16.5852 14.0689M16.2752 12.8048L16.5852 14.0689M16.5852 14.0689C16.7505 14.7465 16.7505 14.7566 16.9158 15.4949M16.5852 14.0689L16.9158 15.4949M16.9158 15.4949C17.0811 16.223 17.0812 16.2331 17.2465 16.9411M16.9158 15.4949L17.2465 16.9411M17.2465 16.9411C17.3911 17.6389 17.3911 17.649 17.5565 18.2355M17.2465 16.9411L17.5565 18.2355M17.5565 18.2355C17.7218 18.8322 17.7218 18.8423 17.8871 19.2367M17.5565 18.2355L17.8871 19.2367M17.8871 19.2367C18.0524 19.621 18.0524 19.6311 18.1971 19.7626M17.8871 19.2367L18.1971 19.7626M18.1971 19.7626C18.3624 19.8941 18.3624 19.8941 18.5277 19.7222M18.1971 19.7626L18.5277 19.7222M18.5277 19.7222C18.693 19.5401 18.693 19.5401 18.8584 19.0446M18.5277 19.7222L18.8584 19.0446M18.8584 19.0446C19.0237 18.549 19.0237 18.5389 19.1683 17.7501M18.8584 19.0446L19.1683 17.7501M19.1683 17.7501C19.3337 16.9512 19.3337 16.9411 19.499 15.9095M19.1683 17.7501L19.499 15.9095M19.499 15.9095C19.6643 14.8881 19.6643 14.8679 19.8296 13.7049M19.499 15.9095L19.8296 13.7049M19.8296 13.7049C19.9743 12.5318 19.9743 12.5115 20.1396 11.3182M19.8296 13.7049L20.1396 11.3182M20.1396 11.3182C20.3049 10.1248 20.3049 10.1046 20.4703 9.02251M20.1396 11.3182L20.4703 9.02251M20.4703 9.02251C20.6356 7.9303 20.6356 7.91007 20.7802 7.06058M20.4703 9.02251L20.7802 7.06058M20.7802 7.06058C20.9456 6.21108 20.9456 6.19085 21.1109 5.67508M20.7802 7.06058L21.1109 5.67508M21.1109 5.67508C21.2762 5.15931 21.2762 5.15931 21.4415 5.05818M21.1109 5.67508L21.4415 5.05818M21.4415 5.05818C21.6069 4.95705 21.6069 4.95705 21.7515 5.31101M21.4415 5.05818L21.7515 5.31101M21.7515 5.31101C21.9168 5.66497 21.9168 5.67508 22.0822 6.45379M21.7515 5.31101L22.0822 6.45379M22.0822 6.45379C22.2475 7.24261 22.2475 7.26284 22.4128 8.41573M22.0822 6.45379L22.4128 8.41573M22.4128 8.41573C22.5575 9.56862 22.5575 9.58885 22.7228 11.0047M22.4128 8.41573L22.7228 11.0047M22.7228 11.0047C22.8881 12.4104 22.8881 12.4407 23.0534 13.9678M22.7228 11.0047L23.0534 13.9678M23.0534 13.9678C23.2187 15.4949 23.2187 15.5252 23.3634 17.0119M23.0534 13.9678L23.3634 17.0119M23.3634 17.0119C23.5287 18.4884 23.5287 18.5187 23.6941 19.8031M23.3634 17.0119L23.6941 19.8031M23.6941 19.8031C23.8594 21.0773 23.8594 21.0975 24.0247 22.0482M23.6941 19.8031L24.0247 22.0482M24.0247 22.0482C24.19 22.9887 24.19 22.9988 24.3347 23.4943M24.0247 22.0482L24.3347 23.4943M24.3347 23.4943C24.5 24 24.5 24 24.6653 24M24.3347 23.4943L24.6653 24M24.6653 24C24.8306 24 24.8306 24 24.996 23.4943M24.6653 24L24.996 23.4943M24.996 23.4943C25.1406 22.9988 25.1406 22.9887 25.3059 22.0482M24.996 23.4943L25.3059 22.0482M25.3059 22.0482C25.4713 21.0975 25.4713 21.0773 25.6366 19.8031M25.3059 22.0482L25.6366 19.8031M25.6366 19.8031C25.8019 18.5187 25.8019 18.4884 25.9672 17.0119M25.6366 19.8031L25.9672 17.0119M25.9672 17.0119C26.1119 15.5252 26.1119 15.4949 26.2772 13.9678M25.9672 17.0119L26.2772 13.9678M26.2772 13.9678C26.4425 12.4407 26.4425 12.4104 26.6079 11.0047M26.2772 13.9678L26.6079 11.0047M26.6079 11.0047C26.7732 9.58885 26.7732 9.56862 26.9178 8.41573M26.6079 11.0047L26.9178 8.41573M26.9178 8.41573C27.0832 7.26284 27.0832 7.24261 27.2485 6.45379M26.9178 8.41573L27.2485 6.45379M27.2485 6.45379C27.4138 5.67508 27.4138 5.66497 27.5791 5.31101M27.2485 6.45379L27.5791 5.31101M27.5791 5.31101C27.7238 4.95705 27.7238 4.95705 27.8891 5.05818M27.5791 5.31101L27.8891 5.05818M27.8891 5.05818C28.0544 5.15931 28.0544 5.15931 28.2198 5.67508M27.8891 5.05818L28.2198 5.67508M28.2198 5.67508C28.3851 6.19085 28.3851 6.21108 28.5504 7.06058M28.2198 5.67508L28.5504 7.06058M28.5504 7.06058C28.6951 7.91007 28.6951 7.9303 28.8604 9.02251M28.5504 7.06058L28.8604 9.02251M28.8604 9.02251C29.0257 10.1046 29.0257 10.1248 29.191 11.3182M28.8604 9.02251L29.191 11.3182M29.191 11.3182C29.3564 12.5115 29.3564 12.5318 29.501 13.7049M29.191 11.3182L29.501 13.7049M29.501 13.7049C29.6663 14.8679 29.6663 14.8881 29.8317 15.9095M29.501 13.7049L29.8317 15.9095M29.8317 15.9095C29.997 16.9411 29.997 16.9512 30.1623 17.7501M29.8317 15.9095L30.1623 17.7501M30.1623 17.7501C30.307 18.5389 30.307 18.549 30.4723 19.0446M30.1623 17.7501L30.4723 19.0446M30.4723 19.0446C30.6376 19.5401 30.6376 19.5401 30.8029 19.7222M30.4723 19.0446L30.8029 19.7222M30.8029 19.7222C30.9682 19.8941 30.9682 19.8941 31.1336 19.7626M30.8029 19.7222L31.1336 19.7626M31.1336 19.7626C31.2782 19.6311 31.2782 19.621 31.4436 19.2367M31.1336 19.7626L31.4436 19.2367M31.4436 19.2367C31.6089 18.8423 31.6089 18.8322 31.7742 18.2355M31.4436 19.2367L31.7742 18.2355M31.7742 18.2355C31.9395 17.649 31.9395 17.6389 32.0842 16.9411M31.7742 18.2355L32.0842 16.9411M32.0842 16.9411C32.2495 16.2331 32.2495 16.223 32.4148 15.4949M32.0842 16.9411L32.4148 15.4949M32.4148 15.4949C32.5801 14.7566 32.5801 14.7465 32.7455 14.0689M32.4148 15.4949L32.7455 14.0689M32.7455 14.0689C32.8901 13.3813 32.8901 13.3711 33.0554 12.8048M32.7455 14.0689L33.0554 12.8048M33.0554 12.8048C33.2208 12.2385 33.2208 12.2284 33.3861 11.8137M33.0554 12.8048L33.3861 11.8137M33.3861 11.8137C33.5514 11.3991 33.5514 11.3991 33.7167 11.1564M33.3861 11.8137L33.7167 11.1564M33.7167 11.1564C33.8614 10.9238 33.8614 10.9238 34.0267 10.8631M33.7167 11.1564L34.0267 10.8631M34.0267 10.8631C34.192 10.8024 34.192 10.8125 34.3574 10.9035M34.0267 10.8631L34.3574 10.9035M34.3574 10.9035C34.5227 11.0047 34.5227 11.0148 34.6673 11.2373M34.3574 10.9035L34.6673 11.2373M34.6673 11.2373C34.8327 11.4598 34.8327 11.4598 34.998 11.7733M34.6673 11.2373L34.998 11.7733M34.998 11.7733C35.1633 12.0767 35.1633 12.0868 35.3286 12.4306M34.998 11.7733L35.3286 12.4306M35.3286 12.4306C35.4733 12.7745 35.4733 12.7846 35.6386 13.1183M35.3286 12.4306L35.6386 13.1183M35.6386 13.1183C35.8039 13.4622 35.8039 13.4723 35.9693 13.7757M35.6386 13.1183L35.9693 13.7757M35.9693 13.7757C36.1346 14.0791 36.1346 14.0791 36.2999 14.3218M35.9693 13.7757L36.2999 14.3218M36.2999 14.3218C36.4446 14.5645 36.4446 14.5645 36.6099 14.7364M36.2999 14.3218L36.6099 14.7364M36.6099 14.7364C36.7752 14.8982 36.7752 14.8982 36.9405 14.9892M36.6099 14.7364L36.9405 14.9892M36.9405 14.9892C37.1058 15.0701 37.1058 15.0701 37.2505 15.0803M36.9405 14.9892L37.2505 15.0803M37.2505 15.0803C37.4158 15.0904 37.4158 15.0904 37.5812 15.0398M37.2505 15.0803L37.5812 15.0398M37.5812 15.0398C37.7465 14.9892 37.7465 14.9892 37.9118 14.8881M37.5812 15.0398L37.9118 14.8881M37.9118 14.8881C38.0565 14.7971 38.0565 14.787 38.2218 14.6757M37.9118 14.8881L38.2218 14.6757M38.2218 14.6757C38.3871 14.5544 38.3871 14.5443 38.5524 14.4128M38.2218 14.6757L38.5524 14.4128M38.5524 14.4128C38.7177 14.2914 38.7177 14.2813 38.8831 14.16M38.5524 14.4128L38.8831 14.16M38.8831 14.16C39.0277 14.0386 39.0277 14.0386 39.193 13.9375M38.8831 14.16L39.193 13.9375M39.193 13.9375C39.3584 13.8262 39.3584 13.8262 39.5237 13.7554M39.193 13.9375L39.5237 13.7554M39.5237 13.7554C39.689 13.6745 39.689 13.6745 39.8337 13.624M39.5237 13.7554L39.8337 13.624M39.8337 13.624C39.999 13.5734 39.999 13.5734 40.1643 13.5532M39.8337 13.624L40.1643 13.5532M40.1643 13.5532C40.3296 13.5228 40.3296 13.5228 40.495 13.5228M40.1643 13.5532L40.495 13.5228M40.495 13.5228C40.6396 13.5228 40.6396 13.533 40.8049 13.5431M40.495 13.5228L40.8049 13.5431M40.8049 13.5431C40.9703 13.5633 40.9703 13.5633 41.1356 13.5936M40.8049 13.5431L41.1356 13.5936M41.1356 13.5936C41.3009 13.624 41.3009 13.6341 41.4662 13.6644M41.1356 13.5936L41.4662 13.6644M41.4662 13.6644C41.6109 13.7049 41.6109 13.7049 41.7762 13.7352M41.4662 13.6644L41.7762 13.7352M41.7762 13.7352C41.9415 13.7757 41.9415 13.7757 42.1069 13.806M41.7762 13.7352L42.1069 13.806M42.1069 13.806C42.2722 13.8465 42.2722 13.8465 42.4168 13.8667M42.1069 13.806L42.4168 13.8667M42.4168 13.8667C42.5822 13.897 42.5822 13.897 42.7475 13.9173M42.4168 13.8667L42.7475 13.9173M42.7475 13.9173C42.9128 13.9375 42.9128 13.9375 43.0781 13.9476M42.7475 13.9173L43.0781 13.9476M43.0781 13.9476C43.2228 13.9577 43.2228 13.9577 43.3881 13.9678M43.0781 13.9476L43.3881 13.9678M43.3881 13.9678C43.5534 13.9678 43.5534 13.9678 43.7188 13.9678M43.3881 13.9678H43.7188M43.7188 13.9678C43.8841 13.9678 43.8841 13.9678 44.0494 13.9678M43.7188 13.9678H44.0494M44.0494 13.9678C44.1941 13.9577 44.1941 13.9577 44.3594 13.9476M44.0494 13.9678L44.3594 13.9476M44.3594 13.9476C44.5247 13.9476 44.5247 13.9476 44.69 13.9375M44.3594 13.9476L44.69 13.9375M44.69 13.9375C44.8553 13.9274 44.8553 13.9274 45 13.9173" stroke="white" stroke-width="1.86667" stroke-linecap="round" stroke-linejoin="round"/>
</svg>
