<svg width="49" height="29" viewBox="0 0 49 29" fill="none" xmlns="http://www.w3.org/2000/svg">
<path fill-rule="evenodd" clip-rule="evenodd" d="M23.8293 2H25.0488V11.2848L27.3377 5.76108L28.4643 6.22791L26.1292 11.8632L33.8254 4.167L34.6877 5.02931L27.0182 12.6988L32.642 10.3684L33.1088 11.495L27.4757 13.8292H37V15.0487H27.4888L33.2081 17.4178L32.7414 18.5445L27.0224 16.1756L34.6836 23.8367L33.8213 24.699L26.1758 17.0535L28.4948 22.6499L27.3682 23.1167L25.0488 17.5195V27H23.8293V17.4134L21.4152 23.2393L20.2886 22.7725L22.6548 17.0622L15.0269 24.6901L14.1646 23.8278L21.8192 16.1731L16.0974 18.5441L15.6306 17.4176L21.3471 15.0487H12V13.8292H21.358L15.6154 11.4505L16.0821 10.3238L21.8248 12.7026L14.1604 5.03821L15.0227 4.17589L22.7014 11.8545L20.319 6.10527L21.4456 5.63844L23.8293 11.3909V2Z" fill="white"/>
</svg>
