<svg version="1.1" id="prefix__Layer_1" xmlns="http://www.w3.org/2000/svg" xmlns:xlink="http://www.w3.org/1999/xlink" x="0" y="0" viewBox="0 0 500 500" xml:space="preserve">
    <style>
        .prefix__st2{fill:#615777}.prefix__st3{fill:#2f2549}.prefix__st4{fill:#120223}.prefix__st6{fill:#fff}.prefix__st7{fill:#5c00d3}.prefix__st24,.prefix__st9{opacity:.35;fill:#fff}.prefix__st24{fill:none;stroke:#fff;stroke-width:2;stroke-linecap:round;stroke-miterlimit:10}
    </style>
    <path d="M64.1 343s-15.6 2-13.5 7 20.6 10 33.8 9.4c13.2-.6 29.5-1.8 35.8.1 6.3 1.8 7.2 10.9 36.4 11.9 29.2.9 50.6-6.7 60.8-4.6 10.2 2.1 12.4 4.9 41.7 7.8 29.3 2.8 68.7 1.9 80.1-4.1 11.4-6 .3-16.5 16.2-17.1s56.7 5.8 73.6 1.7c16.9-4.1 25.1-11 20.1-15.1s-140.9-10.7-140.9-10.7H129.6c0 .1-34.4 4-65.5 13.7z" opacity=".15"/>
    <defs>
        <path id="prefix__SVGID_1_" d="M138.3 197.6L125.7 176c-.9-1.3-1.2-2.9-.8-4.4l10.3-35.5c2.8-11.4 12.9-15.9 24.6-15.9l24.4 1.5c2.8.2 5.4 1.2 7.6 3l24.6 20.5c2.2 1.8 3.7 4.3 4.3 7.1l5.7 25.3c.2 1.1 0 2.2-.5 3.2l-6.4 16.3c-.9 1.8-2.8 3-4.8 3h-71.9c-1.8-.1-3.5-1-4.5-2.5z"/>
    </defs>
    <use xlink:href="#prefix__SVGID_1_" overflow="visible" fill="#44375e"/>
    <clipPath id="prefix__SVGID_2_">
        <use xlink:href="#prefix__SVGID_1_" overflow="visible"/>
    </clipPath>
    <g clip-path="url(#prefix__SVGID_2_)">
        <path class="prefix__st2" d="M199 127.1c-7.7-.9-38-4.2-44.3.9-7.3 5.8-13 40.8-13 44.2 0 2.9 4.8 19 6.4 24.3l-6.3 3.5c-1.8 0-9.4-2-10.4-3.5L121 179.2c-.9-1.3-2.1-5.4-1.7-6.9l12.1-38.2c2.8-11.3 14.3-17.3 26-17.3h19.1c1.7 0 9.4-1.4 10.4 0l12.1 10.3z"/>
        <path class="prefix__st3" d="M228.5 180.9l-5.2 13.9c-.9 1.8-3.2 5.2-5.2 5.2l-51.1-3.5c13.7-2 30.3-3.5 36.3-4.3 8.6-1.2 11.3-6.1 11.3-11.3 0-3.5 0-12.1-3.5-15.6s-9.5-2.6-18.2-4.3c-8.7-1.7-12.1-19.1-10.4-22.5 1.2-2.3 12.6-12.4 14.8-14.7l20.8 19.1c4.5 1.4 3.8 11.6 4.5 16.2l7.6 16.7c.2 1-1.2 4.1-1.7 5.1z"/>
        <path class="prefix__st4" d="M136.5 201.7h85l1.8-5.2h-92z"/>
    </g>
    <defs>
        <path id="prefix__SVGID_3_" d="M200.6 151.4h-62.4l2.1 15.5h60.3z"/>
    </defs>
    <clipPath id="prefix__SVGID_4_">
        <use xlink:href="#prefix__SVGID_3_" overflow="visible"/>
    </clipPath>
    <g clip-path="url(#prefix__SVGID_4_)">
        <circle class="prefix__st6" cx="153.5" cy="153.7" r="11.3"/>
        <circle class="prefix__st4" cx="153.5" cy="153.7" r="5.7"/>
        <circle class="prefix__st6" cx="185.6" cy="153.7" r="11.3"/>
        <circle class="prefix__st4" cx="185.6" cy="153.7" r="5.7"/>
        <circle class="prefix__st7" cx="153.5" cy="153.7" r="2.2"/>
        <circle class="prefix__st7" cx="185.6" cy="153.7" r="2.2"/>
    </g>
    <defs>
        <path id="prefix__SVGID_5_" d="M136.3 137.5h62.4v15h-62.4z"/>
    </defs>
    <clipPath id="prefix__SVGID_6_">
        <use xlink:href="#prefix__SVGID_5_" overflow="visible"/>
    </clipPath>
    <g clip-path="url(#prefix__SVGID_6_)">
        <circle class="prefix__st2" cx="153.5" cy="153.7" r="11.3"/>
        <circle class="prefix__st2" cx="185.6" cy="153.7" r="11.3"/>
    </g>
    <path class="prefix__st9" d="M140.7 136.2c-.2 0-.3 0-.5-.1-.7-.3-1-1-.7-1.7.2-.4 3.8-9.3 13.1-11.2.7-.1 1.4.3 1.5 1 .1.7-.3 1.4-1 1.5-7.9 1.6-11.2 9.5-11.2 9.6-.2.6-.7.9-1.2.9z"/>
    <defs>
        <path id="prefix__SVGID_7_" d="M96.3 239.3l-10.4-19.7c-.8-1.2-.9-2.5-.3-3.7l14.3-28.2c4-9.1 14.8-11.5 26.6-10l24.5 4.4c2.8.5 5.4 1.7 7.4 3.5l22.6 20.2c2 1.8 3.3 4.1 3.6 6.4l3 21.7c0 .9-.3 1.8-.9 2.6l-8.2 12.7c-1.1 1.4-3.1 2.1-5.2 1.9l-72.6-9.4c-2-.2-3.6-1.1-4.4-2.4z"/>
    </defs>
    <use xlink:href="#prefix__SVGID_7_" overflow="visible" fill="#44375e"/>
    <clipPath id="prefix__SVGID_8_">
        <use xlink:href="#prefix__SVGID_7_" overflow="visible"/>
    </clipPath>
    <g clip-path="url(#prefix__SVGID_8_)">
        <path class="prefix__st2" d="M167.1 185.7c-7.7-1.7-43.7-6.2-50.7-2.9-8 3.9-10.2 40.3-10.6 43.2-.3 2.4 1.3 6 2.3 10.6l-6.8 5.4c-1.8-.2-9.3-6.3-10.1-7.6l-8.7-15.8c-.8-1.2-1.5-4.8-1-6l16.4-30.1c4-9.1 16.3-12.5 28.2-11l19.3 2.5c1.7.2 9.7.1 10.5 1.4l11.2 10.3z"/>
        <path class="prefix__st3" d="M189.2 237.1l-6.8 10.8c-1.1 1.4-3.8 3.9-5.8 3.6l-51.2-9.6c14 .2 4.1 14.7 10.2 14.7 8.8.1 4.3 9.6 4.8 5.3.3-2.9-8.4 1.4-11.5-1.9-3.1-3.3-6.2-25-3.8-32.2 2.8-8.5 14.4-26.4 22.2-32.2 1.8-1.4 14.1-8.7 16.6-10.3l19 18.6c4.4 1.7 2.6 10.1 2.8 14.1l5.9 14.9c-.1 1.1-1.8 3.5-2.4 4.2z"/>
    </g>
    <path class="prefix__st9" d="M105.2 188.5c-.2 0-.3-.1-.5-.1-.6-.3-.9-1-.6-1.5.2-.3 4.9-7.3 14.4-7.6.7 0 1.4.4 1.4 1 .1.6-.5 1.1-1.2 1.1-8.1.3-12.3 6.5-12.3 6.5-.1.5-.7.7-1.2.6z"/>
    <g>
        <defs>
            <path id="prefix__SVGID_9_" d="M211 263.3l-6.2-33.1c-.5-2-.3-4.2.7-6.1l24.7-44.8c7.3-14.5 20.4-17.5 33.5-13.9l26.9 9.5c3.1 1.1 5.7 3.3 7.4 6.4l20.1 35.1c1.8 3.1 2.6 6.9 2.3 10.9l-2.9 35.8c-.2 1.5-.8 3-1.8 4.2l-13.2 20c-1.7 2.2-4.2 3.2-6.5 2.6l-80.8-22c-2-.6-3.6-2.3-4.2-4.6z"/>
        </defs>
        <use xlink:href="#prefix__SVGID_9_" overflow="visible" fill="#44375e"/>
        <clipPath id="prefix__SVGID_10_">
            <use xlink:href="#prefix__SVGID_9_" overflow="visible"/>
        </clipPath>
        <g clip-path="url(#prefix__SVGID_10_)">
            <path class="prefix__st2" d="M305.2 186.7c-8.3-3.5-41.1-17.3-50.1-12.4-10.4 5.6-29.6 51-30.9 55.7-1.1 3.9-1.6 27.1-1.7 34.7l-8.4 2.7c-2-.5-9.8-5.6-10.4-7.9l-5.3-26.6c-.5-2-.4-8 .6-9.9l27.7-47.8c7.3-14.5 22.5-19 35.6-15.4l21.4 5.8c1.9.5 11.1 1 11.7 3.2l9.8 17.9z"/>
            <path class="prefix__st3" d="M318.5 268.3l-11 17.1c-1.7 2.2-5.5 6.1-7.8 5.4l-56.1-20.3c16.1 1.5 35.3 4.6 42.3 5.2 10.1 1 15-4.7 16.8-11.8 1.2-4.7 4.5-16.4 1.8-22.1-2.6-5.7-9.8-6.4-18.9-11.4-9.1-5-6.6-29.5-3.4-33.6 2.2-2.8 18.8-12.9 22.1-15.4l16.4 32.1c4.5 3.2 0 16.8-.9 23.3l2.4 24.9c0 1.7-2.7 5.4-3.7 6.6z"/>
        </g>
        <path class="prefix__st9" d="M237.1 181.8c-.2 0-.3 0-.5-.1-.7-.3-1-1-.7-1.7.2-.4 3.8-9.3 13.1-11.2.7-.1 1.4.3 1.5 1 .1.7-.3 1.4-1 1.5-7.9 1.6-11.2 9.5-11.2 9.6-.2.6-.7.9-1.2.9z"/>
        <g>
            <defs>
                <path id="prefix__SVGID_11_" d="M172.7 255.1l-12.6-18.3c-.9-1.1-1.2-2.4-1-3.8l5.9-32.4c1.4-10.3 9.7-15.1 19.7-16.1l21-.6c2.4-.1 4.8.7 6.7 2.1l22.7 16.3c2 1.4 3.5 3.5 4.3 6l6.9 22c.2 1 .2 2-.2 2.9l-4.1 15c-.6 1.7-2.1 2.9-3.9 3l-61.4 5.7c-1.5.1-3-.6-4-1.8z"/>
            </defs>
            <use xlink:href="#prefix__SVGID_11_" overflow="visible" fill="#44375e"/>
            <clipPath id="prefix__SVGID_12_">
                <use xlink:href="#prefix__SVGID_11_" overflow="visible"/>
            </clipPath>
            <g clip-path="url(#prefix__SVGID_12_)">
                <path class="prefix__st2" d="M218.7 187.6c-6.6-.2-32.8-.7-37.8 4.3-5.8 5.8-7.8 37.3-7.5 40.4.2 2.6 5.6 16.5 7.5 21.1l-5.1 3.6c-1.5.1-8.2-1-9.2-2.3L156.3 240c-.9-1.1-2.2-4.7-2.1-6l7.2-34.9c1.4-10.3 10.8-16.6 20.8-17.5l16.3-1.5c1.5-.1 7.9-2 8.9-.8l11.3 8.3z"/>
                <path class="prefix__st3" d="M248.3 233.1l-3.3 12.8c-.6 1.7-2.3 4.9-4 5l-43.9.9c11.5-2.8 25.6-5.5 30.6-6.7 7.2-1.8-8.6 11.2-9.1 6.6-.3-3.1 12-12 10.6-20.2-.7-4.2-.5-9.1-8.6-15.8-5.9-4.8-16.2-13.6-15-16.8.8-2.2 9.8-12.1 11.4-14.3l19.3 15.3c3.9.9 4.2 10 5.2 14.1l7.9 14.3c.2 1-.8 3.9-1.1 4.8z"/>
                <path class="prefix__st4" d="M171.5 258.9l72.6-6.7 1-4.8-78.5 7.2z"/>
            </g>
            <path class="prefix__st9" d="M169.6 200.3h-.4c-.6-.2-.9-.8-.8-1.4.1-.4 2.5-8.6 10.3-11 .6-.2 1.2.2 1.4.8.2.6-.2 1.3-.7 1.4-6.6 2-8.7 9.4-8.8 9.4-.2.4-.5.7-1 .8z"/>
        </g>
    </g>
    <g>
        <defs>
            <path id="prefix__SVGID_13_" d="M246.9 302.1L236 283.3c-.8-1.1-1-2.5-.7-3.8l9-30.8c2.4-9.9 11.2-13.8 21.4-13.8l21.2 1.3c2.4.1 4.7 1.1 6.6 2.6l21.3 17.8c1.9 1.6 3.2 3.7 3.7 6.1l4.9 21.9c.1 1 0 1.9-.4 2.8l-5.6 14.1c-.8 1.6-2.4 2.6-4.2 2.6h-62.4c-1.5 0-3-.7-3.9-2z"/>
        </defs>
        <use xlink:href="#prefix__SVGID_13_" overflow="visible" fill="#44375e"/>
        <clipPath id="prefix__SVGID_14_">
            <use xlink:href="#prefix__SVGID_13_" overflow="visible"/>
        </clipPath>
        <g clip-path="url(#prefix__SVGID_14_)">
            <path class="prefix__st2" d="M299.6 240.9c-6.7-.8-32.9-3.6-38.4.8-6.3 5.1-11.3 35.4-11.3 38.4 0 2.5 4.2 16.4 5.6 21.1l-5.5 3c-1.5 0-8.2-1.7-9-3l-9-15c-.8-1.1-1.8-4.7-1.5-6l10.5-33.1c2.4-9.8 12.4-15 22.6-15H280c1.5 0 8.2-1.2 9 0l10.6 8.8z"/>
            <path class="prefix__st3" d="M325.1 287.6l-4.5 12c-.8 1.6-2.7 4.5-4.5 4.5l-44.3-3c11.9-1.7 26.2-3 31.5-3.8 7.4-1.1 9.8-5.3 9.8-9.8 0-3 3.1 3.1.1.1s-10.2-5.7-17.8-7.2-11.7-26.8-10.1-29.8c1-2 11-10.8 12.9-12.8l18.1 16.6c3.9 1.2 3.3 10.1 3.9 14.1l6.6 14.5c0 1-1.2 3.7-1.7 4.6z"/>
            <path class="prefix__st4" d="M245.4 305.6h73.7l1.5-4.5h-79.7z"/>
        </g>
        <path class="prefix__st9" d="M249 248.8c-.1 0-.3 0-.4-.1-.6-.2-.9-.9-.6-1.5.1-.3 3.3-8.1 11.4-9.7.6-.1 1.2.3 1.3.9.1.6-.3 1.2-.9 1.3-6.8 1.4-9.7 8.3-9.7 8.3-.3.6-.7.8-1.1.8z"/>
    </g>
    <g>
        <defs>
            <path id="prefix__SVGID_15_" d="M66 307.1l-11-22.2c-.8-1.3-1-2.9-.7-4.5l9-36.4c2.4-11.6 11.3-16.3 21.5-16.3l21.4 1.5c2.4.2 4.8 1.3 6.6 3.1l21.5 21c1.9 1.9 3.2 4.4 3.8 7.2l5 25.9c.1 1.1 0 2.3-.4 3.3l-5.6 16.7c-.8 1.9-2.4 3.1-4.2 3.1l-45.1 17c-1.6 0-20.9-17.9-21.8-19.4z"/>
        </defs>
        <use xlink:href="#prefix__SVGID_15_" overflow="visible" fill="#2f2549"/>
        <clipPath id="prefix__SVGID_16_">
            <use xlink:href="#prefix__SVGID_15_" overflow="visible"/>
        </clipPath>
        <g clip-path="url(#prefix__SVGID_16_)">
            <path class="prefix__st2" d="M119.1 234.9c-6.7-.9-33.2-4.3-38.8.9-6.4 6-11.4 41.7-11.4 45.3 0 2.9 4.2 19.4 5.6 24.9l-5.6 3.6c-1.5 0-8.2-2.1-9.1-3.6l-9.1-17.8c-.8-1.3-1.8-5.6-1.5-7.1L59.9 242c2.4-11.6 12.5-17.8 22.8-17.8h16.7c1.5 0 8.2-1.4 9.1 0l10.6 10.7z"/>
            <path class="prefix__st4" d="M64.5 311.3h74.3l1.5-5.4H59.9z"/>
        </g>
        <path class="prefix__st9" d="M68 244.2c-.1 0-.3 0-.4-.1-.6-.3-.9-1-.6-1.7.1-.4 3.4-9.6 11.5-11.5.6-.1 1.2.3 1.3 1 .1.7-.3 1.4-.9 1.6-6.9 1.6-9.8 9.8-9.8 9.8-.2.6-.6.9-1.1.9z"/>
    </g>
    <g>
        <defs>
            <path id="prefix__SVGID_17_" d="M107.4 327.5l-19.1-21.7c-1.3-1.2-2-3-2-4.8l1.7-43.1c0-13.7 9.6-21.3 22.1-24.1l26.4-4.2c3-.5 6.1.1 8.9 1.6l31.5 17.4c2.8 1.5 5.1 4 6.4 7L196 283c.5 1.2.6 2.5.3 3.8l-2.6 20.2c-.5 2.3-2.2 4.1-4.4 4.6l-76.5 17.5c-1.9.4-3.9-.2-5.4-1.6z"/>
        </defs>
        <use xlink:href="#prefix__SVGID_17_" overflow="visible" fill="#44375e"/>
        <clipPath id="prefix__SVGID_18_">
            <use xlink:href="#prefix__SVGID_17_" overflow="visible"/>
        </clipPath>
        <g clip-path="url(#prefix__SVGID_18_)">
            <path class="prefix__st2" d="M153.6 232.1c-8.4.9-41.5 4.4-46.9 11.8-6.3 8.4-3.2 49.8-2.3 53.7.8 3.3 10 20.5 13.2 26.2l-5.9 5.5c-1.9.4-10.5 0-12-1.4l-15.6-17.3c-1.3-1.2-3.7-5.7-3.7-7.5l3-46.6c0-13.6 10.7-23.3 23.2-26.2l20.3-4.6c1.8-.4 9.6-3.9 11.1-2.5l15.6 8.9z"/>
            <path class="prefix__st3" d="M199 286.4l-1.9 17.1c-.5 2.3-2 6.7-4.2 7.2l-55.3 8.4c14.1-5.6 31.3-11.3 37.5-13.8 8.8-3.5 10.5-9.7 9.1-15.6-1-4-3.2-13.9-7.8-17-4.6-3.1-13.9 16.7-23.6 16.8-9.7.1-14.8-36.2-13.9-40.6.6-2.9 10.2-17.3 11.9-20.5l27.1 16.8c5.1.5 7.1 12.3 9.1 17.5l12.5 17.3c.5 1.3-.2 5.2-.5 6.4z"/>
            <path class="prefix__st4" d="M106.6 332.6l90.5-20.7.5-6.4-97.9 22.4z"/>
        </g>
        <path class="prefix__st9" d="M93.9 256.7h-.5c-.8-.1-1.3-.9-1.2-1.8.1-.5 1.6-11.6 11-16 .7-.3 1.6 0 1.9.8.3.8 0 1.7-.7 2-8 3.7-9.4 13.6-9.4 13.7-.1.7-.6 1.2-1.1 1.3z"/>
    </g>
    <g>
        <defs>
            <path id="prefix__SVGID_19_" d="M161.8 314.6l-7.7-28.2c-.6-1.7-.5-3.6.4-5.1l22.2-36.9c6.5-12 19.3-14 32.4-10.5l27.1 8.9c3.1 1 5.8 3 7.7 5.6l21.6 30.3c1.9 2.7 2.9 5.9 2.8 9.2l-1.1 30.1c-.1 1.3-.7 2.5-1.5 3.5L253.4 338c-1.6 1.8-4 2.5-6.3 1.9l-80.9-21.4c-2.1-.5-3.7-1.9-4.4-3.9z"/>
        </defs>
        <use xlink:href="#prefix__SVGID_19_" overflow="visible" fill="#44375e"/>
        <clipPath id="prefix__SVGID_20_">
            <use xlink:href="#prefix__SVGID_19_" overflow="visible"/>
        </clipPath>
        <g clip-path="url(#prefix__SVGID_20_)">
            <path class="prefix__st2" d="M251.1 253.3c-8.4-3.3-41.5-16-50.1-12.2-10 4.4-26.8 42-27.8 45.9-.9 3.2-.3 22.8 0 29.2l-8.2 2c-2-.5-10-5.1-10.7-7l-6.6-22.6c-.6-1.7-.7-6.8.1-8.3l25-39.3c6.5-11.9 21.3-15.3 34.4-11.8l21.5 5.7c1.9.5 11 1.2 11.7 3.1l10.7 15.3z"/>
            <path class="prefix__st3" d="M268.3 322.6l-10 14.1c-1.6 1.8-5.1 4.9-7.4 4.3l-56.4-19.1c16 1.9 35.1 5.1 42.1 5.9 10 1.2 14.6-3.5 16-9.3 1-3.9 3.6-13.7.7-18.6-2.9-4.9-21.2 23.1-30.4 18.6s3.2-54 6.2-57.4c2-2.3 17.9-10.2 21.1-12.2l17.8 27.7c4.6 2.9.9 14.2.3 19.6l3.6 21.1c-.3 1.3-2.8 4.3-3.6 5.3z"/>
            <path class="prefix__st4" d="M158.6 318.7l95.7 25.3 3.5-5.4-103.5-27.3z"/>
        </g>
        <path class="prefix__st9" d="M182.7 246.2c-.2 0-.4-.1-.5-.2-.7-.5-.8-1.4-.3-2.1.3-.4 7.1-9.4 18.1-8.7.8 0 1.5.8 1.4 1.6-.1.8-.8 1.5-1.6 1.4-9.4-.6-15.4 7.4-15.5 7.5-.4.4-1 .6-1.6.5z"/>
    </g>
    <g>
        <defs>
            <path id="prefix__SVGID_21_" d="M64.9 345.1l-12.3-17.7c-.9-1-1.1-2.3-.8-3.6l10-29c2.7-9.3 12.6-13 23.9-13l23.8 1.2c2.7.1 5.3 1 7.4 2.5l23.9 16.7c2.1 1.5 3.6 3.5 4.2 5.8l5.5 20.6c.2.9 0 1.8-.5 2.6l-6.2 13.3c-.9 1.5-2.7 2.4-4.7 2.4 0 0-34.1 3.3-61.2 3.3-2.2.2-12-3.9-13-5.1z"/>
        </defs>
        <use xlink:href="#prefix__SVGID_21_" overflow="visible" fill="#44375e"/>
        <clipPath id="prefix__SVGID_22_">
            <use xlink:href="#prefix__SVGID_21_" overflow="visible"/>
        </clipPath>
        <g clip-path="url(#prefix__SVGID_22_)">
            <path class="prefix__st2" d="M123.9 287.6c-7.5-.7-36.9-3.4-43.1.7-7.1 4.8-12.6 33.3-12.6 36.1 0 2.3 6.8 18.9 8.4 23.3l-8.3-.6c-1.7 0-9.1-1.6-10.1-2.8L48 330.1c-.9-1-2-4.4-1.7-5.7l11.8-31.1c2.7-9.3 13.9-14.2 25.3-14.2h18.5c1.7 0 9.1-1.1 10.1 0l11.9 8.5z"/>
            <path class="prefix__st3" d="M152.5 331.5l-4.4 18.9c-.9 1.5-69.5 4-71.5 4L50.7 338c6.9-.8 13.7 7 25.9 8.3 11.3 1.2 22.5 0 32.9-1.4 8.3-1.1 5.7-6.9-1.1-13.6-5.5-5.5-2.3-31.7-.6-34.5 1.1-1.9 12.3-10.1 14.4-12l20.2 15.6c4.3 1.1 3.7 9.5 4.4 13.2l7.4 13.6c.2.9-1.2 3.5-1.7 4.3z"/>
        </g>
        <path class="prefix__st9" d="M67.2 295c-.2 0-.3 0-.5-.1-.6-.2-1-.8-.7-1.4.1-.3 3.7-7.6 12.7-9.1.7-.1 1.4.3 1.5.8.1.6-.3 1.1-1 1.2-7.7 1.3-10.8 7.8-10.9 7.8-.2.6-.6.8-1.1.8z"/>
    </g>
    <g>
        <defs>
            <path id="prefix__SVGID_23_" d="M136.1 354L126 331c-.7-1.4-.8-3-.3-4.4l14.3-34.1c4-11 14.7-14.3 26.3-13l24.1 4.3c2.8.5 5.3 1.8 7.2 3.9l22.1 23.1c2 2.1 3.2 4.7 3.5 7.5l2.7 25.7c0 1.1-.3 2.2-.9 3.1l-6.5 9.3c-1.1 1.7-3.1 2.7-5.1 2.4 0 0-12.1 2.3-33.2 2.1-21.1-.2-39.9-4.1-39.9-4.1-1.9-.2-3.4-1.2-4.2-2.8z"/>
        </defs>
        <use xlink:href="#prefix__SVGID_23_" overflow="visible" fill="#44375e"/>
        <clipPath id="prefix__SVGID_24_">
            <use xlink:href="#prefix__SVGID_23_" overflow="visible"/>
        </clipPath>
        <g clip-path="url(#prefix__SVGID_24_)">
            <path class="prefix__st2" d="M204.4 290.9c-7.5-1.8-37.2-8.5-44.1-4.2-7.9 5-17.6 39-18 42.5-.3 2.9 2.6 19.4 3.6 24.9l-6.7 2.7c-1.8-.2-9.1-3.1-9.9-4.6l-8.4-18.4c-.7-1.4-1.5-5.7-.9-7.1l16.4-36.5c4-11 16.2-15.6 27.8-14.3l19 2.2c1.7.2 9.5-.3 10.3 1.2l10.9 11.6z"/>
            <path class="prefix__st3" d="M227.5 347.6l-6.8 13.2c-16.2 9.8-82.4-1.7-84.5-2l-7.6-7.9c13.8-.4 39.5 8.4 55.2 1.5 8.4-3.7 10.5-8.2 5.2-14.8-5.6-6.9-4.6-34.3-2.5-37.5 1.4-2.2 14-10.9 16.4-13l18.5 21.3c4.3 1.9 2.5 12 2.6 16.6l5.7 17.5c.2 1.3-1.6 4.2-2.2 5.1z"/>
        </g>
        <path class="prefix__st9" d="M145.4 293.3c-.2 0-.3-.1-.5-.1-.6-.3-.9-1.1-.5-1.8.2-.4 4.9-8.9 14.3-9.6.7-.1 1.3.5 1.4 1.2.1.7-.5 1.3-1.2 1.4-8 .7-12.2 8.2-12.2 8.3-.3.4-.8.6-1.3.6z"/>
    </g>
    <g>
        <defs>
            <path id="prefix__SVGID_25_" d="M323.4 298.9l-12.6-21.7c-.9-1.3-1.2-2.9-.8-4.4l10-27.7c6.9-12.1 13.9-19.1 24.3-22.5 10.4-3.5 25.1-8.3 25.1-8.3 2.8.2 5.4 1.2 7.6 3l24.6 29.1c2.2 1.8 3.7 4.3 4.3 7.1l5.7 25.3c.2 1.1 0 2.2-.5 3.2l-6.4 16.3c-.9 1.8-2.8 3-4.8 3H328c-1.9 0-3.6-.9-4.6-2.4z"/>
        </defs>
        <use xlink:href="#prefix__SVGID_25_" overflow="visible" fill="#44375e"/>
        <clipPath id="prefix__SVGID_26_">
            <use xlink:href="#prefix__SVGID_25_" overflow="visible"/>
        </clipPath>
        <g clip-path="url(#prefix__SVGID_26_)">
            <path class="prefix__st2" d="M392.8 215.7c-22.4 1.3-39.1 9.9-52 17.3-12.1 6.9-14 37-14 40.5 0 2.9 4.8 19 6.4 24.3l-6.3 3.5c-1.8 0-9.4-2-10.4-3.5L306 280.4c-.9-1.3-2.1-5.4-1.7-6.9l12.1-38.2c2.8-11.3 14.3-17.3 26-17.3l19.1-14.5c1.7 0 9.3 13.1 25.1 12.3l6.2-.1z"/>
            <path class="prefix__st3" d="M413.6 282.2l-5.2 13.9c-.9 1.8-3.2 5.2-5.2 5.2l-51.1-3.5c13.7-2 30.3-3.5 36.3-4.3 8.6-1.2 11.3-6.1 11.3-11.3 0-3.5 0-12.1-3.5-15.6s-9.5-2.6-18.2-4.3c-8.7-1.7-12.1-19.1-10.4-22.5 1.2-2.3 16.2-11.3 18.3-13.6l17.3 17.9c4.5 1.4 3.8 11.6 4.5 16.2l7.6 16.7c.2 1.1-1.2 4.2-1.7 5.2z"/>
            <path class="prefix__st4" d="M321.6 303h85l1.8-5.2h-92z"/>
        </g>
        <defs>
            <path id="prefix__SVGID_27_" d="M391.2 240.3l-61.6-10.2-3.1 31.6 59.5 9.9z"/>
        </defs>
        <clipPath id="prefix__SVGID_28_">
            <use xlink:href="#prefix__SVGID_27_" overflow="visible"/>
        </clipPath>
        <g clip-path="url(#prefix__SVGID_28_)">
            <circle class="prefix__st6" cx="341.7" cy="250.9" r="11.3"/>
            <circle class="prefix__st4" cx="341.7" cy="250.9" r="5.7"/>
            <ellipse transform="rotate(-80.596 373.27 256.096)" class="prefix__st6" cx="373.3" cy="256.1" rx="11.3" ry="11.3"/>
            <circle class="prefix__st4" cx="373.3" cy="256.1" r="5.7"/>
            <circle class="prefix__st7" cx="341.7" cy="250.9" r="2.2"/>
            <circle class="prefix__st7" cx="373.3" cy="256.1" r="2.2"/>
        </g>
        <g>
            <defs>
                <path id="prefix__SVGID_29_" d="M392.6 248.2l-28.7-7.2-14-3.1-28.5 2.3 6-8.1 62.1 8.5z"/>
            </defs>
            <clipPath id="prefix__SVGID_30_">
                <use xlink:href="#prefix__SVGID_29_" overflow="visible"/>
            </clipPath>
            <g clip-path="url(#prefix__SVGID_30_)">
                <circle class="prefix__st2" cx="341.7" cy="250.9" r="11.3"/>
                <ellipse transform="rotate(-80.596 373.27 256.096)" class="prefix__st2" cx="373.3" cy="256.1" rx="11.3" ry="11.3"/>
            </g>
        </g>
        <path d="M325.3 239.8s-7-9.3-3.9-15.5 10.8-17.9 10.8-17.9" fill="none" stroke="#615777" stroke-width="6" stroke-linecap="round" stroke-miterlimit="10"/>
        <path fill="none" stroke="#615777" stroke-width="6" stroke-linecap="round" stroke-linejoin="round" stroke-miterlimit="10" d="M328.4 212.8l2.3 3.1-4.3 3.3-1.1-.2"/>
        <path class="prefix__st24" d="M331.1 236.6s13-18.8 23-6.2M366.2 241.4s13.9-5.8 23.2 7.2"/>
    </g>
    <g>
        <defs>
            <path id="prefix__SVGID_31_" d="M361.6 339.9l-9-20.8c-.7-1.2-.7-2.7-.3-4l13.1-30.7c3.7-9.9 13.3-12.8 23.8-11.6l21.7 4c2.5.5 4.7 1.7 6.5 3.5l19.8 21c1.8 1.9 2.8 4.3 3.1 6.8l2.3 23.2c0 1-.3 2-.8 2.8l-4.1 7.3c-1 1.5-2.8 2.4-4.7 2.2 0 0-16 2.3-35.7 2.3-19.7 0-32.1-3.5-32.1-3.5-1.4-.1-2.8-1.1-3.6-2.5z"/>
        </defs>
        <use xlink:href="#prefix__SVGID_31_" overflow="visible" fill="#44375e"/>
        <clipPath id="prefix__SVGID_32_">
            <use xlink:href="#prefix__SVGID_31_" overflow="visible"/>
        </clipPath>
        <g clip-path="url(#prefix__SVGID_32_)">
            <path class="prefix__st2" d="M423.6 283.3c-6.8-1.6-33.6-7.9-39.8-4-7.2 4.4-16.1 35.1-16.4 38.2-.3 2.6-6.6 17.5-5.8 22.4l2.8 2.5c-1.6-.2-8.2-2.8-8.9-4.2l-7.4-16.7c-.7-1.2-1.3-5.1-.8-6.4l15-32.9c3.7-9.9 14.7-14 25.2-12.7l17.1 2.1c1.5.2 8.6-.2 9.3 1.1l9.7 10.6z"/>
            <path class="prefix__st3" d="M444.2 334.6l-6.2 11.9c-1 1.5-92.2 4.7-94.1 4.4l.7-13.3c12.5-.3 50.3.3 55.8.2 7.8-.2 18.2-11.7 14-24.8-2.4-7.6-8.8-18.4-6.9-21.3 1.3-2 12.7-9.8 14.9-11.6l16.6 19.3c3.8 1.7 2.2 10.8 2.3 15l5 15.8c.1 1-1.5 3.6-2.1 4.4z"/>
        </g>
        <path class="prefix__st9" d="M370.4 285.1c-.1 0-.3-.1-.4-.1-.6-.3-.8-1-.5-1.6.2-.3 4.4-8 12.9-8.6.6-.1 1.2.4 1.3 1.1.1.6-.4 1.2-1.1 1.3-7.2.6-11 7.3-11.1 7.4-.2.3-.7.6-1.1.5z"/>
    </g>
    <g>
        <defs>
            <path id="prefix__SVGID_33_" d="M303.8 340.8l-9.6-16.5c-.7-1-.9-2.2-.6-3.3l7.8-27c2.1-8.6 9.8-12.1 18.7-12.1l18.6 1.1c2.1.1 4.1.9 5.8 2.3l18.6 15.5c1.7 1.4 2.8 3.3 3.3 5.4l4.3 19.2c.1.8 0 1.7-.4 2.4l-4.9 12.4c-.7 1.4-2.1 2.3-3.7 2.3h-54.6c-1.3 0-2.6-.6-3.3-1.7z"/>
        </defs>
        <use xlink:href="#prefix__SVGID_33_" overflow="visible" fill="#44375e"/>
        <clipPath id="prefix__SVGID_34_">
            <use xlink:href="#prefix__SVGID_33_" overflow="visible"/>
        </clipPath>
        <g clip-path="url(#prefix__SVGID_34_)">
            <path class="prefix__st2" d="M349.8 287.2c-5.8-.7-28.8-3.2-33.6.7-5.5 4.4-9.9 31-9.9 33.6 0 2.2 3.6 14.4 4.9 18.4l-4.8 2.6c-1.3 0-7.1-1.5-7.9-2.6l-7.9-13.2c-.7-1-1.6-4.1-1.3-5.3l9.2-29c2.1-8.6 10.9-13.2 19.8-13.2h14.5c1.3 0 7.1-1.1 7.9 0l9.1 8z"/>
            <path class="prefix__st3" d="M372.2 328l-4 10.5c-.7 1.4-2.4 4-4 4h-58c10.4-1.5 30.2-1.6 34.7-2.4 14.1-2.3 9.4-22.3 4.1-27.3-4.9-4.6-9.2-14.5-7.9-17.1.9-1.8 9.6-9.4 11.2-11.2l15.8 14.5c3.4 1.1 2.9 8.8 3.4 12.3l5.8 12.7c.4.9-.7 3.3-1.1 4z"/>
        </g>
        <path class="prefix__st9" d="M305.5 294.1c-.1 0-.2 0-.4-.1-.5-.2-.8-.8-.6-1.3.1-.3 2.9-7.1 9.9-8.5.5-.1 1.1.2 1.2.8.1.5-.2 1.1-.8 1.2-6 1.2-8.5 7.2-8.5 7.3 0 .4-.4.6-.8.6z"/>
    </g>
    <g>
        <defs>
            <path id="prefix__SVGID_35_" d="M224.8 358.7c-1.2-1.3-1.8-3-1.7-4.7l2.7-38.9c1.1-13 14.1-22.1 27-24.1l27.3-2.6c3.1-.3 6.2.4 8.9 2l30.7 18.4c2.7 1.6 4.8 4.1 6 7.1l10.7 27c.4 1.2.4 2.5 0 3.7l-2.8 12.5c-46.4 11.3-108.8-.4-108.8-.4z"/>
        </defs>
        <use xlink:href="#prefix__SVGID_35_" overflow="visible" fill="#44375e"/>
        <clipPath id="prefix__SVGID_36_">
            <use xlink:href="#prefix__SVGID_35_" overflow="visible"/>
        </clipPath>
        <g clip-path="url(#prefix__SVGID_36_)">
            <path class="prefix__st2" d="M297.4 291.8c-8.7.4-42.8 2-48.9 8.7-7.1 7.7-7.3 47.4-6.7 51.2.5 3.2 8.6 20.1 11.3 25.8l-6.4 4.9c-2 .3-10.8-.6-12.1-2L220.1 363c-1.2-1.2-3.3-5.7-3.1-7.4l6.8-44.3c1.1-13 12.8-21.7 25.8-23.7l21.1-3.3c1.9-.3 10.2-3.2 11.5-1.8l15.2 9.3z"/>
            <path class="prefix__st3" d="M339.4 346.2l-3.3 16.3c-.7 2.2-2.6 6.3-4.9 6.7l-120.3-9.9c6.6-20.9 1.6-9.8 21.8-2.3 9.1 3.4 64.6 1.9 68.7-8.1 2.3-5.7 1.1-15.8-7-19.6-9-4.2-14.7-17.9-13.4-22 .9-2.8 11.8-16 13.8-18.9l26.4 17.5c5.2.8 6.3 12.2 7.8 17.2l11.3 17.2c.5 1.1-.5 4.7-.9 5.9z"/>
            <path class="prefix__st4" d="M241.3 385.3l94-14.8 1-6.1-101.7 16z"/>
        </g>
        <path class="prefix__st9" d="M234.4 312.1h-.6c-.8-.2-1.3-1-1.1-1.7.1-.4 2.6-11 12.5-14.7.8-.3 1.6.1 1.9.9.3.8-.1 1.6-.9 1.9-8.5 3.1-10.7 12.5-10.7 12.6 0 .5-.5.9-1.1 1z"/>
    </g>
</svg>
