<svg xmlns="http://www.w3.org/2000/svg" viewBox="0 0 500 500">
  <clipPath id="clip-rock">
    <path d="M178 327l-25.2-43.3a10.7 10.7 0 01-1.6-8.7l20.6-71c5.5-22.7 25.8-31.7 49.2-31.7l48.8 2.9c5.6.3 10.9 2.4 15.2 6l49.1 40.9c4.4 3.6 7.4 8.6 8.6 14.1l11.3 50.5c.3 2.2 0 4.4-1 6.4L340 325.6c-1.8 3.7-5.6 6-9.7 6H186.8c-3.6 0-6.9-1.7-8.9-4.6z"/>
  </clipPath>
  <clipPath id="clip-rock-eyes">
    <path d="M180 207h120v30H180z"/>
  </clipPath>

  <g clip-path="url(#clip-rock)">
    <path fill="#44375e" d="M140 150h220v200h-220z"/>
    <path fill="#615777" d="M299 186c-15-2-76-8.4-88.5 1.7-15 11.6-26 81.4-26 88 0 5 9 38 13 49h-50v-160h150z"/>
    <path fill="#2f2549" d="M235.2 324.7 c27-4 60-7 72.4-8.7 17-3 23-13 22-22 0-7 0-24-7-31-7-6.9-19.1-5-36.4-8.7-17-4-25-38-21-45 2-5 25-25 30-30h60v155z"/>
    <path fill="#120223" d="M160 325h190v10h-190z"/>
  </g>

  <circle cx="208" cy="239" r="22.5" fill="#fff"/>
  <circle cx="272" cy="239" r="22.5" fill="#fff"/>
  <circle cx="208" cy="239" r="11.3" fill="#120223"/>
  <circle cx="272" cy="239" r="11.3" fill="#120223"/>
  <circle cx="208" cy="239" r="4.4" fill="#5c00d3"/>
  <circle cx="272" cy="239" r="4.4" fill="#5c00d3"/>
  <g clip-path="url(#clip-rock-eyes)" fill="#615777">
    <circle cx="208" cy="239" r="22.6"/>
    <circle cx="272" cy="239" r="22.6"/>
  </g>
  <path fill="#ffffff59" d="M182.5 204.2c-.3 0-.6-.1-1-.2-1.3-.5-2-2-1.4-3.4.3-.8 7.7-18.7 26.2-22.4 1.4-.3 2.8.6 3.1 2 .3 1.4-.6 2.8-2 3.1-15.8 3.2-22.3 19.1-22.4 19.2-.5 1.1-1.4 1.7-2.5 1.7z"/>
  <path opacity=".15" d="M341.3 337H175.7a4.7 4.7 0 01-4.7-4.7v-1.7c0-2.6 2.1-4.7 4.7-4.7h165.7c2.6 0 4.7 2.1 4.7 4.7v1.7c-.1 2.6-2.2 4.7-4.8 4.7z"/>
</svg>