<?xml version="1.0" encoding="utf-8"?>
<!-- Generator: Adobe Illustrator 23.0.3, SVG Export Plug-In . SVG Version: 6.00 Build 0)  -->
<svg version="1.1" id="Layer_1" xmlns="http://www.w3.org/2000/svg" xmlns:xlink="http://www.w3.org/1999/xlink" x="0px" y="0px"
	 viewBox="0 0 200 145.6" style="enable-background:new 0 0 200 145.6;" xml:space="preserve">
<style type="text/css">
	.st0{clip-path:url(#SVGID_2_);}
	.st1{fill:#615777;}
	.st2{fill:#2F2549;}
	.st3{fill:#120223;}
	.st4{fill:#FFFFFF;}
	.st5{fill:#5C00D3;}
	.st6{opacity:0.35;fill:#FFFFFF;}
	.st7{fill:none;stroke:#FFFFFF;stroke-miterlimit:10;}
</style>
<g>
	<g>
		<g>
			<defs>
				<path id="SVGID_1_" d="M45.4,133.6l-18.9-32.5c-1.3-1.9-1.8-4.3-1.2-6.5l15.5-53.3c4.1-17,19.4-23.8,36.9-23.8l36.6,2.2
					c4.2,0.3,8.2,1.8,11.4,4.5l36.8,30.7c3.3,2.7,5.5,6.4,6.5,10.6l8.5,37.9c0.2,1.7,0,3.3-0.8,4.8l-9.6,24.4
					c-1.4,2.7-4.2,4.5-7.3,4.5H52C49.4,137.1,46.9,135.8,45.4,133.6z"/>
			</defs>
			<use xlink:href="#SVGID_1_"  style="overflow:visible;fill:#44375E;"/>
			<clipPath id="SVGID_2_">
				<use xlink:href="#SVGID_1_"  style="overflow:visible;"/>
			</clipPath>
			<g class="st0">
				<path class="st1" d="M136.3,27.9c-11.5-1.3-56.9-6.3-66.4,1.3c-10.9,8.7-19.5,61.1-19.5,66.3c0,4.3,7.2,28.4,9.6,36.4l-9.5,5.2
					c-2.7,0-14.1-3-15.6-5.2l-15.6-26c-1.3-1.9-3.1-8.2-2.6-10.4l18.2-57.2c4.1-17,21.5-26,39-26h28.6c2.6,0,14.1-2.1,15.6,0
					L136.3,27.9z"/>
				<path class="st2" d="M180.5,108.5l-7.8,20.8c-1.4,2.7-4.7,7.8-7.8,7.8l-76.5-5.2c20.5-2.9,45.3-5.2,54.3-6.5
					c12.9-1.9,17-9.1,16.9-16.9c-0.1-5.2,0-18.2-5.2-23.4c-5.2-5.2-14.3-3.9-27.3-6.5S108.9,50,111.5,44.8
					c1.7-3.5,19-18.6,22.2-22.1l31.2,28.6c6.7,2.1,5.7,17.4,6.8,24.3l11.4,25.1C183.3,102.3,181.2,107,180.5,108.5z"/>
				<polygon class="st3" points="42.7,139.7 170.1,139.7 172.7,131.9 34.9,131.9 				"/>
			</g>
		</g>
		<g>
			<g>
				<circle class="st4" cx="66.1" cy="67.7" r="23.2"/>
				<circle class="st3" cx="66.1" cy="67.7" r="11.6"/>
				<circle class="st4" cx="118.2" cy="67.7" r="23.2"/>
				<circle class="st3" cx="118.2" cy="67.7" r="11.6"/>
				<circle class="st5" cx="66.1" cy="67.7" r="4.6"/>
				<circle class="st5" cx="118.2" cy="67.7" r="4.6"/>
			</g>
		</g>
		<path class="st6" d="M48.9,41.5c-0.2,0-0.5,0-0.7-0.1c-1-0.4-1.5-1.5-1.1-2.5c0.2-0.6,5.8-14,19.6-16.8c1.1-0.2,2.1,0.5,2.3,1.5
			c0.2,1.1-0.5,2.1-1.5,2.3c-11.8,2.4-16.7,14.3-16.8,14.4C50.4,41.1,49.6,41.5,48.9,41.5z"/>
	</g>
</g>
<path class="st7" d="M42.9,51.7c5.1-7.4,13.6-12.2,23.2-12.2c8.5,0,16.1,3.8,21.3,9.7"/>
<path class="st7" d="M86.5,87.2C81.4,92.6,74.1,96,66.1,96c-7.6,0-14.6-3-19.6-8"/>
<path class="st7" d="M140.7,86.3c-5.4,6.5-13.5,10.6-22.5,10.6c-8.5,0-16.2-3.7-21.6-9.5"/>
<path class="st7" d="M96.2,48.5c5.4-6.1,13.2-10,22-10c11.7,0,21.8,6.9,26.5,16.9"/>
</svg>
