<svg version="1.1" id="prefix__Layer_1" xmlns="http://www.w3.org/2000/svg" xmlns:xlink="http://www.w3.org/1999/xlink" x="0" y="0" viewBox="0 0 500 500" xml:space="preserve">
    <style>
        .prefix__st3{fill:#120223}.prefix__st8{fill:#fff}.prefix__st9{fill:#5c00d3}.prefix__st11{opacity:.2;fill:#fff;enable-background:new}.prefix__st12{opacity:.2;clip-path:url(#prefix__SVGID_9_);fill:#615777}
    </style>
    <path d="M333.3 392H167.7c-2.6 0-4.7-2.1-4.7-4.7v-1.7c0-2.6 2.1-4.7 4.7-4.7h165.7c2.6 0 4.7 2.1 4.7 4.7v1.7c-.1 2.6-2.2 4.7-4.8 4.7z" opacity=".15"/>
    <g id="prefix__Qregular">
        <path id="prefix__SVGID_5_" d="M171.3 382.1l-30.2-44.4c-1.8-2.5-2.5-5.7-1.8-8.9l21.3-72.8c5.7-23.1 26.6-32.7 50.4-32.7l50.8 2.5c4.6.4 8.9 2.1 12.4 5.3l50.8 45.8c7.5 6.8 12.4 15.6 14.6 25.6l7.8 38c.4 2.1 0 4.6-1.1 6.8l-14.2 33.4c-1.8 3.9-5.7 6-9.9 6H180.5c-3.6 0-7.1-1.7-9.2-4.6z" fill="#44375e"/>
        <defs>
            <path id="prefix__SVGID_1_" d="M171.3 382.1l-30.2-44.4c-1.8-2.5-2.5-5.7-1.8-8.9l21.3-72.8c5.7-23.1 26.6-32.7 50.4-32.7l50.8 2.5c4.6.4 8.9 2.1 12.4 5.3l50.8 45.8c7.5 6.8 12.4 15.6 14.6 25.6l7.8 38c.4 2.1 0 4.6-1.1 6.8l-14.2 33.4c-1.8 3.9-5.7 6-9.9 6H180.5c-3.6 0-7.1-1.7-9.2-4.6z"/>
        </defs>
        <clipPath id="prefix__SVGID_2_">
            <use xlink:href="#prefix__SVGID_1_" overflow="visible"/>
        </clipPath>
        <g clip-path="url(#prefix__SVGID_2_)">
            <path class="prefix__st3" d="M167 379.6l4.6 7.1h159.5l4.6-7.1z"/>
            <path d="M286.4 234.7c-15.6-1.8-72.8-6-86 4.6-14.9 12.1-26.6 83.5-26.6 90.6 0 6 9.9 38.7 13.1 49.7H167c-3.6 0-3.6 2.8-5.3 0L134 340.2c-1.8-2.5-2.5-5.7-1.8-8.9l28.4-75.3c5.7-23.1 23.8-37.7 48-37.7h34.8c3.6 0 19.2 2.5 21.3 5.3l21.7 11.1z" fill="#615777"/>
            <path d="M350.3 346.2l-12.8 27c-1.8 3.6 3.2 6-1.1 6H225.6c28.1-3.9 63.9-8.9 74.3-8.9 17.8 0 23.1-18.1 23.1-23.1 0-7.1 0-24.9-7.1-32-7.1-7.1-19.5-5.3-37.3-8.9-17.8-3.6-24.9-39.1-21.3-46.2 2.5-4.6 18.1-21.7 22.7-26.3l46.2 37.7c9.2 2.8 15.6 10.7 17.1 20.3l7.8 48c.6 2.2.3 4.7-.8 6.4z" fill="#2f2549"/>
            <path d="M171.6 253.5s7.1-17.8 24.9-21.3" opacity=".35" fill="none" stroke="#fff" stroke-width="5" stroke-linecap="round" stroke-miterlimit="10"/>
        </g>
        <g id="prefix__EyesOpen">
            <defs>
                <path id="prefix__SVGID_3_" d="M166.6 287.3h127.9v31.6H166.6z"/>
            </defs>
            <clipPath id="prefix__SVGID_4_">
                <use xlink:href="#prefix__SVGID_3_" overflow="visible"/>
            </clipPath>
            <g clip-path="url(#prefix__SVGID_4_)">
                <circle class="prefix__st8" cx="197.9" cy="291.9" r="23.1"/>
                <circle class="prefix__st3" cx="197.9" cy="291.9" r="11.7"/>
                <circle class="prefix__st8" cx="263.6" cy="291.9" r="23.1"/>
                <circle class="prefix__st3" cx="263.6" cy="291.9" r="11.7"/>
                <circle class="prefix__st9" cx="197.9" cy="291.9" r="4.6"/>
                <circle class="prefix__st9" cx="264.7" cy="291.9" r="4.6"/>
            </g>
        </g>
        <g id="prefix__EyesClosed">
            <defs>
                <path id="prefix__SVGID_6_" d="M166.6 258.8h127.9v28.4H166.6z"/>
            </defs>
            <clipPath id="prefix__SVGID_7_">
                <use xlink:href="#prefix__SVGID_6_" overflow="visible"/>
            </clipPath>
            <g clip-path="url(#prefix__SVGID_7_)">
                <circle class="prefix__st11" cx="197.9" cy="291.9" r="23.1"/>
                <circle class="prefix__st11" cx="263.6" cy="291.9" r="23.1"/>
            </g>
        </g>
    </g>
    <defs>
        <path id="prefix__SVGID_8_" d="M261.3 200.7c-1.3 6.4-3.7 12-7.4 16.6s-12 8.3-12 8.3-5.5.9-7.4 0c-1.8-.9-.9-3.7 2.8-6.5s3.7-11.1 2.8-22.1c-.9-11.1-5.5-15.7-9.7-22.9-8.2-14.3-11.2-29.9-17-45.3-.5-1.4-1.3-2.7-1.4-4.1-.2-2.7 1-6 2.3-8.4 1.2-2.2 2.6-2.7 5.1-2.7 1.5 0 2.6 1.5 4.1 2 1.1.4 2.3 0 3.4-.4 3.7-1.1 7.7-.8 11.2.7 1.8.7 3.6 1.8 5.5 1.2 1.1-.4 2-1.4 3.2-1.6 1.7-.4 3.9.6 4.6 2.2 3.1 7 2.2 11.6 1.3 14.3.5 7.6 4.8 16.6 10.1 22.1 2.5 2.6 5.4 4.8 8.4 6.9 12.9 9.1 26.8 16.4 39.6 25.6 12.8 9.1 25.2 20.2 31 34.8 4.6 11.5 2.7 30.9 0 34.6-2.8 3.7-12.9 10.1-12.9 10.1s13.8 7.4 21.2 21.2c7.4 13.8 5.5 25.8 0 31.3s-15.7 12-15.7 12 0-10.1 2.8-19.4c2.8-9.2 2.2-11.9-1.2-20.3-3.4-8.3-20.3-22.6-20.3-22.6l-24.2-22.1s-4.8-23.3-11.5-33.6c-5.4-7.8-18.3-14.2-18.7-11.9z"/>
    </defs>
    <use xlink:href="#prefix__SVGID_8_" overflow="visible" fill="#fff"/>
    <clipPath id="prefix__SVGID_9_">
        <use xlink:href="#prefix__SVGID_8_" overflow="visible"/>
    </clipPath>
    <path class="prefix__st12" d="M217.5 142.2s5.5 8.3 11.1 9.2c5.5.9 19.8-6.9 21.7-9.7 0 0-1.3 10.4-3.7 15.7-7.8 17.1-8.3 38.7-8.3 38.7l-18.4-36.9-.9-12.9-1.5-4.1zM260.8 205.8l3.7-16.6s12 2.8 17.5 10.1c5.5 7.4 6.5 16.6 7.4 27.7.9 11.1 0 26.7 0 26.7l-25.8-35.9-2.8-12zM333.6 205.8s9.2 7.4 7.4 22.1c-1.8 14.7-9.2 22.1-13.8 24.9s-14.7 7.4-14.7 7.4 19.4 5.5 26.7 11.1 17.5-18.4 17.5-18.4l-1.8-33.2-21.3-13.9zM330.9 303.5s.9 16.6 29.5 12.9c28.6-3.7-5.5 20.3-5.5 20.3L319 350.5l-7.4-37.8 19.3-9.2z"/>
    <path class="prefix__st3" d="M223.9 129.2c-1.6-.5-3.2 4.3-1.6 4.8s4.8-3.8 1.6-4.8M240.2 130.9c-2.4 0-.9 5.3.8 5s1.6-5-.8-5zM229.5 138.5c-3.7 0-3.7 1.8-3.7 2.8 0 .9 2.8 3.7 3.7 3.7.9 0 3.7-1.8 3.7-3.7s-1.9-2.8-3.7-2.8z"/>
</svg>
