<svg xmlns="http://www.w3.org/2000/svg" viewBox="0 0 841.9 455.3">
  <g fill="#FFF">
    <path d="M205.1 201h-61.8c-6.5 0-11.8-5.3-11.8-11.8v-34.4c0-6.5 5.3-11.8 11.8-11.8h61.8c.8-12.2 6.7-22.8 15.4-29.4h-90.4c-16.1 0-29.1 14.4-29.1 32.2v52.5c0 17.8 13 32.2 29.1 32.2h90.4c-8.7-6.7-14.6-17.3-15.4-29.5zM521.5 113.6H328.4v29.5h81.3v87.3h30.7v-87.3h81.1zM537.2 113.6h6.9v116.8h-6.9zM569 138.3h-7.8c-1.3 0-2.3-.7-3-2.1-.6-1.1-.9-2.4-.9-3.8v-10.9c0-1.5.3-2.8.9-3.9.7-1.4 1.7-2.1 3-2.1h7.8v1.9h-6c-.8 0-1.5.5-1.9 1.5-.4.8-.6 1.7-.6 2.6v10.9c0 .9.2 1.8.6 2.6.5 1 1.1 1.5 1.9 1.5h6v1.8zM586.3 125.5c0 1.2-.2 2.3-.6 3.3-.6 1.3-1.4 1.9-2.5 1.9h-4.8v-1.9h2.9c.7 0 1.2-.5 1.5-1.4.2-.7.3-1.4.3-2.2 0-.7-.1-1.3-.2-1.8-.2-.8-.5-1.2-1-1.2h-3.4c-.9 0-1.6.4-1.9 1.2-.2.5-.3 1.3-.3 2.5v6.9c0 1.3.1 2.2.4 2.7.4.7 1.2 1 2.4 1h6.1v1.9H577c-1.8 0-2.9-.6-3.6-1.7-.4-.8-.7-2.2-.7-4V126c0-1.9.2-3.2.7-4 .6-1.1 1.8-1.7 3.6-1.7h6.3c1.1 0 1.9.7 2.5 2 .3.8.5 2 .5 3.2zM604.1 138.3h-3.4v-12.2c0-1.2-.1-2.1-.2-2.6-.3-.9-.9-1.4-1.9-1.4h-4.8v16.2h-3.5v-18.1h9.6c1.8 0 2.9.5 3.5 1.4.5.7.7 2 .7 3.9v12.8zM616.8 122.1h-4.5v11.1c0 1.4.2 2.3.7 2.7.3.3 1.2.5 2.6.5v1.9h-2.5c-1.8 0-2.9-.3-3.4-.9-.5-.6-.8-1.8-.8-3.6v-18.4h3.5v4.8h4.5l-.1 1.9zM628.1 121.8h-1.7c-1.4 0-2.3.3-2.7.9-.3.4-.4 1.4-.4 3.1v12.4h-3.5v-12.9c0-3.6 2-5.5 5.9-5.5h2.4v2zM644.6 125.5c0 1.2-.2 2.3-.6 3.3-.6 1.3-1.4 1.9-2.5 1.9h-4.8v-1.9h2.9c.7 0 1.2-.5 1.5-1.4.2-.7.3-1.4.3-2.2 0-.7-.1-1.3-.2-1.8-.2-.8-.5-1.2-1-1.2h-3.4c-.9 0-1.6.4-1.9 1.2-.2.5-.3 1.3-.3 2.5v6.9c0 1.3.1 2.2.4 2.7.4.7 1.2 1 2.4 1h6.1v1.9h-8.1c-1.8 0-2.9-.6-3.6-1.7-.4-.8-.7-2.2-.7-4V126c0-1.9.2-3.2.7-4 .6-1.1 1.8-1.7 3.6-1.7h6.3c1.1 0 1.9.7 2.5 2 .2.8.4 2 .4 3.2zM684.4 132.6c0 1.9-.2 3.2-.7 4-.6 1.1-1.8 1.7-3.5 1.7h-6.1c-1.7 0-2.9-.6-3.5-1.7-.5-.8-.7-2.2-.7-4v-6.7c0-1.9.2-3.2.7-4 .6-1.1 1.8-1.7 3.5-1.7h6.1c1.7 0 2.9.6 3.5 1.7.5.8.7 2.1.7 4v6.7zm-3.5-6.8c0-1.2-.1-2-.3-2.5-.3-.8-1-1.2-1.9-1.2h-3.1c-.9 0-1.6.4-1.9 1.2-.2.5-.3 1.3-.3 2.5v6.5c0 1 .2 1.9.7 2.7.5.9 1.2 1.4 2.1 1.4h2c1.2 0 2-.3 2.4-1 .3-.5.4-1.4.4-2.7v-6.9h-.1zM698.2 121.8h-1.7c-1.4 0-2.3.3-2.7.9-.3.4-.4 1.4-.4 3.1v12.4h-3.5v-12.9c0-3.6 2-5.5 5.9-5.5h2.4v2zM573 178.2c0 1.5-.3 2.7-.8 3.8-.7 1.4-1.7 2.1-3 2.1H567l1 2.4h-2.3l-1-2.4H561c-1.3 0-2.3-.7-3-2.1-.6-1.1-.8-2.4-.8-3.8v-10.9c0-1.5.3-2.8.8-3.9.7-1.4 1.7-2.1 3-2.1h8.1c1.3 0 2.3.7 3 2.1.6 1.2.8 2.5.8 3.9v10.9h.1zm-3.2 0v-10.9c0-1-.2-1.8-.5-2.6-.5-1-1.1-1.5-2-1.5h-4.4c-.9 0-1.5.5-2 1.5-.3.8-.5 1.7-.5 2.6v10.9c0 .9.2 1.8.5 2.6.5 1 1.1 1.5 2 1.5h4.4c.9 0 1.5-.5 2-1.5.3-.8.5-1.7.5-2.6zM591 184.1h-9.7c-1.8 0-2.9-.5-3.5-1.4-.5-.7-.7-2-.7-3.9V166h3.4v12.1c0 1.2.1 2.1.3 2.6.3.9.9 1.4 1.9 1.4h4.8V166h3.5v18.1zM607.9 184.1h-9.6c-1.2 0-2.2-.6-2.8-1.9-.5-1-.8-2.2-.8-3.5s.3-2.5.8-3.6c.6-1.3 1.6-1.9 2.8-1.9h4.6v1.9h-2.2c-1 0-1.7.2-2 .6-.4.5-.7 1.4-.7 2.8 0 .8.1 1.5.3 2.2.3 1 .7 1.5 1.3 1.5h4.9V171c0-1-.1-1.7-.3-2.1-.3-.6-1-.9-1.9-.9h-4.4v-2h5.8c1.8 0 2.9.5 3.5 1.4.5.7.7 2 .7 3.9v12.8zM626.4 184.1H623v-12.2c0-1.2-.1-2.1-.2-2.6-.3-.9-.9-1.4-1.9-1.4H616v16.2h-3.5V166h9.6c1.8 0 2.9.5 3.5 1.4.5.7.7 2 .7 3.9v12.8h.1zM639.1 167.9h-4.5V179c0 1.4.2 2.3.7 2.7.3.3 1.2.5 2.6.5v1.9h-2.5c-1.8 0-2.9-.3-3.4-.9-.5-.6-.8-1.8-.8-3.6v-18.4h3.5v4.8h4.5l-.1 1.9zM656.4 184.1h-9.7c-1.8 0-2.9-.5-3.5-1.4-.5-.7-.7-2-.7-3.9V166h3.4v12.1c0 1.2.1 2.1.3 2.6.3.9.9 1.4 1.9 1.4h4.8V166h3.5v18.1zM683 184.1h-3.4v-12.2c0-1.2-.1-2.1-.2-2.6-.3-.9-.9-1.4-1.9-1.4h-3.6v16.2h-3.4v-16.2h-5.8v16.2h-3.5V166h17.7c1.8 0 2.9.5 3.5 1.4.5.7.7 2 .7 3.9l-.1 12.8zM570.1 209h-4.9v21.1h-3.5V209h-4.5v-1.9h12.9v1.9zM584.8 217.3c0 1.2-.2 2.3-.6 3.3-.6 1.3-1.4 1.9-2.5 1.9h-4.8v-1.9h2.9c.7 0 1.2-.5 1.5-1.4.2-.7.3-1.4.3-2.2 0-.7-.1-1.3-.2-1.8-.2-.8-.5-1.2-1-1.2H577c-.9 0-1.6.4-1.9 1.2-.2.5-.3 1.3-.3 2.5v6.9c0 1.3.1 2.2.4 2.7.4.7 1.2 1 2.4 1h6.1v1.9h-8.1c-1.8 0-2.9-.6-3.6-1.7-.4-.8-.7-2.2-.7-4v-6.7c0-1.9.2-3.2.7-4 .6-1.1 1.8-1.7 3.6-1.7h6.3c1.1 0 1.9.7 2.5 2 .2.9.4 2 .4 3.2zM599.3 230.1h-6.9c-1.8 0-2.9-.6-3.6-1.7-.4-.8-.7-2.2-.7-4v-6.7c0-1.9.2-3.2.7-4 .6-1.1 1.8-1.7 3.6-1.7h6.9v1.9h-5.4c-.9 0-1.6.4-1.9 1.3-.2.5-.3 1.3-.3 2.5v7.1c0 1.3.1 2.1.4 2.6.4.6 1.2.9 2.4.9.6 0 1.4.1 2.4 0h2.4v1.8zM617.1 230.1h-3.4v-12.2c0-1.2-.1-2.1-.2-2.6-.3-.9-.9-1.4-1.9-1.4h-4.8v16.2h-3.5v-22.9h3.5v4.8h6.2c1.8 0 2.9.5 3.5 1.4.5.7.7 2 .7 3.9l-.1 12.8zM635.2 230.1h-3.4v-12.2c0-1.2-.1-2.1-.2-2.6-.3-.9-.9-1.4-1.9-1.4h-4.8v16.2h-3.5V212h9.6c1.8 0 2.9.5 3.5 1.4.5.7.7 2 .7 3.9v12.8zM653.9 224.4c0 1.9-.2 3.2-.7 4-.6 1.1-1.8 1.7-3.5 1.7h-6c-1.7 0-2.9-.6-3.5-1.7-.5-.8-.7-2.2-.7-4v-6.7c0-1.9.2-3.2.7-4 .6-1.1 1.8-1.7 3.5-1.7h6c1.7 0 2.9.6 3.5 1.7.5.8.7 2.1.7 4v6.7zm-3.5-6.8c0-1.2-.1-2-.3-2.5-.3-.8-1-1.2-1.9-1.2h-3.1c-.9 0-1.6.4-1.9 1.2-.2.5-.3 1.3-.3 2.5v6.5c0 1 .2 1.9.7 2.7.5.9 1.2 1.4 2.1 1.4h2c1.2 0 2-.3 2.4-1 .3-.5.4-1.4.4-2.7v-6.9h-.1zM661.5 230.1H658v-22.9h3.5v22.9zM680.1 224.4c0 1.9-.2 3.2-.7 4-.6 1.1-1.8 1.7-3.5 1.7h-6.1c-1.7 0-2.9-.6-3.5-1.7-.5-.8-.7-2.2-.7-4v-6.7c0-1.9.2-3.2.7-4 .6-1.1 1.8-1.7 3.5-1.7h6.1c1.7 0 2.9.6 3.5 1.7.5.8.7 2.1.7 4v6.7zm-3.5-6.8c0-1.2-.1-2-.3-2.5-.3-.8-1-1.2-1.9-1.2h-3.1c-.9 0-1.6.4-1.9 1.2-.2.5-.3 1.3-.3 2.5v6.5c0 1 .2 1.9.7 2.7.5.9 1.2 1.4 2.1 1.4h2c1.2 0 2-.3 2.4-1 .3-.5.4-1.4.4-2.7v-6.9h-.1zM698 232c0 1.9.4 3.2 0 4-.6 1.1-1.8 1.7-3.5 1.7h-5v-1.9h1.8c1.5 0 2.6-.2 3-.5.6-.4.3-1.4.3-3v-18.4h-3.4c-1.8 0-2.8.4-3.2 1.3-.2.4-.3 1.7-.2 3.7v5.6c0 1.1.1 1.9.3 2.4.3.8.9 1.2 1.9 1.2h3v1.9h-4.5c-1.8 0-2.9-.6-3.6-1.7-.5-.8-.7-2.2-.7-4v-6.7c0-1.9.2-3.2.7-4 .6-1.1 1.8-1.7 3.5-1.7h9.5V232h.1zM706.4 210.1h-3.5v-2.9h3.5v2.9zm0 20h-3.5V212h3.5v18.1zM724.5 217.3c0 1.2-.2 2.3-.6 3.3-.6 1.3-1.4 1.9-2.5 1.9h-4.8v-1.9h2.9c.7 0 1.2-.5 1.5-1.4.2-.7.3-1.4.3-2.2 0-.7-.1-1.3-.2-1.8-.2-.8-.5-1.2-1-1.2h-3.4c-.9 0-1.6.4-1.9 1.2-.2.5-.3 1.3-.3 2.5v6.9c0 1.3.1 2.2.4 2.7.4.7 1.2 1 2.4 1h6v1.9h-8.1c-1.8 0-2.9-.6-3.6-1.7-.4-.8-.7-2.2-.7-4v-6.7c0-1.9.2-3.2.7-4 .6-1.1 1.8-1.7 3.6-1.7h6.3c1.1 0 1.9.7 2.5 2 .3.9.5 2 .5 3.2zM740.9 225.1c0 1.2-.2 2.2-.5 3.1-.5 1.2-1.2 1.9-2.2 1.9H729v-1.9h7.3c.6 0 1-.4 1.3-1.1.2-.6.3-1.2.3-1.8 0-.7-.1-1.3-.3-1.8-.3-.8-.7-1.1-1.3-1.1h-5.4c-1.1 0-1.9-.7-2.5-2-.5-1-.7-2.2-.7-3.4 0-1.3.2-2.3.7-3.2.6-1.1 1.4-1.7 2.6-1.7h7.6v1.9h-6.4c-.5 0-.9.4-1.1 1.1-.2.5-.3 1.1-.3 1.7s.1 1.2.3 1.7c.3.7.6 1.1 1.1 1.1h5.8c1 0 1.7.7 2.2 2.1.5 1 .7 2.2.7 3.4zM666.7 122.7H663v15.6h-3.4v-17.9c0-1.8.2-3 .7-3.7.6-.8 1.7-1.2 3.5-1.2h2.9v2h-1.3c-1.1 0-1.7.3-2 1-.2.4-.3 1.2-.3 2.5h3.7v1.7h-.1z"/>
    <path d="M402.7 150.1h-31.6c.7 1.5 1 3.1 1 4.8v34.4c0 6.5-5.3 11.8-11.8 11.8h-39.1v-24.9h-30V201h-37c-6.5 0-11.8-5.3-11.8-11.8v-34.4c0-6.5 5.3-11.8 11.8-11.8h67.1v-29.4h-80.4c-16.1 0-29.1 14.4-29.1 32.2v52.5c0 17.8 13 32.2 29.1 32.2h132.5c16.1 0 29.1-14.4 29.1-32.1v-48.3h.2z"/>
  </g>
  <g fill="#FFF">
    <path d="M104.3 301.9h5.9l13.3 24.3h.1v-24.3h4.3V332h-5.5l-13.6-24.8h-.1V332h-4.3v-30.1h-.1zM135.9 311.6c2-1.2 4.4-2.1 7.2-2.1 6.3 0 8.8 3.1 8.8 9.1v9.1c0 2.5.1 3.7.2 4.3h-3.8v-2.8h-.1c-.9 1.3-3.1 3.4-6.8 3.4-4.7 0-8.1-2.1-8.1-6.9 0-5.5 6-7.3 10.2-7.3 1.6 0 2.7 0 4.3.1 0-3.8-1.4-5.7-5.4-5.7-2.3 0-4.7.9-6.4 2.2l-.1-3.4zm12 10c-.9 0-1.7-.1-2.6-.1-2.2 0-7.6.3-7.6 4.2 0 2.3 2.2 3.6 4.1 3.6 4 0 6.1-2.5 6.1-5.8v-1.9zM170.2 313.3h-5.8v12c0 2.5 1.6 3.9 3.4 3.9 1.3 0 2.2-.4 2.8-.8v3.5c-.9.3-2.2.6-3.5.6-4.2 0-6.8-2-6.8-6.4v-12.9h-5v-3.3h5V305l4.1-1.3v6.4h5.8v3.2zM179.3 305.1h-4.6v-4.6h4.6v4.6zm-4.3 5h4.1v22H175v-22zM194.7 309.5c6.7 0 11.2 4.8 11.2 11.5 0 6.3-4.6 11.5-11.2 11.5s-11.2-5.2-11.2-11.5c0-6.6 4.5-11.5 11.2-11.5zm0 19.8c4.7 0 6.9-4.3 6.9-8.2 0-4.2-2.5-8.2-6.9-8.2s-6.9 4.1-6.9 8.2c0 3.9 2.1 8.2 6.9 8.2zM210.1 310.1h3.9v3.5h.1c1.2-2.5 4.1-4 7.2-4 5.7 0 8.2 3.5 8.2 9.4v13.1h-4.1v-11.4c0-5.1-1.1-7.6-4.7-7.9-4.6 0-6.7 3.7-6.7 9.1v10.2h-4.1v-22h.2zM237 311.6c2-1.2 4.4-2.1 7.2-2.1 6.3 0 8.8 3.1 8.8 9.1v9.1c0 2.5.1 3.7.2 4.3h-3.8v-2.8h-.1c-.9 1.3-3.1 3.4-6.8 3.4-4.7 0-8.1-2.1-8.1-6.9 0-5.5 6-7.3 10.2-7.3 1.6 0 2.7 0 4.3.1 0-3.8-1.4-5.7-5.4-5.7-2.3 0-4.7.9-6.4 2.2l-.1-3.4zm12.1 10c-.9 0-1.7-.1-2.6-.1-2.2 0-7.6.3-7.6 4.2 0 2.3 2.2 3.6 4.1 3.6 4 0 6.1-2.5 6.1-5.8v-1.9zM259.8 299.7h4.1v32.4h-4.1v-32.4zM307.1 319.6c0 8.5-4.3 13-11.7 13-7.4 0-11.7-4.5-11.7-13V302h4.3v17c0 5.8 1.8 9.8 7.4 9.8s7.4-4 7.4-9.8v-17.1h4.3v17.7zM313.1 310.1h3.9v3.5h.1c1.2-2.5 4.1-4 7.2-4 5.7 0 8.2 3.5 8.2 9.4v13.1h-4.1v-11.4c0-5.1-1.1-7.6-4.7-7.9-4.6 0-6.7 3.7-6.7 9.1v10.2h-4.1v-22h.2zM343.6 305.1H339v-4.6h4.6v4.6zm-4.3 5h4.1v22h-4.1v-22zM360.1 332.1h-4.8l-7.9-22h4.4l6 17.9h.1l6.1-17.9h4.1l-8 22zM388.1 331.1c-1.6.6-3.3 1.4-6.9 1.4-7.8 0-11.4-4.7-11.4-11.9 0-6.5 4.1-11.1 10.3-11.1 7.3 0 9.7 5.3 9.7 12.4h-15.7c0 4.4 3.4 7.3 7.3 7.3 2.7 0 5.8-1.4 6.8-2.2l-.1 4.1zm-2.6-12.2c0-3.4-2-6.1-5.5-6.1-4 0-5.6 3.3-5.9 6.1h11.4zM395.1 310.1h3.8v3.4h.1c1.1-2.3 3.4-3.9 5.7-3.9 1.2 0 1.8.1 2.7.3v3.6c-.7-.3-1.6-.4-2.2-.4-3.6 0-6 3.5-6 9v10h-4.1v-22zM410.7 327.7c1.6 1 3.9 1.6 5 1.6 1.9 0 4.1-.8 4.1-3.1 0-4-9.5-3.7-9.5-9.8 0-4.6 3.4-6.8 7.8-6.8 1.9 0 3.5.4 5.1.9l-.3 3.5c-.9-.6-3.3-1.1-4.3-1.1-2.1 0-3.9.9-3.9 2.7 0 4.5 9.5 3.2 9.5 10.2 0 4.7-3.8 6.9-7.7 6.9-2.1 0-4.2-.2-6-1.2l.2-3.8zM433.4 305.1h-4.6v-4.6h4.6v4.6zm-4.3 5h4.1v22h-4.1v-22zM452 313.3h-5.8v12c0 2.5 1.6 3.9 3.4 3.9 1.3 0 2.2-.4 2.8-.8v3.5c-.9.3-2.2.6-3.5.6-4.2 0-6.8-2-6.8-6.4v-12.9h-5v-3.3h5V305l4.1-1.3v6.4h5.8v3.2zM456.3 338c.5.2 1.2.3 1.9.3 3.6 0 4.8-5 4.8-5.4 0-.5-.5-1.6-.8-2.3l-7.5-20.5h4.4l5.9 18.2h.1l6-18.2h4.1l-8.1 22.5c-1.5 4.2-3.1 9.1-8.5 9.1-1.3 0-2-.2-2.8-.3l.5-3.4zM501.2 309.5c6.7 0 11.2 4.8 11.2 11.5 0 6.3-4.6 11.5-11.2 11.5S490 327.3 490 321c0-6.6 4.5-11.5 11.2-11.5zm0 19.8c4.7 0 6.9-4.3 6.9-8.2 0-4.2-2.5-8.2-6.9-8.2s-6.9 4.1-6.9 8.2c0 3.9 2.2 8.2 6.9 8.2zM519.9 313.3h-5.2V310h5.2v-2c0-5.4 1.4-8.8 7.4-8.8 1 0 1.9.1 2.7.3l-.2 3.3c-.5-.2-1.3-.3-1.9-.3-3.5 0-3.9 2.2-3.9 5.2v2.4h5.8v3.3H524v18.7h-4.1v-18.8zM560.1 306.5c-2.2-.9-3.4-1.3-5.7-1.3-2.4 0-5.3.9-5.3 4 0 5.8 12.9 4.4 12.9 14.4 0 6.4-5 9-11 9-2.1 0-4.2-.6-6.2-1.2l.4-4c1.5.6 4.1 1.5 6.3 1.5 2.5 0 5.9-1.4 5.9-4.9 0-6.7-12.9-4.9-12.9-14.2 0-5.4 4.2-8.2 9.7-8.2 2 0 4.4.3 6.4 1.1l-.5 3.8zM571.7 305.1h-4.6v-4.6h4.6v4.6zm-4.3 5h4.1v22h-4.1v-22zM578.2 310.1h3.9v3.5h.1c1.2-2.5 4.1-4 7.2-4 5.7 0 8.2 3.5 8.2 9.4v13.1h-4.1v-11.4c0-5.1-1.1-7.6-4.7-7.9-4.6 0-6.7 3.7-6.7 9.1v10.2H578v-22h.2zM622.9 331.1c0 6.7-3.5 10.5-11.3 10.5-2.3 0-4.4-.3-7.9-1.5l.4-3.8c3.1 1.4 5 2 7.9 2 4.3 0 6.8-2.9 6.8-7.6v-2.2h-.1c-1.7 2.3-4.6 3.4-7.4 3.4-6.3 0-9.4-5.1-9.4-10.8 0-5.6 3.2-11.7 9.8-11.7 3.9 0 6 1.4 7.3 3.8h.1v-3.3h3.8v21.2zm-4.1-9.8c0-4.6-2.1-8.5-6.4-8.5-4.1 0-6.1 4.4-6.1 8.2 0 4.1 2.3 7.8 6.1 7.8s6.4-3.4 6.4-7.5zM630.4 311.6c2-1.2 4.4-2.1 7.2-2.1 6.3 0 8.8 3.1 8.8 9.1v9.1c0 2.5.1 3.7.2 4.3h-3.8v-2.8h-.1c-.9 1.3-3.1 3.4-6.8 3.4-4.7 0-8.1-2.1-8.1-6.9 0-5.5 6-7.3 10.2-7.3 1.6 0 2.7 0 4.3.1 0-3.8-1.4-5.7-5.4-5.7-2.3 0-4.7.9-6.4 2.2l-.1-3.4zm12.1 10c-.9 0-1.7-.1-2.6-.1-2.2 0-7.6.3-7.6 4.2 0 2.3 2.2 3.6 4.1 3.6 4 0 6.1-2.5 6.1-5.8v-1.9zM652.2 310.1h3.9v3.1h.1c1.1-1.6 3.6-3.6 7.5-3.6 6.4 0 9.5 5.2 9.5 11.1 0 6-2.8 11.9-9.4 11.9-3.9 0-6.1-1.5-7.3-3.5h-.1v12.1h-4.1v-31.1h-.1zm10.6 2.7c-4.4 0-6.5 4.2-6.5 8.3 0 3.7 1.9 8.2 6.5 8.2 4.4 0 6.2-4.9 6.1-8.3 0-4-1.7-8.2-6.1-8.2zM688.3 309.5c6.7 0 11.2 4.8 11.2 11.5 0 6.3-4.6 11.5-11.2 11.5s-11.2-5.2-11.2-11.5c0-6.6 4.5-11.5 11.2-11.5zm0 19.8c4.7 0 6.9-4.3 6.9-8.2 0-4.2-2.5-8.2-6.9-8.2s-6.9 4.1-6.9 8.2c0 3.9 2.1 8.2 6.9 8.2zM703.8 310.1h3.8v3.4h.1c1.1-2.3 3.4-3.9 5.7-3.9 1.2 0 1.8.1 2.7.3v3.6c-.7-.3-1.6-.4-2.2-.4-3.6 0-6 3.5-6 9v10h-4.1v-22zM735.9 331.1c-1.6.6-3.3 1.4-7 1.4-7.8 0-11.4-4.7-11.4-11.9 0-6.5 4.1-11.1 10.3-11.1 7.3 0 9.7 5.3 9.7 12.4h-15.7c0 4.4 3.4 7.3 7.3 7.3 2.7 0 5.8-1.4 6.8-2.2v4.1zm-2.6-12.2c0-3.4-2-6.1-5.5-6.1-4 0-5.6 3.3-5.9 6.1h11.4z"/>
  </g>
  <path fill="#FFF" d="M101 270.2v-8.1h639.8v8.1H101z"/>
</svg>
