<svg version="1.1" id="prefix__Layer_1" xmlns="http://www.w3.org/2000/svg" xmlns:xlink="http://www.w3.org/1999/xlink" x="0" y="0" viewBox="0 0 130 192" xml:space="preserve">
    <style>
        .prefix__st2{fill:#040203}
    </style>
    <defs>
        <path id="prefix__SVGID_1_" d="M79.1 43.6l-30.4-9.9-23.8 21.1S39.3 79.6 40 87.3s3.1 40.6 6.1 50.3 11 32.9 11 40.6v14.1h61.1s-3.7-20.8-3.7-36.6 1-24.8-2.7-37.9-16.1-30.9-22.5-45.6-10.4-19.8-10.2-28.6"/>
    </defs>
    <use xlink:href="#prefix__SVGID_1_" overflow="visible" fill="#fff"/>
    <clipPath id="prefix__SVGID_2_">
        <use xlink:href="#prefix__SVGID_1_" overflow="visible"/>
    </clipPath>
    <path d="M25.9 56.5s13.3 11.8 16.3 21.7C44 84 47 90.3 48.8 95.1s8 18.4 8 24.4 2.5 10.1 4.1 14.3c1.7 4.3 10.2 15.3 10.6 20.6.4 5.3.8 15.1-1.2 15.1s-13.3-8.8-15.4-13.3c-2-4.5-7.4-21.1-7.4-21.1l-6.7-9.3L54.3 198h72.2l-6.5-87.8-10.6-8.6s-1.2 6.7-2 12.8c-.8 6.2 1 14.1-.5 22.7s-5 12.6-5.5 18.1-6.3 10.3-8.1 13.1c-1.8 2.8-4.8.3-4.8-2S86 155 86 149.4c0-5.5 4-8.3 4.5-11.8s-1.8-16.9-1.8-23.2c0-6.3-5.9-16.3-11.3-26.2-15.3-27.6-2.2-32.7 2.9-47.2L25.9 56.5z" opacity=".2" clip-path="url(#prefix__SVGID_2_)" fill="#615777"/>
    <path d="M18.7 43.5s-4.5-10.1-3.5-16.9 3.7-10.6 5.5-10.7c3.4-.3 9.2 3.8 12.4 7 1.2 1.2 5.2-1.2 12.9-1.5s14.3.6 14.3.6 10.6-11.1 14.9-7.6c4.4 3.5 7.6 15.1 7.2 18.6s-1.5 6.2-1.5 6.2S76.4 52 68 58.4c-3.3 2.5-12.9 9.9-19.3 9.9S34 61.8 30.9 59.6c-3-2.2-6.7-3.2-8.9-7.1s-3.3-9-3.3-9z" fill="#fff"/>
    <path class="prefix__st2" d="M46.9 55.6c-2.4-.3-6.4.2-5.9 2 .5 1.6 4 4.9 5.9 4.7s5-1.7 5-3.4-1.2-2.9-5-3.3zM61.3 41c-1.9.1-4 4-3 5s4 2.5 5.2 0c1.2-2.5-1.4-5-2.2-5zM33.3 41c-1.2.7-3.9 3.7-2.3 6.3s5.4 1.1 5.5-1-2.2-5.9-3.2-5.3z"/>
</svg>
