<?xml version="1.0" encoding="utf-8"?>
<!-- Generator: Adobe Illustrator 23.0.6, SVG Export Plug-In . SVG Version: 6.00 Build 0)  -->
<!DOCTYPE svg PUBLIC "-//W3C//DTD SVG 1.1//EN" "http://www.w3.org/Graphics/SVG/1.1/DTD/svg11.dtd" [
  <!ENTITY ns_extend "http://ns.adobe.com/Extensibility/1.0/">
  <!ENTITY ns_ai "http://ns.adobe.com/AdobeIllustrator/10.0/">
  <!ENTITY ns_graphs "http://ns.adobe.com/Graphs/1.0/">
  <!ENTITY ns_vars "http://ns.adobe.com/Variables/1.0/">
  <!ENTITY ns_imrep "http://ns.adobe.com/ImageReplacement/1.0/">
  <!ENTITY ns_sfw "http://ns.adobe.com/SaveForWeb/1.0/">
  <!ENTITY ns_custom "http://ns.adobe.com/GenericCustomNamespace/1.0/">
  <!ENTITY ns_adobe_xpath "http://ns.adobe.com/XPath/1.0/">
]>
<svg version="1.1" id="Layer_1" xmlns:x="&ns_extend;" xmlns:i="&ns_ai;" xmlns:graph="&ns_graphs;"
   xmlns="http://www.w3.org/2000/svg" xmlns:xlink="http://www.w3.org/1999/xlink" x="0px" y="0px" viewBox="0 0 30 30"
   style="enable-background:new 0 0 30 30;" xml:space="preserve">
<style type="text/css">
  .st0{fill:#FFFFFF;}
</style>
<metadata>
  <sfw  xmlns="&ns_sfw;">
    <slices></slices>
    <sliceSourceBounds  bottomLeftOrigin="true" height="24" width="24" x="0" y="0"></sliceSourceBounds>
  </sfw>
</metadata>
<path class="st0" d="M3,3v24h24V3H3z M16.1,19.1c1.3,0,2.3-0.5,3.2-1.5l1.9,1.7c-1.2,1.5-3,2.3-5.2,2.3c-3.9,0-6.8-2.7-6.8-6.5
  s2.9-6.5,6.8-6.5c2.2,0,4,0.8,5.2,2.2l-1.9,1.7c-0.8-1-1.9-1.5-3.2-1.5c-2.4,0-4,1.7-4,4C12.1,17.4,13.7,19.1,16.1,19.1z"/>
</svg>
