<?xml version="1.0" encoding="utf-8"?>
<!-- Generator: Adobe Illustrator 23.0.6, SVG Export Plug-In . SVG Version: 6.00 Build 0)  -->
<svg version="1.1" id="Layer_1" xmlns="http://www.w3.org/2000/svg" xmlns:xlink="http://www.w3.org/1999/xlink" x="0px" y="0px"
	 viewBox="0 0 30 30" style="enable-background:new 0 0 30 30;" xml:space="preserve">
<style type="text/css">
	.st0{fill:#FFFFFF;}
</style>
<g>
	<path class="st0" d="M4.6,15.3l4.8-4.6H6.5C8,7.6,11.3,5.4,15,5.4c4.6,0,8.5,3.3,9.4,7.6h2.4C25.9,7.3,21,3,15,3
		C9.9,3,5.6,6.2,3.9,10.7h-3L4.6,15.3z"/>
	<path class="st0" d="M29.2,19.2l-3.8-4.6l-4.8,4.6h3c-1.6,3.2-4.8,5.4-8.6,5.4c-4.6,0-8.5-3.3-9.4-7.6H3.2c1,5.7,5.9,10,11.8,10
		c5.1,0,9.5-3.2,11.2-7.8H29.2z"/>
</g>
</svg>
