<?xml version="1.0" encoding="utf-8"?>
<!-- Generator: Adobe Illustrator 23.0.6, SVG Export Plug-In . SVG Version: 6.00 Build 0)  -->
<svg version="1.1" id="Layer_1" xmlns="http://www.w3.org/2000/svg" xmlns:xlink="http://www.w3.org/1999/xlink" x="0px" y="0px"
	 viewBox="0 0 64 64" style="enable-background:new 0 0 64 64;" xml:space="preserve">
<style type="text/css">
	.st0{fill:#FFFFFF;}
	.st1{fill:#5C00D3;}
	.st2{fill:#4A2495;}
	.st3{fill:#4F00C0;}
	.st4{fill:#3F1287;}
	.st5{fill:#4B2299;}
</style>
<g>
	<polygon class="st0" points="52.73,23.46 57.1,25.9 57.03,20.85 52.73,23.38 	"/>
	<polygon class="st0" points="48.44,25.91 48.44,26.03 52.8,28.46 52.73,23.46 52.73,23.38 	"/>
	<polygon class="st0" points="44.02,28.52 48.51,31.03 48.44,26.03 48.44,25.91 	"/>
	<polygon class="st0" points="57.02,43.03 57.1,37.83 52.73,40.27 52.73,40.46 	"/>
	<polygon class="st0" points="52.73,40.46 52.73,40.46 52.73,40.27 52.8,35.27 48.44,37.71 48.44,37.9 	"/>
	<polygon class="st0" points="43.97,35.24 48.44,37.9 48.44,37.9 48.44,37.71 48.51,32.71 	"/>
	<polygon class="st0" points="11.2,40.19 6.97,37.83 7.04,42.64 10.89,40.38 	"/>
	<polygon class="st0" points="15.52,37.65 11.27,35.27 11.34,40.11 11.39,40.08 	"/>
	<polygon class="st0" points="19.85,35.1 15.56,32.71 15.63,37.58 17.17,36.67 	"/>
	<polygon class="st0" points="6.97,25.9 10.97,23.67 7.04,21.35 	"/>
	<polygon class="st0" points="11.27,28.46 15.29,26.22 11.33,23.88 	"/>
	<polygon class="st0" points="15.56,31.03 19.61,28.76 15.63,26.41 	"/>
	<polygon class="st0" points="25.57,6.8 20.63,6.87 23.15,11.15 	"/>
	<polygon class="st0" points="25.7,15.46 28.13,11.1 23.16,11.17 25.69,15.46 	"/>
	<polygon class="st0" points="28.24,19.79 30.69,15.39 25.7,15.46 25.69,15.46 	"/>
	<polygon class="st0" points="42.58,6.88 37.5,6.8 39.94,11.17 40.05,11.17 	"/>
	<polygon class="st0" points="40.05,11.17 39.94,11.17 34.94,11.1 37.38,15.46 37.52,15.47 	"/>
	<polygon class="st0" points="37.52,15.47 37.38,15.46 32.38,15.39 34.9,19.91 	"/>
	<polygon class="st0" points="37.5,56.93 42.42,56.86 39.92,52.6 	"/>
	<polygon class="st0" points="34.94,52.63 39.89,52.56 37.37,48.28 	"/>
	<polygon class="st0" points="32.38,48.34 37.36,48.27 34.82,43.96 	"/>
	<polygon class="st0" points="25.57,56.93 23.22,52.72 20.79,56.86 	"/>
	<polygon class="st0" points="28.13,52.63 25.77,48.4 23.32,52.57 	"/>
	<polygon class="st0" points="25.85,48.27 30.69,48.34 28.32,44.08 27.47,45.51 	"/>
	<path class="st1" d="M17.57,8.1c0.23-0.14,0.45-0.29,0.68-0.42C18.02,7.81,17.8,7.96,17.57,8.1z"/>
	<path class="st1" d="M10.33,14.41c0.01-0.02,0.03-0.04,0.04-0.06C10.36,14.37,10.35,14.39,10.33,14.41z"/>
	<path class="st1" d="M55.32,16.39c-1.87-2.77-4.22-5.18-6.93-7.13c1.04,0.92,1.72,2.24,1.72,3.74c0,2.76-2.24,5-5,5
		c-1.78,0-3.33-0.93-4.22-2.33L31.61,26.5L16.45,8.82c-2.28,1.54-4.33,3.39-6.06,5.52c0,0.14,0,0.29,0,0.43
		c0,1.21,0.05,2.52,0.17,3.91L26.11,32l-7.49,6.42c1.9,2.16,4.22,4.2,7.05,6.01l5.94-6.93l7.57,8.83c0.33-2.44,2.4-4.33,4.93-4.33
		c2.76,0,5,2.24,5,5c0,1.9-1.08,3.54-2.64,4.38c1.69,0.22,3.46,0.41,5.31,0.53c1.32-1.31,2.51-2.75,3.55-4.3L37.11,32L55.32,16.39z
		 M40.11,22c1.1,0,2,0.9,2,2s-0.9,2-2,2s-2-0.9-2-2S39,22,40.11,22z M19.11,24c-2.21,0-4-1.79-4-4s1.79-4,4-4s4,1.79,4,4
		S21.31,24,19.11,24z M31.11,36c-1.66,0-3-1.34-3-3s1.34-3,3-3c1.66,0,3,1.34,3,3S32.76,36,31.11,36z"/>
	<path class="st1" d="M12.08,51.56c0,0-0.01-0.01-0.01-0.01C12.07,51.55,12.08,51.56,12.08,51.56z"/>
	<path class="st1" d="M7.44,18.75c0.13-0.24,0.27-0.46,0.41-0.69C7.71,18.29,7.57,18.52,7.44,18.75z"/>
	<path class="st1" d="M45.24,7.27c0.24,0.13,0.47,0.28,0.71,0.41C45.72,7.55,45.49,7.4,45.24,7.27z"/>
	<path class="st1" d="M8.73,16.6C8.82,16.46,8.91,16.33,9,16.2C8.91,16.33,8.82,16.46,8.73,16.6z"/>
	<polygon class="st1" points="15.63,26.41 11.38,23.91 11.33,23.88 10.97,23.67 7.04,21.35 6.37,20.96 7.04,21.35 10.97,23.67 
		11.33,23.88 15.29,26.22 15.63,26.41 19.61,28.76 25.11,32 19.61,28.76 	"/>
	<path class="st1" d="M14.02,53.36c-0.07-0.06-0.14-0.12-0.21-0.18C13.88,53.24,13.94,53.3,14.02,53.36z"/>
	<path class="st1" d="M47.8,55.18c-0.11,0.08-0.22,0.15-0.34,0.23C47.57,55.33,47.68,55.26,47.8,55.18z"/>
	<polygon class="st1" points="37.52,15.47 42.98,6.19 42.58,6.88 40.05,11.17 37.52,15.47 34.9,19.91 31.61,25.5 34.9,19.91 	"/>
	<path class="st1" d="M47.68,8.73c-0.18-0.12-0.37-0.22-0.55-0.34L47.1,8.42C47.3,8.51,47.49,8.62,47.68,8.73z"/>
	<path class="st1" d="M56.49,45.74c-0.13,0.24-0.29,0.47-0.43,0.7C56.2,46.21,56.36,45.98,56.49,45.74z"/>
	<path class="st1" d="M45.96,56.31c-0.24,0.14-0.47,0.28-0.71,0.41C45.49,56.6,45.72,56.45,45.96,56.31z"/>
	<path class="st1" d="M16.11,54.97c-0.1-0.07-0.21-0.15-0.31-0.22C15.9,54.82,16.01,54.9,16.11,54.97z"/>
	<path class="st1" d="M7.85,45.94c-0.13-0.23-0.28-0.46-0.41-0.69C7.57,45.48,7.71,45.71,7.85,45.94z"/>
	<path class="st1" d="M18.26,56.33c-0.23-0.13-0.46-0.28-0.69-0.42C17.8,56.04,18.02,56.19,18.26,56.33z"/>
	<path class="st1" d="M10.49,49.78c-0.06-0.08-0.13-0.15-0.19-0.23C10.37,49.64,10.43,49.71,10.49,49.78z"/>
	<path class="st1" d="M56.06,17.56c0.14,0.23,0.29,0.46,0.43,0.7C56.36,18.02,56.2,17.79,56.06,17.56z"/>
	<polygon class="st1" points="11.39,40.08 11.34,40.11 11.31,40.13 11.34,40.11 	"/>
	<path class="st1" d="M8.96,47.75c-0.07-0.11-0.15-0.21-0.22-0.32C8.82,47.53,8.89,47.64,8.96,47.75z"/>
	<path class="st1" d="M51.7,51.99c-0.05,0.05-0.1,0.1-0.15,0.15C51.6,52.09,51.65,52.04,51.7,51.99z"/>
	<path class="st1" d="M49.84,53.66c-0.06,0.05-0.12,0.1-0.18,0.15C49.72,53.76,49.78,53.71,49.84,53.66z"/>
	<polygon class="st1" points="7.04,42.64 10.89,40.38 7.04,42.64 6.37,43.04 	"/>
	<polygon class="st1" points="17.18,36.67 25.11,32 19.85,35.1 17.17,36.67 	"/>
	<polygon class="st1" points="42.42,56.86 39.92,52.6 38.26,49.79 37.36,48.27 34.82,43.96 31.61,38.5 34.82,43.96 37.36,48.27 
		37.37,48.28 39.89,52.56 39.92,52.6 42.42,56.86 42.98,57.81 	"/>
	<path class="st2" d="M44.02,28.52l4.42-2.6l4.29-2.53l4.29-2.53l0.61-0.36c-0.35-0.76-0.73-1.51-1.14-2.23
		c-0.13-0.24-0.29-0.47-0.43-0.7c-0.24-0.4-0.48-0.79-0.74-1.17L37.11,32l18.21,15.61c0.26-0.38,0.5-0.78,0.74-1.17
		c0.14-0.23,0.3-0.46,0.43-0.7c0.41-0.73,0.79-1.47,1.14-2.23L38.11,32L44.02,28.52z"/>
	<path class="st2" d="M17.18,36.67c0.45,0.59,0.92,1.18,1.43,1.75L26.11,32L10.56,18.67c0.15,1.66,0.41,3.42,0.82,5.23l4.25,2.5
		l3.99,2.35L25.11,32L17.18,36.67z"/>
	<path class="st2" d="M37.36,48.27l0.9,1.52c0.69,0.18,1.4,0.35,2.12,0.52c-0.78-0.88-1.28-2.03-1.28-3.31
		c0-0.23,0.04-0.45,0.07-0.67l-7.57-8.83l-5.94,6.93c0.58,0.37,1.18,0.73,1.81,1.08l0.84-1.43l3.29-5.58l3.22,5.46L37.36,48.27z"/>
	<path class="st2" d="M40.89,15.67c-0.49-0.77-0.78-1.68-0.78-2.67c0-2.76,2.24-5,5-5c0.71,0,1.38,0.15,2,0.42l0.02-0.03
		c-0.38-0.25-0.78-0.48-1.17-0.7c-0.24-0.14-0.47-0.28-0.71-0.41c-0.74-0.39-1.49-0.76-2.26-1.08l-5.46,9.27l-2.62,4.44l-3.29,5.59
		l-3.37-5.71l-2.55-4.32l-2.53-4.29l-0.01-0.02l-2.52-4.27l-0.19-0.33c-0.75,0.34-1.47,0.72-2.18,1.13
		c-0.23,0.13-0.46,0.28-0.68,0.42c-0.38,0.23-0.76,0.47-1.12,0.72L31.61,26.5L40.89,15.67z"/>
	<path class="st3" d="M18.61,38.42l-1.89,1.62c0.12-0.02,0.25-0.04,0.38-0.04c1.1,0,2,0.9,2,2s-0.9,2-2,2s-2-0.9-2-2
		c0-0.24,0.05-0.47,0.13-0.68l-6.7,5.75c0.08,0.12,0.14,0.24,0.22,0.36c0.07,0.11,0.15,0.21,0.22,0.32
		c0.42,0.62,0.87,1.23,1.34,1.81c0.06,0.08,0.13,0.15,0.19,0.23c0.5,0.61,1.02,1.2,1.57,1.77c0,0,0.01,0.01,0.01,0.01
		c0.55,0.56,1.13,1.1,1.73,1.61c0.07,0.06,0.14,0.12,0.21,0.18c0.57,0.49,1.17,0.95,1.79,1.39c0.1,0.07,0.21,0.15,0.31,0.22
		c0.11,0.08,0.23,0.14,0.34,0.21l9.22-10.76C22.84,42.62,20.52,40.59,18.61,38.42z"/>
	<path class="st3" d="M10.39,14.77c0-0.14,0-0.29,0-0.43c0,0.01-0.01,0.01-0.01,0.01c-0.02,0.02-0.03,0.04-0.04,0.06
		C9.86,14.98,9.42,15.59,9,16.2c-0.09,0.13-0.18,0.26-0.27,0.39c-0.07,0.11-0.13,0.23-0.21,0.34l2.03,1.74
		C10.43,17.29,10.39,15.98,10.39,14.77z"/>
	<path class="st3" d="M44.11,52c-0.03,0-0.05-0.01-0.08-0.01l3.1,3.62c0.11-0.07,0.22-0.13,0.33-0.2c0.11-0.07,0.22-0.15,0.34-0.23
		c0.64-0.43,1.26-0.89,1.86-1.37c0.06-0.05,0.12-0.1,0.18-0.15c0.59-0.48,1.16-0.99,1.71-1.52c0.05-0.05,0.1-0.1,0.15-0.15
		c0.02-0.02,0.05-0.05,0.07-0.08c-1.85-0.12-3.61-0.31-5.31-0.53C45.76,51.76,44.96,52,44.11,52z"/>
	<path class="st4" d="M10.97,23.67l0.36,0.21l0.04,0.03c-0.41-1.81-0.67-3.58-0.82-5.23l-2.03-1.74c-0.24,0.37-0.46,0.74-0.68,1.13
		c-0.13,0.23-0.28,0.46-0.41,0.69c-0.39,0.72-0.75,1.45-1.07,2.21l0.67,0.39L10.97,23.67z"/>
	<path class="st4" d="M16.73,40.04l1.89-1.62c-0.51-0.58-0.98-1.16-1.43-1.75l-0.01,0.01l-1.54,0.91l-0.11,0.06l-4.14,2.44
		l-0.05,0.03l-0.02,0.01l-0.11,0.07l-0.32,0.19l-3.84,2.27l-0.67,0.4c0.32,0.75,0.69,1.49,1.07,2.21c0.13,0.24,0.27,0.46,0.41,0.69
		c0.22,0.38,0.45,0.76,0.68,1.13l6.7-5.75C15.47,40.67,16.03,40.17,16.73,40.04z"/>
	<path class="st4" d="M25.67,44.43l-9.22,10.76c0.37,0.25,0.74,0.49,1.12,0.72c0.23,0.14,0.45,0.29,0.69,0.42
		c0.71,0.4,1.43,0.78,2.18,1.13l0.35-0.59l2.44-4.14l0.09-0.16l2.45-4.16l0.08-0.13l1.63-2.76C26.85,45.16,26.25,44.8,25.67,44.43z"
		/>
	<path class="st4" d="M40.38,50.31c-0.72-0.16-1.43-0.33-2.12-0.52l1.66,2.81l2.51,4.26l0.56,0.95c0.77-0.33,1.52-0.69,2.26-1.08
		c0.24-0.13,0.47-0.28,0.71-0.41c0.4-0.23,0.79-0.46,1.17-0.7l-3.1-3.62C42.57,51.97,41.28,51.32,40.38,50.31z"/>
	<path class="st5" d="M45.11,8c-2.76,0-5,2.24-5,5c0,0.98,0.29,1.89,0.78,2.67c0.89,1.4,2.44,2.33,4.22,2.33c2.76,0,5-2.24,5-5
		c0-1.5-0.67-2.83-1.72-3.74c-0.22-0.2-0.46-0.37-0.71-0.53c-0.19-0.11-0.37-0.22-0.57-0.31C46.49,8.15,45.82,8,45.11,8z"/>
	<circle class="st5" cx="19.11" cy="20" r="4"/>
	<circle class="st5" cx="31.11" cy="33" r="3"/>
	<path class="st5" d="M40.38,50.31c0.9,1.01,2.19,1.66,3.65,1.68c0.03,0,0.05,0.01,0.08,0.01c0.86,0,1.65-0.24,2.36-0.62
		c1.57-0.84,2.64-2.48,2.64-4.38c0-2.76-2.24-5-5-5c-2.53,0-4.6,1.89-4.93,4.33c-0.03,0.22-0.07,0.44-0.07,0.67
		C39.11,48.27,39.6,49.42,40.38,50.31z"/>
	<path class="st5" d="M15.23,41.32c-0.08,0.21-0.13,0.44-0.13,0.68c0,1.1,0.9,2,2,2s2-0.9,2-2s-0.9-2-2-2
		c-0.13,0-0.26,0.01-0.38,0.04C16.03,40.17,15.47,40.67,15.23,41.32z"/>
	<circle class="st5" cx="40.11" cy="24" r="2"/>
</g>
</svg>
