<?xml version="1.0" encoding="utf-8"?>
<!-- Generator: Adobe Illustrator 23.0.6, SVG Export Plug-In . SVG Version: 6.00 Build 0)  -->
<svg version="1.1" id="Layer_1" xmlns="http://www.w3.org/2000/svg" xmlns:xlink="http://www.w3.org/1999/xlink" x="0px" y="0px"
	 viewBox="0 0 64 64" style="enable-background:new 0 0 64 64;" xml:space="preserve">
<style type="text/css">
	.st0{fill:#77D807;}
	.st1{fill:#FFFFFF;}
	.st2{fill:#57C703;}
	.st3{fill:#007F12;}
	.st4{fill:#5CAA19;}
	.st5{fill:#489F16;}
</style>
<g>
	<path class="st0" d="M6.95,49.23c-1.49,2.43-2.47,5.51-2.47,9.27h3c0-3.24,0.82-5.72,2.03-7.7c0.54-0.88,1.17-1.65,1.84-2.35
		c-0.6-0.83-1.16-1.69-1.67-2.58C8.69,46.82,7.75,47.93,6.95,49.23z"/>
	<polygon class="st1" points="56.89,21.55 56.59,16.67 52.57,19.39 	"/>
	<polygon class="st1" points="52.73,24.31 52.43,19.48 48.44,22.17 	"/>
	<polygon class="st1" points="48.56,27.07 48.26,22.3 44.32,24.96 	"/>
	<polygon class="st1" points="44.39,29.83 44.1,25.11 40.2,27.74 	"/>
	<polygon class="st1" points="43.47,33.73 39.37,35.7 43.13,38.24 	"/>
	<polygon class="st1" points="47.6,36.54 43.53,38.51 47.26,41.03 	"/>
	<polygon class="st1" points="51.73,39.36 47.68,41.31 51.4,43.82 	"/>
	<polygon class="st1" points="55.86,42.18 51.84,44.12 55.53,46.61 	"/>
	<path class="st0" d="M9.17,19.07c0.29-0.56,0.59-1.11,0.92-1.64C9.76,17.96,9.46,18.51,9.17,19.07z"/>
	<path class="st0" d="M10.18,17.28c0.31-0.5,0.64-0.99,0.98-1.47C10.82,16.3,10.49,16.78,10.18,17.28z"/>
	<path class="st0" d="M42.95,58.53c-0.16,0.05-0.32,0.11-0.49,0.16C42.62,58.64,42.79,58.59,42.95,58.53z"/>
	<path class="st0" d="M39.41,59.47c-0.15,0.03-0.31,0.05-0.46,0.08C39.1,59.53,39.26,59.5,39.41,59.47z"/>
	<path class="st0" d="M8.17,21.17c0.24-0.58,0.51-1.15,0.79-1.71C8.69,20.02,8.42,20.59,8.17,21.17z"/>
	<path class="st0" d="M41.15,59.07c-0.07,0.02-0.14,0.04-0.2,0.06C41.02,59.11,41.08,59.09,41.15,59.07z"/>
	<path class="st0" d="M49.04,55.61c-0.15,0.09-0.29,0.19-0.44,0.28C48.75,55.8,48.89,55.71,49.04,55.61z"/>
	<path class="st0" d="M44.46,57.97c-0.17,0.07-0.34,0.13-0.51,0.2C44.13,58.1,44.29,58.04,44.46,57.97z"/>
	<path class="st0" d="M47.54,56.51c-0.09,0.05-0.18,0.11-0.28,0.16C47.36,56.61,47.45,56.56,47.54,56.51z"/>
	<path class="st0" d="M7.48,23.01c0.19-0.56,0.39-1.11,0.61-1.65C7.88,21.9,7.67,22.45,7.48,23.01z"/>
	<path class="st0" d="M50.34,54.73c-0.14,0.1-0.29,0.2-0.43,0.3C50.06,54.93,50.2,54.83,50.34,54.73z"/>
	<path class="st0" d="M52.99,52.56c-0.09,0.08-0.18,0.17-0.27,0.25C52.81,52.73,52.9,52.65,52.99,52.56z"/>
	<path class="st0" d="M51.56,53.8c-0.1,0.08-0.19,0.15-0.29,0.22C51.37,53.95,51.47,53.88,51.56,53.8z"/>
	<path class="st0" d="M6.4,27.3c0.1-0.58,0.21-1.15,0.35-1.71C6.61,26.15,6.5,26.72,6.4,27.3z"/>
	<path class="st0" d="M6,32c0-0.68,0.03-1.36,0.08-2.03C6.03,30.64,6,31.32,6,32z"/>
	<path class="st0" d="M6.11,29.53c0.06-0.65,0.13-1.3,0.23-1.94C6.25,28.23,6.17,28.88,6.11,29.53z"/>
	<path class="st0" d="M36.14,59.91c-0.17,0.01-0.33,0.03-0.5,0.04C35.81,59.94,35.97,59.92,36.14,59.91z"/>
	<path class="st0" d="M15,18c2.21,0,4,1.79,4,4c0,2.21-1.79,4-4,4c-0.91,0-1.74-0.3-2.42-0.81c2.2,8.35,7.76,17.53,20.87,22.73
		C34.24,46.2,35.98,45,38,45c2.76,0,5,2.24,5,5c0,0.23-0.02,0.45-0.04,0.67c3.22,0.64,6.76,1.09,10.65,1.31
		c0.03-0.03,0.06-0.06,0.09-0.09L32,32l21.24-20.32C48.23,6.93,41.46,4,34,4c-9.35,0-17.62,4.59-22.71,11.63
		c0.03,1.33,0.11,2.77,0.3,4.28C12.29,18.77,13.55,18,15,18z M40,9c2.76,0,5,2.24,5,5c0,2.76-2.24,5-5,5c-2.76,0-5-2.24-5-5
		C35,11.24,37.24,9,40,9z M30,35c0,1.66-1.34,3-3,3c-1.66,0-3-1.34-3-3c0-1.66,1.34-3,3-3C28.66,32,30,33.34,30,35z M23,8
		c1.1,0,2,0.9,2,2c0,1.1-0.9,2-2,2c-1.1,0-2-0.9-2-2C21,8.9,21.9,8,23,8z"/>
	<path class="st0" d="M6.83,25.22C6.98,24.6,7.16,24,7.35,23.4C7.16,24,6.98,24.6,6.83,25.22z"/>
	<path class="st0" d="M45.89,57.35c-0.13,0.06-0.26,0.12-0.39,0.17C45.63,57.47,45.76,57.41,45.89,57.35z"/>
	<path class="st0" d="M37.82,59.73c-0.18,0.02-0.37,0.05-0.55,0.07C37.46,59.78,37.64,59.76,37.82,59.73z"/>
	<path class="st2" d="M36.14,59.91c0.38-0.03,0.76-0.06,1.13-0.11c0.18-0.02,0.37-0.04,0.55-0.07c0.38-0.05,0.75-0.11,1.13-0.18
		c0.15-0.03,0.31-0.05,0.46-0.08c0.52-0.1,1.03-0.21,1.54-0.34c0.07-0.02,0.14-0.04,0.2-0.06c0.44-0.12,0.88-0.24,1.31-0.38
		c0.16-0.05,0.33-0.11,0.49-0.16c0.34-0.11,0.67-0.23,1.01-0.36c0.17-0.06,0.34-0.13,0.51-0.2c0.35-0.14,0.7-0.29,1.04-0.45
		c0.13-0.06,0.26-0.11,0.39-0.17c0.46-0.22,0.92-0.45,1.37-0.69c0.09-0.05,0.18-0.11,0.28-0.16c0.36-0.2,0.71-0.4,1.06-0.61
		c0.15-0.09,0.29-0.18,0.44-0.28c0.3-0.19,0.59-0.38,0.87-0.58c0.14-0.1,0.29-0.2,0.43-0.3c0.32-0.23,0.63-0.46,0.93-0.7
		c0.1-0.08,0.2-0.15,0.29-0.22c0.4-0.32,0.78-0.65,1.16-0.99c0.09-0.08,0.18-0.17,0.27-0.25c0.21-0.19,0.41-0.39,0.61-0.59
		c-3.89-0.22-7.43-0.67-10.65-1.31C42.63,53.11,40.54,55,38,55c-2.76,0-5-2.24-5-5c0-0.74,0.16-1.45,0.45-2.08
		c-13.11-5.2-18.67-14.38-20.87-22.73C11.62,24.46,11,23.3,11,22c0-0.76,0.21-1.48,0.59-2.09c-0.18-1.51-0.27-2.95-0.3-4.28
		c-0.04,0.06-0.09,0.12-0.13,0.19c-0.34,0.48-0.67,0.97-0.98,1.47c-0.03,0.05-0.06,0.1-0.09,0.14c-0.33,0.53-0.63,1.08-0.92,1.64
		c-0.07,0.13-0.13,0.26-0.2,0.39c-0.28,0.56-0.55,1.13-0.79,1.71c-0.03,0.06-0.05,0.13-0.07,0.19c-0.22,0.54-0.43,1.09-0.61,1.65
		c-0.04,0.13-0.09,0.26-0.13,0.39c-0.19,0.6-0.37,1.2-0.52,1.82c-0.03,0.12-0.06,0.24-0.08,0.37C6.61,26.15,6.5,26.72,6.4,27.3
		c-0.02,0.1-0.04,0.2-0.05,0.3c-0.1,0.64-0.18,1.28-0.23,1.94c-0.01,0.15-0.02,0.3-0.03,0.44C6.03,30.64,6,31.32,6,32
		c0,5.05,1.34,9.78,3.68,13.87c0.51,0.89,1.07,1.75,1.67,2.58C16.44,55.45,24.69,60,34,60c0.55,0,1.09-0.02,1.64-0.05
		C35.81,59.94,35.97,59.92,36.14,59.91z M11,44c0-1.1,0.9-2,2-2c1.1,0,2,0.9,2,2c0,1.1-0.9,2-2,2C11.9,46,11,45.1,11,44z"/>
	<path class="st3" d="M53.7,51.89c1.29-1.27,2.46-2.67,3.48-4.17l-1.64-1.11l-3.7-2.49l-0.44-0.3l-3.72-2.51l-0.42-0.28l-3.74-2.52
		l-0.4-0.27l-3.76-2.54L33.89,32l6.31-4.26l3.9-2.63l0.22-0.15l3.94-2.66l0.18-0.12l3.99-2.69l0.14-0.09l4.03-2.72l0.58-0.39
		c-1.14-1.68-2.46-3.21-3.93-4.6L32,32L53.7,51.89z"/>
	<path class="st4" d="M40,19c2.76,0,5-2.24,5-5c0-2.76-2.24-5-5-5c-2.76,0-5,2.24-5,5C35,16.76,37.24,19,40,19z"/>
	<path class="st4" d="M19,22c0-2.21-1.79-4-4-4c-1.45,0-2.71,0.77-3.41,1.92c0.2,1.69,0.52,3.46,1,5.27C13.26,25.7,14.09,26,15,26
		C17.21,26,19,24.21,19,22z"/>
	<path class="st5" d="M11,22c0,1.3,0.62,2.46,1.58,3.19c-0.48-1.81-0.8-3.59-1-5.27C11.21,20.52,11,21.24,11,22z"/>
	<path class="st4" d="M24,35c0,1.66,1.34,3,3,3c1.66,0,3-1.34,3-3c0-1.66-1.34-3-3-3C25.34,32,24,33.34,24,35z"/>
	<path class="st4" d="M38,45c-2.02,0-3.76,1.2-4.55,2.92c2.81,1.11,5.96,2.05,9.5,2.75C42.98,50.45,43,50.23,43,50
		C43,47.24,40.76,45,38,45z"/>
	<path class="st5" d="M33,50c0,2.76,2.24,5,5,5c2.54,0,4.63-1.89,4.96-4.33c-3.54-0.7-6.7-1.63-9.5-2.75C33.16,48.55,33,49.26,33,50
		z"/>
	<path class="st5" d="M13,46c1.1,0,2-0.9,2-2c0-1.1-0.9-2-2-2c-1.1,0-2,0.9-2,2C11,45.1,11.9,46,13,46z"/>
	<path class="st4" d="M23,12c1.1,0,2-0.9,2-2c0-1.1-0.9-2-2-2c-1.1,0-2,0.9-2,2C21,11.1,21.9,12,23,12z"/>
</g>
</svg>
