<svg version="1.1" id="prefix__Layer_1" xmlns="http://www.w3.org/2000/svg" x="0" y="0" viewBox="0 0 64 64" xml:space="preserve">
    <style>
        .prefix__st0{fill:#0071dd}.prefix__st2{fill:#f05}.prefix__st3{fill:#4d4fb4}.prefix__st4{fill:#4d3180}
    </style>
    <path class="prefix__st0" d="M10.8 39.3h42.9V22.6H10.8c-3.7 0-6.8 3.7-6.8 8.3 0 4.7 3 8.4 6.8 8.4"/>
    <path d="M53.3 39.3c3.7 0 6.8-3.7 6.8-8.3 0-4.6-3-8.4-6.8-8.4-3.7 0-6.8 3.8-6.8 8.4 0 4.6 3 8.3 6.8 8.3" fill="#004693"/>
    <path class="prefix__st0" d="M37 22.7h1-1M31.1 22.7H31h.1z"/>
    <path class="prefix__st2" d="M53.3 39.3H53V50h2l.1-9.4V39c-.6.2-1.2.3-1.8.3zM40.1 25.8c.9-.9 1.9-1.7 3.1-2.2.9-.4 1.8-.6 2.7-.8l1.8-.2h4.5l-.2-.2c-1.1-1.2-2.6-1.7-4.3-1.7-1.6 0-3.1.3-4.4.7-1.4-.5-2.9-.8-5.3-.8-1.4 0-2.7.3-4 .7-1.2-.4-2.5-.6-4.8-.6H29c-1.5 0-2.9.3-4.1.7-1.3-.5-2.8-.7-5.6-.7H19c-2.3.1-4.1.8-5.5 2.2C9.9 26.5 10 33.6 10 38.8v11.1h2v-9.5-1.6c0-4.8-.1-11.5 2.9-14.5 1.1-1.1 2.6-1.6 4.4-1.6 1.5 0 1.8-.1 2.1 0h.9l-.2.1c-3.3 2.3-5.2 6-5.2 9.7 0 3.1.9 5.3 2.3 6.8 1.4 1.4 3.3 2 5.9 2h.1c1.5-.1 2.8-.4 3.7-1.1l.1.1c1.3.8 2.9 1.1 4.9 1.1 1.9 0 3.5-.4 4.7-1.1 1.3.8 2.9 1.1 4.8 1.1h.1c2.2-.1 3.9-.9 5.1-2.1h-6.8c-.6-.1-1.1-.2-1.5-.4-.7-.3-1.2-.7-1.6-1.2-1-1.1-1.3-2.8-1.3-5.2 0-1.7.4-3.5 1.3-5 .5-.6.9-1.2 1.4-1.7zM25.5 39.3H23.6c-3.1-.6-4.7-2.6-4.7-6.8 0-3.6 2.1-7.2 5.9-8.9.9-.4 1.8-.6 2.7-.8l-.2-.1.2.1 1.7-.1c1.1 0 1.5 0 1.8.1-.6.5-1.2.9-1.8 1.4-.5.5-.9 1-1.3 1.6-1.4 2-2.2 4.4-2.2 6.7 0 2.8.6 4.9 1.8 6.4.1.2.2.3.3.4h-2.3zm12-13.5c-1.4 2-2.1 4.4-2.1 6.7 0 2.8.6 4.9 1.7 6.4.1.2.2.3.3.4H32.3c-.6-.1-1.1-.2-1.5-.4-.7-.4-1.1-.7-1.6-1.2-1-1.1-1.4-2.8-1.4-5.2 0-1.7.5-3.5 1.4-5 .4-.6.8-1.2 1.3-1.7 1-1 2.2-1.8 3.6-2.4 1-.3 1.9-.6 2.9-.7l1-.1c1.1 0 1.4 0 1.8.1l.7.1c-.6.4-1.2.9-1.7 1.4-.5.5-.9 1-1.3 1.6z"/>
    <path class="prefix__st3" d="M47.3 27.1c.3-.7.7-1.3 1.1-1.9-.7-.9-1.5-1.7-2.5-2.4-1 .1-1.9.4-2.7.8 1.7.8 3.1 2 4.1 3.5zM48.2 36.6c-.8 1.6-2.2 2.5-4.3 2.7h4.8c.4-.4.8-.8 1-1.2-.4-.4-1-.9-1.5-1.5zM38.8 27.5c.9 1.5 1.4 3.2 1.4 4.9 0 2.4-.5 4.1-1.4 5.3.4.5 1 .9 1.6 1.2 1.2-1.5 1.8-3.6 1.8-6.5 0-2.3-.7-4.6-2.1-6.6-.5.5-.9 1.1-1.3 1.7zM37 22.7c-1.1.1-2.1.3-3 .7 1.4.6 2.5 1.4 3.5 2.4.4-.5.8-1.1 1.3-1.6-.5-.5-1.1-1-1.8-1.5zM36.9 38.8c-.6.2-1.2.4-1.9.5h2.4l-.5-.5zM27.5 22.8c-1 .1-1.9.4-2.7.8 1.2.5 2.2 1.3 3.1 2.2.4-.5.8-1.1 1.3-1.6-.5-.5-1.1-1-1.7-1.4zM29.2 27.5c.9 1.5 1.4 3.2 1.4 4.9 0 2.4-.5 4.1-1.4 5.3.4.5 1 .9 1.6 1.2 1.2-1.5 1.8-3.6 1.8-6.5 0-2.3-.8-4.6-2.1-6.6-.5.5-.9 1.1-1.3 1.7zM22.1 22.8l.2-.1h-1c.3 0 .5.1.8.1zM25.5 39.3h2.3c-.2-.2-.3-.4-.4-.5-.6.2-1.2.4-1.9.5zM52.2 22.6h-4.5c1 0 1.8.3 2.5.9.6-.4 1.3-.6 2-.9z"/>
    <g>
        <path class="prefix__st4" d="M53.7 25.2v.1c-.4-1.1-.9-1.9-1.4-2.5l-.1-.1c-.7.1-1.4.4-2 .8l.4.4c2.7 2.7 2.6 9.8 2.5 14.5v.9H53.7c.5 0 .9-.1 1.4-.3v-.6c0-4.2.1-9.5-1.4-13.2zM47.3 27.1c1.1 1.6 1.6 3.4 1.6 5.3 0 1.7-.2 3.1-.7 4.2.4.6.9 1.1 1.5 1.5.8-1.4 1.3-3.3 1.3-5.7-.1-2.6-.9-5.1-2.6-7.2-.4.6-.8 1.2-1.1 1.9z"/>
    </g>
</svg>
