<?xml version="1.0" encoding="utf-8"?>
<!-- Generator: Adobe Illustrator 23.0.6, SVG Export Plug-In . SVG Version: 6.00 Build 0)  -->
<svg version="1.1" id="Layer_1" xmlns="http://www.w3.org/2000/svg" xmlns:xlink="http://www.w3.org/1999/xlink" x="0px" y="0px"
	 viewBox="0 0 64 64" style="enable-background:new 0 0 64 64;" xml:space="preserve">
<style type="text/css">
	.st0{fill:#FFFFFF;}
	.st1{fill:#77D807;}
	.st2{fill:#007F12;}
	.st3{fill:#57C703;}
	.st4{fill:#007509;}
	.st5{fill:#5CAA19;}
	.st6{fill:#117220;}
	.st7{fill:#489F16;}
	.st8{fill:#116B1A;}
</style>
<g>
	<polygon class="st0" points="52.73,23.46 57.1,25.9 57.03,20.85 52.73,23.38 	"/>
	<polygon class="st0" points="48.44,25.91 48.44,26.03 52.8,28.46 52.73,23.46 52.73,23.38 	"/>
	<polygon class="st0" points="44.02,28.52 48.51,31.03 48.44,26.03 48.44,25.91 	"/>
	<polygon class="st0" points="57.02,43.03 57.1,37.83 52.73,40.27 52.73,40.46 	"/>
	<polygon class="st0" points="52.73,40.46 52.73,40.46 52.73,40.27 52.8,35.27 48.44,37.71 48.44,37.9 	"/>
	<polygon class="st0" points="43.97,35.24 48.44,37.9 48.44,37.9 48.44,37.71 48.51,32.71 	"/>
	<polygon class="st0" points="11.2,40.19 6.97,37.83 7.04,42.64 10.89,40.38 	"/>
	<polygon class="st0" points="15.52,37.65 11.27,35.27 11.34,40.11 11.39,40.08 	"/>
	<polygon class="st0" points="19.85,35.1 15.56,32.71 15.63,37.58 17.18,36.67 	"/>
	<polygon class="st0" points="6.97,25.9 10.97,23.67 7.04,21.35 	"/>
	<polygon class="st0" points="11.27,28.46 15.29,26.22 11.33,23.88 	"/>
	<polygon class="st0" points="15.56,31.03 19.61,28.76 15.63,26.41 	"/>
	<polygon class="st0" points="25.57,6.8 20.63,6.87 23.15,11.15 	"/>
	<polygon class="st0" points="25.7,15.46 28.13,11.1 23.16,11.17 25.69,15.46 	"/>
	<polygon class="st0" points="28.24,19.79 30.69,15.39 25.7,15.46 25.69,15.46 	"/>
	<polygon class="st0" points="42.58,6.88 37.5,6.8 39.94,11.17 40.05,11.17 	"/>
	<polygon class="st0" points="40.05,11.17 39.94,11.17 34.94,11.1 37.38,15.46 37.52,15.47 	"/>
	<polygon class="st0" points="37.52,15.47 37.38,15.46 32.38,15.39 34.9,19.91 	"/>
	<polygon class="st0" points="39.92,52.6 37.5,56.93 42.42,56.86 40.2,53.09 	"/>
	<polygon class="st0" points="34.94,52.63 39.89,52.56 37.37,48.28 	"/>
	<polygon class="st0" points="32.38,48.34 37.36,48.27 34.82,43.96 	"/>
	<polygon class="st0" points="25.57,56.93 23.22,52.72 20.79,56.86 	"/>
	<polygon class="st0" points="28.13,52.63 25.77,48.4 23.32,52.57 	"/>
	<polygon class="st0" points="30.69,48.34 28.32,44.08 25.85,48.27 	"/>
	<path class="st1" d="M51.7,51.99c-0.05,0.05-0.1,0.1-0.16,0.15C51.59,52.09,51.65,52.04,51.7,51.99z"/>
	<path class="st1" d="M14.02,53.36c-0.07-0.06-0.14-0.12-0.21-0.18C13.88,53.24,13.94,53.3,14.02,53.36z"/>
	<path class="st1" d="M16.11,54.97c-0.1-0.07-0.21-0.15-0.31-0.22C15.9,54.82,16.01,54.9,16.11,54.97z"/>
	<path class="st1" d="M8.73,16.6C8.82,16.46,8.91,16.33,9,16.2C8.91,16.33,8.82,16.46,8.73,16.6z"/>
	<path class="st1" d="M8.97,47.75c-0.07-0.11-0.15-0.22-0.22-0.32C8.82,47.53,8.89,47.64,8.97,47.75z"/>
	<path class="st1" d="M10.5,49.79c-0.06-0.08-0.13-0.15-0.19-0.23C10.37,49.64,10.43,49.71,10.5,49.79z"/>
	<path class="st1" d="M47.8,55.18c-0.11,0.08-0.22,0.15-0.34,0.23C47.57,55.33,47.68,55.26,47.8,55.18z"/>
	<path class="st1" d="M49.84,53.66c-0.06,0.05-0.12,0.1-0.18,0.15C49.72,53.76,49.78,53.71,49.84,53.66z"/>
	<path class="st1" d="M12.08,51.57c-0.01-0.01-0.01-0.01-0.02-0.02C12.07,51.55,12.08,51.56,12.08,51.57z"/>
	<path class="st1" d="M47.58,8.66c0.03,0.02,0.06,0.04,0.08,0.06C47.63,8.7,47.61,8.68,47.58,8.66z"/>
	<path class="st1" d="M10.33,14.41c0.01-0.02,0.03-0.04,0.04-0.06C10.36,14.37,10.35,14.39,10.33,14.41z"/>
	<path class="st1" d="M47.11,8.42c0.11,0.05,0.22,0.1,0.33,0.16c-0.1-0.07-0.21-0.12-0.31-0.18L47.11,8.42L47.11,8.42z"/>
	<path class="st1" d="M10.56,18.68L26.11,32l-7.49,6.42l0,0c1.9,2.16,4.22,4.2,7.05,6.01l0,0l5.94-6.93l7.55,8.81l0,0
		c0.34-2.43,2.43-4.31,4.95-4.31c2.76,0,5,2.24,5,5c0,1.9-1.06,3.55-2.61,4.39c1.68,0.22,3.44,0.4,5.28,0.52
		c1.32-1.31,2.51-2.75,3.55-4.3L37.11,32l18.21-15.61c-1.84-2.73-4.15-5.12-6.82-7.05c0.98,0.91,1.61,2.21,1.61,3.66
		c0,2.76-2.24,5-5,5c-1.78,0-3.34-0.93-4.22-2.32l0,0L31.61,26.5L16.45,8.82c-2.28,1.54-4.33,3.39-6.06,5.52c0,0.14,0,0.29,0,0.43
		C10.39,15.98,10.43,17.29,10.56,18.68z M40.11,22c1.1,0,2,0.9,2,2s-0.9,2-2,2c-1.1,0-2-0.9-2-2S39,22,40.11,22z M31.11,30
		c1.66,0,3,1.34,3,3c0,1.66-1.34,3-3,3c-1.66,0-3-1.34-3-3C28.11,31.34,29.45,30,31.11,30z M19.11,16c2.21,0,4,1.79,4,4
		c0,2.21-1.79,4-4,4s-4-1.79-4-4C15.11,17.79,16.9,16,19.11,16z"/>
	<path class="st2" d="M55.32,47.61c0.88-1.3,1.66-2.66,2.31-4.11L38.11,32l5.91-3.48l4.42-2.6l4.29-2.53l4.29-2.53l0.61-0.36
		c-0.65-1.44-1.44-2.81-2.31-4.11L37.11,32L55.32,47.61z"/>
	<path class="st2" d="M7.44,18.75c0.13-0.24,0.27-0.46,0.4-0.69C7.71,18.29,7.57,18.52,7.44,18.75z"/>
	<polygon class="st2" points="11.39,40.08 11.34,40.11 11.31,40.13 11.34,40.11 	"/>
	<path class="st2" d="M7.85,45.94c-0.13-0.23-0.28-0.46-0.41-0.69C7.57,45.48,7.71,45.71,7.85,45.94z"/>
	<polygon class="st2" points="7.04,42.64 10.89,40.38 7.04,42.64 6.37,43.04 	"/>
	<path class="st2" d="M18.61,38.42L26.11,32L10.56,18.68l0,0c0.15,1.66,0.41,3.42,0.82,5.23l-0.04-0.03l-0.36-0.21l-3.93-2.32
		l-0.67-0.39l0.67,0.39l3.93,2.32l0.36,0.21l3.96,2.33l0.34,0.2l3.99,2.35L25.11,32l-5.26,3.1l-2.66,1.57
		C17.63,37.26,18.11,37.84,18.61,38.42z"/>
	<path class="st2" d="M45.95,56.31c-0.24,0.14-0.47,0.28-0.71,0.41C45.49,56.6,45.72,56.45,45.95,56.31z"/>
	<path class="st2" d="M38.26,49.79c0.68,0.18,1.38,0.35,2.1,0.52c-0.78-0.88-1.25-2.04-1.25-3.31c0-0.24,0.02-0.47,0.05-0.69
		l-7.55-8.81l-5.94,6.93c0.58,0.37,1.18,0.73,1.81,1.08l-7.04,11.94l0.35-0.59l2.44-4.14l0.09-0.16l2.45-4.16l0.08-0.13l2.47-4.19
		l3.29-5.58l3.22,5.46l2.54,4.31l0.01,0.01l2.52,4.28l0.02,0.03l-0.02-0.03L38.26,49.79z"/>
	<path class="st2" d="M18.26,56.33c-0.23-0.13-0.45-0.28-0.68-0.42C17.8,56.04,18.02,56.19,18.26,56.33z"/>
	<polygon class="st2" points="42.42,56.86 40.2,53.09 42.42,56.86 42.98,57.81 	"/>
	<path class="st2" d="M40.88,15.68c-0.49-0.77-0.78-1.69-0.78-2.68c0-2.76,2.24-5,5-5c0.71,0,1.39,0.15,2,0.42l0.02-0.02
		c-1.31-0.84-2.69-1.59-4.14-2.2l-0.4,0.68l-2.53,4.29l-2.53,4.29l-2.62,4.44l-3.29,5.59l-3.37-5.71l-2.55-4.32l-2.53-4.29
		l-0.01-0.02l-2.52-4.27l-0.19-0.33c-1.4,0.64-2.73,1.41-3.99,2.27L31.61,26.5L40.88,15.68z"/>
	<path class="st3" d="M10.56,18.68c-0.12-1.39-0.17-2.7-0.17-3.91c0-0.14,0-0.29,0-0.43c0,0.01-0.01,0.01-0.01,0.01
		c-0.02,0.02-0.03,0.04-0.04,0.06C9.86,14.98,9.42,15.59,9,16.2c-0.09,0.13-0.18,0.26-0.27,0.39c-0.07,0.11-0.13,0.23-0.21,0.34
		L10.56,18.68L10.56,18.68z"/>
	<path class="st3" d="M51.77,51.92c-1.84-0.12-3.6-0.3-5.28-0.52C45.78,51.78,44.97,52,44.11,52c-0.02,0-0.05,0-0.07,0l3.09,3.61
		c0.11-0.07,0.22-0.13,0.33-0.2c0.11-0.07,0.23-0.15,0.34-0.23c0.64-0.43,1.26-0.89,1.86-1.37c0.06-0.05,0.12-0.1,0.18-0.15
		c0.59-0.48,1.16-0.99,1.71-1.52c0.05-0.05,0.11-0.1,0.16-0.15C51.72,51.97,51.75,51.94,51.77,51.92z"/>
	<path class="st3" d="M18.61,38.42l-1.88,1.61c0.12-0.02,0.25-0.03,0.37-0.03c1.1,0,2,0.9,2,2c0,1.1-0.9,2-2,2c-1.1,0-2-0.9-2-2
		c0-0.24,0.04-0.46,0.12-0.67l-6.69,5.74c0.08,0.12,0.14,0.24,0.22,0.36c0.07,0.11,0.15,0.22,0.22,0.32
		c0.42,0.62,0.87,1.23,1.34,1.81c0.06,0.08,0.13,0.15,0.19,0.23c0.5,0.61,1.02,1.2,1.57,1.76c0.01,0.01,0.01,0.01,0.02,0.02
		c0.55,0.56,1.13,1.09,1.72,1.61c0.07,0.06,0.14,0.12,0.21,0.18c0.57,0.49,1.17,0.95,1.78,1.39c0.1,0.07,0.21,0.15,0.31,0.22
		c0.11,0.08,0.23,0.14,0.34,0.21l9.22-10.76C22.84,42.62,20.52,40.59,18.61,38.42z"/>
	<path class="st4" d="M15.22,41.33c0.23-0.66,0.81-1.16,1.51-1.3l1.88-1.61l0,0c-0.51-0.58-0.98-1.16-1.43-1.75l-1.55,0.92
		l-0.11,0.06l-4.14,2.44l-0.05,0.03l-0.02,0.01l-0.11,0.07l-0.32,0.19l-3.84,2.27l-0.67,0.4c0.32,0.75,0.69,1.49,1.07,2.21
		c0.13,0.24,0.27,0.46,0.41,0.69c0.22,0.38,0.45,0.76,0.68,1.13L15.22,41.33z"/>
	<path class="st4" d="M10.97,23.67l0.36,0.21l0.04,0.03c-0.41-1.81-0.67-3.58-0.82-5.23l-2.03-1.74c-0.24,0.37-0.46,0.75-0.68,1.13
		c-0.13,0.23-0.28,0.46-0.4,0.69c-0.39,0.72-0.75,1.45-1.07,2.21l0.67,0.39L10.97,23.67z"/>
	<path class="st4" d="M40.35,50.3c-0.71-0.16-1.41-0.33-2.1-0.52l1.64,2.77l0.02,0.03l0.01,0.01l0.29,0.49l2.22,3.77l0.56,0.95
		c0.77-0.33,1.52-0.69,2.26-1.08c0.24-0.13,0.47-0.28,0.71-0.41c0.4-0.23,0.79-0.46,1.17-0.7L44.03,52
		C42.57,51.98,41.25,51.33,40.35,50.3z"/>
	<path class="st4" d="M27.47,45.51c-0.62-0.35-1.23-0.71-1.81-1.08l0,0l-9.22,10.76c0.37,0.25,0.74,0.49,1.12,0.72
		c0.23,0.14,0.45,0.29,0.68,0.42c0.71,0.4,1.43,0.78,2.18,1.13L27.47,45.51z"/>
	<path class="st5" d="M40.88,15.68c0.89,1.4,2.45,2.32,4.22,2.32c2.76,0,5-2.24,5-5c0-1.45-0.62-2.75-1.61-3.66
		c-0.05-0.05-0.11-0.11-0.16-0.15c-0.22-0.16-0.45-0.31-0.68-0.46c-0.03-0.02-0.06-0.04-0.08-0.06c-0.03-0.02-0.05-0.04-0.08-0.06
		c-0.02-0.01-0.04-0.02-0.06-0.03c-0.11-0.06-0.22-0.11-0.33-0.16L40.88,15.68z"/>
	<path class="st6" d="M47.11,8.42C46.49,8.15,45.82,8,45.11,8c-2.76,0-5,2.24-5,5c0,0.98,0.28,1.9,0.78,2.68l0,0L47.11,8.42
		L47.11,8.42z"/>
	<circle class="st5" cx="19.11" cy="20" r="4"/>
	<path class="st5" d="M31.11,36c1.66,0,3-1.34,3-3c0-1.66-1.34-3-3-3c-1.66,0-3,1.34-3,3C28.11,34.66,29.45,36,31.11,36z"/>
	<path class="st5" d="M49.11,47c0-2.76-2.24-5-5-5c-2.53,0-4.61,1.87-4.95,4.31l3.9,4.55c1.11,0.2,2.25,0.38,3.44,0.54
		C48.05,50.55,49.11,48.9,49.11,47z"/>
	<path class="st6" d="M43.05,50.86l-3.9-4.55l0,0c-0.03,0.23-0.05,0.46-0.05,0.69c0,1.27,0.47,2.42,1.25,3.31
		C41.23,50.5,42.13,50.69,43.05,50.86z"/>
	<path class="st7" d="M44.03,52c0.02,0,0.05,0,0.07,0c0.86,0,1.68-0.22,2.39-0.61c-1.18-0.16-2.33-0.34-3.44-0.54L44.03,52z"/>
	<path class="st8" d="M40.35,50.3c0.9,1.02,2.21,1.67,3.68,1.69l-0.98-1.14C42.13,50.69,41.23,50.5,40.35,50.3z"/>
	<path class="st7" d="M15.22,41.33c-0.07,0.21-0.12,0.44-0.12,0.67c0,1.1,0.9,2,2,2c1.1,0,2-0.9,2-2c0-1.1-0.9-2-2-2
		c-0.13,0-0.25,0.01-0.37,0.03L15.22,41.33z"/>
	<path class="st8" d="M15.22,41.33l1.51-1.3C16.03,40.17,15.46,40.67,15.22,41.33z"/>
	<path class="st5" d="M40.11,26c1.1,0,2-0.9,2-2s-0.9-2-2-2c-1.1,0-2,0.9-2,2S39,26,40.11,26z"/>
</g>
</svg>
