<?xml version="1.0" encoding="utf-8"?>
<!-- Generator: Adobe Illustrator 23.0.6, SVG Export Plug-In . SVG Version: 6.00 Build 0)  -->
<svg version="1.1" id="Layer_1" xmlns="http://www.w3.org/2000/svg" xmlns:xlink="http://www.w3.org/1999/xlink" x="0px" y="0px"
	 viewBox="0 0 64 64" style="enable-background:new 0 0 64 64;" xml:space="preserve">
<style type="text/css">
	.st0{fill:none;}
	.st1{fill:#FF0055;}
	.st2{fill:#44375E;}
	.st3{fill:#615777;}
	.st4{fill:#2F2549;}
	.st5{fill:#120223;}
	.st6{fill:#FFFFFF;}
	.st7{fill:#5C00D3;}
	.st8{opacity:0.35;fill:#FFFFFF;enable-background:new    ;}
	.st9{fill:url(#SVGID_2_);}
	.st10{fill:url(#SVGID_4_);}
</style>
<pattern  y="64" width="63" height="63" patternUnits="userSpaceOnUse" id="SVGID_3_" viewBox="0 -63 63 63" style="overflow:visible;">
	<g>
		<rect y="-63" class="st0" width="63" height="63"/>
		<g>
			<rect y="-63" class="st0" width="63" height="63"/>
			<rect y="-63" class="st1" width="63" height="63"/>
		</g>
	</g>
</pattern>
<g>
	<path class="st2" d="M20.42,15.64c-1.63,1.3-3.12,5.11-4.33,9.41c1.04-0.7,2.29-1.11,3.64-1.11c3.61,0,6.53,2.92,6.53,6.53
		c0,3.61-2.92,6.53-6.53,6.53c-2.43,0-4.54-1.33-5.67-3.3c-0.72,3.72-1.14,6.73-1.14,7.44c0,1.66,2.76,10.93,3.7,14h10.9
		c7.89-1.13,17.44-2,20.9-2.5c4.95-0.72,6.54-3.5,6.5-6.5c-0.03-2,0-7-2-9c-1.9-1.9-5.17-1.54-9.8-2.37
		c-1.2,1.36-2.95,2.23-4.9,2.23c-3.61,0-6.53-2.92-6.53-6.53c0-2.91,1.9-5.37,4.53-6.22c-0.11-1.18-0.05-2.13,0.2-2.61
		c0.5-1.01,4.35-4.54,6.77-6.8l0,0C36.62,14.17,23.53,13.16,20.42,15.64z"/>
	<path class="st3" d="M12.92,41.14c0-0.71,0.42-3.71,1.14-7.44c-0.55-0.95-0.86-2.06-0.86-3.23c0-2.26,1.15-4.25,2.89-5.42
		c1.22-4.3,2.71-8.11,4.33-9.41c3.11-2.48,16.2-1.47,22.77-0.8l-1.33-1.11c-1.24-1.03-2.77-1.64-4.38-1.74l-14.09-0.85
		c-6.73,0-12.6,2.61-14.19,9.15l-5.95,20.5c-0.21,0.86-0.04,1.78,0.47,2.51l6.89,11.84h6.01C15.68,52.07,12.92,42.8,12.92,41.14z
		 M12.33,20.39c-0.09,0-0.19-0.02-0.28-0.05c-0.38-0.15-0.57-0.59-0.42-0.97c0.09-0.22,2.21-5.39,7.55-6.46
		c0.4-0.08,0.8,0.18,0.88,0.59s-0.18,0.8-0.59,0.88c-4.55,0.91-6.43,5.5-6.45,5.54C12.91,20.21,12.62,20.39,12.33,20.39z"/>
	<path class="st4" d="M56.02,25.53L43.19,14.84c-2.42,2.26-6.27,5.79-6.77,6.8c-0.24,0.48-0.3,1.44-0.2,2.61
		c0.63-0.2,1.3-0.31,2-0.31c3.61,0,6.53,2.92,6.53,6.53c0,1.65-0.62,3.15-1.63,4.3c4.62,0.82,7.89,0.46,9.8,2.37c2,2,1.97,7,2,9
		c0.04,3-1.55,5.78-6.5,6.5c-3.46,0.5-13.01,1.37-20.9,2.5h30.37l3.59-9.11c0.28-0.58,0.39-1.23,0.29-1.86l-3.26-14.56
		C58.15,28.01,57.28,26.58,56.02,25.53z"/>
	<path class="st5" d="M16.62,55.14h-6.01l0.38,0.66c0.58,0.84,1.54,1.34,2.56,1.34h41.44c1.18,0,2.26-0.66,2.79-1.72l0.11-0.28
		H27.52H16.62z"/>
	<path class="st6" d="M19.73,37c3.61,0,6.53-2.92,6.53-6.53c0-3.61-2.92-6.53-6.53-6.53c-1.35,0-2.6,0.41-3.64,1.11
		c-1.74,1.17-2.89,3.16-2.89,5.42c0,1.18,0.32,2.28,0.86,3.23C15.19,35.67,17.3,37,19.73,37z M19.73,27.21
		c1.8,0,3.26,1.46,3.26,3.26c0,1.8-1.46,3.26-3.26,3.26c-1.8,0-3.26-1.46-3.26-3.26C16.47,28.67,17.93,27.21,19.73,27.21z"/>
	<path class="st5" d="M19.73,33.73c1.8,0,3.26-1.46,3.26-3.26c0-1.8-1.46-3.26-3.26-3.26c-1.8,0-3.26,1.46-3.26,3.26
		C16.47,32.27,17.93,33.73,19.73,33.73z M19.73,29.19c0.71,0,1.28,0.57,1.28,1.28c0,0.71-0.57,1.28-1.28,1.28
		c-0.71,0-1.28-0.57-1.28-1.28C18.45,29.76,19.02,29.19,19.73,29.19z"/>
	<path class="st6" d="M31.69,30.47c0,3.61,2.92,6.53,6.53,6.53c1.96,0,3.71-0.87,4.9-2.23c1.01-1.15,1.63-2.65,1.63-4.3
		c0-3.61-2.92-6.53-6.53-6.53c-0.7,0-1.37,0.11-2,0.31C33.59,25.1,31.69,27.56,31.69,30.47z M38.22,27.21c1.8,0,3.26,1.46,3.26,3.26
		c0,1.8-1.46,3.26-3.26,3.26c-1.8,0-3.26-1.46-3.26-3.26C34.96,28.67,36.42,27.21,38.22,27.21z"/>
	<path class="st5" d="M38.22,33.73c1.8,0,3.26-1.46,3.26-3.26c0-1.8-1.46-3.26-3.26-3.26c-1.8,0-3.26,1.46-3.26,3.26
		C34.96,32.27,36.42,33.73,38.22,33.73z M38.22,29.19c0.71,0,1.28,0.57,1.28,1.28c0,0.71-0.57,1.28-1.28,1.28
		c-0.71,0-1.28-0.57-1.28-1.28C36.94,29.76,37.51,29.19,38.22,29.19z"/>
	<path class="st7" d="M19.73,31.75c0.71,0,1.28-0.57,1.28-1.28c0-0.71-0.57-1.28-1.28-1.28c-0.71,0-1.28,0.57-1.28,1.28
		C18.45,31.18,19.02,31.75,19.73,31.75z"/>
	<path class="st7" d="M36.94,30.47c0,0.71,0.57,1.28,1.28,1.28c0.71,0,1.28-0.57,1.28-1.28c0-0.71-0.57-1.28-1.28-1.28
		C37.51,29.19,36.94,29.76,36.94,30.47z"/>
	<path class="st3" d="M19.47,14.38c0.41-0.08,0.67-0.47,0.59-0.88s-0.48-0.67-0.88-0.59c-5.34,1.07-7.46,6.24-7.55,6.46
		c-0.15,0.38,0.04,0.82,0.42,0.97c0.09,0.03,0.19,0.05,0.28,0.05c0.29,0,0.58-0.18,0.69-0.47C13.04,19.88,14.92,15.29,19.47,14.38z"
		/>
	<path class="st8" d="M19.47,14.38c0.41-0.08,0.67-0.47,0.59-0.88s-0.48-0.67-0.88-0.59c-5.34,1.07-7.46,6.24-7.55,6.46
		c-0.15,0.38,0.04,0.82,0.42,0.97c0.09,0.03,0.19,0.05,0.28,0.05c0.29,0,0.58-0.18,0.69-0.47C13.04,19.88,14.92,15.29,19.47,14.38z"
		/>
	<pattern  id="SVGID_2_" xlink:href="#SVGID_3_" patternTransform="matrix(1 0 0 -1 -690.049 -17900.1406)">
	</pattern>
	<path class="st9" d="M56.66,24.75L42.5,12.96c-1.41-1.18-3.13-1.86-4.96-1.97l-14.09-0.85h-0.03h-0.03
		c-8.1,0-13.63,3.61-15.16,9.92L2.29,40.5C2,41.67,2.22,42.87,2.87,43.83l7.25,12.47l0.02,0.03l0.02,0.03
		c0.77,1.11,2.04,1.77,3.39,1.77h41.44c1.57,0,2.98-0.87,3.68-2.28l0.02-0.04l0.02-0.04l3.68-9.35c0.37-0.75,0.49-1.58,0.37-2.41
		l-0.01-0.04l-0.01-0.03l-3.26-14.56C59.08,27.58,58.07,25.94,56.66,24.75z M61.48,46.03l-3.59,9.11l-0.11,0.28
		c-0.53,1.06-1.61,1.72-2.79,1.72H13.55c-1.02,0-1.98-0.5-2.56-1.34l-0.38-0.66L3.72,43.3c-0.51-0.73-0.68-1.65-0.47-2.51l5.95-20.5
		c1.59-6.55,7.46-9.15,14.19-9.15l14.09,0.85c1.61,0.1,3.14,0.71,4.38,1.74l1.33,1.11l0,0l12.83,10.69
		c1.26,1.05,2.13,2.48,2.49,4.08l3.26,14.56C61.87,44.8,61.76,45.45,61.48,46.03z"/>
	<path class="st3" d="M23.39,11.14c-6.73,0-12.6,2.6-14.19,9.15C10.79,13.75,16.66,11.14,23.39,11.14z"/>
	<pattern  id="SVGID_4_" xlink:href="#SVGID_3_" patternTransform="matrix(1 0 0 -1 -690.049 -17900.1406)">
	</pattern>
	<path class="st10" d="M23.39,11.14c-6.73,0-12.6,2.6-14.19,9.15C10.79,13.75,16.66,11.14,23.39,11.14z"/>
</g>
</svg>
