<?xml version="1.0" encoding="utf-8"?>
<!-- Generator: Adobe Illustrator 23.0.6, SVG Export Plug-In . SVG Version: 6.00 Build 0)  -->
<svg version="1.1" id="Layer_1" xmlns="http://www.w3.org/2000/svg" xmlns:xlink="http://www.w3.org/1999/xlink" x="0px" y="0px"
	 viewBox="0 0 64 64" style="enable-background:new 0 0 64 64;" xml:space="preserve">
<style type="text/css">
	.st0{fill:#FF0055;}
	.st1{fill:#FF507E;}
	.st2{fill:#D30041;}
	.st3{fill:#8C0033;}
	.st4{fill:#FFFFFF;}
	.st5{fill:#120223;}
	.st6{fill:#5C00D3;}
	.st7{opacity:0.35;fill:#FFFFFF;}
</style>
<g>
	<path class="st0" d="M48.42,52.64c4.95-0.72,6.54-3.5,6.5-6.5c-0.03-2,0-7-2-9c-1.91-1.91-5.17-1.54-9.8-2.37
		c-1.2,1.36-2.94,2.22-4.9,2.22c-3.6,0-6.53-2.92-6.53-6.53c0-2.91,1.9-5.37,4.53-6.21c-0.11-1.18-0.05-2.13,0.2-2.62
		c0.5-1.01,4.35-4.54,6.77-6.8c-6.57-0.67-19.67-1.68-22.77,0.8c-1.63,1.3-3.12,5.12-4.34,9.42c1.04-0.7,2.3-1.11,3.65-1.11
		c3.6,0,6.52,2.92,6.52,6.52c0,3.6-2.92,6.53-6.52,6.53c-2.43,0-4.55-1.33-5.67-3.3c-0.73,3.73-1.14,6.74-1.14,7.45
		c0,1.66,2.76,10.93,3.7,14h10.9C35.41,54.01,44.96,53.14,48.42,52.64z"/>
	<path class="st1" d="M10.6,55.14h6.01c-0.94-3.07-3.7-12.34-3.7-14c0-0.71,0.42-3.72,1.14-7.45c-0.54-0.95-0.86-2.05-0.86-3.22
		c0-2.25,1.14-4.24,2.88-5.41c1.22-4.3,2.71-8.12,4.34-9.42c3.11-2.48,16.21-1.47,22.77-0.8c0,0,0,0,0,0l-1.33-1.11
		c-1.24-1.03-2.77-1.64-4.38-1.74l-14.09-0.85c-6.74,0-12.6,2.61-14.19,9.15L3.25,40.78c-0.21,0.87-0.04,1.78,0.47,2.51L10.6,55.14z
		 M11.63,19.36c0.09-0.22,2.21-5.39,7.55-6.46c0.4-0.08,0.8,0.18,0.88,0.59c0.08,0.41-0.18,0.8-0.59,0.88
		c-4.55,0.91-6.43,5.5-6.45,5.54c-0.12,0.29-0.4,0.47-0.7,0.47c-0.09,0-0.19-0.02-0.28-0.05C11.66,20.18,11.48,19.75,11.63,19.36z"
		/>
	<path class="st2" d="M36.42,21.64c-0.24,0.48-0.3,1.44-0.2,2.62c0.63-0.2,1.3-0.31,2-0.31c3.6,0,6.52,2.92,6.52,6.52
		c0,1.65-0.62,3.15-1.63,4.3c4.63,0.83,7.9,0.47,9.8,2.37c2,2,1.97,7,2,9c0.04,3-1.55,5.78-6.5,6.5c-3.46,0.5-13.01,1.37-20.9,2.5
		h30.37l3.59-9.12c0.29-0.57,0.39-1.22,0.29-1.86L58.51,29.6c-0.36-1.6-1.23-3.03-2.49-4.08L43.19,14.84c0,0,0,0,0,0
		C40.77,17.1,36.92,20.63,36.42,21.64z"/>
	<path class="st3" d="M16.62,55.14H10.6l0.38,0.66c0.58,0.84,1.54,1.34,2.56,1.34h41.44c1.18,0,2.26-0.67,2.79-1.72l0.11-0.28H27.52
		H16.62z"/>
	<path class="st4" d="M19.73,36.99c3.6,0,6.52-2.92,6.52-6.53c0-3.6-2.92-6.52-6.52-6.52c-1.35,0-2.61,0.41-3.65,1.11
		c-1.74,1.17-2.88,3.16-2.88,5.41c0,1.17,0.31,2.27,0.86,3.22C15.18,35.66,17.3,36.99,19.73,36.99z M19.73,27.21
		c1.8,0,3.26,1.46,3.26,3.26s-1.46,3.26-3.26,3.26s-3.26-1.46-3.26-3.26S17.93,27.21,19.73,27.21z"/>
	<path class="st5" d="M19.73,33.73c1.8,0,3.26-1.46,3.26-3.26s-1.46-3.26-3.26-3.26s-3.26,1.46-3.26,3.26S17.93,33.73,19.73,33.73z
		 M19.73,29.19c0.71,0,1.28,0.57,1.28,1.28c0,0.71-0.57,1.28-1.28,1.28c-0.71,0-1.28-0.57-1.28-1.28
		C18.45,29.76,19.02,29.19,19.73,29.19z"/>
	<path class="st4" d="M31.69,30.47c0,3.6,2.92,6.53,6.53,6.53c1.95,0,3.7-0.86,4.9-2.22c1.01-1.15,1.63-2.65,1.63-4.3
		c0-3.6-2.92-6.52-6.52-6.52c-0.7,0-1.37,0.11-2,0.31C33.59,25.1,31.69,27.56,31.69,30.47z M38.22,27.21c1.8,0,3.26,1.46,3.26,3.26
		s-1.46,3.26-3.26,3.26s-3.26-1.46-3.26-3.26S36.41,27.21,38.22,27.21z"/>
	<path class="st5" d="M38.22,33.73c1.8,0,3.26-1.46,3.26-3.26s-1.46-3.26-3.26-3.26s-3.26,1.46-3.26,3.26S36.41,33.73,38.22,33.73z
		 M38.22,29.19c0.71,0,1.28,0.57,1.28,1.28c0,0.71-0.57,1.28-1.28,1.28c-0.71,0-1.28-0.57-1.28-1.28
		C36.93,29.76,37.51,29.19,38.22,29.19z"/>
	<path class="st6" d="M19.73,31.75c0.71,0,1.28-0.57,1.28-1.28c0-0.71-0.57-1.28-1.28-1.28c-0.71,0-1.28,0.57-1.28,1.28
		C18.45,31.18,19.02,31.75,19.73,31.75z"/>
	<path class="st6" d="M36.93,30.47c0,0.71,0.57,1.28,1.28,1.28c0.71,0,1.28-0.57,1.28-1.28c0-0.71-0.57-1.28-1.28-1.28
		C37.51,29.19,36.93,29.76,36.93,30.47z"/>
	<path class="st1" d="M12.05,20.34c0.09,0.04,0.19,0.05,0.28,0.05c0.3,0,0.58-0.18,0.7-0.47c0.02-0.05,1.9-4.63,6.45-5.54
		c0.41-0.08,0.67-0.48,0.59-0.88c-0.08-0.41-0.48-0.67-0.88-0.59c-5.34,1.07-7.46,6.24-7.55,6.46
		C11.48,19.75,11.66,20.18,12.05,20.34z"/>
	<path class="st7" d="M12.05,20.34c0.09,0.04,0.19,0.05,0.28,0.05c0.3,0,0.58-0.18,0.7-0.47c0.02-0.05,1.9-4.63,6.45-5.54
		c0.41-0.08,0.67-0.48,0.59-0.88c-0.08-0.41-0.48-0.67-0.88-0.59c-5.34,1.07-7.46,6.24-7.55,6.46
		C11.48,19.75,11.66,20.18,12.05,20.34z"/>
</g>
</svg>
