<?xml version="1.0" encoding="utf-8"?>
<!-- Generator: Adobe Illustrator 23.0.6, SVG Export Plug-In . SVG Version: 6.00 Build 0)  -->
<svg version="1.1" id="Layer_1" xmlns="http://www.w3.org/2000/svg" xmlns:xlink="http://www.w3.org/1999/xlink" x="0px" y="0px"
	 viewBox="0 0 64 64" style="enable-background:new 0 0 64 64;" xml:space="preserve">
<style type="text/css">
	.st0{fill:none;}
	.st1{fill:#41A0A5;}
	.st2{fill:#4AC4D1;}
	.st3{fill:#61DBEF;}
</style>
<g>
	<path class="st0" d="M12.25,36.38c0.21,1.42,0.52,2.79,0.92,4.11c0.4,1.32,0.89,2.57,1.46,3.76c0.57,1.19,1.22,2.3,1.94,3.33
		c-0.51-0.72-0.97-1.5-1.4-2.3l8.45,8.45c-0.16-0.08-0.33-0.14-0.49-0.22c1.51,0.79,3.13,1.31,4.82,1.53
		c0.35-0.05,0.69-0.13,1.03-0.2L12.65,38.5C12.49,37.81,12.36,37.1,12.25,36.38z"/>
	<path class="st0" d="M18.94,50.4c-0.85-0.85-1.64-1.79-2.36-2.82C17.3,48.61,18.09,49.55,18.94,50.4z"/>
	<path class="st0" d="M30.32,9.5l11.53,11.53C39.47,15.31,35.3,11.05,30.32,9.5z"/>
	<path class="st0" d="M13.17,23.51c-0.4,1.32-0.71,2.69-0.92,4.11c0.09-0.64,0.22-1.27,0.35-1.89l24.52,24.52
		c0.69-0.7,1.34-1.47,1.94-2.3L13.55,22.43C13.42,22.79,13.29,23.14,13.17,23.51z"/>
	<path class="st0" d="M16.58,16.42c-0.72,1.03-1.37,2.14-1.94,3.33c0.05-0.11,0.11-0.2,0.16-0.31l25.91,25.91
		c0.5-0.92,0.96-1.87,1.36-2.88L16.36,16.76C16.44,16.65,16.5,16.53,16.58,16.42z"/>
	<path class="st0" d="M23.15,10.49c-0.07,0.04-0.13,0.08-0.2,0.12l21.04,21.04c-0.02-1.6-0.17-3.16-0.42-4.67l-17.6-17.6
		c0.66-0.19,1.32-0.34,2-0.43C26.28,9.18,24.66,9.7,23.15,10.49z"/>
	<path class="st0" d="M11.93,32c0,0.54,0.03,1.07,0.06,1.6l20.18,20.18c0.93-0.43,1.82-0.96,2.67-1.58L12.05,29.42
		C11.98,30.27,11.93,31.13,11.93,32z"/>
	<path class="st0" d="M18.94,13.6c-0.85,0.85-1.64,1.79-2.36,2.82c0.51-0.73,1.07-1.4,1.65-2.04l24.86,24.86
		c0.29-1.15,0.52-2.35,0.67-3.57L20.4,12.31C19.89,12.71,19.41,13.14,18.94,13.6z"/>
	<path class="st1" d="M60.97,32c0-15.74-10.37-28.5-23.16-28.5h-9.85v0.09C39.92,4.71,49.34,17,49.34,32
		c0,15-9.42,27.29-21.38,28.41v0.09h9.85C50.61,60.5,60.97,47.74,60.97,32z"/>
	<path class="st2" d="M49.34,32c0-15-9.42-27.29-21.38-28.41c-0.59-0.06-1.18-0.09-1.78-0.09C13.39,3.5,3.03,16.26,3.03,32
		c0,15.74,10.37,28.5,23.16,28.5c0.6,0,1.19-0.04,1.78-0.09C39.92,59.29,49.34,47,49.34,32z M8.37,32
		c0-12.77,7.99-23.16,17.81-23.16c0.6,0,1.2,0.04,1.78,0.12c0.8,0.1,1.58,0.3,2.35,0.54c4.98,1.55,9.15,5.81,11.53,11.53
		c0.77,1.85,1.35,3.84,1.71,5.95c0.26,1.51,0.41,3.07,0.42,4.67c0,0.12,0.01,0.23,0.01,0.35c0,1.25-0.09,2.47-0.24,3.67
		c-0.15,1.23-0.38,2.42-0.67,3.57c-0.28,1.11-0.61,2.2-1.02,3.23c-0.4,1.01-0.86,1.97-1.36,2.88c-0.5,0.92-1.05,1.79-1.64,2.6
		c-0.6,0.83-1.25,1.6-1.94,2.3c-0.72,0.73-1.49,1.38-2.29,1.96c-0.85,0.62-1.74,1.14-2.67,1.58c-1.02,0.48-2.08,0.83-3.18,1.06
		c-0.34,0.07-0.68,0.15-1.03,0.2c-0.59,0.08-1.18,0.12-1.78,0.12C16.36,55.16,8.37,44.77,8.37,32z"/>
	<path class="st1" d="M26.18,55.16c0.6,0,1.2-0.04,1.78-0.12c-1.69-0.22-3.3-0.74-4.82-1.53c-1.51-0.79-2.93-1.84-4.21-3.11
		c-0.85-0.85-1.64-1.79-2.36-2.82c-0.72-1.03-1.37-2.14-1.94-3.33c-0.57-1.19-1.06-2.44-1.46-3.76c-0.4-1.32-0.71-2.69-0.92-4.11
		c-0.13-0.91-0.21-1.84-0.26-2.78c-0.03-0.53-0.06-1.06-0.06-1.6c0-0.87,0.05-1.73,0.12-2.58c0.05-0.61,0.11-1.21,0.2-1.8
		c0.21-1.42,0.52-2.79,0.92-4.11c0.11-0.37,0.25-0.72,0.37-1.08c0.32-0.92,0.68-1.83,1.09-2.68c0.57-1.19,1.22-2.3,1.94-3.33
		c0.72-1.03,1.51-1.97,2.36-2.82c0.47-0.46,0.95-0.89,1.45-1.29c0.81-0.65,1.66-1.22,2.55-1.7c0.07-0.04,0.13-0.08,0.2-0.12
		c1.51-0.79,3.13-1.31,4.82-1.53c-0.59-0.08-1.18-0.12-1.78-0.12C16.36,8.84,8.37,19.23,8.37,32S16.36,55.16,26.18,55.16z"/>
	<path class="st3" d="M43.56,26.98c-0.36-2.11-0.94-4.1-1.71-5.95L30.32,9.5c-0.77-0.24-1.55-0.44-2.35-0.54
		c-0.68,0.09-1.35,0.24-2,0.43L43.56,26.98z"/>
	<path class="st3" d="M20.4,12.31l23.36,23.36c0.15-1.2,0.24-2.42,0.24-3.67c0-0.12-0.01-0.23-0.01-0.35L22.94,10.61
		C22.06,11.09,21.2,11.66,20.4,12.31z"/>
	<path class="st3" d="M16.58,16.42c-0.08,0.11-0.14,0.23-0.22,0.34l25.71,25.71c0.4-1.03,0.73-2.11,1.02-3.23L18.23,14.38
		C17.65,15.02,17.09,15.69,16.58,16.42z"/>
	<path class="st3" d="M14.63,19.75c-0.41,0.85-0.76,1.76-1.09,2.68l25.52,25.52c0.6-0.81,1.14-1.68,1.64-2.6L14.8,19.44
		C14.75,19.54,14.69,19.64,14.63,19.75z"/>
	<path class="st3" d="M12.25,27.62c-0.09,0.59-0.15,1.2-0.2,1.8l22.79,22.79c0.8-0.58,1.57-1.23,2.29-1.96L12.6,25.73
		C12.47,26.35,12.35,26.98,12.25,27.62z"/>
	<path class="st3" d="M12.25,36.38c0.11,0.72,0.24,1.42,0.39,2.12l16.34,16.34c1.1-0.23,2.16-0.58,3.18-1.06L11.99,33.6
		C12.04,34.54,12.12,35.48,12.25,36.38z"/>
	<path class="st3" d="M15.18,45.27c0.43,0.8,0.89,1.58,1.4,2.3c0.72,1.03,1.51,1.97,2.36,2.82c1.28,1.27,2.69,2.32,4.21,3.11
		c0.16,0.08,0.33,0.14,0.49,0.22L15.18,45.27z"/>
</g>
</svg>
