<?xml version="1.0" encoding="utf-8"?>
<!-- Generator: Adobe Illustrator 23.0.6, SVG Export Plug-In . SVG Version: 6.00 Build 0)  -->
<!DOCTYPE svg PUBLIC "-//W3C//DTD SVG 1.1//EN" "http://www.w3.org/Graphics/SVG/1.1/DTD/svg11.dtd" [
	<!ENTITY ns_extend "http://ns.adobe.com/Extensibility/1.0/">
	<!ENTITY ns_ai "http://ns.adobe.com/AdobeIllustrator/10.0/">
	<!ENTITY ns_graphs "http://ns.adobe.com/Graphs/1.0/">
	<!ENTITY ns_vars "http://ns.adobe.com/Variables/1.0/">
	<!ENTITY ns_imrep "http://ns.adobe.com/ImageReplacement/1.0/">
	<!ENTITY ns_sfw "http://ns.adobe.com/SaveForWeb/1.0/">
	<!ENTITY ns_custom "http://ns.adobe.com/GenericCustomNamespace/1.0/">
	<!ENTITY ns_adobe_xpath "http://ns.adobe.com/XPath/1.0/">
]>
<svg version="1.1" id="Layer_1" xmlns:x="&ns_extend;" xmlns:i="&ns_ai;" xmlns:graph="&ns_graphs;"
	 xmlns="http://www.w3.org/2000/svg" xmlns:xlink="http://www.w3.org/1999/xlink" x="0px" y="0px" viewBox="0 0 834 642"
	 style="enable-background:new 0 0 834 642;" xml:space="preserve">
<style type="text/css">
	.st0{fill:#EDEAF4;}
</style>
<metadata>
	<sfw  xmlns="&ns_sfw;">
		<slices></slices>
		<sliceSourceBounds  bottomLeftOrigin="true" height="642" width="834" x="0" y="-768"></sliceSourceBounds>
	</sfw>
</metadata>
<g>
	<circle class="st0" cx="1" cy="1" r="1"/>
	<circle class="st0" cx="65" cy="1" r="1"/>
	<circle class="st0" cx="129" cy="1" r="1"/>
	<circle class="st0" cx="193" cy="1" r="1"/>
	<circle class="st0" cx="257" cy="1" r="1"/>
	<circle class="st0" cx="321" cy="1" r="1"/>
	<circle class="st0" cx="385" cy="1" r="1"/>
	<circle class="st0" cx="449" cy="1" r="1"/>
	<circle class="st0" cx="513" cy="1" r="1"/>
	<circle class="st0" cx="577" cy="1" r="1"/>
	<circle class="st0" cx="641" cy="1" r="1"/>
	<circle class="st0" cx="705" cy="1" r="1"/>
	<circle class="st0" cx="769" cy="1" r="1"/>
	<circle class="st0" cx="833" cy="1" r="1"/>
	<circle class="st0" cx="1" cy="65" r="1"/>
	<circle class="st0" cx="65" cy="65" r="1"/>
	<circle class="st0" cx="129" cy="65" r="1"/>
	<circle class="st0" cx="193" cy="65" r="1"/>
	<circle class="st0" cx="257" cy="65" r="1"/>
	<circle class="st0" cx="321" cy="65" r="1"/>
	<circle class="st0" cx="385" cy="65" r="1"/>
	<circle class="st0" cx="449" cy="65" r="1"/>
	<circle class="st0" cx="513" cy="65" r="1"/>
	<circle class="st0" cx="577" cy="65" r="1"/>
	<circle class="st0" cx="641" cy="65" r="1"/>
	<circle class="st0" cx="705" cy="65" r="1"/>
	<circle class="st0" cx="769" cy="65" r="1"/>
	<circle class="st0" cx="833" cy="65" r="1"/>
	<circle class="st0" cx="1" cy="129" r="1"/>
	<circle class="st0" cx="65" cy="129" r="1"/>
	<circle class="st0" cx="129" cy="129" r="1"/>
	<circle class="st0" cx="193" cy="129" r="1"/>
	<circle class="st0" cx="257" cy="129" r="1"/>
	<circle class="st0" cx="321" cy="129" r="1"/>
	<circle class="st0" cx="385" cy="129" r="1"/>
	<circle class="st0" cx="449" cy="129" r="1"/>
	<circle class="st0" cx="513" cy="129" r="1"/>
	<circle class="st0" cx="577" cy="129" r="1"/>
	<circle class="st0" cx="641" cy="129" r="1"/>
	<circle class="st0" cx="705" cy="129" r="1"/>
	<circle class="st0" cx="769" cy="129" r="1"/>
	<circle class="st0" cx="833" cy="129" r="1"/>
	<circle class="st0" cx="1" cy="193" r="1"/>
	<circle class="st0" cx="65" cy="193" r="1"/>
	<circle class="st0" cx="129" cy="193" r="1"/>
	<circle class="st0" cx="193" cy="193" r="1"/>
	<circle class="st0" cx="257" cy="193" r="1"/>
	<circle class="st0" cx="321" cy="193" r="1"/>
	<circle class="st0" cx="385" cy="193" r="1"/>
	<circle class="st0" cx="449" cy="193" r="1"/>
	<circle class="st0" cx="513" cy="193" r="1"/>
	<circle class="st0" cx="577" cy="193" r="1"/>
	<circle class="st0" cx="641" cy="193" r="1"/>
	<circle class="st0" cx="705" cy="193" r="1"/>
	<circle class="st0" cx="769" cy="193" r="1"/>
	<circle class="st0" cx="833" cy="193" r="1"/>
	<circle class="st0" cx="1" cy="257" r="1"/>
	<circle class="st0" cx="65" cy="257" r="1"/>
	<circle class="st0" cx="129" cy="257" r="1"/>
	<circle class="st0" cx="193" cy="257" r="1"/>
	<circle class="st0" cx="257" cy="257" r="1"/>
	<circle class="st0" cx="321" cy="257" r="1"/>
	<circle class="st0" cx="385" cy="257" r="1"/>
	<circle class="st0" cx="449" cy="257" r="1"/>
	<circle class="st0" cx="513" cy="257" r="1"/>
	<circle class="st0" cx="577" cy="257" r="1"/>
	<circle class="st0" cx="641" cy="257" r="1"/>
	<circle class="st0" cx="705" cy="257" r="1"/>
	<circle class="st0" cx="769" cy="257" r="1"/>
	<circle class="st0" cx="833" cy="257" r="1"/>
	<circle class="st0" cx="1" cy="321" r="1"/>
	<circle class="st0" cx="65" cy="321" r="1"/>
	<circle class="st0" cx="129" cy="321" r="1"/>
	<circle class="st0" cx="193" cy="321" r="1"/>
	<circle class="st0" cx="257" cy="321" r="1"/>
	<circle class="st0" cx="321" cy="321" r="1"/>
	<circle class="st0" cx="385" cy="321" r="1"/>
	<circle class="st0" cx="449" cy="321" r="1"/>
	<circle class="st0" cx="513" cy="321" r="1"/>
	<circle class="st0" cx="577" cy="321" r="1"/>
	<circle class="st0" cx="641" cy="321" r="1"/>
	<circle class="st0" cx="705" cy="321" r="1"/>
	<circle class="st0" cx="769" cy="321" r="1"/>
	<circle class="st0" cx="833" cy="321" r="1"/>
	<circle class="st0" cx="1" cy="385" r="1"/>
	<circle class="st0" cx="65" cy="385" r="1"/>
	<circle class="st0" cx="129" cy="385" r="1"/>
	<circle class="st0" cx="193" cy="385" r="1"/>
	<circle class="st0" cx="257" cy="385" r="1"/>
	<circle class="st0" cx="321" cy="385" r="1"/>
	<circle class="st0" cx="385" cy="385" r="1"/>
	<circle class="st0" cx="449" cy="385" r="1"/>
	<circle class="st0" cx="513" cy="385" r="1"/>
	<circle class="st0" cx="577" cy="385" r="1"/>
	<circle class="st0" cx="641" cy="385" r="1"/>
	<circle class="st0" cx="705" cy="385" r="1"/>
	<circle class="st0" cx="769" cy="385" r="1"/>
	<circle class="st0" cx="833" cy="385" r="1"/>
	<circle class="st0" cx="1" cy="449" r="1"/>
	<circle class="st0" cx="65" cy="449" r="1"/>
	<circle class="st0" cx="129" cy="449" r="1"/>
	<circle class="st0" cx="193" cy="449" r="1"/>
	<circle class="st0" cx="257" cy="449" r="1"/>
	<circle class="st0" cx="321" cy="449" r="1"/>
	<circle class="st0" cx="385" cy="449" r="1"/>
	<circle class="st0" cx="449" cy="449" r="1"/>
	<circle class="st0" cx="513" cy="449" r="1"/>
	<circle class="st0" cx="577" cy="449" r="1"/>
	<circle class="st0" cx="641" cy="449" r="1"/>
	<circle class="st0" cx="705" cy="449" r="1"/>
	<circle class="st0" cx="769" cy="449" r="1"/>
	<circle class="st0" cx="833" cy="449" r="1"/>
	<circle class="st0" cx="1" cy="513" r="1"/>
	<circle class="st0" cx="65" cy="513" r="1"/>
	<circle class="st0" cx="129" cy="513" r="1"/>
	<circle class="st0" cx="193" cy="513" r="1"/>
	<circle class="st0" cx="257" cy="513" r="1"/>
	<circle class="st0" cx="321" cy="513" r="1"/>
	<circle class="st0" cx="385" cy="513" r="1"/>
	<circle class="st0" cx="449" cy="513" r="1"/>
	<circle class="st0" cx="513" cy="513" r="1"/>
	<circle class="st0" cx="577" cy="513" r="1"/>
	<circle class="st0" cx="641" cy="513" r="1"/>
	<circle class="st0" cx="705" cy="513" r="1"/>
	<circle class="st0" cx="769" cy="513" r="1"/>
	<circle class="st0" cx="833" cy="513" r="1"/>
	<circle class="st0" cx="1" cy="577" r="1"/>
	<circle class="st0" cx="65" cy="577" r="1"/>
	<circle class="st0" cx="129" cy="577" r="1"/>
	<circle class="st0" cx="193" cy="577" r="1"/>
	<circle class="st0" cx="257" cy="577" r="1"/>
	<circle class="st0" cx="321" cy="577" r="1"/>
	<circle class="st0" cx="385" cy="577" r="1"/>
	<circle class="st0" cx="449" cy="577" r="1"/>
	<circle class="st0" cx="513" cy="577" r="1"/>
	<circle class="st0" cx="577" cy="577" r="1"/>
	<circle class="st0" cx="641" cy="577" r="1"/>
	<circle class="st0" cx="705" cy="577" r="1"/>
	<circle class="st0" cx="769" cy="577" r="1"/>
	<circle class="st0" cx="833" cy="577" r="1"/>
	<circle class="st0" cx="1" cy="641" r="1"/>
	<circle class="st0" cx="65" cy="641" r="1"/>
	<circle class="st0" cx="129" cy="641" r="1"/>
	<circle class="st0" cx="193" cy="641" r="1"/>
	<circle class="st0" cx="257" cy="641" r="1"/>
	<circle class="st0" cx="321" cy="641" r="1"/>
	<circle class="st0" cx="385" cy="641" r="1"/>
	<circle class="st0" cx="449" cy="641" r="1"/>
	<circle class="st0" cx="513" cy="641" r="1"/>
	<circle class="st0" cx="577" cy="641" r="1"/>
	<circle class="st0" cx="641" cy="641" r="1"/>
	<circle class="st0" cx="705" cy="641" r="1"/>
	<circle class="st0" cx="769" cy="641" r="1"/>
	<circle class="st0" cx="833" cy="641" r="1"/>
</g>
</svg>
