<?xml version="1.0" encoding="utf-8"?>
<!-- Generator: Adobe Illustrator 23.0.6, SVG Export Plug-In . SVG Version: 6.00 Build 0)  -->
<!DOCTYPE svg PUBLIC "-//W3C//DTD SVG 1.1//EN" "http://www.w3.org/Graphics/SVG/1.1/DTD/svg11.dtd" [
	<!ENTITY ns_extend "http://ns.adobe.com/Extensibility/1.0/">
	<!ENTITY ns_ai "http://ns.adobe.com/AdobeIllustrator/10.0/">
	<!ENTITY ns_graphs "http://ns.adobe.com/Graphs/1.0/">
	<!ENTITY ns_vars "http://ns.adobe.com/Variables/1.0/">
	<!ENTITY ns_imrep "http://ns.adobe.com/ImageReplacement/1.0/">
	<!ENTITY ns_sfw "http://ns.adobe.com/SaveForWeb/1.0/">
	<!ENTITY ns_custom "http://ns.adobe.com/GenericCustomNamespace/1.0/">
	<!ENTITY ns_adobe_xpath "http://ns.adobe.com/XPath/1.0/">
]>
<svg version="1.1" id="Layer_1" xmlns:x="&ns_extend;" xmlns:i="&ns_ai;" xmlns:graph="&ns_graphs;"
	 xmlns="http://www.w3.org/2000/svg" xmlns:xlink="http://www.w3.org/1999/xlink" x="0px" y="0px" viewBox="0 0 841.9 595.3"
	 enable-background="new 0 0 841.9 595.3" xml:space="preserve">
<metadata>
	<sfw  xmlns="&ns_sfw;">
		<slices></slices>
		<sliceSourceBounds  bottomLeftOrigin="true" height="228" width="639.8" x="101" y="-411.6"></sliceSourceBounds>
	</sfw>
</metadata>
<g>
	<path d="M205.1,271h-61.8c-6.5,0-11.8-5.3-11.8-11.8v-34.4c0-6.5,5.3-11.8,11.8-11.8h61.8c0.8-12.2,6.7-22.8,15.4-29.4h-90.4
		c-16.1,0-29.1,14.4-29.1,32.2v52.5c0,17.8,13,32.2,29.1,32.2h90.4C211.8,293.8,205.9,283.2,205.1,271z"/>
	<polygon points="521.5,183.6 328.4,183.6 328.4,213.1 409.7,213.1 409.7,300.4 440.4,300.4 440.4,213.1 521.5,213.1 	"/>
	<rect x="537.2" y="183.6" width="6.9" height="116.8"/>
	<path d="M569,208.3h-7.8c-1.3,0-2.3-0.7-3-2.1c-0.6-1.1-0.9-2.4-0.9-3.8v-10.9c0-1.5,0.3-2.8,0.9-3.9c0.7-1.4,1.7-2.1,3-2.1h7.8
		v1.9h-6c-0.8,0-1.5,0.5-1.9,1.5c-0.4,0.8-0.6,1.7-0.6,2.6v10.9c0,0.9,0.2,1.8,0.6,2.6c0.5,1,1.1,1.5,1.9,1.5h6V208.3z"/>
	<path d="M586.3,195.5c0,1.2-0.2,2.3-0.6,3.3c-0.6,1.3-1.4,1.9-2.5,1.9h-4.8v-1.9h2.9c0.7,0,1.2-0.5,1.5-1.4
		c0.2-0.7,0.3-1.4,0.3-2.2c0-0.7-0.1-1.3-0.2-1.8c-0.2-0.8-0.5-1.2-1-1.2h-3.4c-0.9,0-1.6,0.4-1.9,1.2c-0.2,0.5-0.3,1.3-0.3,2.5v6.9
		c0,1.3,0.1,2.2,0.4,2.7c0.4,0.7,1.2,1,2.4,1c-0.5,0,1.5,0,6.1,0v1.9H577c-1.8,0-2.9-0.6-3.6-1.7c-0.4-0.8-0.7-2.2-0.7-4v-6.7
		c0-1.9,0.2-3.2,0.7-4c0.6-1.1,1.8-1.7,3.6-1.7h6.3c1.1,0,1.9,0.7,2.5,2C586.1,193.1,586.3,194.3,586.3,195.5z"/>
	<path d="M604.1,208.3h-3.4v-12.2c0-1.2-0.1-2.1-0.2-2.6c-0.3-0.9-0.9-1.4-1.9-1.4h-4.8v16.2h-3.5v-18.1h9.6c1.8,0,2.9,0.5,3.5,1.4
		c0.5,0.7,0.7,2,0.7,3.9V208.3z"/>
	<path d="M616.8,192.1h-4.5v11.1c0,1.4,0.2,2.3,0.7,2.7c0.3,0.3,1.2,0.5,2.6,0.5v1.9h-2.5c-1.8,0-2.9-0.3-3.4-0.9
		c-0.5-0.6-0.8-1.8-0.8-3.6v-18.4h3.5v4.8h4.5V192.1z"/>
	<path d="M628.1,191.8h-1.7c-1.4,0-2.3,0.3-2.7,0.9c-0.3,0.4-0.4,1.4-0.4,3.1v12.4h-3.5v-12.9c0-3.6,2-5.5,5.9-5.5h2.4V191.8z"/>
	<path d="M644.6,195.5c0,1.2-0.2,2.3-0.6,3.3c-0.6,1.3-1.4,1.9-2.5,1.9h-4.8v-1.9h2.9c0.7,0,1.2-0.5,1.5-1.4
		c0.2-0.7,0.3-1.4,0.3-2.2c0-0.7-0.1-1.3-0.2-1.8c-0.2-0.8-0.5-1.2-1-1.2h-3.4c-0.9,0-1.6,0.4-1.9,1.2c-0.2,0.5-0.3,1.3-0.3,2.5v6.9
		c0,1.3,0.1,2.2,0.4,2.7c0.4,0.7,1.2,1,2.4,1c-0.5,0,1.5,0,6.1,0v1.9h-8.1c-1.8,0-2.9-0.6-3.6-1.7c-0.4-0.8-0.7-2.2-0.7-4v-6.7
		c0-1.9,0.2-3.2,0.7-4c0.6-1.1,1.8-1.7,3.6-1.7h6.3c1.1,0,1.9,0.7,2.5,2C644.4,193.1,644.6,194.3,644.6,195.5z"/>
	<path d="M684.4,202.6c0,1.9-0.2,3.2-0.7,4c-0.6,1.1-1.8,1.7-3.5,1.7h-6.1c-1.7,0-2.9-0.6-3.5-1.7c-0.5-0.8-0.7-2.2-0.7-4v-6.7
		c0-1.9,0.2-3.2,0.7-4c0.6-1.1,1.8-1.7,3.5-1.7h6.1c1.7,0,2.9,0.6,3.5,1.7c0.5,0.8,0.7,2.1,0.7,4V202.6z M680.9,195.8
		c0-1.2-0.1-2-0.3-2.5c-0.3-0.8-1-1.2-1.9-1.2h-3.1c-0.9,0-1.6,0.4-1.9,1.2c-0.2,0.5-0.3,1.3-0.3,2.5v6.5c0,1,0.2,1.9,0.7,2.7
		c0.5,0.9,1.2,1.4,2.1,1.4h2c1.2,0,2-0.3,2.4-1c0.3-0.5,0.4-1.4,0.4-2.7V195.8z"/>
	<path d="M698.2,191.8h-1.7c-1.4,0-2.3,0.3-2.7,0.9c-0.3,0.4-0.4,1.4-0.4,3.1v12.4h-3.5v-12.9c0-3.6,2-5.5,5.9-5.5h2.4V191.8z"/>
	<path d="M573,248.2c0,1.5-0.3,2.7-0.8,3.8c-0.7,1.4-1.7,2.1-3,2.1h-2.2l1,2.4h-2.3l-1-2.4H561c-1.3,0-2.3-0.7-3-2.1
		c-0.6-1.1-0.8-2.4-0.8-3.8v-10.9c0-1.5,0.3-2.8,0.8-3.9c0.7-1.4,1.7-2.1,3-2.1h8.1c1.3,0,2.3,0.7,3,2.1c0.6,1.2,0.8,2.5,0.8,3.9
		V248.2z M569.8,248.2v-10.9c0-1-0.2-1.8-0.5-2.6c-0.5-1-1.1-1.5-2-1.5h-4.4c-0.9,0-1.5,0.5-2,1.5c-0.3,0.8-0.5,1.7-0.5,2.6v10.9
		c0,0.9,0.2,1.8,0.5,2.6c0.5,1,1.1,1.5,2,1.5h4.4c0.9,0,1.5-0.5,2-1.5C569.6,250,569.8,249.1,569.8,248.2z"/>
	<path d="M591,254.1h-9.7c-1.8,0-2.9-0.5-3.5-1.4c-0.5-0.7-0.7-2-0.7-3.9V236h3.4v12.1c0,1.2,0.1,2.1,0.3,2.6
		c0.3,0.9,0.9,1.4,1.9,1.4h4.8V236h3.5V254.1z"/>
	<path d="M607.9,254.1h-9.6c-1.2,0-2.2-0.6-2.8-1.9c-0.5-1-0.8-2.2-0.8-3.5c0-1.3,0.3-2.5,0.8-3.6c0.6-1.3,1.6-1.9,2.8-1.9h4.6v1.9
		c-0.3,0-0.7,0-1.2,0c-0.5,0-0.9,0-1,0c-1,0-1.7,0.2-2,0.6c-0.4,0.5-0.7,1.4-0.7,2.8c0,0.8,0.1,1.5,0.3,2.2c0.3,1,0.7,1.5,1.3,1.5
		h4.9V241c0-1-0.1-1.7-0.3-2.1c-0.3-0.6-1-0.9-1.9-0.9h-4.4V236h5.8c1.8,0,2.9,0.5,3.5,1.4c0.5,0.7,0.7,2,0.7,3.9V254.1z"/>
	<path d="M626.4,254.1H623v-12.2c0-1.2-0.1-2.1-0.2-2.6c-0.3-0.9-0.9-1.4-1.9-1.4H616v16.2h-3.5V236h9.6c1.8,0,2.9,0.5,3.5,1.4
		c0.5,0.7,0.7,2,0.7,3.9V254.1z"/>
	<path d="M639.1,237.9h-4.5V249c0,1.4,0.2,2.3,0.7,2.7c0.3,0.3,1.2,0.5,2.6,0.5v1.9h-2.5c-1.8,0-2.9-0.3-3.4-0.9
		c-0.5-0.6-0.8-1.8-0.8-3.6v-18.4h3.5v4.8h4.5V237.9z"/>
	<path d="M656.4,254.1h-9.7c-1.8,0-2.9-0.5-3.5-1.4c-0.5-0.7-0.7-2-0.7-3.9V236h3.4v12.1c0,1.2,0.1,2.1,0.3,2.6
		c0.3,0.9,0.9,1.4,1.9,1.4h4.8V236h3.5V254.1z"/>
	<path d="M683,254.1h-3.4v-12.2c0-1.2-0.1-2.1-0.2-2.6c-0.3-0.9-0.9-1.4-1.9-1.4h-3.6v16.2h-3.4v-16.2h-5.8v16.2h-3.5V236h17.7
		c1.8,0,2.9,0.5,3.5,1.4c0.5,0.7,0.7,2,0.7,3.9V254.1z"/>
	<path d="M570.1,279h-4.9v21.1h-3.5V279h-4.5v-1.9h12.9V279z"/>
	<path d="M584.8,287.3c0,1.2-0.2,2.3-0.6,3.3c-0.6,1.3-1.4,1.9-2.5,1.9h-4.8v-1.9h2.9c0.7,0,1.2-0.5,1.5-1.4
		c0.2-0.7,0.3-1.4,0.3-2.2c0-0.7-0.1-1.3-0.2-1.8c-0.2-0.8-0.5-1.2-1-1.2h-3.4c-0.9,0-1.6,0.4-1.9,1.2c-0.2,0.5-0.3,1.3-0.3,2.5v6.9
		c0,1.3,0.1,2.2,0.4,2.7c0.4,0.7,1.2,1,2.4,1c-0.5,0,1.5,0,6.1,0v1.9h-8.1c-1.8,0-2.9-0.6-3.6-1.7c-0.4-0.8-0.7-2.2-0.7-4v-6.7
		c0-1.9,0.2-3.2,0.7-4c0.6-1.1,1.8-1.7,3.6-1.7h6.3c1.1,0,1.9,0.7,2.5,2C584.6,285,584.8,286.1,584.8,287.3z"/>
	<path d="M599.3,300.1h-6.9c-1.8,0-2.9-0.6-3.6-1.7c-0.4-0.8-0.7-2.2-0.7-4v-6.7c0-1.9,0.2-3.2,0.7-4c0.6-1.1,1.8-1.7,3.6-1.7h6.9
		v1.9h-5.4c-0.9,0-1.6,0.4-1.9,1.3c-0.2,0.5-0.3,1.3-0.3,2.5v7.1c0,1.3,0.1,2.1,0.4,2.6c0.4,0.6,1.2,0.9,2.4,0.9
		c0.6,0,1.4,0.1,2.4,0c1.4,0,2.2,0,2.4,0V300.1z"/>
	<path d="M617.1,300.1h-3.4v-12.2c0-1.2-0.1-2.1-0.2-2.6c-0.3-0.9-0.9-1.4-1.9-1.4h-4.8v16.2h-3.5v-22.9h3.5v4.8h6.2
		c1.8,0,2.9,0.5,3.5,1.4c0.5,0.7,0.7,2,0.7,3.9V300.1z"/>
	<path d="M635.2,300.1h-3.4v-12.2c0-1.2-0.1-2.1-0.2-2.6c-0.3-0.9-0.9-1.4-1.9-1.4h-4.8v16.2h-3.5V282h9.6c1.8,0,2.9,0.5,3.5,1.4
		c0.5,0.7,0.7,2,0.7,3.9V300.1z"/>
	<path d="M653.9,294.4c0,1.9-0.2,3.2-0.7,4c-0.6,1.1-1.8,1.7-3.5,1.7h-6c-1.7,0-2.9-0.6-3.5-1.7c-0.5-0.8-0.7-2.2-0.7-4v-6.7
		c0-1.9,0.2-3.2,0.7-4c0.6-1.1,1.8-1.7,3.5-1.7h6c1.7,0,2.9,0.6,3.5,1.7c0.5,0.8,0.7,2.1,0.7,4V294.4z M650.4,287.6
		c0-1.2-0.1-2-0.3-2.5c-0.3-0.8-1-1.2-1.9-1.2h-3.1c-0.9,0-1.6,0.4-1.9,1.2c-0.2,0.5-0.3,1.3-0.3,2.5v6.5c0,1,0.2,1.9,0.7,2.7
		c0.5,0.9,1.2,1.4,2.1,1.4h2c1.2,0,2-0.3,2.4-1c0.3-0.5,0.4-1.4,0.4-2.7V287.6z"/>
	<path d="M661.5,300.1H658v-22.9h3.5V300.1z"/>
	<path d="M680.1,294.4c0,1.9-0.2,3.2-0.7,4c-0.6,1.1-1.8,1.7-3.5,1.7h-6.1c-1.7,0-2.9-0.6-3.5-1.7c-0.5-0.8-0.7-2.2-0.7-4v-6.7
		c0-1.9,0.2-3.2,0.7-4c0.6-1.1,1.8-1.7,3.5-1.7h6.1c1.7,0,2.9,0.6,3.5,1.7c0.5,0.8,0.7,2.1,0.7,4V294.4z M676.6,287.6
		c0-1.2-0.1-2-0.3-2.5c-0.3-0.8-1-1.2-1.9-1.2h-3.1c-0.9,0-1.6,0.4-1.9,1.2c-0.2,0.5-0.3,1.3-0.3,2.5v6.5c0,1,0.2,1.9,0.7,2.7
		c0.5,0.9,1.2,1.4,2.1,1.4h2c1.2,0,2-0.3,2.4-1c0.3-0.5,0.4-1.4,0.4-2.7V287.6z"/>
	<path d="M698,302c0,1.9,0.4,3.2,0,4c-0.6,1.1-1.8,1.7-3.5,1.7h-5v-1.9c0.7,0,1.3,0,1.8,0c1.5,0,2.6-0.2,3-0.5
		c0.6-0.4,0.3-1.4,0.3-3l0-18.4c-0.3,0-0.9,0-1.7,0c-0.7,0-1.3,0-1.7,0c-1.8,0-2.8,0.4-3.2,1.3c-0.2,0.4-0.3,1.7-0.2,3.7l0,5.6
		c0,1.1,0.1,1.9,0.3,2.4c0.3,0.8,0.9,1.2,1.9,1.2h3v1.9h-4.5c-1.8,0-2.9-0.6-3.6-1.7c-0.5-0.8-0.7-2.2-0.7-4v-6.7
		c0-1.9,0.2-3.2,0.7-4c0.6-1.1,1.8-1.7,3.5-1.7h9.5V302z"/>
	<path d="M706.4,280.1h-3.5v-2.9h3.5V280.1z M706.4,300.1h-3.5V282h3.5V300.1z"/>
	<path d="M724.5,287.3c0,1.2-0.2,2.3-0.6,3.3c-0.6,1.3-1.4,1.9-2.5,1.9h-4.8v-1.9h2.9c0.7,0,1.2-0.5,1.5-1.4
		c0.2-0.7,0.3-1.4,0.3-2.2c0-0.7-0.1-1.3-0.2-1.8c-0.2-0.8-0.5-1.2-1-1.2h-3.4c-0.9,0-1.6,0.4-1.9,1.2c-0.2,0.5-0.3,1.3-0.3,2.5v6.9
		c0,1.3,0.1,2.2,0.4,2.7c0.4,0.7,1.2,1,2.4,1c-0.5,0,1.5,0,6,0v1.9h-8.1c-1.8,0-2.9-0.6-3.6-1.7c-0.4-0.8-0.7-2.2-0.7-4v-6.7
		c0-1.9,0.2-3.2,0.7-4c0.6-1.1,1.8-1.7,3.6-1.7h6.3c1.1,0,1.9,0.7,2.5,2C724.3,285,724.5,286.1,724.5,287.3z"/>
	<path d="M740.9,295.1c0,1.2-0.2,2.2-0.5,3.1c-0.5,1.2-1.2,1.9-2.2,1.9H729v-1.9h7.3c0.6,0,1-0.4,1.3-1.1c0.2-0.6,0.3-1.2,0.3-1.8
		c0-0.7-0.1-1.3-0.3-1.8c-0.3-0.8-0.7-1.1-1.3-1.1h-5.4c-1.1,0-1.9-0.7-2.5-2c-0.5-1-0.7-2.2-0.7-3.4c0-1.3,0.2-2.3,0.7-3.2
		c0.6-1.1,1.4-1.7,2.6-1.7h7.6v1.9h-6.4c-0.5,0-0.9,0.4-1.1,1.1c-0.2,0.5-0.3,1.1-0.3,1.7c0,0.6,0.1,1.2,0.3,1.7
		c0.3,0.7,0.6,1.1,1.1,1.1h5.8c1,0,1.7,0.7,2.2,2.1C740.7,292.7,740.9,293.9,740.9,295.1z"/>
	<path d="M666.7,192.7H663v15.6h-3.4v-17.9c0-1.8,0.2-3,0.7-3.7c0.6-0.8,1.7-1.2,3.5-1.2h2.9v2l-1.3,0c-1.1,0-1.7,0.3-2,1
		c-0.2,0.4-0.3,1.2-0.3,2.5h3.7V192.7z"/>
	<path d="M402.7,220.1h-31.6c0.7,1.5,1,3.1,1,4.8v34.4c0,6.5-5.3,11.8-11.8,11.8h-39.1v-24.9h-30V271h-37c-6.5,0-11.8-5.3-11.8-11.8
		v-34.4c0-6.5,5.3-11.8,11.8-11.8h67.1v-29.4h-80.4c-16.1,0-29.1,14.4-29.1,32.2v52.5c0,17.8,13,32.2,29.1,32.2h132.5
		c16.1,0,29.1-14.4,29.1-32.1V220.1z"/>
</g>
<g>
	<path d="M104.3,371.9h5.9l13.3,24.3h0.1v-24.3h4.3v30.1h-5.5l-13.6-24.8h-0.1v24.8h-4.3V371.9z"/>
	<path d="M135.9,381.6c2-1.2,4.4-2.1,7.2-2.1c6.3,0,8.8,3.1,8.8,9.1v9.1c0,2.5,0.1,3.7,0.2,4.3h-3.8v-2.8h-0.1
		c-0.9,1.3-3.1,3.4-6.8,3.4c-4.7,0-8.1-2.1-8.1-6.9c0-5.5,6-7.3,10.2-7.3c1.6,0,2.7,0,4.3,0.1c0-3.8-1.4-5.7-5.4-5.7
		c-2.3,0-4.7,0.9-6.4,2.2L135.9,381.6z M147.9,391.6c-0.9,0-1.7-0.1-2.6-0.1c-2.2,0-7.6,0.3-7.6,4.2c0,2.3,2.2,3.6,4.1,3.6
		c4,0,6.1-2.5,6.1-5.8V391.6z"/>
	<path d="M170.2,383.3h-5.8v12c0,2.5,1.6,3.9,3.4,3.9c1.3,0,2.2-0.4,2.8-0.8v3.5c-0.9,0.3-2.2,0.6-3.5,0.6c-4.2,0-6.8-2-6.8-6.4
		v-12.9h-5v-3.3h5V375l4.1-1.3v6.4h5.8V383.3z"/>
	<path d="M179.3,375.1h-4.6v-4.6h4.6V375.1z M175,380.1h4.1v22H175V380.1z"/>
	<path d="M194.7,379.5c6.7,0,11.2,4.8,11.2,11.5c0,6.3-4.6,11.5-11.2,11.5c-6.6,0-11.2-5.2-11.2-11.5
		C183.5,384.4,188,379.5,194.7,379.5z M194.7,399.3c4.7,0,6.9-4.3,6.9-8.2c0-4.2-2.5-8.2-6.9-8.2c-4.4,0-6.9,4.1-6.9,8.2
		C187.8,395,189.9,399.3,194.7,399.3z"/>
	<path d="M210.1,380.1h3.9v3.5h0.1c1.2-2.5,4.1-4,7.2-4c5.7,0,8.2,3.5,8.2,9.4v13.1h-4.1v-11.4c0-5.1-1.1-7.6-4.7-7.9
		c-4.6,0-6.7,3.7-6.7,9.1v10.2h-4.1V380.1z"/>
	<path d="M237,381.6c2-1.2,4.4-2.1,7.2-2.1c6.3,0,8.8,3.1,8.8,9.1v9.1c0,2.5,0.1,3.7,0.2,4.3h-3.8v-2.8h-0.1
		c-0.9,1.3-3.1,3.4-6.8,3.4c-4.7,0-8.1-2.1-8.1-6.9c0-5.5,6-7.3,10.2-7.3c1.6,0,2.7,0,4.3,0.1c0-3.8-1.4-5.7-5.4-5.7
		c-2.3,0-4.7,0.9-6.4,2.2L237,381.6z M249.1,391.6c-0.9,0-1.7-0.1-2.6-0.1c-2.2,0-7.6,0.3-7.6,4.2c0,2.3,2.2,3.6,4.1,3.6
		c4,0,6.1-2.5,6.1-5.8V391.6z"/>
	<path d="M259.8,369.7h4.1v32.4h-4.1V369.7z"/>
	<path d="M307.1,389.6c0,8.5-4.3,13-11.7,13c-7.4,0-11.7-4.5-11.7-13v-17.6h4.3V389c0,5.8,1.8,9.8,7.4,9.8c5.6,0,7.4-4,7.4-9.8
		v-17.1h4.3V389.6z"/>
	<path d="M313.1,380.1h3.9v3.5h0.1c1.2-2.5,4.1-4,7.2-4c5.7,0,8.2,3.5,8.2,9.4v13.1h-4.1v-11.4c0-5.1-1.1-7.6-4.7-7.9
		c-4.6,0-6.7,3.7-6.7,9.1v10.2h-4.1V380.1z"/>
	<path d="M343.6,375.1H339v-4.6h4.6V375.1z M339.3,380.1h4.1v22h-4.1V380.1z"/>
	<path d="M360.1,402.1h-4.8l-7.9-22h4.4l6,17.9h0.1l6.1-17.9h4.1L360.1,402.1z"/>
	<path d="M388.1,401.1c-1.6,0.6-3.3,1.4-6.9,1.4c-7.8,0-11.4-4.7-11.4-11.9c0-6.5,4.1-11.1,10.3-11.1c7.3,0,9.7,5.3,9.7,12.4h-15.7
		c0,4.4,3.4,7.3,7.3,7.3c2.7,0,5.8-1.4,6.8-2.2V401.1z M385.5,388.9c0-3.4-2-6.1-5.5-6.1c-4,0-5.6,3.3-5.9,6.1H385.5z"/>
	<path d="M395.1,380.1h3.8v3.4h0.1c1.1-2.3,3.4-3.9,5.7-3.9c1.2,0,1.8,0.1,2.7,0.3v3.6c-0.7-0.3-1.6-0.4-2.2-0.4c-3.6,0-6,3.5-6,9
		v10h-4.1V380.1z"/>
	<path d="M410.7,397.7c1.6,1,3.9,1.6,5,1.6c1.9,0,4.1-0.8,4.1-3.1c0-4-9.5-3.7-9.5-9.8c0-4.6,3.4-6.8,7.8-6.8c1.9,0,3.5,0.4,5.1,0.9
		l-0.3,3.5c-0.9-0.6-3.3-1.1-4.3-1.1c-2.1,0-3.9,0.9-3.9,2.7c0,4.5,9.5,3.2,9.5,10.2c0,4.7-3.8,6.9-7.7,6.9c-2.1,0-4.2-0.2-6-1.2
		L410.7,397.7z"/>
	<path d="M433.4,375.1h-4.6v-4.6h4.6V375.1z M429.1,380.1h4.1v22h-4.1V380.1z"/>
	<path d="M452,383.3h-5.8v12c0,2.5,1.6,3.9,3.4,3.9c1.3,0,2.2-0.4,2.8-0.8v3.5c-0.9,0.3-2.2,0.6-3.5,0.6c-4.2,0-6.8-2-6.8-6.4v-12.9
		h-5v-3.3h5V375l4.1-1.3v6.4h5.8V383.3z"/>
	<path d="M456.3,408c0.5,0.2,1.2,0.3,1.9,0.3c3.6,0,4.8-5,4.8-5.4c0-0.5-0.5-1.6-0.8-2.3l-7.5-20.5h4.4l5.9,18.2h0.1l6-18.2h4.1
		l-8.1,22.5c-1.5,4.2-3.1,9.1-8.5,9.1c-1.3,0-2-0.2-2.8-0.3L456.3,408z"/>
	<path d="M501.2,379.5c6.7,0,11.2,4.8,11.2,11.5c0,6.3-4.6,11.5-11.2,11.5c-6.6,0-11.2-5.2-11.2-11.5
		C490,384.4,494.5,379.5,501.2,379.5z M501.2,399.3c4.7,0,6.9-4.3,6.9-8.2c0-4.2-2.5-8.2-6.9-8.2c-4.4,0-6.9,4.1-6.9,8.2
		C494.3,395,496.5,399.3,501.2,399.3z"/>
	<path d="M519.9,383.3h-5.2v-3.3h5.2v-2c0-5.4,1.4-8.8,7.4-8.8c1,0,1.9,0.1,2.7,0.3l-0.2,3.3c-0.5-0.2-1.3-0.3-1.9-0.3
		c-3.5,0-3.9,2.2-3.9,5.2v2.4h5.8v3.3h-5.8v18.7h-4.1V383.3z"/>
	<path d="M560.1,376.5c-2.2-0.9-3.4-1.3-5.7-1.3c-2.4,0-5.3,0.9-5.3,4c0,5.8,12.9,4.4,12.9,14.4c0,6.4-5,9-11,9
		c-2.1,0-4.2-0.6-6.2-1.2l0.4-4c1.5,0.6,4.1,1.5,6.3,1.5c2.5,0,5.9-1.4,5.9-4.9c0-6.7-12.9-4.9-12.9-14.2c0-5.4,4.2-8.2,9.7-8.2
		c2,0,4.4,0.3,6.4,1.1L560.1,376.5z"/>
	<path d="M571.7,375.1h-4.6v-4.6h4.6V375.1z M567.4,380.1h4.1v22h-4.1V380.1z"/>
	<path d="M578.2,380.1h3.9v3.5h0.1c1.2-2.5,4.1-4,7.2-4c5.7,0,8.2,3.5,8.2,9.4v13.1h-4.1v-11.4c0-5.1-1.1-7.6-4.7-7.9
		c-4.6,0-6.7,3.7-6.7,9.1v10.2h-4.1V380.1z"/>
	<path d="M622.9,401.1c0,6.7-3.5,10.5-11.3,10.5c-2.3,0-4.4-0.3-7.9-1.5l0.4-3.8c3.1,1.4,5,2,7.9,2c4.3,0,6.8-2.9,6.8-7.6v-2.2h-0.1
		c-1.7,2.3-4.6,3.4-7.4,3.4c-6.3,0-9.4-5.1-9.4-10.8c0-5.6,3.2-11.7,9.8-11.7c3.9,0,6,1.4,7.3,3.8h0.1v-3.3h3.8V401.1z M618.8,391.3
		c0-4.6-2.1-8.5-6.4-8.5c-4.1,0-6.1,4.4-6.1,8.2c0,4.1,2.3,7.8,6.1,7.8C616.2,398.8,618.8,395.4,618.8,391.3z"/>
	<path d="M630.4,381.6c2-1.2,4.4-2.1,7.2-2.1c6.3,0,8.8,3.1,8.8,9.1v9.1c0,2.5,0.1,3.7,0.2,4.3h-3.8v-2.8h-0.1
		c-0.9,1.3-3.1,3.4-6.8,3.4c-4.7,0-8.1-2.1-8.1-6.9c0-5.5,6-7.3,10.2-7.3c1.6,0,2.7,0,4.3,0.1c0-3.8-1.4-5.7-5.4-5.7
		c-2.3,0-4.7,0.9-6.4,2.2L630.4,381.6z M642.5,391.6c-0.9,0-1.7-0.1-2.6-0.1c-2.2,0-7.6,0.3-7.6,4.2c0,2.3,2.2,3.6,4.1,3.6
		c4,0,6.1-2.5,6.1-5.8V391.6z"/>
	<path d="M652.2,380.1h3.9v3.1h0.1c1.1-1.6,3.6-3.6,7.5-3.6c6.4,0,9.5,5.2,9.5,11.1c0,6-2.8,11.9-9.4,11.9c-3.9,0-6.1-1.5-7.3-3.5
		h-0.1v12.1h-4.1V380.1z M662.8,382.8c-4.4,0-6.5,4.2-6.5,8.3c0,3.7,1.9,8.2,6.5,8.2c4.4,0,6.2-4.9,6.1-8.3
		C668.9,387,667.2,382.8,662.8,382.8z"/>
	<path d="M688.3,379.5c6.7,0,11.2,4.8,11.2,11.5c0,6.3-4.6,11.5-11.2,11.5c-6.6,0-11.2-5.2-11.2-11.5
		C677.1,384.4,681.6,379.5,688.3,379.5z M688.3,399.3c4.7,0,6.9-4.3,6.9-8.2c0-4.2-2.5-8.2-6.9-8.2c-4.4,0-6.9,4.1-6.9,8.2
		C681.4,395,683.5,399.3,688.3,399.3z"/>
	<path d="M703.8,380.1h3.8v3.4h0.1c1.1-2.3,3.4-3.9,5.7-3.9c1.2,0,1.8,0.1,2.7,0.3v3.6c-0.7-0.3-1.6-0.4-2.2-0.4c-3.6,0-6,3.5-6,9
		v10h-4.1V380.1z"/>
	<path d="M735.9,401.1c-1.6,0.6-3.3,1.4-7,1.4c-7.8,0-11.4-4.7-11.4-11.9c0-6.5,4.1-11.1,10.3-11.1c7.3,0,9.7,5.3,9.7,12.4h-15.7
		c0,4.4,3.4,7.3,7.3,7.3c2.7,0,5.8-1.4,6.8-2.2V401.1z M733.3,388.9c0-3.4-2-6.1-5.5-6.1c-4,0-5.6,3.3-5.9,6.1H733.3z"/>
</g>
<path d="M101,340.2v-8.1h639.8v8.1H101z"/>
</svg>
