<?xml version="1.0" encoding="utf-8"?>
<!-- Generator: Adobe Illustrator 23.0.6, SVG Export Plug-In . SVG Version: 6.00 Build 0)  -->
<!DOCTYPE svg PUBLIC "-//W3C//DTD SVG 1.1//EN" "http://www.w3.org/Graphics/SVG/1.1/DTD/svg11.dtd" [
	<!ENTITY ns_extend "http://ns.adobe.com/Extensibility/1.0/">
	<!ENTITY ns_ai "http://ns.adobe.com/AdobeIllustrator/10.0/">
	<!ENTITY ns_graphs "http://ns.adobe.com/Graphs/1.0/">
	<!ENTITY ns_vars "http://ns.adobe.com/Variables/1.0/">
	<!ENTITY ns_imrep "http://ns.adobe.com/ImageReplacement/1.0/">
	<!ENTITY ns_sfw "http://ns.adobe.com/SaveForWeb/1.0/">
	<!ENTITY ns_custom "http://ns.adobe.com/GenericCustomNamespace/1.0/">
	<!ENTITY ns_adobe_xpath "http://ns.adobe.com/XPath/1.0/">
]>
<svg version="1.1" id="Layer_1" xmlns:x="&ns_extend;" xmlns:i="&ns_ai;" xmlns:graph="&ns_graphs;"
	 xmlns="http://www.w3.org/2000/svg" xmlns:xlink="http://www.w3.org/1999/xlink" x="0px" y="0px" viewBox="0 0 841.9 455.3"
	 enable-background="new 0 0 841.9 455.3" xml:space="preserve">
<metadata>
	<sfw  xmlns="&ns_sfw;">
		<slices></slices>
		<sliceSourceBounds  bottomLeftOrigin="true" height="228.1" width="639.9" x="101" y="183.6"></sliceSourceBounds>
	</sfw>
</metadata>
<g>
	<path fill="#FFFFFF" d="M205.1,201h-61.8c-6.5,0-11.8-5.3-11.8-11.8v-34.4c0-6.5,5.3-11.8,11.8-11.8h61.8
		c0.8-12.2,6.7-22.8,15.4-29.4h-90.4c-16.1,0-29.1,14.4-29.1,32.2v52.5c0,17.8,13,32.2,29.1,32.2h90.4
		C211.8,223.8,205.9,213.2,205.1,201z"/>
	<polygon fill="#FFFFFF" points="521.5,113.6 328.4,113.6 328.4,143.1 409.7,143.1 409.7,230.4 440.4,230.4 440.4,143.1 
		521.5,143.1 	"/>
	<rect x="537.2" y="113.6" fill="#FFFFFF" width="6.9" height="116.8"/>
	<path fill="#FFFFFF" d="M569,138.3h-7.8c-1.3,0-2.3-0.7-3-2.1c-0.6-1.1-0.9-2.4-0.9-3.8v-10.9c0-1.5,0.3-2.8,0.9-3.9
		c0.7-1.4,1.7-2.1,3-2.1h7.8v1.9h-6c-0.8,0-1.5,0.5-1.9,1.5c-0.4,0.8-0.6,1.7-0.6,2.6v10.9c0,0.9,0.2,1.8,0.6,2.6
		c0.5,1,1.1,1.5,1.9,1.5h6V138.3z"/>
	<path fill="#FFFFFF" d="M586.3,125.5c0,1.2-0.2,2.3-0.6,3.3c-0.6,1.3-1.4,1.9-2.5,1.9h-4.8v-1.9h2.9c0.7,0,1.2-0.5,1.5-1.4
		c0.2-0.7,0.3-1.4,0.3-2.2c0-0.7-0.1-1.3-0.2-1.8c-0.2-0.8-0.5-1.2-1-1.2h-3.4c-0.9,0-1.6,0.4-1.9,1.2c-0.2,0.5-0.3,1.3-0.3,2.5v6.9
		c0,1.3,0.1,2.2,0.4,2.7c0.4,0.7,1.2,1,2.4,1c-0.5,0,1.5,0,6.1,0v1.9H577c-1.8,0-2.9-0.6-3.6-1.7c-0.4-0.8-0.7-2.2-0.7-4V126
		c0-1.9,0.2-3.2,0.7-4c0.6-1.1,1.8-1.7,3.6-1.7h6.3c1.1,0,1.9,0.7,2.5,2C586.1,123.1,586.3,124.3,586.3,125.5z"/>
	<path fill="#FFFFFF" d="M604.1,138.3h-3.4v-12.2c0-1.2-0.1-2.1-0.2-2.6c-0.3-0.9-0.9-1.4-1.9-1.4h-4.8v16.2h-3.5v-18.1h9.6
		c1.8,0,2.9,0.5,3.5,1.4c0.5,0.7,0.7,2,0.7,3.9L604.1,138.3L604.1,138.3z"/>
	<path fill="#FFFFFF" d="M616.8,122.1h-4.5v11.1c0,1.4,0.2,2.3,0.7,2.7c0.3,0.3,1.2,0.5,2.6,0.5v1.9h-2.5c-1.8,0-2.9-0.3-3.4-0.9
		c-0.5-0.6-0.8-1.8-0.8-3.6v-18.4h3.5v4.8h4.5L616.8,122.1L616.8,122.1z"/>
	<path fill="#FFFFFF" d="M628.1,121.8h-1.7c-1.4,0-2.3,0.3-2.7,0.9c-0.3,0.4-0.4,1.4-0.4,3.1v12.4h-3.5v-12.9c0-3.6,2-5.5,5.9-5.5
		h2.4V121.8z"/>
	<path fill="#FFFFFF" d="M644.6,125.5c0,1.2-0.2,2.3-0.6,3.3c-0.6,1.3-1.4,1.9-2.5,1.9h-4.8v-1.9h2.9c0.7,0,1.2-0.5,1.5-1.4
		c0.2-0.7,0.3-1.4,0.3-2.2c0-0.7-0.1-1.3-0.2-1.8c-0.2-0.8-0.5-1.2-1-1.2h-3.4c-0.9,0-1.6,0.4-1.9,1.2c-0.2,0.5-0.3,1.3-0.3,2.5v6.9
		c0,1.3,0.1,2.2,0.4,2.7c0.4,0.7,1.2,1,2.4,1c-0.5,0,1.5,0,6.1,0v1.9h-8.1c-1.8,0-2.9-0.6-3.6-1.7c-0.4-0.8-0.7-2.2-0.7-4V126
		c0-1.9,0.2-3.2,0.7-4c0.6-1.1,1.8-1.7,3.6-1.7h6.3c1.1,0,1.9,0.7,2.5,2C644.4,123.1,644.6,124.3,644.6,125.5z"/>
	<path fill="#FFFFFF" d="M684.4,132.6c0,1.9-0.2,3.2-0.7,4c-0.6,1.1-1.8,1.7-3.5,1.7h-6.1c-1.7,0-2.9-0.6-3.5-1.7
		c-0.5-0.8-0.7-2.2-0.7-4v-6.7c0-1.9,0.2-3.2,0.7-4c0.6-1.1,1.8-1.7,3.5-1.7h6.1c1.7,0,2.9,0.6,3.5,1.7c0.5,0.8,0.7,2.1,0.7,4V132.6
		z M680.9,125.8c0-1.2-0.1-2-0.3-2.5c-0.3-0.8-1-1.2-1.9-1.2h-3.1c-0.9,0-1.6,0.4-1.9,1.2c-0.2,0.5-0.3,1.3-0.3,2.5v6.5
		c0,1,0.2,1.9,0.7,2.7c0.5,0.9,1.2,1.4,2.1,1.4h2c1.2,0,2-0.3,2.4-1c0.3-0.5,0.4-1.4,0.4-2.7v-6.9H680.9z"/>
	<path fill="#FFFFFF" d="M698.2,121.8h-1.7c-1.4,0-2.3,0.3-2.7,0.9c-0.3,0.4-0.4,1.4-0.4,3.1v12.4h-3.5v-12.9c0-3.6,2-5.5,5.9-5.5
		h2.4V121.8z"/>
	<path fill="#FFFFFF" d="M573,178.2c0,1.5-0.3,2.7-0.8,3.8c-0.7,1.4-1.7,2.1-3,2.1H567l1,2.4h-2.3l-1-2.4H561c-1.3,0-2.3-0.7-3-2.1
		c-0.6-1.1-0.8-2.4-0.8-3.8v-10.9c0-1.5,0.3-2.8,0.8-3.9c0.7-1.4,1.7-2.1,3-2.1h8.1c1.3,0,2.3,0.7,3,2.1c0.6,1.2,0.8,2.5,0.8,3.9
		v10.9H573z M569.8,178.2v-10.9c0-1-0.2-1.8-0.5-2.6c-0.5-1-1.1-1.5-2-1.5h-4.4c-0.9,0-1.5,0.5-2,1.5c-0.3,0.8-0.5,1.7-0.5,2.6v10.9
		c0,0.9,0.2,1.8,0.5,2.6c0.5,1,1.1,1.5,2,1.5h4.4c0.9,0,1.5-0.5,2-1.5C569.6,180,569.8,179.1,569.8,178.2z"/>
	<path fill="#FFFFFF" d="M591,184.1h-9.7c-1.8,0-2.9-0.5-3.5-1.4c-0.5-0.7-0.7-2-0.7-3.9V166h3.4v12.1c0,1.2,0.1,2.1,0.3,2.6
		c0.3,0.9,0.9,1.4,1.9,1.4h4.8V166h3.5V184.1z"/>
	<path fill="#FFFFFF" d="M607.9,184.1h-9.6c-1.2,0-2.2-0.6-2.8-1.9c-0.5-1-0.8-2.2-0.8-3.5s0.3-2.5,0.8-3.6c0.6-1.3,1.6-1.9,2.8-1.9
		h4.6v1.9c-0.3,0-0.7,0-1.2,0s-0.9,0-1,0c-1,0-1.7,0.2-2,0.6c-0.4,0.5-0.7,1.4-0.7,2.8c0,0.8,0.1,1.5,0.3,2.2c0.3,1,0.7,1.5,1.3,1.5
		h4.9V171c0-1-0.1-1.7-0.3-2.1c-0.3-0.6-1-0.9-1.9-0.9h-4.4v-2h5.8c1.8,0,2.9,0.5,3.5,1.4c0.5,0.7,0.7,2,0.7,3.9L607.9,184.1
		L607.9,184.1z"/>
	<path fill="#FFFFFF" d="M626.4,184.1H623v-12.2c0-1.2-0.1-2.1-0.2-2.6c-0.3-0.9-0.9-1.4-1.9-1.4H616v16.2h-3.5V166h9.6
		c1.8,0,2.9,0.5,3.5,1.4c0.5,0.7,0.7,2,0.7,3.9v12.8H626.4z"/>
	<path fill="#FFFFFF" d="M639.1,167.9h-4.5V179c0,1.4,0.2,2.3,0.7,2.7c0.3,0.3,1.2,0.5,2.6,0.5v1.9h-2.5c-1.8,0-2.9-0.3-3.4-0.9
		c-0.5-0.6-0.8-1.8-0.8-3.6v-18.4h3.5v4.8h4.5L639.1,167.9L639.1,167.9z"/>
	<path fill="#FFFFFF" d="M656.4,184.1h-9.7c-1.8,0-2.9-0.5-3.5-1.4c-0.5-0.7-0.7-2-0.7-3.9V166h3.4v12.1c0,1.2,0.1,2.1,0.3,2.6
		c0.3,0.9,0.9,1.4,1.9,1.4h4.8V166h3.5V184.1z"/>
	<path fill="#FFFFFF" d="M683,184.1h-3.4v-12.2c0-1.2-0.1-2.1-0.2-2.6c-0.3-0.9-0.9-1.4-1.9-1.4h-3.6v16.2h-3.4v-16.2h-5.8v16.2
		h-3.5V166h17.7c1.8,0,2.9,0.5,3.5,1.4c0.5,0.7,0.7,2,0.7,3.9L683,184.1L683,184.1z"/>
	<path fill="#FFFFFF" d="M570.1,209h-4.9v21.1h-3.5V209h-4.5v-1.9h12.9V209z"/>
	<path fill="#FFFFFF" d="M584.8,217.3c0,1.2-0.2,2.3-0.6,3.3c-0.6,1.3-1.4,1.9-2.5,1.9h-4.8v-1.9h2.9c0.7,0,1.2-0.5,1.5-1.4
		c0.2-0.7,0.3-1.4,0.3-2.2c0-0.7-0.1-1.3-0.2-1.8c-0.2-0.8-0.5-1.2-1-1.2H577c-0.9,0-1.6,0.4-1.9,1.2c-0.2,0.5-0.3,1.3-0.3,2.5v6.9
		c0,1.3,0.1,2.2,0.4,2.7c0.4,0.7,1.2,1,2.4,1c-0.5,0,1.5,0,6.1,0v1.9h-8.1c-1.8,0-2.9-0.6-3.6-1.7c-0.4-0.8-0.7-2.2-0.7-4v-6.7
		c0-1.9,0.2-3.2,0.7-4c0.6-1.1,1.8-1.7,3.6-1.7h6.3c1.1,0,1.9,0.7,2.5,2C584.6,215,584.8,216.1,584.8,217.3z"/>
	<path fill="#FFFFFF" d="M599.3,230.1h-6.9c-1.8,0-2.9-0.6-3.6-1.7c-0.4-0.8-0.7-2.2-0.7-4v-6.7c0-1.9,0.2-3.2,0.7-4
		c0.6-1.1,1.8-1.7,3.6-1.7h6.9v1.9h-5.4c-0.9,0-1.6,0.4-1.9,1.3c-0.2,0.5-0.3,1.3-0.3,2.5v7.1c0,1.3,0.1,2.1,0.4,2.6
		c0.4,0.6,1.2,0.9,2.4,0.9c0.6,0,1.4,0.1,2.4,0c1.4,0,2.2,0,2.4,0L599.3,230.1L599.3,230.1z"/>
	<path fill="#FFFFFF" d="M617.1,230.1h-3.4v-12.2c0-1.2-0.1-2.1-0.2-2.6c-0.3-0.9-0.9-1.4-1.9-1.4h-4.8v16.2h-3.5v-22.9h3.5v4.8h6.2
		c1.8,0,2.9,0.5,3.5,1.4c0.5,0.7,0.7,2,0.7,3.9L617.1,230.1L617.1,230.1z"/>
	<path fill="#FFFFFF" d="M635.2,230.1h-3.4v-12.2c0-1.2-0.1-2.1-0.2-2.6c-0.3-0.9-0.9-1.4-1.9-1.4h-4.8v16.2h-3.5V212h9.6
		c1.8,0,2.9,0.5,3.5,1.4c0.5,0.7,0.7,2,0.7,3.9L635.2,230.1L635.2,230.1z"/>
	<path fill="#FFFFFF" d="M653.9,224.4c0,1.9-0.2,3.2-0.7,4c-0.6,1.1-1.8,1.7-3.5,1.7h-6c-1.7,0-2.9-0.6-3.5-1.7
		c-0.5-0.8-0.7-2.2-0.7-4v-6.7c0-1.9,0.2-3.2,0.7-4c0.6-1.1,1.8-1.7,3.5-1.7h6c1.7,0,2.9,0.6,3.5,1.7c0.5,0.8,0.7,2.1,0.7,4V224.4z
		 M650.4,217.6c0-1.2-0.1-2-0.3-2.5c-0.3-0.8-1-1.2-1.9-1.2h-3.1c-0.9,0-1.6,0.4-1.9,1.2c-0.2,0.5-0.3,1.3-0.3,2.5v6.5
		c0,1,0.2,1.9,0.7,2.7c0.5,0.9,1.2,1.4,2.1,1.4h2c1.2,0,2-0.3,2.4-1c0.3-0.5,0.4-1.4,0.4-2.7v-6.9H650.4z"/>
	<path fill="#FFFFFF" d="M661.5,230.1H658v-22.9h3.5V230.1z"/>
	<path fill="#FFFFFF" d="M680.1,224.4c0,1.9-0.2,3.2-0.7,4c-0.6,1.1-1.8,1.7-3.5,1.7h-6.1c-1.7,0-2.9-0.6-3.5-1.7
		c-0.5-0.8-0.7-2.2-0.7-4v-6.7c0-1.9,0.2-3.2,0.7-4c0.6-1.1,1.8-1.7,3.5-1.7h6.1c1.7,0,2.9,0.6,3.5,1.7c0.5,0.8,0.7,2.1,0.7,4V224.4
		z M676.6,217.6c0-1.2-0.1-2-0.3-2.5c-0.3-0.8-1-1.2-1.9-1.2h-3.1c-0.9,0-1.6,0.4-1.9,1.2c-0.2,0.5-0.3,1.3-0.3,2.5v6.5
		c0,1,0.2,1.9,0.7,2.7c0.5,0.9,1.2,1.4,2.1,1.4h2c1.2,0,2-0.3,2.4-1c0.3-0.5,0.4-1.4,0.4-2.7v-6.9H676.6z"/>
	<path fill="#FFFFFF" d="M698,232c0,1.9,0.4,3.2,0,4c-0.6,1.1-1.8,1.7-3.5,1.7h-5v-1.9c0.7,0,1.3,0,1.8,0c1.5,0,2.6-0.2,3-0.5
		c0.6-0.4,0.3-1.4,0.3-3v-18.4c-0.3,0-0.9,0-1.7,0c-0.7,0-1.3,0-1.7,0c-1.8,0-2.8,0.4-3.2,1.3c-0.2,0.4-0.3,1.7-0.2,3.7v5.6
		c0,1.1,0.1,1.9,0.3,2.4c0.3,0.8,0.9,1.2,1.9,1.2h3v1.9h-4.5c-1.8,0-2.9-0.6-3.6-1.7c-0.5-0.8-0.7-2.2-0.7-4v-6.7
		c0-1.9,0.2-3.2,0.7-4c0.6-1.1,1.8-1.7,3.5-1.7h9.5V232H698z"/>
	<path fill="#FFFFFF" d="M706.4,210.1h-3.5v-2.9h3.5V210.1z M706.4,230.1h-3.5V212h3.5V230.1z"/>
	<path fill="#FFFFFF" d="M724.5,217.3c0,1.2-0.2,2.3-0.6,3.3c-0.6,1.3-1.4,1.9-2.5,1.9h-4.8v-1.9h2.9c0.7,0,1.2-0.5,1.5-1.4
		c0.2-0.7,0.3-1.4,0.3-2.2c0-0.7-0.1-1.3-0.2-1.8c-0.2-0.8-0.5-1.2-1-1.2h-3.4c-0.9,0-1.6,0.4-1.9,1.2c-0.2,0.5-0.3,1.3-0.3,2.5v6.9
		c0,1.3,0.1,2.2,0.4,2.7c0.4,0.7,1.2,1,2.4,1c-0.5,0,1.5,0,6,0v1.9h-8.1c-1.8,0-2.9-0.6-3.6-1.7c-0.4-0.8-0.7-2.2-0.7-4v-6.7
		c0-1.9,0.2-3.2,0.7-4c0.6-1.1,1.8-1.7,3.6-1.7h6.3c1.1,0,1.9,0.7,2.5,2C724.3,215,724.5,216.1,724.5,217.3z"/>
	<path fill="#FFFFFF" d="M740.9,225.1c0,1.2-0.2,2.2-0.5,3.1c-0.5,1.2-1.2,1.9-2.2,1.9H729v-1.9h7.3c0.6,0,1-0.4,1.3-1.1
		c0.2-0.6,0.3-1.2,0.3-1.8c0-0.7-0.1-1.3-0.3-1.8c-0.3-0.8-0.7-1.1-1.3-1.1h-5.4c-1.1,0-1.9-0.7-2.5-2c-0.5-1-0.7-2.2-0.7-3.4
		c0-1.3,0.2-2.3,0.7-3.2c0.6-1.1,1.4-1.7,2.6-1.7h7.6v1.9h-6.4c-0.5,0-0.9,0.4-1.1,1.1c-0.2,0.5-0.3,1.1-0.3,1.7s0.1,1.2,0.3,1.7
		c0.3,0.7,0.6,1.1,1.1,1.1h5.8c1,0,1.7,0.7,2.2,2.1C740.7,222.7,740.9,223.9,740.9,225.1z"/>
	<path fill="#FFFFFF" d="M666.7,122.7H663v15.6h-3.4v-17.9c0-1.8,0.2-3,0.7-3.7c0.6-0.8,1.7-1.2,3.5-1.2h2.9v2h-1.3
		c-1.1,0-1.7,0.3-2,1c-0.2,0.4-0.3,1.2-0.3,2.5h3.7v1.7H666.7z"/>
	<path fill="#FFFFFF" d="M402.7,150.1h-31.6c0.7,1.5,1,3.1,1,4.8v34.4c0,6.5-5.3,11.8-11.8,11.8h-39.1v-24.9h-30V201h-37
		c-6.5,0-11.8-5.3-11.8-11.8v-34.4c0-6.5,5.3-11.8,11.8-11.8h67.1v-29.4h-80.4c-16.1,0-29.1,14.4-29.1,32.2v52.5
		c0,17.8,13,32.2,29.1,32.2h132.5c16.1,0,29.1-14.4,29.1-32.1v-48.3H402.7z"/>
</g>
<g>
	<path fill="#FFFFFF" d="M104.3,301.9h5.9l13.3,24.3h0.1v-24.3h4.3V332h-5.5l-13.6-24.8h-0.1V332h-4.3v-30.1H104.3z"/>
	<path fill="#FFFFFF" d="M135.9,311.6c2-1.2,4.4-2.1,7.2-2.1c6.3,0,8.8,3.1,8.8,9.1v9.1c0,2.5,0.1,3.7,0.2,4.3h-3.8v-2.8h-0.1
		c-0.9,1.3-3.1,3.4-6.8,3.4c-4.7,0-8.1-2.1-8.1-6.9c0-5.5,6-7.3,10.2-7.3c1.6,0,2.7,0,4.3,0.1c0-3.8-1.4-5.7-5.4-5.7
		c-2.3,0-4.7,0.9-6.4,2.2L135.9,311.6z M147.9,321.6c-0.9,0-1.7-0.1-2.6-0.1c-2.2,0-7.6,0.3-7.6,4.2c0,2.3,2.2,3.6,4.1,3.6
		c4,0,6.1-2.5,6.1-5.8V321.6z"/>
	<path fill="#FFFFFF" d="M170.2,313.3h-5.8v12c0,2.5,1.6,3.9,3.4,3.9c1.3,0,2.2-0.4,2.8-0.8v3.5c-0.9,0.3-2.2,0.6-3.5,0.6
		c-4.2,0-6.8-2-6.8-6.4v-12.9h-5v-3.3h5V305l4.1-1.3v6.4h5.8V313.3z"/>
	<path fill="#FFFFFF" d="M179.3,305.1h-4.6v-4.6h4.6V305.1z M175,310.1h4.1v22H175V310.1z"/>
	<path fill="#FFFFFF" d="M194.7,309.5c6.7,0,11.2,4.8,11.2,11.5c0,6.3-4.6,11.5-11.2,11.5c-6.6,0-11.2-5.2-11.2-11.5
		C183.5,314.4,188,309.5,194.7,309.5z M194.7,329.3c4.7,0,6.9-4.3,6.9-8.2c0-4.2-2.5-8.2-6.9-8.2s-6.9,4.1-6.9,8.2
		C187.8,325,189.9,329.3,194.7,329.3z"/>
	<path fill="#FFFFFF" d="M210.1,310.1h3.9v3.5h0.1c1.2-2.5,4.1-4,7.2-4c5.7,0,8.2,3.5,8.2,9.4v13.1h-4.1v-11.4
		c0-5.1-1.1-7.6-4.7-7.9c-4.6,0-6.7,3.7-6.7,9.1v10.2h-4.1v-22H210.1z"/>
	<path fill="#FFFFFF" d="M237,311.6c2-1.2,4.4-2.1,7.2-2.1c6.3,0,8.8,3.1,8.8,9.1v9.1c0,2.5,0.1,3.7,0.2,4.3h-3.8v-2.8h-0.1
		c-0.9,1.3-3.1,3.4-6.8,3.4c-4.7,0-8.1-2.1-8.1-6.9c0-5.5,6-7.3,10.2-7.3c1.6,0,2.7,0,4.3,0.1c0-3.8-1.4-5.7-5.4-5.7
		c-2.3,0-4.7,0.9-6.4,2.2L237,311.6z M249.1,321.6c-0.9,0-1.7-0.1-2.6-0.1c-2.2,0-7.6,0.3-7.6,4.2c0,2.3,2.2,3.6,4.1,3.6
		c4,0,6.1-2.5,6.1-5.8V321.6z"/>
	<path fill="#FFFFFF" d="M259.8,299.7h4.1v32.4h-4.1V299.7z"/>
	<path fill="#FFFFFF" d="M307.1,319.6c0,8.5-4.3,13-11.7,13c-7.4,0-11.7-4.5-11.7-13V302h4.3v17c0,5.8,1.8,9.8,7.4,9.8
		s7.4-4,7.4-9.8v-17.1h4.3L307.1,319.6L307.1,319.6z"/>
	<path fill="#FFFFFF" d="M313.1,310.1h3.9v3.5h0.1c1.2-2.5,4.1-4,7.2-4c5.7,0,8.2,3.5,8.2,9.4v13.1h-4.1v-11.4
		c0-5.1-1.1-7.6-4.7-7.9c-4.6,0-6.7,3.7-6.7,9.1v10.2h-4.1v-22H313.1z"/>
	<path fill="#FFFFFF" d="M343.6,305.1H339v-4.6h4.6V305.1z M339.3,310.1h4.1v22h-4.1V310.1z"/>
	<path fill="#FFFFFF" d="M360.1,332.1h-4.8l-7.9-22h4.4l6,17.9h0.1l6.1-17.9h4.1L360.1,332.1z"/>
	<path fill="#FFFFFF" d="M388.1,331.1c-1.6,0.6-3.3,1.4-6.9,1.4c-7.8,0-11.4-4.7-11.4-11.9c0-6.5,4.1-11.1,10.3-11.1
		c7.3,0,9.7,5.3,9.7,12.4h-15.7c0,4.4,3.4,7.3,7.3,7.3c2.7,0,5.8-1.4,6.8-2.2L388.1,331.1L388.1,331.1z M385.5,318.9
		c0-3.4-2-6.1-5.5-6.1c-4,0-5.6,3.3-5.9,6.1H385.5z"/>
	<path fill="#FFFFFF" d="M395.1,310.1h3.8v3.4h0.1c1.1-2.3,3.4-3.9,5.7-3.9c1.2,0,1.8,0.1,2.7,0.3v3.6c-0.7-0.3-1.6-0.4-2.2-0.4
		c-3.6,0-6,3.5-6,9v10h-4.1V310.1z"/>
	<path fill="#FFFFFF" d="M410.7,327.7c1.6,1,3.9,1.6,5,1.6c1.9,0,4.1-0.8,4.1-3.1c0-4-9.5-3.7-9.5-9.8c0-4.6,3.4-6.8,7.8-6.8
		c1.9,0,3.5,0.4,5.1,0.9l-0.3,3.5c-0.9-0.6-3.3-1.1-4.3-1.1c-2.1,0-3.9,0.9-3.9,2.7c0,4.5,9.5,3.2,9.5,10.2c0,4.7-3.8,6.9-7.7,6.9
		c-2.1,0-4.2-0.2-6-1.2L410.7,327.7z"/>
	<path fill="#FFFFFF" d="M433.4,305.1h-4.6v-4.6h4.6V305.1z M429.1,310.1h4.1v22h-4.1V310.1z"/>
	<path fill="#FFFFFF" d="M452,313.3h-5.8v12c0,2.5,1.6,3.9,3.4,3.9c1.3,0,2.2-0.4,2.8-0.8v3.5c-0.9,0.3-2.2,0.6-3.5,0.6
		c-4.2,0-6.8-2-6.8-6.4v-12.9h-5v-3.3h5V305l4.1-1.3v6.4h5.8V313.3z"/>
	<path fill="#FFFFFF" d="M456.3,338c0.5,0.2,1.2,0.3,1.9,0.3c3.6,0,4.8-5,4.8-5.4c0-0.5-0.5-1.6-0.8-2.3l-7.5-20.5h4.4l5.9,18.2h0.1
		l6-18.2h4.1l-8.1,22.5c-1.5,4.2-3.1,9.1-8.5,9.1c-1.3,0-2-0.2-2.8-0.3L456.3,338z"/>
	<path fill="#FFFFFF" d="M501.2,309.5c6.7,0,11.2,4.8,11.2,11.5c0,6.3-4.6,11.5-11.2,11.5S490,327.3,490,321
		C490,314.4,494.5,309.5,501.2,309.5z M501.2,329.3c4.7,0,6.9-4.3,6.9-8.2c0-4.2-2.5-8.2-6.9-8.2s-6.9,4.1-6.9,8.2
		C494.3,325,496.5,329.3,501.2,329.3z"/>
	<path fill="#FFFFFF" d="M519.9,313.3h-5.2V310h5.2v-2c0-5.4,1.4-8.8,7.4-8.8c1,0,1.9,0.1,2.7,0.3l-0.2,3.3
		c-0.5-0.2-1.3-0.3-1.9-0.3c-3.5,0-3.9,2.2-3.9,5.2v2.4h5.8v3.3H524v18.7h-4.1V313.3z"/>
	<path fill="#FFFFFF" d="M560.1,306.5c-2.2-0.9-3.4-1.3-5.7-1.3c-2.4,0-5.3,0.9-5.3,4c0,5.8,12.9,4.4,12.9,14.4c0,6.4-5,9-11,9
		c-2.1,0-4.2-0.6-6.2-1.2l0.4-4c1.5,0.6,4.1,1.5,6.3,1.5c2.5,0,5.9-1.4,5.9-4.9c0-6.7-12.9-4.9-12.9-14.2c0-5.4,4.2-8.2,9.7-8.2
		c2,0,4.4,0.3,6.4,1.1L560.1,306.5z"/>
	<path fill="#FFFFFF" d="M571.7,305.1h-4.6v-4.6h4.6V305.1z M567.4,310.1h4.1v22h-4.1V310.1z"/>
	<path fill="#FFFFFF" d="M578.2,310.1h3.9v3.5h0.1c1.2-2.5,4.1-4,7.2-4c5.7,0,8.2,3.5,8.2,9.4v13.1h-4.1v-11.4
		c0-5.1-1.1-7.6-4.7-7.9c-4.6,0-6.7,3.7-6.7,9.1v10.2H578v-22H578.2z"/>
	<path fill="#FFFFFF" d="M622.9,331.1c0,6.7-3.5,10.5-11.3,10.5c-2.3,0-4.4-0.3-7.9-1.5l0.4-3.8c3.1,1.4,5,2,7.9,2
		c4.3,0,6.8-2.9,6.8-7.6v-2.2h-0.1c-1.7,2.3-4.6,3.4-7.4,3.4c-6.3,0-9.4-5.1-9.4-10.8c0-5.6,3.2-11.7,9.8-11.7c3.9,0,6,1.4,7.3,3.8
		h0.1v-3.3h3.8L622.9,331.1L622.9,331.1z M618.8,321.3c0-4.6-2.1-8.5-6.4-8.5c-4.1,0-6.1,4.4-6.1,8.2c0,4.1,2.3,7.8,6.1,7.8
		C616.2,328.8,618.8,325.4,618.8,321.3z"/>
	<path fill="#FFFFFF" d="M630.4,311.6c2-1.2,4.4-2.1,7.2-2.1c6.3,0,8.8,3.1,8.8,9.1v9.1c0,2.5,0.1,3.7,0.2,4.3h-3.8v-2.8h-0.1
		c-0.9,1.3-3.1,3.4-6.8,3.4c-4.7,0-8.1-2.1-8.1-6.9c0-5.5,6-7.3,10.2-7.3c1.6,0,2.7,0,4.3,0.1c0-3.8-1.4-5.7-5.4-5.7
		c-2.3,0-4.7,0.9-6.4,2.2L630.4,311.6z M642.5,321.6c-0.9,0-1.7-0.1-2.6-0.1c-2.2,0-7.6,0.3-7.6,4.2c0,2.3,2.2,3.6,4.1,3.6
		c4,0,6.1-2.5,6.1-5.8V321.6z"/>
	<path fill="#FFFFFF" d="M652.2,310.1h3.9v3.1h0.1c1.1-1.6,3.6-3.6,7.5-3.6c6.4,0,9.5,5.2,9.5,11.1c0,6-2.8,11.9-9.4,11.9
		c-3.9,0-6.1-1.5-7.3-3.5h-0.1v12.1h-4.1v-31.1H652.2z M662.8,312.8c-4.4,0-6.5,4.2-6.5,8.3c0,3.7,1.9,8.2,6.5,8.2
		c4.4,0,6.2-4.9,6.1-8.3C668.9,317,667.2,312.8,662.8,312.8z"/>
	<path fill="#FFFFFF" d="M688.3,309.5c6.7,0,11.2,4.8,11.2,11.5c0,6.3-4.6,11.5-11.2,11.5c-6.6,0-11.2-5.2-11.2-11.5
		C677.1,314.4,681.6,309.5,688.3,309.5z M688.3,329.3c4.7,0,6.9-4.3,6.9-8.2c0-4.2-2.5-8.2-6.9-8.2s-6.9,4.1-6.9,8.2
		C681.4,325,683.5,329.3,688.3,329.3z"/>
	<path fill="#FFFFFF" d="M703.8,310.1h3.8v3.4h0.1c1.1-2.3,3.4-3.9,5.7-3.9c1.2,0,1.8,0.1,2.7,0.3v3.6c-0.7-0.3-1.6-0.4-2.2-0.4
		c-3.6,0-6,3.5-6,9v10h-4.1V310.1z"/>
	<path fill="#FFFFFF" d="M735.9,331.1c-1.6,0.6-3.3,1.4-7,1.4c-7.8,0-11.4-4.7-11.4-11.9c0-6.5,4.1-11.1,10.3-11.1
		c7.3,0,9.7,5.3,9.7,12.4h-15.7c0,4.4,3.4,7.3,7.3,7.3c2.7,0,5.8-1.4,6.8-2.2L735.9,331.1L735.9,331.1z M733.3,318.9
		c0-3.4-2-6.1-5.5-6.1c-4,0-5.6,3.3-5.9,6.1H733.3z"/>
</g>
<path fill="#FFFFFF" d="M101,270.2v-8.1h639.8v8.1H101z"/>
</svg>
