<?xml version="1.0" encoding="utf-8"?>
<!-- Generator: Adobe Illustrator 23.0.6, SVG Export Plug-In . SVG Version: 6.00 Build 0)  -->
<!DOCTYPE svg PUBLIC "-//W3C//DTD SVG 1.1//EN" "http://www.w3.org/Graphics/SVG/1.1/DTD/svg11.dtd" [
  <!ENTITY ns_extend "http://ns.adobe.com/Extensibility/1.0/">
  <!ENTITY ns_ai "http://ns.adobe.com/AdobeIllustrator/10.0/">
  <!ENTITY ns_graphs "http://ns.adobe.com/Graphs/1.0/">
  <!ENTITY ns_vars "http://ns.adobe.com/Variables/1.0/">
  <!ENTITY ns_imrep "http://ns.adobe.com/ImageReplacement/1.0/">
  <!ENTITY ns_sfw "http://ns.adobe.com/SaveForWeb/1.0/">
  <!ENTITY ns_custom "http://ns.adobe.com/GenericCustomNamespace/1.0/">
  <!ENTITY ns_adobe_xpath "http://ns.adobe.com/XPath/1.0/">
]>
<svg version="1.1" id="Layer_1" xmlns:x="&ns_extend;" xmlns:i="&ns_ai;" xmlns:graph="&ns_graphs;"
   xmlns="http://www.w3.org/2000/svg" xmlns:xlink="http://www.w3.org/1999/xlink" x="0px" y="0px" viewBox="0 0 30 30"
   style="enable-background:new 0 0 30 30;" xml:space="preserve">
<style type="text/css">
  .st0{fill:none;stroke:#FFFFFF;stroke-width:0.5;stroke-miterlimit:10;}
  .red{fill:#FF0055;}
</style>
<metadata>
  <sfw  xmlns="&ns_sfw;">
    <slices></slices>
    <sliceSourceBounds  bottomLeftOrigin="true" height="28.5" width="26.1" x="2" y="-29.2"></sliceSourceBounds>
  </sfw>
</metadata>
<!-- OUTLIVE ALWAYS VISIBLE, INSIDE ONLY VISIBLE WHEN DETECTOR REACHED -->
<path id="Outline" class="st0" d="M16.5,15l11.3-8C25.2,3.4,21,1,16.3,1c-7.7,0-14,6.3-14,14s6.3,14,14,14
  c4.8,0,9-2.4,11.5-6L16.5,15z"/>
<g id="Inside">
  <path class="red" d="M16.7,26c-6.1,0-11-4.9-11-11s4.9-11,11-11c2.6,0,5,0.9,7,2.5l-12,8.5l12,8.5C21.7,25.1,19.3,26,16.7,26z"/>
</g>
</svg>
