<?xml version="1.0" encoding="utf-8"?>
<!-- Generator: Adobe Illustrator 23.0.3, SVG Export Plug-In . SVG Version: 6.00 Build 0)  -->
<svg version="1.1" id="Layer_1" xmlns="http://www.w3.org/2000/svg" xmlns:xlink="http://www.w3.org/1999/xlink" x="0px" y="0px"
	 viewBox="0 0 834 578" style="enable-background:new 0 0 834 578;" xml:space="preserve">
<style type="text/css">
	.st0{fill:#EDEAF4;}
</style>
<g>
	<g>
		<circle class="st0" cx="1" cy="1" r="1"/>
		<circle class="st0" cx="65" cy="1" r="1"/>
		<circle class="st0" cx="129" cy="1" r="1"/>
		<circle class="st0" cx="193" cy="1" r="1"/>
		<circle class="st0" cx="257" cy="1" r="1"/>
		<circle class="st0" cx="321" cy="1" r="1"/>
		<circle class="st0" cx="385" cy="1" r="1"/>
		<circle class="st0" cx="449" cy="1" r="1"/>
		<circle class="st0" cx="513" cy="1" r="1"/>
		<circle class="st0" cx="577" cy="1" r="1"/>
		<circle class="st0" cx="641" cy="1" r="1"/>
		<circle class="st0" cx="705" cy="1" r="1"/>
		<circle class="st0" cx="769" cy="1" r="1"/>
		<circle class="st0" cx="833" cy="1" r="1"/>
		<circle class="st0" cx="1" cy="65" r="1"/>
		<circle class="st0" cx="65" cy="65" r="1"/>
		<circle class="st0" cx="129" cy="65" r="1"/>
		<circle class="st0" cx="193" cy="65" r="1"/>
		<circle class="st0" cx="257" cy="65" r="1"/>
		<circle class="st0" cx="321" cy="65" r="1"/>
		<circle class="st0" cx="385" cy="65" r="1"/>
		<circle class="st0" cx="449" cy="65" r="1"/>
		<circle class="st0" cx="513" cy="65" r="1"/>
		<circle class="st0" cx="577" cy="65" r="1"/>
		<circle class="st0" cx="641" cy="65" r="1"/>
		<circle class="st0" cx="705" cy="65" r="1"/>
		<circle class="st0" cx="769" cy="65" r="1"/>
		<circle class="st0" cx="833" cy="65" r="1"/>
		<circle class="st0" cx="1" cy="129" r="1"/>
		<circle class="st0" cx="65" cy="129" r="1"/>
		<circle class="st0" cx="129" cy="129" r="1"/>
		<circle class="st0" cx="193" cy="129" r="1"/>
		<circle class="st0" cx="257" cy="129" r="1"/>
		<circle class="st0" cx="321" cy="129" r="1"/>
		<circle class="st0" cx="385" cy="129" r="1"/>
		<circle class="st0" cx="449" cy="129" r="1"/>
		<circle class="st0" cx="513" cy="129" r="1"/>
		<circle class="st0" cx="577" cy="129" r="1"/>
		<circle class="st0" cx="641" cy="129" r="1"/>
		<circle class="st0" cx="705" cy="129" r="1"/>
		<circle class="st0" cx="769" cy="129" r="1"/>
		<circle class="st0" cx="833" cy="129" r="1"/>
		<circle class="st0" cx="1" cy="193" r="1"/>
		<circle class="st0" cx="65" cy="193" r="1"/>
		<circle class="st0" cx="129" cy="193" r="1"/>
		<circle class="st0" cx="193" cy="193" r="1"/>
		<circle class="st0" cx="257" cy="193" r="1"/>
		<circle class="st0" cx="321" cy="193" r="1"/>
		<circle class="st0" cx="385" cy="193" r="1"/>
		<circle class="st0" cx="449" cy="193" r="1"/>
		<circle class="st0" cx="513" cy="193" r="1"/>
		<circle class="st0" cx="577" cy="193" r="1"/>
		<circle class="st0" cx="641" cy="193" r="1"/>
		<circle class="st0" cx="705" cy="193" r="1"/>
		<circle class="st0" cx="769" cy="193" r="1"/>
		<circle class="st0" cx="833" cy="193" r="1"/>
		<circle class="st0" cx="1" cy="257" r="1"/>
		<circle class="st0" cx="65" cy="257" r="1"/>
		<circle class="st0" cx="129" cy="257" r="1"/>
		<circle class="st0" cx="193" cy="257" r="1"/>
		<circle class="st0" cx="257" cy="257" r="1"/>
		<circle class="st0" cx="321" cy="257" r="1"/>
		<circle class="st0" cx="385" cy="257" r="1"/>
		<circle class="st0" cx="449" cy="257" r="1"/>
		<circle class="st0" cx="513" cy="257" r="1"/>
		<circle class="st0" cx="577" cy="257" r="1"/>
		<circle class="st0" cx="641" cy="257" r="1"/>
		<circle class="st0" cx="705" cy="257" r="1"/>
		<circle class="st0" cx="769" cy="257" r="1"/>
		<circle class="st0" cx="833" cy="257" r="1"/>
		<circle class="st0" cx="1" cy="321" r="1"/>
		<circle class="st0" cx="65" cy="321" r="1"/>
		<circle class="st0" cx="129" cy="321" r="1"/>
		<circle class="st0" cx="193" cy="321" r="1"/>
		<circle class="st0" cx="257" cy="321" r="1"/>
		<circle class="st0" cx="321" cy="321" r="1"/>
		<circle class="st0" cx="385" cy="321" r="1"/>
		<circle class="st0" cx="449" cy="321" r="1"/>
		<circle class="st0" cx="513" cy="321" r="1"/>
		<circle class="st0" cx="577" cy="321" r="1"/>
		<circle class="st0" cx="641" cy="321" r="1"/>
		<circle class="st0" cx="705" cy="321" r="1"/>
		<circle class="st0" cx="769" cy="321" r="1"/>
		<circle class="st0" cx="833" cy="321" r="1"/>
		<circle class="st0" cx="1" cy="385" r="1"/>
		<circle class="st0" cx="65" cy="385" r="1"/>
		<circle class="st0" cx="129" cy="385" r="1"/>
		<circle class="st0" cx="193" cy="385" r="1"/>
		<circle class="st0" cx="257" cy="385" r="1"/>
		<circle class="st0" cx="321" cy="385" r="1"/>
		<circle class="st0" cx="385" cy="385" r="1"/>
		<circle class="st0" cx="449" cy="385" r="1"/>
		<circle class="st0" cx="513" cy="385" r="1"/>
		<circle class="st0" cx="577" cy="385" r="1"/>
		<circle class="st0" cx="641" cy="385" r="1"/>
		<circle class="st0" cx="705" cy="385" r="1"/>
		<circle class="st0" cx="769" cy="385" r="1"/>
		<circle class="st0" cx="833" cy="385" r="1"/>
		<circle class="st0" cx="1" cy="449" r="1"/>
		<circle class="st0" cx="65" cy="449" r="1"/>
		<circle class="st0" cx="129" cy="449" r="1"/>
		<circle class="st0" cx="193" cy="449" r="1"/>
		<circle class="st0" cx="257" cy="449" r="1"/>
		<circle class="st0" cx="321" cy="449" r="1"/>
		<circle class="st0" cx="385" cy="449" r="1"/>
		<circle class="st0" cx="449" cy="449" r="1"/>
		<circle class="st0" cx="513" cy="449" r="1"/>
		<circle class="st0" cx="577" cy="449" r="1"/>
		<circle class="st0" cx="641" cy="449" r="1"/>
		<circle class="st0" cx="705" cy="449" r="1"/>
		<circle class="st0" cx="769" cy="449" r="1"/>
		<circle class="st0" cx="833" cy="449" r="1"/>
		<circle class="st0" cx="1" cy="513" r="1"/>
		<circle class="st0" cx="65" cy="513" r="1"/>
		<circle class="st0" cx="129" cy="513" r="1"/>
		<circle class="st0" cx="193" cy="513" r="1"/>
		<circle class="st0" cx="257" cy="513" r="1"/>
		<circle class="st0" cx="321" cy="513" r="1"/>
		<circle class="st0" cx="385" cy="513" r="1"/>
		<circle class="st0" cx="449" cy="513" r="1"/>
		<circle class="st0" cx="513" cy="513" r="1"/>
		<circle class="st0" cx="577" cy="513" r="1"/>
		<circle class="st0" cx="641" cy="513" r="1"/>
		<circle class="st0" cx="705" cy="513" r="1"/>
		<circle class="st0" cx="769" cy="513" r="1"/>
		<circle class="st0" cx="833" cy="513" r="1"/>
		<circle class="st0" cx="1" cy="577" r="1"/>
		<circle class="st0" cx="65" cy="577" r="1"/>
		<circle class="st0" cx="129" cy="577" r="1"/>
		<circle class="st0" cx="193" cy="577" r="1"/>
		<circle class="st0" cx="257" cy="577" r="1"/>
		<circle class="st0" cx="321" cy="577" r="1"/>
		<circle class="st0" cx="385" cy="577" r="1"/>
		<circle class="st0" cx="449" cy="577" r="1"/>
		<circle class="st0" cx="513" cy="577" r="1"/>
		<circle class="st0" cx="577" cy="577" r="1"/>
		<circle class="st0" cx="641" cy="577" r="1"/>
		<circle class="st0" cx="705" cy="577" r="1"/>
		<circle class="st0" cx="769" cy="577" r="1"/>
		<circle class="st0" cx="833" cy="577" r="1"/>
	</g>
</g>
</svg>
