<?xml version="1.0" encoding="utf-8"?>
<!-- Generator: Adobe Illustrator 23.0.6, SVG Export Plug-In . SVG Version: 6.00 Build 0)  -->
<!DOCTYPE svg PUBLIC "-//W3C//DTD SVG 1.1//EN" "http://www.w3.org/Graphics/SVG/1.1/DTD/svg11.dtd" [
	<!ENTITY ns_extend "http://ns.adobe.com/Extensibility/1.0/">
	<!ENTITY ns_ai "http://ns.adobe.com/AdobeIllustrator/10.0/">
	<!ENTITY ns_graphs "http://ns.adobe.com/Graphs/1.0/">
	<!ENTITY ns_vars "http://ns.adobe.com/Variables/1.0/">
	<!ENTITY ns_imrep "http://ns.adobe.com/ImageReplacement/1.0/">
	<!ENTITY ns_sfw "http://ns.adobe.com/SaveForWeb/1.0/">
	<!ENTITY ns_custom "http://ns.adobe.com/GenericCustomNamespace/1.0/">
	<!ENTITY ns_adobe_xpath "http://ns.adobe.com/XPath/1.0/">
]>
<svg version="1.1" id="Layer_1" xmlns:x="&ns_extend;" xmlns:i="&ns_ai;" xmlns:graph="&ns_graphs;"
	 xmlns="http://www.w3.org/2000/svg" xmlns:xlink="http://www.w3.org/1999/xlink" x="0px" y="0px" viewBox="0 0 30 30"
	 style="enable-background:new 0 0 30 30;" xml:space="preserve">
<style type="text/css">
	.st0{fill:none;stroke:#FFFFFF;stroke-width:0.5;stroke-miterlimit:10;}
</style>
<metadata>
	<sfw  xmlns="&ns_sfw;">
		<slices></slices>
		<sliceSourceBounds  bottomLeftOrigin="true" height="28.4" width="28.5" x="0.9" y="-29.4"></sliceSourceBounds>
	</sfw>
</metadata>
<path id="outline" class="st0" d="M29.1,16.5V14h-3.3c-0.3-2-1-3.9-2.2-5.4l2.3-2.3l-1.8-1.8l-2.3,2.3c-1.5-1.2-3.4-2-5.4-2.2V1.2
	h-2.5v3.3c-2,0.3-3.9,1-5.4,2.2L6.1,4.4L4.4,6.2l2.3,2.3c-1.2,1.5-2,3.4-2.2,5.4H1.1v2.5h3.3c0.3,2,1,3.9,2.2,5.4l-2.3,2.3L6.1,26
	l2.3-2.3c1.5,1.2,3.4,2,5.4,2.2v3.3h2.5v-3.3c2-0.3,3.9-1,5.4-2.2l2.3,2.3l1.8-1.8l-2.3-2.3c1.2-1.5,2-3.4,2.2-5.4L29.1,16.5
	L29.1,16.5z"/>
</svg>
