<?xml version="1.0" encoding="utf-8"?>
<!-- Generator: Adobe Illustrator 23.0.3, SVG Export Plug-In . SVG Version: 6.00 Build 0)  -->
<svg version="1.1" id="Layer_1" xmlns="http://www.w3.org/2000/svg" xmlns:xlink="http://www.w3.org/1999/xlink" x="0px" y="0px"
	 viewBox="0 0 500 500" style="enable-background:new 0 0 500 500;" xml:space="preserve">
<style type="text/css">
	.st0{opacity:0.15;}
	.st1{fill:#44375E;}
	.st2{clip-path:url(#SVGID_2_);}
	.st3{fill:#120223;}
	.st4{fill:#615777;}
	.st5{fill:#2F2549;}
	.st6{opacity:0.35;fill:none;stroke:#FFFFFF;stroke-width:5;stroke-linecap:round;stroke-miterlimit:10;enable-background:new    ;}
	.st7{clip-path:url(#SVGID_4_);}
	.st8{fill:#FFFFFF;}
	.st9{fill:#5C00D3;}
	.st10{clip-path:url(#SVGID_7_);}
	.st11{opacity:0.2;fill:#FFFFFF;enable-background:new    ;}
	.st12{opacity:0.2;clip-path:url(#SVGID_9_);fill:#615777;}
</style>
<g class="st0">
	<path d="M333.3,392H167.7c-2.6,0-4.7-2.1-4.7-4.7v-1.7c0-2.6,2.1-4.7,4.7-4.7h165.7c2.6,0,4.7,2.1,4.7,4.7v1.7
		C338,389.9,335.9,392,333.3,392z"/>
</g>
<g>
	<g id="Qregular">
		<g>
			<g>
				<path id="SVGID_5_" class="st1" d="M171.3,382.1l-30.2-44.4c-1.8-2.5-2.5-5.7-1.8-8.9l21.3-72.8c5.7-23.1,26.6-32.7,50.4-32.7
					l50.8,2.5c4.6,0.4,8.9,2.1,12.4,5.3l50.8,45.8c7.5,6.8,12.4,15.6,14.6,25.6l7.8,38c0.4,2.1,0,4.6-1.1,6.8l-14.2,33.4
					c-1.8,3.9-5.7,6-9.9,6H180.5C176.9,386.7,173.4,385,171.3,382.1z"/>
			</g>
			<g>
				<defs>
					<path id="SVGID_1_" d="M171.3,382.1l-30.2-44.4c-1.8-2.5-2.5-5.7-1.8-8.9l21.3-72.8c5.7-23.1,26.6-32.7,50.4-32.7l50.8,2.5
						c4.6,0.4,8.9,2.1,12.4,5.3l50.8,45.8c7.5,6.8,12.4,15.6,14.6,25.6l7.8,38c0.4,2.1,0,4.6-1.1,6.8l-14.2,33.4
						c-1.8,3.9-5.7,6-9.9,6H180.5C176.9,386.7,173.4,385,171.3,382.1z"/>
				</defs>
				<clipPath id="SVGID_2_">
					<use xlink:href="#SVGID_1_"  style="overflow:visible;"/>
				</clipPath>
				<g class="st2">
					<polygon class="st3" points="167,379.6 171.6,386.7 319.8,386.7 331.1,386.7 335.7,379.6 					"/>
					<path class="st4" d="M286.4,234.7c-15.6-1.8-72.8-6-86,4.6c-14.9,12.1-26.6,83.5-26.6,90.6c0,6,9.9,38.7,13.1,49.7H167
						c-3.6,0-3.6,2.8-5.3,0l-27.7-39.4c-1.8-2.5-2.5-5.7-1.8-8.9l28.4-75.3c5.7-23.1,23.8-37.7,48-37.7h34.8
						c3.6,0,19.2,2.5,21.3,5.3L286.4,234.7z"/>
					<path class="st5" d="M350.3,346.2l-12.8,27c-1.8,3.6,3.2,6-1.1,6H225.6c28.1-3.9,63.9-8.9,74.3-8.9c17.8,0,23.1-18.1,23.1-23.1
						c0-7.1,0-24.9-7.1-32c-7.1-7.1-19.5-5.3-37.3-8.9c-17.8-3.6-24.9-39.1-21.3-46.2c2.5-4.6,18.1-21.7,22.7-26.3l46.2,37.7
						c9.2,2.8,15.6,10.7,17.1,20.3l7.8,48C351.7,342,351.4,344.5,350.3,346.2z"/>
					<path class="st6" d="M171.6,253.5c0,0,7.1-17.8,24.9-21.3"/>
				</g>
			</g>
		</g>
		<g id="EyesOpen">
			<g>
				<defs>
					<rect id="SVGID_3_" x="166.6" y="287.3" width="127.9" height="31.6"/>
				</defs>
				<clipPath id="SVGID_4_">
					<use xlink:href="#SVGID_3_"  style="overflow:visible;"/>
				</clipPath>
				<g class="st7">
					<circle class="st8" cx="197.9" cy="291.9" r="23.1"/>
					<circle class="st3" cx="197.9" cy="291.9" r="11.7"/>
					<circle class="st8" cx="263.6" cy="291.9" r="23.1"/>
					<circle class="st3" cx="263.6" cy="291.9" r="11.7"/>
					<circle class="st9" cx="197.9" cy="291.9" r="4.6"/>
					<circle class="st9" cx="264.7" cy="291.9" r="4.6"/>
				</g>
			</g>
		</g>
		<g id="EyesClosed">
			<g>
				<defs>
					<rect id="SVGID_6_" x="166.6" y="258.8" width="127.9" height="28.4"/>
				</defs>
				<clipPath id="SVGID_7_">
					<use xlink:href="#SVGID_6_"  style="overflow:visible;"/>
				</clipPath>
				<g class="st10">
					<circle class="st11" cx="197.9" cy="291.9" r="23.1"/>
					<circle class="st11" cx="263.6" cy="291.9" r="23.1"/>
				</g>
			</g>
		</g>
	</g>
	<g>
		<defs>
			<path id="SVGID_8_" d="M261.3,200.7c-1.3,6.4-3.7,12-7.4,16.6s-12,8.3-12,8.3s-5.5,0.9-7.4,0c-1.8-0.9-0.9-3.7,2.8-6.5
				s3.7-11.1,2.8-22.1c-0.9-11.1-5.5-15.7-9.7-22.9c-8.2-14.3-11.2-29.9-17-45.3c-0.5-1.4-1.3-2.7-1.4-4.1c-0.2-2.7,1-6,2.3-8.4
				c1.2-2.2,2.6-2.7,5.1-2.7c1.5,0,2.6,1.5,4.1,2c1.1,0.4,2.3,0,3.4-0.4c3.7-1.1,7.7-0.8,11.2,0.7c1.8,0.7,3.6,1.8,5.5,1.2
				c1.1-0.4,2-1.4,3.2-1.6c1.7-0.4,3.9,0.6,4.6,2.2c3.1,7,2.2,11.6,1.3,14.3c0.5,7.6,4.8,16.6,10.1,22.1c2.5,2.6,5.4,4.8,8.4,6.9
				c12.9,9.1,26.8,16.4,39.6,25.6c12.8,9.1,25.2,20.2,31,34.8c4.6,11.5,2.7,30.9,0,34.6c-2.8,3.7-12.9,10.1-12.9,10.1
				s13.8,7.4,21.2,21.2c7.4,13.8,5.5,25.8,0,31.3c-5.5,5.5-15.7,12-15.7,12s0-10.1,2.8-19.4c2.8-9.2,2.2-11.9-1.2-20.3
				c-3.4-8.3-20.3-22.6-20.3-22.6l-24.2-22.1c0,0-4.8-23.3-11.5-33.6C274.6,204.8,261.7,198.4,261.3,200.7z"/>
		</defs>
		<use xlink:href="#SVGID_8_"  style="overflow:visible;fill:#FFFFFF;"/>
		<clipPath id="SVGID_9_">
			<use xlink:href="#SVGID_8_"  style="overflow:visible;"/>
		</clipPath>
		<path class="st12" d="M217.5,142.2c0,0,5.5,8.3,11.1,9.2c5.5,0.9,19.8-6.9,21.7-9.7c0,0-1.3,10.4-3.7,15.7
			c-7.8,17.1-8.3,38.7-8.3,38.7l-18.4-36.9l-0.9-12.9L217.5,142.2z"/>
		<path class="st12" d="M260.8,205.8l3.7-16.6c0,0,12,2.8,17.5,10.1c5.5,7.4,6.5,16.6,7.4,27.7c0.9,11.1,0,26.7,0,26.7l-25.8-35.9
			L260.8,205.8z"/>
		<path class="st12" d="M333.6,205.8c0,0,9.2,7.4,7.4,22.1c-1.8,14.7-9.2,22.1-13.8,24.9s-14.7,7.4-14.7,7.4s19.4,5.5,26.7,11.1
			s17.5-18.4,17.5-18.4l-1.8-33.2L333.6,205.8z"/>
		<path class="st12" d="M330.9,303.5c0,0,0.9,16.6,29.5,12.9c28.6-3.7-5.5,20.3-5.5,20.3l-35.9,13.8l-7.4-37.8L330.9,303.5z"/>
	</g>
	<path class="st3" d="M223.9,129.2c-1.6-0.5-3.2,4.3-1.6,4.8C223.9,134.5,227.1,130.2,223.9,129.2"/>
	<path class="st3" d="M240.2,130.9c-2.4,0-0.9,5.3,0.8,5S242.6,130.9,240.2,130.9z"/>
	<path class="st3" d="M229.5,138.5c-3.7,0-3.7,1.8-3.7,2.8c0,0.9,2.8,3.7,3.7,3.7c0.9,0,3.7-1.8,3.7-3.7S231.3,138.5,229.5,138.5z"
		/>
</g>
</svg>
