<?xml version="1.0" encoding="utf-8"?>
<!-- Generator: Adobe Illustrator 23.0.3, SVG Export Plug-In . SVG Version: 6.00 Build 0)  -->
<svg version="1.1" id="Layer_1" xmlns="http://www.w3.org/2000/svg" xmlns:xlink="http://www.w3.org/1999/xlink" x="0px" y="0px"
	 viewBox="0 0 834 578" style="enable-background:new 0 0 834 578;" xml:space="preserve">
<style type="text/css">
	.st0{fill:none;}
	.st1{fill:#3C2C50;}
	.st2{fill:#EDEAF4;}
	.st3{fill:#5A4278;}
	.st4{clip-path:url(#SVGID_5_);}
	.st5{fill:#AA93CC;}
	.st6{fill:#44375E;}
	.st7{clip-path:url(#SVGID_7_);}
	.st8{fill:#615777;}
	.st9{fill:#2F2549;}
	.st10{fill:#120223;}
	.st11{clip-path:url(#SVGID_9_);}
	.st12{fill:#FFFFFF;}
	.st13{fill:#5C00D3;}
	.st14{clip-path:url(#SVGID_11_);}
	.st15{opacity:0.35;fill:#FFFFFF;enable-background:new    ;}
	.st16{fill:#FF0055;}
	.st17{fill:none;stroke:#FF0055;stroke-miterlimit:10;}
	.st18{fill:#61DBEF;}
	.st19{fill:#4AD1D8;}
	.st20{fill:#4AC4D1;}
	.st21{opacity:0.66;}
	.st22{opacity:0.82;}
	.st23{opacity:0.1;fill:#FFFFFF;enable-background:new    ;}
	.st24{opacity:0.4;fill:#120223;enable-background:new    ;}
	.st25{opacity:0.27;}
	.st26{fill:url(#SVGID_12_);}
	.st27{clip-path:url(#SVGID_14_);}
	.st28{clip-path:url(#SVGID_16_);}
	.st29{clip-path:url(#SVGID_19_);}
	.st30{fill:#FAFF1F;}
	.st31{fill:#FFD31A;}
	.st32{fill:none;stroke:#FFD31A;stroke-miterlimit:10;}
	.st33{opacity:0.25;fill:#61DBEF;enable-background:new    ;}
	.st34{fill:none;stroke:#61DBEF;stroke-width:3;stroke-miterlimit:10;}
	.st35{opacity:0.5;fill:#FAFCFC;enable-background:new    ;}
	.st36{opacity:0.64;}
	.st37{fill:#0071DD;}
	.st38{fill:#004693;}
	.st39{fill:#4D3180;}
	.st40{fill:#4D4FB4;}
	.st41{clip-path:url(#SVGID_21_);}
	.st42{fill:#940FEA;}
	.st43{fill:none;stroke:#FF0055;stroke-width:3;stroke-linecap:round;stroke-miterlimit:10;}
	.st44{fill:#4E3B6B;}
	.st45{clip-path:url(#SVGID_23_);}
	.st46{fill:#41A0A5;}
	.st47{clip-path:url(#SVGID_25_);}
	.st48{fill:#57C703;}
	.st49{fill:#77D807;}
	.st50{clip-path:url(#SVGID_27_);fill:#57C703;}
	.st51{clip-path:url(#SVGID_29_);fill:#007F12;}
	.st52{fill:#5CAA19;}
	.st53{fill:#489F16;}
	.st54{clip-path:url(#SVGID_32_);}
	.st55{fill:#007F12;}
	.st56{opacity:0.5;clip-path:url(#SVGID_34_);fill:#77D807;enable-background:new    ;}
	.st57{opacity:0.37;}
	.st58{fill:#2E5B37;}
</style>
<pattern  y="578" width="3" height="3" patternUnits="userSpaceOnUse" id="SVGID_31_" viewBox="0 -3 3 3" style="overflow:visible;">
	<g>
		<rect y="-3" class="st0" width="3" height="3"/>
		<g>
			<rect y="-3" class="st0" width="3" height="3"/>
			<g>
				<rect y="-3" class="st0" width="3" height="3"/>
				<rect x="1" y="-2" class="st1" width="1" height="1"/>
				<rect y="-3" class="st0" width="3" height="3"/>
			</g>
		</g>
	</g>
</pattern>
<g>
	<g>
		<circle class="st2" cx="1" cy="1" r="1"/>
		<circle class="st2" cx="65" cy="1" r="1"/>
		<circle class="st2" cx="129" cy="1" r="1"/>
		<circle class="st2" cx="193" cy="1" r="1"/>
		<circle class="st2" cx="257" cy="1" r="1"/>
		<circle class="st2" cx="321" cy="1" r="1"/>
		<circle class="st2" cx="385" cy="1" r="1"/>
		<circle class="st2" cx="449" cy="1" r="1"/>
		<circle class="st2" cx="513" cy="1" r="1"/>
		<circle class="st2" cx="577" cy="1" r="1"/>
		<circle class="st2" cx="641" cy="1" r="1"/>
		<circle class="st2" cx="705" cy="1" r="1"/>
		<circle class="st2" cx="769" cy="1" r="1"/>
		<circle class="st2" cx="833" cy="1" r="1"/>
		<circle class="st2" cx="1" cy="65" r="1"/>
		<circle class="st2" cx="65" cy="65" r="1"/>
		<circle class="st2" cx="129" cy="65" r="1"/>
		<circle class="st2" cx="193" cy="65" r="1"/>
		<circle class="st2" cx="257" cy="65" r="1"/>
		<circle class="st2" cx="321" cy="65" r="1"/>
		<circle class="st2" cx="385" cy="65" r="1"/>
		<circle class="st2" cx="449" cy="65" r="1"/>
		<circle class="st2" cx="513" cy="65" r="1"/>
		<circle class="st2" cx="577" cy="65" r="1"/>
		<circle class="st2" cx="641" cy="65" r="1"/>
		<circle class="st2" cx="705" cy="65" r="1"/>
		<circle class="st2" cx="769" cy="65" r="1"/>
		<circle class="st2" cx="833" cy="65" r="1"/>
		<circle class="st2" cx="1" cy="129" r="1"/>
		<circle class="st2" cx="65" cy="129" r="1"/>
		<circle class="st2" cx="129" cy="129" r="1"/>
		<circle class="st2" cx="193" cy="129" r="1"/>
		<circle class="st2" cx="257" cy="129" r="1"/>
		<circle class="st2" cx="321" cy="129" r="1"/>
		<circle class="st2" cx="385" cy="129" r="1"/>
		<circle class="st2" cx="449" cy="129" r="1"/>
		<circle class="st2" cx="513" cy="129" r="1"/>
		<circle class="st2" cx="577" cy="129" r="1"/>
		<circle class="st2" cx="641" cy="129" r="1"/>
		<circle class="st2" cx="705" cy="129" r="1"/>
		<circle class="st2" cx="769" cy="129" r="1"/>
		<circle class="st2" cx="833" cy="129" r="1"/>
		<circle class="st2" cx="1" cy="193" r="1"/>
		<circle class="st2" cx="65" cy="193" r="1"/>
		<circle class="st2" cx="129" cy="193" r="1"/>
		<circle class="st2" cx="193" cy="193" r="1"/>
		<circle class="st2" cx="257" cy="193" r="1"/>
		<circle class="st2" cx="321" cy="193" r="1"/>
		<circle class="st2" cx="385" cy="193" r="1"/>
		<circle class="st2" cx="449" cy="193" r="1"/>
		<circle class="st2" cx="513" cy="193" r="1"/>
		<circle class="st2" cx="577" cy="193" r="1"/>
		<circle class="st2" cx="641" cy="193" r="1"/>
		<circle class="st2" cx="705" cy="193" r="1"/>
		<circle class="st2" cx="769" cy="193" r="1"/>
		<circle class="st2" cx="833" cy="193" r="1"/>
		<circle class="st2" cx="1" cy="257" r="1"/>
		<circle class="st2" cx="65" cy="257" r="1"/>
		<circle class="st2" cx="129" cy="257" r="1"/>
		<circle class="st2" cx="193" cy="257" r="1"/>
		<circle class="st2" cx="257" cy="257" r="1"/>
		<circle class="st2" cx="321" cy="257" r="1"/>
		<circle class="st2" cx="385" cy="257" r="1"/>
		<circle class="st2" cx="449" cy="257" r="1"/>
		<circle class="st2" cx="513" cy="257" r="1"/>
		<circle class="st2" cx="577" cy="257" r="1"/>
		<circle class="st2" cx="641" cy="257" r="1"/>
		<circle class="st2" cx="705" cy="257" r="1"/>
		<circle class="st2" cx="769" cy="257" r="1"/>
		<circle class="st2" cx="833" cy="257" r="1"/>
		<circle class="st2" cx="1" cy="321" r="1"/>
		<circle class="st2" cx="65" cy="321" r="1"/>
		<circle class="st2" cx="129" cy="321" r="1"/>
		<circle class="st2" cx="193" cy="321" r="1"/>
		<circle class="st2" cx="257" cy="321" r="1"/>
		<circle class="st2" cx="321" cy="321" r="1"/>
		<circle class="st2" cx="385" cy="321" r="1"/>
		<circle class="st2" cx="449" cy="321" r="1"/>
		<circle class="st2" cx="513" cy="321" r="1"/>
		<circle class="st2" cx="577" cy="321" r="1"/>
		<circle class="st2" cx="641" cy="321" r="1"/>
		<circle class="st2" cx="705" cy="321" r="1"/>
		<circle class="st2" cx="769" cy="321" r="1"/>
		<circle class="st2" cx="833" cy="321" r="1"/>
		<circle class="st2" cx="1" cy="385" r="1"/>
		<circle class="st2" cx="65" cy="385" r="1"/>
		<circle class="st2" cx="129" cy="385" r="1"/>
		<circle class="st2" cx="193" cy="385" r="1"/>
		<circle class="st2" cx="257" cy="385" r="1"/>
		<circle class="st2" cx="321" cy="385" r="1"/>
		<circle class="st2" cx="385" cy="385" r="1"/>
		<circle class="st2" cx="449" cy="385" r="1"/>
		<circle class="st2" cx="513" cy="385" r="1"/>
		<circle class="st2" cx="577" cy="385" r="1"/>
		<circle class="st2" cx="641" cy="385" r="1"/>
		<circle class="st2" cx="705" cy="385" r="1"/>
		<circle class="st2" cx="769" cy="385" r="1"/>
		<circle class="st2" cx="833" cy="385" r="1"/>
		<circle class="st2" cx="1" cy="449" r="1"/>
		<circle class="st2" cx="65" cy="449" r="1"/>
		<circle class="st2" cx="129" cy="449" r="1"/>
		<circle class="st2" cx="193" cy="449" r="1"/>
		<circle class="st2" cx="257" cy="449" r="1"/>
		<circle class="st2" cx="321" cy="449" r="1"/>
		<circle class="st2" cx="385" cy="449" r="1"/>
		<circle class="st2" cx="449" cy="449" r="1"/>
		<circle class="st2" cx="513" cy="449" r="1"/>
		<circle class="st2" cx="577" cy="449" r="1"/>
		<circle class="st2" cx="641" cy="449" r="1"/>
		<circle class="st2" cx="705" cy="449" r="1"/>
		<circle class="st2" cx="769" cy="449" r="1"/>
		<circle class="st2" cx="833" cy="449" r="1"/>
		<circle class="st2" cx="1" cy="513" r="1"/>
		<circle class="st2" cx="65" cy="513" r="1"/>
		<circle class="st2" cx="129" cy="513" r="1"/>
		<circle class="st2" cx="193" cy="513" r="1"/>
		<circle class="st2" cx="257" cy="513" r="1"/>
		<circle class="st2" cx="321" cy="513" r="1"/>
		<circle class="st2" cx="385" cy="513" r="1"/>
		<circle class="st2" cx="449" cy="513" r="1"/>
		<circle class="st2" cx="513" cy="513" r="1"/>
		<circle class="st2" cx="577" cy="513" r="1"/>
		<circle class="st2" cx="641" cy="513" r="1"/>
		<circle class="st2" cx="705" cy="513" r="1"/>
		<circle class="st2" cx="769" cy="513" r="1"/>
		<circle class="st2" cx="833" cy="513" r="1"/>
		<circle class="st2" cx="1" cy="577" r="1"/>
		<circle class="st2" cx="65" cy="577" r="1"/>
		<circle class="st2" cx="129" cy="577" r="1"/>
		<circle class="st2" cx="193" cy="577" r="1"/>
		<circle class="st2" cx="257" cy="577" r="1"/>
		<circle class="st2" cx="321" cy="577" r="1"/>
		<circle class="st2" cx="385" cy="577" r="1"/>
		<circle class="st2" cx="449" cy="577" r="1"/>
		<circle class="st2" cx="513" cy="577" r="1"/>
		<circle class="st2" cx="577" cy="577" r="1"/>
		<circle class="st2" cx="641" cy="577" r="1"/>
		<circle class="st2" cx="705" cy="577" r="1"/>
		<circle class="st2" cx="769" cy="577" r="1"/>
		<circle class="st2" cx="833" cy="577" r="1"/>
	</g>
	<g>
		<g>
			
				<rect id="SVGID_1_" x="538" y="195" transform="matrix(0.7071 -0.7071 0.7071 0.7071 0.5247 451.2711)" class="st3" width="14" height="60"/>
		</g>
		<g>
			<g>
				<defs>
					
						<rect id="SVGID_3_" x="538" y="195" transform="matrix(0.7071 -0.7071 0.7071 0.7071 0.5247 451.2711)" width="14" height="60"/>
				</defs>
				<clipPath id="SVGID_5_">
					<use xlink:href="#SVGID_3_"  style="overflow:visible;"/>
				</clipPath>
				<g class="st4">
					<polygon class="st5" points="537.2,254.6 527.9,251 530.1,180.9 539.4,184.6 					"/>
					<polygon class="st5" points="541.4,255.9 539.6,255.3 541.7,185.3 543.5,185.9 					"/>
				</g>
			</g>
		</g>
	</g>
	<g>
		<g>
			<g>
				<path id="SVGID_17_" class="st6" d="M523,122.7l-7.3-12.5c-0.5-0.7-0.7-1.6-0.5-2.5l6-20.5c1.6-6.5,7.5-9.2,14.2-9.2l14.1,0.9
					c1.6,0.1,3.1,0.7,4.4,1.7L568,92.4c1.3,1,2.1,2.5,2.5,4.1l3.3,14.6c0.1,0.6,0,1.3-0.3,1.9l-3.7,9.4c-0.5,1.1-1.6,1.7-2.8,1.7
					h-41.5C524.5,124,523.5,123.5,523,122.7z"/>
			</g>
			<g>
				<g>
					<defs>
						<path id="SVGID_6_" d="M523,122.7l-7.3-12.5c-0.5-0.7-0.7-1.6-0.5-2.5l6-20.5c1.6-6.5,7.5-9.2,14.2-9.2l14.1,0.9
							c1.6,0.1,3.1,0.7,4.4,1.7L568,92.4c1.3,1,2.1,2.5,2.5,4.1l3.3,14.6c0.1,0.6,0,1.3-0.3,1.9l-3.7,9.4c-0.5,1.1-1.6,1.7-2.8,1.7
							h-41.5C524.5,124,523.5,123.5,523,122.7z"/>
					</defs>
					<clipPath id="SVGID_7_">
						<use xlink:href="#SVGID_6_"  style="overflow:visible;"/>
					</clipPath>
					<g class="st7">
						<path class="st8" d="M558,82c-4.4-0.5-21.9-2.4-25.5,0.5c-4.2,3.4-7.5,23.5-7.5,25.5c0,1.7,2.8,10.9,3.7,14l-3.7,2
							c-1,0-5.4-1.2-6-2l-6-10c-0.5-0.7-1.2-3.1-1-4l7-22c1.6-6.5,8.3-10,15-10h11c1,0,5.4-0.8,6,0L558,82z"/>
						<path class="st9" d="M575,113l-3,8c-0.5,1-1.8,3-3,3l-29.4-2c7.9-1.1,17.4-2,20.9-2.5c4.9-0.7,6.5-3.5,6.5-6.5c0-2,0-7-2-9
							s-5.5-1.5-10.5-2.5s-7-11-6-13c0.7-1.3,7.3-7.2,8.5-8.5l12,11c2.6,0.8,2.2,6.7,2.6,9.4l4.4,9.6C576,110.6,575.2,112.4,575,113
							z"/>
						<polygon class="st10" points="522,125 571,125 572,122 519,122 						"/>
					</g>
				</g>
			</g>
		</g>
		<g>
			<g>
				<g>
					<defs>
						<polygon id="SVGID_8_" points="559,96 523,96 524.2,104.9 559,104.9 						"/>
					</defs>
					<clipPath id="SVGID_9_">
						<use xlink:href="#SVGID_8_"  style="overflow:visible;"/>
					</clipPath>
					<g class="st11">
						<circle class="st12" cx="531.8" cy="97.3" r="6.5"/>
						<circle class="st10" cx="531.8" cy="97.3" r="3.3"/>
						<circle class="st12" cx="550.2" cy="97.3" r="6.5"/>
						<circle class="st10" cx="550.2" cy="97.3" r="3.3"/>
						<circle class="st13" cx="531.8" cy="97.3" r="1.3"/>
						<circle class="st13" cx="550.2" cy="97.3" r="1.3"/>
					</g>
				</g>
			</g>
		</g>
		<g>
			<g>
				<g>
					<defs>
						<rect id="SVGID_10_" x="521.8" y="88" width="36" height="8"/>
					</defs>
					<clipPath id="SVGID_11_">
						<use xlink:href="#SVGID_10_"  style="overflow:visible;"/>
					</clipPath>
					<g class="st14">
						<circle class="st8" cx="531.8" cy="97.3" r="6.5"/>
						<circle class="st8" cx="550.2" cy="97.3" r="6.5"/>
					</g>
				</g>
			</g>
		</g>
		<path class="st15" d="M524.3,87.2c-0.1,0-0.2,0-0.3-0.1c-0.4-0.2-0.6-0.6-0.4-1c0.1-0.2,2.2-5.4,7.5-6.5c0.4-0.1,0.8,0.2,0.9,0.6
			c0.1,0.4-0.2,0.8-0.6,0.9c-4.5,0.9-6.4,5.5-6.5,5.5C524.8,87.1,524.7,87.2,524.3,87.2z"/>
	</g>
	<g>
		<path class="st10" d="M572.8,483.5v-5h-6.5c-0.5-4-2-7.6-4.4-10.6l4.6-4.6l-3.5-3.5l-4.6,4.6c-3-2.4-6.6-3.9-10.6-4.4v-6.4h-5v6.4
			c-4,0.5-7.6,2-10.6,4.4l-4.6-4.6l-3.5,3.5l4.6,4.6c-2.4,3-3.9,6.6-4.4,10.6h-6.6v5h6.4c0.5,4,2,7.6,4.4,10.6l-4.6,4.6l3.5,3.5
			l4.6-4.6c3,2.4,6.6,3.9,10.6,4.4v6.4h5V502c4-0.5,7.6-2,10.6-4.4l4.6,4.6l3.5-3.5l-4.6-4.6c2.4-3,3.9-6.6,4.4-10.6H572.8z"/>
		<path class="st12" d="M540.3,471.6v-5.9c-4.9,1.5-8.8,5.4-10.3,10.3h5.9C536.9,474.2,538.4,472.7,540.3,471.6z"/>
	</g>
	<g>
		<circle class="st16" cx="160.9" cy="97" r="30"/>
		<polygon class="st12" points="184.8,97 147.6,76 147.6,118 		"/>
		<g>
			<g>
				<line class="st17" x1="170.9" y1="97" x2="150.4" y2="97"/>
				<line class="st17" x1="160.6" y1="86.8" x2="160.6" y2="107.2"/>
				<line class="st17" x1="168.6" y1="105.1" x2="152.6" y2="88.9"/>
				<line class="st17" x1="168.6" y1="88.9" x2="152.6" y2="105.1"/>
			</g>
			<g>
				<line class="st17" x1="167.6" y1="94.1" x2="153.6" y2="99.9"/>
				<line class="st17" x1="157.8" y1="90" x2="163.6" y2="104"/>
				<line class="st17" x1="167.6" y1="99.9" x2="153.6" y2="94.1"/>
				<line class="st17" x1="163.6" y1="90" x2="157.8" y2="104"/>
			</g>
		</g>
	</g>
	<g>
		
			<rect x="153.9" y="195" transform="matrix(0.7071 -0.7071 0.7071 0.7071 -111.9936 179.6931)" class="st18" width="14" height="60"/>
		<g>
			<path class="st19" d="M152.9,226.8l-11.3-11.3c12.2,1.2,21.4,4.5,27,7.2l11.3,11.3C174.2,231.4,165.1,228,152.9,226.8z"/>
			<path class="st20" d="M141.6,215.5l-6.8-6.8l9.9-9.9l23.9,23.9C162.9,220.1,153.8,216.7,141.6,215.5z"/>
		</g>
	</g>
	<g>
		<g>
			<g class="st21">
				<path class="st18" d="M437.5,377.7c1.8-1,3.2-2.4,4.2-4.2c-0.9,0.5-2,0.9-3.1,1.1C438.5,375.8,438,376.8,437.5,377.7z"/>
			</g>
			<g class="st21">
				<path class="st18" d="M396.4,328.3c-1.8,1-3.2,2.4-4.2,4.2c0.9-0.5,2-0.9,3.1-1.1C395.5,330.2,395.9,329.2,396.4,328.3z"/>
			</g>
			<g>
				<path class="st18" d="M443,337.4c0-5.7-4.7-10.4-10.4-10.4h-31.2c-1.8,0-3.5,0.5-5,1.3c-0.5,0.9-0.9,2-1.1,3.1
					c0.6-0.1,1.2-0.2,1.9-0.2h31.2c5.7,0,10.4,4.7,10.4,10.4v31.2c0,0.6-0.1,1.3-0.2,1.9c1.1-0.2,2.1-0.6,3.1-1.1
					c0.8-1.5,1.3-3.2,1.3-5L443,337.4L443,337.4z"/>
			</g>
			<g class="st22">
				<path class="st18" d="M436.8,374.8h-31.2c-5.7,0-10.4-4.7-10.4-10.4v-31.2c0-0.6,0.1-1.3,0.2-1.9c-1.1,0.2-2.1,0.6-3.1,1.1
					c-0.8,1.5-1.3,3.2-1.3,5v31.2c0,5.7,4.7,10.4,10.4,10.4h31.2c1.8,0,3.5-0.5,5-1.3c0.5-0.9,0.9-2,1.1-3.1
					C438,374.8,437.4,374.8,436.8,374.8z"/>
			</g>
			<g class="st21">
				<path class="st18" d="M395.1,364.4c0,5.7,4.7,10.4,10.4,10.4h31.2c0.6,0,1.3-0.1,1.9-0.2c0.1-0.6,0.2-1.2,0.2-1.9v-31.2
					c0-5.7-4.7-10.4-10.4-10.4h-31.3c-0.6,0-1.3,0.1-1.9,0.2c-0.1,0.6-0.2,1.2-0.2,1.9L395.1,364.4L395.1,364.4z"/>
			</g>
		</g>
		<path class="st23" d="M432.5,327h-31.2c-1.2,0-2.3,0.2-3.4,0.6c3.4,9.3,12.5,28.8,34.5,51.4h0.1c5.7,0,10.4-4.7,10.4-10.4v-31.2
			C443,331.7,438.2,327,432.5,327z"/>
		<path class="st23" d="M432.5,327h-19.3c4.6,7,13.8,18.6,29.7,28.9v-18.5C443,331.7,438.2,327,432.5,327z"/>
	</g>
	<g>
		<path class="st24" d="M529.3,382.5h31.2c5.7,0,10.4-4.7,10.4-10.4v-31.2c0-5.7-4.7-10.4-10.4-10.4h-31.2
			c-5.7,0-10.4,4.7-10.4,10.4v31.2C519,377.8,523.7,382.5,529.3,382.5z"/>
		<g class="st25">
			<path class="st18" d="M560.5,335.5c3,0,5.4,2.4,5.4,5.4v31.2c0,3-2.4,5.4-5.4,5.4h-31.2c-3,0-5.4-2.4-5.4-5.4v-31.2
				c0-3,2.4-5.4,5.4-5.4H560.5 M560.5,330.5h-31.2c-5.7,0-10.4,4.7-10.4,10.4v31.2c0,5.7,4.7,10.4,10.4,10.4h31.2
				c5.7,0,10.4-4.7,10.4-10.4v-31.2C571,335.2,566.2,330.5,560.5,330.5L560.5,330.5z"/>
		</g>
		<rect x="529" y="327.5" class="st18" width="31" height="2.9"/>
		<rect x="525" y="325" class="st18" width="39" height="3"/>
		<g>
			<g>
				<path class="st18" d="M560.5,331.5c5.2,0,9.4,4.2,9.4,9.4v31.2c0,5.2-4.2,9.4-9.4,9.4h-31.2c-5.2,0-9.4-4.2-9.4-9.4v-31.2
					c0-5.2,4.2-9.4,9.4-9.4H560.5 M560.5,330.5h-31.2c-5.7,0-10.4,4.7-10.4,10.4v31.2c0,5.7,4.7,10.4,10.4,10.4h31.2
					c5.7,0,10.4-4.7,10.4-10.4v-31.2C571,335.2,566.2,330.5,560.5,330.5L560.5,330.5z"/>
			</g>
		</g>
	</g>
	<g>
		<g>
			<path class="st3" d="M657.4,379h31.2c5.7,0,10.4-4.7,10.4-10.4v-31.2c0-5.7-4.7-10.4-10.4-10.4h-31.2c-5.7,0-10.4,4.7-10.4,10.4
				v31.2C647,374.3,651.7,379,657.4,379z"/>
		</g>
		<g>
			<pattern  id="SVGID_12_" xlink:href="#SVGID_31_" patternTransform="matrix(2.08 0 0 2.08 25143.4395 37404.1602)">
			</pattern>
			<path class="st26" d="M657.4,379h31.2c5.7,0,10.4-4.7,10.4-10.4v-31.2c0-5.7-4.7-10.4-10.4-10.4h-31.2c-5.7,0-10.4,4.7-10.4,10.4
				v31.2C647,374.3,651.7,379,657.4,379z"/>
		</g>
	</g>
	<g>
		<g>
			<g>
				<polygon id="SVGID_100_" class="st3" points="695,212.3 673,199.5 650.8,212.3 673,225 				"/>
			</g>
			<g>
				<g>
					<defs>
						<polygon id="SVGID_13_" points="695,212.3 673,199.5 650.8,212.3 673,225 						"/>
					</defs>
					<clipPath id="SVGID_14_">
						<use xlink:href="#SVGID_13_"  style="overflow:visible;"/>
					</clipPath>
					<g class="st27">
						<polygon class="st5" points="703.2,181.4 708.2,190 662.7,243.3 657.8,234.6 						"/>
						<polygon class="st5" points="700.8,177.7 701.8,179.3 656.3,232.6 655.2,231 						"/>
					</g>
				</g>
			</g>
		</g>
		<g>
			<g>
				<polygon id="SVGID_102_" class="st3" points="649.8,214.2 649.8,239.8 672,252.5 672,227 				"/>
			</g>
			<g>
				<g>
					<defs>
						<polygon id="SVGID_15_" points="649.8,214.2 649.8,239.8 672,252.5 672,227 						"/>
					</defs>
					<clipPath id="SVGID_16_">
						<use xlink:href="#SVGID_15_"  style="overflow:visible;"/>
					</clipPath>
					<g class="st28">
						<polygon class="st5" points="619.2,228.8 622.7,219.5 692.7,219.5 689.3,228.9 						"/>
						<polygon class="st5" points="618,233.1 618.7,231.2 688.7,231.3 688.2,233.2 						"/>
					</g>
				</g>
			</g>
		</g>
		<g>
			<g>
				<polygon id="SVGID_104_" class="st3" points="674,252.5 696,239.8 696,214.3 674,227 				"/>
			</g>
			<g>
				<g>
					<defs>
						<polygon id="SVGID_18_" points="674,252.5 696,239.8 696,214.3 674,227 						"/>
					</defs>
					<clipPath id="SVGID_19_">
						<use xlink:href="#SVGID_18_"  style="overflow:visible;"/>
					</clipPath>
					<g class="st29">
						<polygon class="st5" points="703.8,271 694,273.3 655.5,214.8 665.2,212.4 						"/>
						<polygon class="st5" points="708,269.6 706,270.2 667.7,211.7 669.5,211.1 						"/>
					</g>
				</g>
			</g>
		</g>
	</g>
	<g>
		<polygon class="st18" points="444,198 391.4,198 444,250.6 		"/>
		<polygon class="st20" points="442.6,252 390,199.4 390,252 		"/>
	</g>
	<g>
		<g>
			
				<rect x="282.2" y="196.7" transform="matrix(0.7071 -0.7071 0.7071 0.7071 -75.6184 270.9066)" class="st18" width="14" height="60"/>
			<g>
				<path class="st19" d="M281.2,228.5l-11.3-11.3c12.2,1.2,21.4,4.5,27,7.2l11.3,11.3C302.5,233.1,293.4,229.7,281.2,228.5z"/>
				<path class="st20" d="M269.9,217.2l-6.8-6.8l9.9-9.9l23.9,23.9C291.2,221.8,282.1,218.4,269.9,217.2z"/>
			</g>
		</g>
		
			<rect x="293.9" y="191.1" transform="matrix(0.7071 -0.7071 0.7071 0.7071 -69.9478 273.3026)" class="st3" width="2" height="60"/>
	</g>
	<g>
		<g>
			<g>
				<circle class="st30" cx="433.2" cy="473.2" r="7.6"/>
				<path class="st31" d="M433.2,466.6c3.6,0,6.6,3,6.6,6.6s-3,6.6-6.6,6.6s-6.6-3-6.6-6.6C426.5,469.5,429.5,466.6,433.2,466.6
					 M433.2,464.6c-4.7,0-8.6,3.8-8.6,8.6s3.8,8.6,8.6,8.6c4.8,0,8.6-3.8,8.6-8.6S437.9,464.6,433.2,464.6L433.2,464.6z"/>
			</g>
			<g>
				<line class="st32" x1="433.3" y1="468" x2="433.3" y2="478"/>
			</g>
			<g>
				<line class="st32" x1="438.3" y1="473" x2="428.3" y2="473"/>
			</g>
			<g>
				<line class="st32" x1="429.8" y1="469.5" x2="436.8" y2="476.5"/>
			</g>
			<g>
				<line class="st32" x1="436.8" y1="469.5" x2="429.8" y2="476.5"/>
			</g>
			<g>
				<circle class="st30" cx="433.2" cy="473.2" r="2.1"/>
			</g>
			<polygon class="st33" points="430.2,506.5 406.2,506.5 403.2,473.5 433.2,473.5 			"/>
			<path class="st34" d="M391.8,468.5l7-8.9c1.3-1.6,3.7-0.9,4.1,1.1l12.7,45.8"/>
			<rect x="404.3" y="487" class="st18" width="28" height="19"/>
		</g>
		<polygon class="st35" points="408.3,474 411.3,507 413.3,507 410.3,474 		"/>
		<polygon class="st35" points="412.3,474 415.3,507 417.3,507 414.3,474 		"/>
		<g class="st36">
			<path class="st18" d="M432.3,474v32h-28v-32H432.3 M433.3,473h-30v34h30V473L433.3,473z"/>
		</g>
	</g>
	<g>
		<path class="st37" d="M268.1,485.3c0.1,0,0.3,0,0.4,0l0,0H311v-16.7h-42.5l0,0c-0.1,0-0.3,0-0.4,0c-3.7,0-6.8,3.7-6.8,8.3
			C261.2,481.6,264.2,485.3,268.1,485.3"/>
		<path class="st38" d="M310.5,485.3c3.7,0,6.8-3.7,6.8-8.3c0-4.6-3-8.3-6.8-8.3c-3.7,0-6.8,3.7-6.8,8.3
			C303.7,481.6,306.7,485.3,310.5,485.3"/>
		<path class="st16" d="M276.5,466.7v2c-1.8,0-3.3,0.5-4.4,1.6c-3,3-2.9,9.7-2.9,14.5c0,0.6,0,1.1,0,1.6v9.5h-2v-9.5
			c0-0.5,0-1,0-1.6c0-5.2-0.1-12.3,3.5-15.9C272.2,467.4,274.2,466.7,276.5,466.7z"/>
		<path class="st16" d="M312.2,496v-9.5c0-0.4,0-0.9,0-1.4c-0.6,0.2-1.2,0.3-1.8,0.3h-0.2c0,0.4,0,0.8,0,1.1v9.5H312.2"/>
		<path class="st16" d="M300.1,485.4c-0.3,0-0.6-0.1-0.8-0.1h-2c-0.4,0.4-0.8,0.7-1.3,1c1.3,0.8,2.9,1.1,4.8,1.1v-0.1
			c-0.3,0-0.5,0-0.8,0v-1.9"/>
		<path class="st16" d="M304.9,468.7v-2c-1.6,0-3.1,0.3-4.4,0.7c0.9,0.3,1.7,0.7,2.5,1.2L304.9,468.7"/>
		<path class="st16" d="M295.2,468.7v-2c-1.4,0-2.7,0.2-4,0.6c1.1,0.3,2,0.8,2.9,1.4H295.2"/>
		<path class="st16" d="M286.4,486.3c1.3,0.8,2.9,1.1,4.9,1.1v-2c-0.6,0-1.2,0-1.7-0.1h-1.9C287.2,485.7,286.9,486,286.4,486.3"/>
		<path class="st16" d="M281.7,485.4c-0.3,0-0.6-0.1-0.8-0.1h-4.4c1.4,1.4,3.4,2.1,6.1,2.1v-0.1c-0.3,0-0.5,0-0.8,0L281.7,485.4"/>
		<path class="st16" d="M286.4,468.7v-2c-1.6,0-3.1,0.3-4.4,0.7c0.9,0.3,1.7,0.7,2.5,1.2L286.4,468.7"/>
		<path class="st16" d="M300.5,467.4c-1.4-0.5-2.9-0.8-5.3-0.8v2c1.1,0,1.4,0,1.8,0.1h1C298.7,468.2,299.5,467.7,300.5,467.4"/>
		<path class="st16" d="M300.1,485.4L300.1,485.4c0.3,0,0.5,0.1,0.8,0.1v1.9c2.2-0.1,4-0.8,5.2-2h-4.8
			C300.9,485.4,300.4,485.4,300.1,485.4"/>
		<path class="st16" d="M300.1,485.4v2c0.3,0,0.6,0,0.8,0v-1.9C300.5,485.5,300.2,485.4,300.1,485.4"/>
		<path class="st16" d="M300.1,485.4v2c0.3,0,0.6,0,0.8,0v-1.9C300.5,485.5,300.2,485.4,300.1,485.4"/>
		<path class="st16" d="M302.9,468.7c-0.7-0.5-1.6-0.9-2.5-1.2c-0.9,0.3-1.8,0.7-2.5,1.2H302.9"/>
		<path class="st16" d="M300.5,467.4L300.5,467.4c-0.9,0.3-1.8,0.7-2.5,1.2h5C302.2,468.2,301.4,467.8,300.5,467.4L300.5,467.4"/>
		<path class="st16" d="M291.4,467.3c-1.3-0.4-2.6-0.6-5.1-0.6v2c1.3,0,1.7,0,2,0.1h0.1C289.2,468.1,290.2,467.6,291.4,467.3"/>
		<path class="st16" d="M292.4,485.3c-0.4,0-0.8,0.1-1.2,0.1v2c1.9,0,3.5-0.4,4.7-1.1c-0.5-0.3-0.9-0.6-1.2-1H292.4"/>
		<path class="st16" d="M294.7,485.3c0.4,0.4,0.8,0.7,1.2,1c0.5-0.3,0.9-0.6,1.3-1H294.7"/>
		<path class="st16" d="M297.2,485.3h-2.5c0.4,0.4,0.8,0.7,1.2,1C296.4,486,296.9,485.7,297.2,485.3"/>
		<path class="st16" d="M294.2,468.7c-0.9-0.6-1.8-1.1-2.9-1.4c-1.1,0.3-2.1,0.8-3,1.4H294.2"/>
		<path class="st16" d="M291.4,467.3L291.4,467.3c-1.1,0.3-2.1,0.8-3,1.4h5.9C293.4,468.1,292.4,467.6,291.4,467.3L291.4,467.3"/>
		<path class="st16" d="M282.7,485.3c-0.4,0-0.8,0.1-1.2,0.1l0,0c0.3,0,0.5,0,0.8,0v1.9c1.6-0.1,2.9-0.4,3.9-1.1
			c-0.5-0.3-0.9-0.6-1.2-1L282.7,485.3"/>
		<path class="st16" d="M282.2,467.4c-1.4-0.5-2.9-0.8-5.9-0.8v2c1.7,0,2,0,2.4,0.1h1C280.4,468.2,281.2,467.7,282.2,467.4"/>
		<path class="st16" d="M285.2,485.3c0.4,0.4,0.8,0.7,1.2,1c0.5-0.3,0.9-0.6,1.3-1H285.2"/>
		<path class="st16" d="M287.7,485.3h-2.5c0.4,0.4,0.8,0.7,1.2,1C286.9,486,287.2,485.7,287.7,485.3"/>
		<path class="st16" d="M284.5,468.7c-0.7-0.5-1.6-0.9-2.5-1.2c-0.9,0.3-1.8,0.7-2.5,1.2H284.5"/>
		<path class="st16" d="M282.2,467.4L282.2,467.4c-0.9,0.3-1.8,0.7-2.5,1.2h5C283.9,468.2,282.9,467.8,282.2,467.4L282.2,467.4"/>
		<path class="st16" d="M281.7,485.4v2c0.3,0,0.6,0,0.8,0v-1.9C282.2,485.5,281.9,485.4,281.7,485.4"/>
		<path class="st16" d="M281.7,485.4v2c0.3,0,0.6,0,0.8,0v-1.9C282.2,485.5,281.9,485.4,281.7,485.4"/>
		<path class="st39" d="M310.9,471.2v14.1l0,0c0.5,0,0.9-0.1,1.4-0.3c0-0.2,0-0.4,0-0.6C312.4,480.2,312.4,474.9,310.9,471.2"/>
		<path class="st16" d="M309.4,468.7l-0.2-0.3c-1.1-1.2-2.6-1.7-4.3-1.7v2H309.4"/>
		<path class="st16" d="M297.4,471.8c0.9-0.9,1.9-1.7,3.1-2.2c-0.8-0.4-1.7-0.6-2.7-0.8c-0.6,0.4-1.2,0.9-1.7,1.4
			C296.5,470.7,296.9,471.2,297.4,471.8"/>
		<path class="st16" d="M296.1,483.7c-1-1.1-1.4-2.8-1.4-5.2c0-1.7,0.5-3.5,1.4-5c-0.4-0.6-0.8-1.2-1.3-1.7c-1.4,2-2.2,4.4-2.2,6.7
			c0,2.8,0.6,4.9,1.7,6.4C295.1,484.6,295.5,484.2,296.1,483.7"/>
		<path class="st16" d="M297.2,485.3h1.9c-0.6-0.1-1.1-0.2-1.5-0.4C297.5,485,297.4,485.2,297.2,485.3"/>
		<path class="st40" d="M304.9,468.7H303l0.2,0.1l0,0l0,0C303.7,468.7,304.4,468.7,304.9,468.7L304.9,468.7"/>
		<path class="st16" d="M287.7,485.3h1.9c-0.6-0.1-1.1-0.2-1.5-0.4C287.9,485,287.7,485.2,287.7,485.3"/>
		<path class="st16" d="M287.7,471.8c1-1,2.2-1.8,3.6-2.4c-0.9-0.4-1.9-0.6-3-0.7c-0.7,0.5-1.3,1-1.9,1.5
			C286.9,470.7,287.4,471.2,287.7,471.8"/>
		<path class="st16" d="M284.7,484.9c0.7-0.3,1.2-0.7,1.7-1.2c-1-1.1-1.4-2.8-1.4-5.2c0-1.7,0.5-3.5,1.4-5c-0.4-0.6-0.8-1.2-1.3-1.7
			c-1.4,2-2.2,4.4-2.2,6.7C282.9,481.3,283.5,483.4,284.7,484.9"/>
		<path class="st37" d="M294.2,468.7c0.3,0,0.6,0,1,0l0,0H294.2L294.2,468.7"/>
		<polyline class="st40" points="286.4,468.7 284.5,468.7 284.7,468.8 284.7,468.8 284.7,468.8 286.4,468.7 286.4,468.7 		"/>
		<path class="st16" d="M276.2,478.5c0-3.6,2.1-7.2,5.9-8.9c-0.8-0.4-1.7-0.6-2.7-0.8c-3.3,2.3-5.2,6-5.2,9.7c0,3.1,0.7,5.4,2.1,6.9
			h4.4C277.7,484.8,276.2,482.7,276.2,478.5"/>
		<path class="st40" d="M305.4,482.6c-0.8,1.6-2.2,2.5-4.3,2.7h4.8c0.4-0.4,0.7-0.8,0.9-1.2C306.4,483.7,305.9,483.2,305.4,482.6
			 M303.2,468.8L303.2,468.8c-1,0.1-1.9,0.4-2.7,0.8c1.7,0.8,3.1,2,4.1,3.5c0.3-0.7,0.7-1.3,1.1-1.9
			C304.9,470.3,304.2,469.5,303.2,468.8"/>
		<path class="st39" d="M305.7,471.2c-0.4,0.6-0.8,1.2-1.1,1.9c1.1,1.6,1.7,3.5,1.7,5.4c0,1.7-0.2,3.1-0.7,4.2
			c0.4,0.6,0.9,1.1,1.5,1.5c0.8-1.4,1.3-3.3,1.3-5.7C308.2,475.9,307.4,473.3,305.7,471.2"/>
		<path class="st40" d="M297.9,468.7h-1c0.3,0,0.5,0.1,0.8,0.1L297.9,468.7"/>
		<path class="st16" d="M303.2,468.8l-0.2-0.1h-5l-0.2,0.1c1,0.2,1.9,0.4,2.7,0.8C301.4,469.2,302.2,469,303.2,468.8z"/>
		<path class="st40" d="M297.4,471.8L297.4,471.8L297.4,471.8c-0.5,0.5-0.9,1.1-1.3,1.7c0.9,1.5,1.4,3.2,1.4,4.9
			c0,2.4-0.5,4.1-1.4,5.3c0.4,0.5,1,0.9,1.6,1.2c1.2-1.5,1.8-3.6,1.8-6.5C299.4,476.1,298.7,473.8,297.4,471.8"/>
		<path class="st37" d="M288.4,468.7h-0.1H288.4z"/>
		<path class="st40" d="M294.2,468.7L294.2,468.7c-1.1,0.1-2.1,0.3-3,0.7c1.4,0.6,2.5,1.4,3.5,2.4c0.4-0.5,0.8-1.1,1.3-1.6
			C295.5,469.7,294.9,469.2,294.2,468.7"/>
		<path class="st40" d="M294.4,484.9L294.4,484.9L294.4,484.9c-0.6,0.2-1.2,0.4-1.9,0.5h2.3C294.7,485.2,294.4,485,294.4,484.9"/>
		<path class="st16" d="M297.7,484.9c-0.7-0.3-1.2-0.7-1.6-1.2c-0.4,0.5-1,0.9-1.7,1.2c0.1,0.2,0.3,0.3,0.4,0.5h2.5
			C297.4,485.2,297.5,485,297.7,484.9z"/>
		<path class="st16" d="M294.7,471.8c0.5,0.5,0.9,1.1,1.3,1.7c0.4-0.6,0.8-1.2,1.3-1.7c-0.4-0.5-0.8-1.1-1.3-1.6
			C295.5,470.7,295.2,471.2,294.7,471.8z"/>
		<path class="st16" d="M294.2,468.7L294.2,468.7l-6-0.1l0,0c1.1,0.1,2.1,0.4,3,0.7C292.2,469,293.2,468.8,294.2,468.7z"/>
		<path class="st40" d="M284.7,468.8L284.7,468.8c-1,0.1-1.9,0.4-2.7,0.8c1.2,0.5,2.2,1.3,3.1,2.2c0.4-0.5,0.8-1.1,1.3-1.6
			C285.9,469.7,285.4,469.2,284.7,468.8"/>
		<path class="st40" d="M287.7,471.8L287.7,471.8L287.7,471.8c-0.5,0.5-0.9,1.1-1.3,1.7c0.9,1.5,1.4,3.2,1.4,4.9
			c0,2.4-0.5,4.1-1.4,5.3c0.4,0.5,1,0.9,1.6,1.2c1.2-1.5,1.8-3.6,1.8-6.5C289.9,476.1,289.1,473.8,287.7,471.8"/>
		<path class="st40" d="M279.5,468.7h-1c0.3,0,0.5,0.1,0.8,0.1L279.5,468.7"/>
		<path class="st40" d="M284.7,484.9L284.7,484.9L284.7,484.9c-0.6,0.2-1.2,0.4-1.9,0.5h2.3C284.9,485.2,284.9,485,284.7,484.9"/>
		<path class="st16" d="M286.4,483.7c-0.4,0.5-1,0.9-1.7,1.2c0.1,0.2,0.3,0.3,0.4,0.5h2.5c0.1-0.1,0.3-0.3,0.4-0.4
			C287.4,484.6,286.9,484.2,286.4,483.7z"/>
		<path class="st16" d="M285.2,471.8c0.5,0.5,0.9,1.1,1.3,1.7c0.4-0.6,0.8-1.2,1.3-1.7c-0.4-0.5-0.8-1.1-1.3-1.6
			C285.9,470.7,285.5,471.2,285.2,471.8z"/>
		<path class="st16" d="M284.7,468.8l-0.2-0.1h-5l-0.2,0.1c1,0.2,1.9,0.4,2.7,0.8C282.9,469.2,283.9,469,284.7,468.8z"/>
		<path class="st40" d="M310.5,485.3L310.5,485.3L310.5,485.3L310.5,485.3 M309.4,468.7h-4.5l0,0c1,0,1.9,0.3,2.6,0.9
			C308.2,469.2,308.7,468.9,309.4,468.7L309.4,468.7"/>
		<path class="st39" d="M309.5,468.8c-0.7,0.1-1.4,0.4-2,0.8c0.1,0.1,0.2,0.2,0.3,0.3c2.7,2.7,2.6,9.8,2.5,14.5c0,0.3,0,0.6,0,1h0.2
			l0,0c0.1,0,0.3,0,0.4,0v-14.1l0,0C310.5,470.2,310.1,469.4,309.5,468.8"/>
	</g>
	<g>
		<g>
			<g>
				<defs>
					<rect id="SVGID_20_" x="257" y="65" width="64" height="64"/>
				</defs>
				<clipPath id="SVGID_21_">
					<use xlink:href="#SVGID_20_"  style="overflow:visible;"/>
				</clipPath>
				<g class="st41">
					<g>
						<g>
							<path class="st42" d="M257.7,97c11.4,0,18.9-23.3,31.2-23.3S307.8,97,320,97c-12.2,0-19.9,23.3-31.1,23.3S268.8,97,257.7,97z
								"/>
						</g>
					</g>
					<g>
						<path class="st43" d="M259.4,97c0,0,0.5,0,1,0c3,0,3.4,3.2,4.9,3.2c2.3,0,4.1-11.5,5.8-11.6c2.4-0.1,5.2,22.1,7.8,22.1
							c3.2,0,5.6-31.4,9.7-31.6c4.1-0.2,5.6,31.9,9.7,31.6c3.1-0.2,6.8-21.3,8.8-21.1c1.4,0.1,3,8.5,5.8,9.5
							c1.5,0.5,1.9-2.1,4.4-2.1h1.1"/>
					</g>
				</g>
			</g>
		</g>
	</g>
	<g>
		<g>
			<path class="st1" d="M317,359.8V350h-5.5c-1.2,9-11.1,16-23,16s-21.9-7-23-16H260v9.9c0,12.7,12.8,23.1,28.5,23.1
				S317,372.6,317,359.8z"/>
			<path class="st44" d="M317,348.2c0-12.8-12.8-23.2-28.5-23.2S260,335.4,260,348.2c0,12.8,12.8,23.2,28.5,23.2
				C304.2,371.3,317,361,317,348.2z M265.5,350c1.2-9,11.1-16,23-16s21.9,7,23,16c-1.2,9-11.1,16-23,16S266.6,359,265.5,350z"/>
			<path class="st1" d="M288.5,333.9c12,0,21.9,7,23,16c0.1-0.6,0.1-1.2,0.1-1.8c0-9.8-10.4-17.8-23.2-17.8
				c-12.8,0-23.2,8-23.2,17.8c0,0.6,0,1.2,0.1,1.8C266.6,341,276.5,333.9,288.5,333.9z"/>
		</g>
		<g>
			<g>
				<g>
					<defs>
						<path id="SVGID_22_" d="M311.5,350c-1.2,9-11.1,16-23,16s-21.9-7-23-16c1.2-9,11.1-16,23-16S310.3,341,311.5,350z"/>
					</defs>
					<clipPath id="SVGID_23_">
						<use xlink:href="#SVGID_22_"  style="overflow:visible;"/>
					</clipPath>
					<g class="st45">
						<rect x="271" y="315" class="st3" width="3" height="69"/>
						<rect x="277" y="315" class="st3" width="3" height="69"/>
						<g>
							<rect x="265" y="315" class="st3" width="3" height="69"/>
						</g>
						<rect x="283" y="315" class="st3" width="3" height="69"/>
						<rect x="289" y="315" class="st3" width="3" height="69"/>
						<rect x="295" y="315" class="st3" width="3" height="69"/>
						<rect x="301" y="315" class="st3" width="3" height="69"/>
						<g>
							<rect x="307" y="315" class="st3" width="3" height="69"/>
						</g>
					</g>
				</g>
			</g>
		</g>
	</g>
	<g>
		<g>
			<path class="st46" d="M189,358.8V349h-5.5c-1.2,9-11.1,16-23,16s-21.9-7-23-16H132v9.9c0,12.7,12.8,23.1,28.5,23.1
				S189,371.6,189,358.8z"/>
			<path class="st20" d="M189,347.2c0-12.8-12.8-23.2-28.5-23.2S132,334.4,132,347.2c0,12.8,12.8,23.2,28.5,23.2
				C176.2,370.3,189,360,189,347.2z M137.5,349c1.2-9,11.1-16,23-16s21.9,7,23,16c-1.2,9-11.1,16-23,16S138.6,358,137.5,349z"/>
			<path class="st46" d="M160.5,332.9c12,0,21.9,7,23,16c0.1-0.6,0.1-1.2,0.1-1.8c0-9.8-10.4-17.8-23.2-17.8s-23.2,8-23.2,17.8
				c0,0.6,0,1.2,0.1,1.8C138.6,340,148.5,332.9,160.5,332.9z"/>
		</g>
		<g>
			<g>
				<g>
					<defs>
						<path id="SVGID_24_" d="M183.5,349c-1.2,9-11.1,16-23,16s-21.9-7-23-16c1.2-9,11.1-16,23-16S182.3,340,183.5,349z"/>
					</defs>
					<clipPath id="SVGID_25_">
						<use xlink:href="#SVGID_24_"  style="overflow:visible;"/>
					</clipPath>
					<g class="st47">
						<rect x="143" y="314" class="st18" width="3" height="69"/>
						<rect x="149" y="314" class="st18" width="3" height="69"/>
						<g>
							<rect x="137" y="314" class="st18" width="3" height="69"/>
						</g>
						<rect x="155" y="314" class="st18" width="3" height="69"/>
						<rect x="161" y="314" class="st18" width="3" height="69"/>
						<rect x="167" y="314" class="st18" width="3" height="69"/>
						<rect x="173" y="314" class="st18" width="3" height="69"/>
						<g>
							<rect x="179" y="314" class="st18" width="3" height="69"/>
						</g>
					</g>
				</g>
			</g>
		</g>
	</g>
	<g id="Qregular">
		<g>
			<path class="st48" d="M392.5,123.2h-3c0-15.1,15.5-18,15.6-18l0.5,3l-0.2-1.5l0.3,1.5C405.1,108.3,392.5,110.7,392.5,123.2z"/>
			<g>
				<polygon class="st12" points="441.9,86.2 441.6,81.1 437.2,83.9 				"/>
				<polygon class="st12" points="437.7,89 437.4,83.8 433.1,86.7 				"/>
				<polygon class="st12" points="433.6,91.8 433.2,86.6 428.9,89.5 				"/>
				<polygon class="st12" points="429.4,94.5 429.1,89.3 424.7,92.2 				"/>
			</g>
			<g>
				<polygon class="st12" points="428.5,98.4 423.8,100.7 428.1,103.6 				"/>
				<polygon class="st12" points="432.6,101.2 427.9,103.5 432.2,106.4 				"/>
				<polygon class="st12" points="436.7,104.1 432,106.3 436.3,109.2 				"/>
				<polygon class="st12" points="440.9,106.9 436.2,109.1 440.5,112.1 				"/>
			</g>
			<g>
				<g>
					<path id="SVGID_4_" class="st49" d="M418.9,96.7L442.2,81c-5.1-7.4-13.6-12.3-23.2-12.3c-15.5,0-28,12.5-28,28s12.5,28,28,28
						c9.6,0,18.1-4.9,23.2-12.3L418.9,96.7z"/>
				</g>
				<g>
					<g>
						<defs>
							<path id="SVGID_26_" d="M418.9,96.7L442.2,81c-5.1-7.4-13.6-12.3-23.2-12.3c-15.5,0-28,12.5-28,28s12.5,28,28,28
								c9.6,0,18.1-4.9,23.2-12.3L418.9,96.7z"/>
						</defs>
						<clipPath id="SVGID_27_">
							<use xlink:href="#SVGID_26_"  style="overflow:visible;"/>
						</clipPath>
						<path class="st50" d="M397,71.7c0,0-11,48,53,45s-18,20-18,20l-32-7l-13-36v-16L397,71.7z"/>
					</g>
				</g>
				<g>
					<g>
						<defs>
							<path id="SVGID_28_" d="M418.9,96.7L442.2,81c-5.1-7.4-13.6-12.3-23.2-12.3c-15.5,0-28,12.5-28,28s12.5,28,28,28
								c9.6,0,18.1-4.9,23.2-12.3L418.9,96.7z"/>
						</defs>
						<clipPath id="SVGID_29_">
							<use xlink:href="#SVGID_28_"  style="overflow:visible;"/>
						</clipPath>
						<polygon class="st51" points="440,74.7 417,96.7 441,118.7 446,111.7 447,86.7 445,78.7 						"/>
					</g>
				</g>
			</g>
			<g>
				<g>
					<circle class="st52" cx="425" cy="78.7" r="5"/>
				</g>
				<g>
					<circle class="st52" cx="412" cy="99.7" r="3"/>
				</g>
				<g>
					<circle class="st53" cx="398" cy="108.7" r="2"/>
				</g>
				<g>
					<circle class="st52" cx="408" cy="74.7" r="2"/>
				</g>
				<path class="st52" d="M404,86.7c0-2.2-1.8-4-4-4c-1.4,0-2.7,0.8-3.4,1.9c0.2,1.7,0.5,3.5,1,5.3c0.7,0.5,1.5,0.8,2.4,0.8
					C402.2,90.7,404,88.9,404,86.7z"/>
				<path class="st53" d="M396,86.7c0,1.3,0.6,2.5,1.6,3.2c-0.5-1.8-0.8-3.6-1-5.3C396.2,85.2,396,85.9,396,86.7z"/>
				<path class="st52" d="M423,109.7c-2,0-3.8,1.2-4.5,2.9c2.8,1.1,6,2,9.5,2.8c0-0.2,0-0.4,0-0.7C428,111.9,425.8,109.7,423,109.7z
					"/>
				<path class="st53" d="M418,114.7c0,2.8,2.2,5,5,5c2.5,0,4.6-1.9,5-4.3c-3.5-0.7-6.7-1.6-9.5-2.8C418.2,113.2,418,114,418,114.7z
					"/>
			</g>
		</g>
	</g>
	<g id="Qregular_1_">
		<g>
			<g>
				<g>
					<polygon class="st12" points="698.3,90.7 698.2,85.5 693.8,88.2 					"/>
					<polygon class="st12" points="694,93.3 693.9,88.1 689.5,90.7 					"/>
					<polygon class="st12" points="689.7,95.8 689.6,90.6 685.2,93.3 					"/>
				</g>
				<g>
					<polygon class="st12" points="698.3,102.6 698.2,107.8 693.8,105.2 					"/>
					<polygon class="st12" points="694,100.1 693.9,105.3 689.5,102.6 					"/>
					<polygon class="st12" points="689.7,97.5 689.6,102.7 685.2,100 					"/>
				</g>
				<g>
					<polygon class="st12" points="648.2,102.6 648.2,107.8 652.7,105.2 					"/>
					<polygon class="st12" points="652.5,100.1 652.5,105.3 657,102.6 					"/>
					<polygon class="st12" points="656.8,97.5 656.8,102.7 661.3,100 					"/>
				</g>
				<g>
					<polygon class="st12" points="648.2,90.7 648.2,85.5 652.7,88.2 					"/>
					<polygon class="st12" points="652.5,93.3 652.5,88.1 657,90.7 					"/>
					<polygon class="st12" points="656.8,95.8 656.8,90.6 661.3,93.3 					"/>
				</g>
			</g>
			<g>
				<g>
					<polygon class="st12" points="666.8,71.6 661.6,71.7 664.2,76.1 					"/>
					<polygon class="st12" points="669.3,75.9 664.1,76 666.8,80.4 					"/>
					<polygon class="st12" points="671.9,80.2 666.7,80.3 669.4,84.7 					"/>
				</g>
				<g>
					<polygon class="st12" points="678.7,71.6 683.9,71.7 681.2,76.1 					"/>
					<polygon class="st12" points="676.1,75.9 681.3,76 678.7,80.4 					"/>
					<polygon class="st12" points="673.6,80.2 678.8,80.3 676.1,84.7 					"/>
				</g>
				<g>
					<polygon class="st12" points="678.7,121.7 683.9,121.7 681.2,117.2 					"/>
					<polygon class="st12" points="676.1,117.4 681.3,117.4 678.7,112.9 					"/>
					<polygon class="st12" points="673.6,113.1 678.8,113.1 676.1,108.6 					"/>
				</g>
				<g>
					<polygon class="st12" points="666.8,121.7 661.6,121.7 664.2,117.2 					"/>
					<polygon class="st12" points="669.3,117.4 664.1,117.4 666.8,112.9 					"/>
					<polygon class="st12" points="671.9,113.1 666.7,113.1 669.4,108.6 					"/>
				</g>
			</g>
		</g>
		<g>
			<g>
				<path id="SVGID_2_" class="st49" d="M679.3,96.8l19.5-11.5c-2.9-6.4-8.1-11.6-14.6-14.3l-11.4,19.3l-11.2-19
					c-6.3,2.9-11.3,8.1-14,14.5l18.7,11l-18.7,11c2.7,6.4,7.8,11.5,14.1,14.4l11.2-19l11.3,19.4c6.5-2.7,11.7-7.9,14.6-14.3
					L679.3,96.8z"/>
			</g>
			<g>
				<defs>
					<path id="SVGID_30_" d="M679.3,96.8l19.5-11.5c-2.9-6.4-8.1-11.6-14.6-14.3l-11.4,19.3l-11.2-19c-6.3,2.9-11.3,8.1-14,14.5
						l18.7,11l-18.7,11c2.7,6.4,7.8,11.5,14.1,14.4l11.2-19l11.3,19.4c6.5-2.7,11.7-7.9,14.6-14.3L679.3,96.8z"/>
				</defs>
				<clipPath id="SVGID_32_">
					<use xlink:href="#SVGID_30_"  style="overflow:visible;"/>
				</clipPath>
				<g class="st54">
					<polygon class="st55" points="699.3,78.8 678.3,96.8 699.3,114.8 702.3,103.8 702.3,89.8 					"/>
					<polygon class="st55" points="646.3,114.8 667.3,96.8 646.3,78.8 643.3,89.8 643.3,103.8 					"/>
					<polygon class="st55" points="690.8,123.3 672.8,102.3 654.8,123.3 665.8,126.3 679.8,126.3 					"/>
					<polygon class="st55" points="654.8,70.3 672.8,91.3 690.8,70.3 679.8,67.3 665.8,67.3 					"/>
				</g>
			</g>
			<g>
				<defs>
					<path id="SVGID_33_" d="M679.3,96.8l19.5-11.5c-2.9-6.4-8.1-11.6-14.6-14.3l-11.4,19.3l-11.2-19c-6.3,2.9-11.3,8.1-14,14.5
						l18.7,11l-18.7,11c2.7,6.4,7.8,11.5,14.1,14.4l11.2-19l11.3,19.4c6.5-2.7,11.7-7.9,14.6-14.3L679.3,96.8z"/>
				</defs>
				<clipPath id="SVGID_34_">
					<use xlink:href="#SVGID_33_"  style="overflow:visible;"/>
				</clipPath>
				<path class="st56" d="M652.3,71.8c0,0-11,48,53,45s-18,20-18,20l-32-7l-13-36v-16L652.3,71.8z"/>
			</g>
		</g>
		<g class="st57">
			<g>
				<circle class="st58" cx="686.3" cy="77.8" r="5"/>
			</g>
			<g>
				<circle class="st58" cx="660.3" cy="84.8" r="4"/>
			</g>
			<g>
				<circle class="st58" cx="672.3" cy="97.8" r="3"/>
			</g>
			<g>
				<circle class="st58" cx="685.3" cy="111.8" r="5"/>
			</g>
			<g>
				<circle class="st58" cx="658.3" cy="106.8" r="2"/>
			</g>
			<g>
				<circle class="st58" cx="681.3" cy="88.8" r="2"/>
			</g>
		</g>
	</g>
</g>
</svg>
