<?xml version="1.0" encoding="utf-8"?>
<!-- Generator: Adobe Illustrator 23.0.3, SVG Export Plug-In . SVG Version: 6.00 Build 0)  -->
<svg version="1.1" id="Layer_1" xmlns="http://www.w3.org/2000/svg" xmlns:xlink="http://www.w3.org/1999/xlink" x="0px" y="0px"
	 viewBox="0 0 64 64" style="enable-background:new 0 0 64 64;" xml:space="preserve">
<style type="text/css">
	.st0{fill:#120223;}
	.st1{fill:#44375E;}
	.st2{fill:#615777;}
	.st3{fill:#2F2549;}
	.st4{clip-path:url(#SVGID_2_);}
	.st5{fill:#FFFFFF;}
	.st6{fill:#5C00D3;}
	.st7{clip-path:url(#SVGID_4_);}
	.st8{opacity:0.2;fill:#FFFFFF;enable-background:new    ;}
	.st9{opacity:0.35;fill:none;stroke:#FFFFFF;stroke-miterlimit:10;enable-background:new    ;}
</style>
<g id="Layer_10">
	<g>
		<g>
			<polygon class="st0" points="11,54 14,57 54,57 56,57 57.32,54 33,52 			"/>
			<g>
				<path class="st1" d="M11.03,53.66l-7.27-10.5c-0.51-0.73-0.68-1.65-0.47-2.51l5.96-20.48C10.84,13.61,16.71,11,23.44,11l10.94,1
					c0.99,0,1.93,0.47,2.52,1.27L43.96,20c1.58,2.15,4.38,4.43,6.92,5.23l3.87,2.46c2.57,0.8,4.46,3,4.86,5.67l2.2,10.67
					c0.1,0.63-0.01,1.28-0.29,1.86l-3.7,7.39C57.3,54.33,56.22,55,55.04,55H13.6C12.58,55,11.62,54.5,11.03,53.66z"/>
				<path class="st2" d="M37.28,13.63c-4.43-0.51-13.16-1.05-16.81,1.87c-4.21,3.36-7.5,23.5-7.5,25.5c0,1.66,2.76,10.93,3.7,14
					H13.6c-1.02,0-1.98-0.5-2.56-1.34L3.77,43.15c-0.51-0.73-0.68-1.65-0.47-2.51l5.96-20.49C10.84,13.61,16.71,11,23.45,11l10.94,1
					c0.99,0,1.93,0.47,2.51,1.27L37.28,13.63z"/>
				<path class="st3" d="M61.53,45.88l-3.7,7.4C57.3,54.33,56.22,55,55.04,55H27.57c7.89-1.13,17.98-2.5,20.9-2.5
					c5,0,6.5-5.09,6.5-6.5c0-2,0-7-2-9s-5.5-1.5-10.5-2.5s-7-11-6-13c0.67-1.34,2.68-3.57,3.93-4.9l14.37,11.09
					c2.57,0.8,4.45,3,4.85,5.67l2.2,10.66C61.91,44.66,61.82,45.31,61.53,45.88z"/>
				<g>
					<g>
						<defs>
							<polygon id="SVGID_1_" points="46.97,29 10.97,29 12.17,37.94 46.97,37.94 							"/>
						</defs>
						<clipPath id="SVGID_2_">
							<use xlink:href="#SVGID_1_"  style="overflow:visible;"/>
						</clipPath>
						<g class="st4">
							<circle class="st5" cx="19.78" cy="30.33" r="6.53"/>
							<circle class="st0" cx="19.78" cy="30.33" r="3.26"/>
							<circle class="st5" cx="38.27" cy="30.33" r="6.53"/>
							<circle class="st0" cx="38.27" cy="30.33" r="3.26"/>
							<circle class="st6" cx="19.78" cy="30.33" r="1.28"/>
							<circle class="st6" cx="38.52" cy="30.33" r="1.28"/>
						</g>
					</g>
				</g>
			</g>
		</g>
		<g>
			<g>
				<defs>
					<rect id="SVGID_3_" x="9.88" y="21" width="36" height="8"/>
				</defs>
				<clipPath id="SVGID_4_">
					<use xlink:href="#SVGID_3_"  style="overflow:visible;"/>
				</clipPath>
				<g class="st7">
					<circle class="st8" cx="19.78" cy="30.33" r="6.53"/>
					<circle class="st8" cx="38.27" cy="30.33" r="6.53"/>
				</g>
			</g>
		</g>
		<path class="st9" d="M12.38,19.5c0,0,2-5,7-6"/>
	</g>
</g>
</svg>
